<?xml version="1.0" encoding="utf-8" standalone="no"?>
<!DOCTYPE svg PUBLIC "-//W3C//DTD SVG 1.1//EN"
  "http://www.w3.org/Graphics/SVG/1.1/DTD/svg11.dtd">
<svg xmlns:xlink="http://www.w3.org/1999/xlink" width="453.233125pt" height="375.766125pt" viewBox="0 0 453.233125 375.766125" xmlns="http://www.w3.org/2000/svg" version="1.1">
 <metadata>
  <rdf:RDF xmlns:dc="http://purl.org/dc/elements/1.1/" xmlns:cc="http://creativecommons.org/ns#" xmlns:rdf="http://www.w3.org/1999/02/22-rdf-syntax-ns#">
   <cc:Work>
    <dc:type rdf:resource="http://purl.org/dc/dcmitype/StillImage"/>
    <dc:date>2024-09-13T18:49:13.722982</dc:date>
    <dc:format>image/svg+xml</dc:format>
    <dc:creator>
     <cc:Agent>
      <dc:title>Matplotlib v3.9.1, https://matplotlib.org/</dc:title>
     </cc:Agent>
    </dc:creator>
   </cc:Work>
  </rdf:RDF>
 </metadata>
 <defs>
  <style type="text/css">*{stroke-linejoin: round; stroke-linecap: butt}</style>
 </defs>
 <g id="figure_1">
  <g id="patch_1">
   <path d="M 0 375.766125 
L 453.233125 375.766125 
L 453.233125 -0 
L 0 -0 
z
" style="fill: #ffffff"/>
  </g>
  <g id="axes_1">
   <g id="patch_2">
    <path d="M 40.603125 165.583625 
L 221.033125 165.583625 
L 221.033125 51.11925 
L 40.603125 51.11925 
z
" style="fill: #ffffff"/>
   </g>
   <g id="patch_3">
    <path d="M 42.482604 165.583625 
L 46.241563 165.583625 
L 46.241563 106.384019 
L 42.482604 106.384019 
z
" clip-path="url(#p89478e60a4)" style="fill: #1f77b4"/>
   </g>
   <g id="patch_4">
    <path d="M 50.000521 165.583625 
L 53.759479 165.583625 
L 53.759479 113.377036 
L 50.000521 113.377036 
z
" clip-path="url(#p89478e60a4)" style="fill: #1f77b4"/>
   </g>
   <g id="patch_5">
    <path d="M 57.518438 165.583625 
L 61.277396 165.583625 
L 61.277396 112.591437 
L 57.518438 112.591437 
z
" clip-path="url(#p89478e60a4)" style="fill: #1f77b4"/>
   </g>
   <g id="patch_6">
    <path d="M 65.036354 165.583625 
L 68.795313 165.583625 
L 68.795313 112.151026 
L 65.036354 112.151026 
z
" clip-path="url(#p89478e60a4)" style="fill: #1f77b4"/>
   </g>
   <g id="patch_7">
    <path d="M 72.554271 165.583625 
L 76.313229 165.583625 
L 76.313229 111.407088 
L 72.554271 111.407088 
z
" clip-path="url(#p89478e60a4)" style="fill: #1f77b4"/>
   </g>
   <g id="patch_8">
    <path d="M 80.072188 165.583625 
L 83.831146 165.583625 
L 83.831146 110.966677 
L 80.072188 110.966677 
z
" clip-path="url(#p89478e60a4)" style="fill: #1f77b4"/>
   </g>
   <g id="patch_9">
    <path d="M 87.590104 165.583625 
L 91.349063 165.583625 
L 91.349063 112.24625 
L 87.590104 112.24625 
z
" clip-path="url(#p89478e60a4)" style="fill: #1f77b4"/>
   </g>
   <g id="patch_10">
    <path d="M 95.108021 165.583625 
L 98.866979 165.583625 
L 98.866979 111.764178 
L 95.108021 111.764178 
z
" clip-path="url(#p89478e60a4)" style="fill: #1f77b4"/>
   </g>
   <g id="patch_11">
    <path d="M 102.625937 165.583625 
L 106.384896 165.583625 
L 106.384896 110.389381 
L 102.625937 110.389381 
z
" clip-path="url(#p89478e60a4)" style="fill: #1f77b4"/>
   </g>
   <g id="patch_12">
    <path d="M 110.143854 165.583625 
L 113.902813 165.583625 
L 113.902813 110.198933 
L 110.143854 110.198933 
z
" clip-path="url(#p89478e60a4)" style="fill: #1f77b4"/>
   </g>
   <g id="patch_13">
    <path d="M 117.661771 165.583625 
L 121.420729 165.583625 
L 121.420729 123.935003 
L 117.661771 123.935003 
z
" clip-path="url(#p89478e60a4)" style="fill: #1f77b4"/>
   </g>
   <g id="patch_14">
    <path d="M 125.179688 165.583625 
L 128.938646 165.583625 
L 128.938646 130.564978 
L 125.179688 130.564978 
z
" clip-path="url(#p89478e60a4)" style="fill: #1f77b4"/>
   </g>
   <g id="patch_15">
    <path d="M 132.697604 165.583625 
L 136.456563 165.583625 
L 136.456563 125.119352 
L 132.697604 125.119352 
z
" clip-path="url(#p89478e60a4)" style="fill: #1f77b4"/>
   </g>
   <g id="patch_16">
    <path d="M 140.215521 165.583625 
L 143.974479 165.583625 
L 143.974479 128.547418 
L 140.215521 128.547418 
z
" clip-path="url(#p89478e60a4)" style="fill: #1f77b4"/>
   </g>
   <g id="patch_17">
    <path d="M 147.733438 165.583625 
L 151.492396 165.583625 
L 151.492396 132.231399 
L 147.733438 132.231399 
z
" clip-path="url(#p89478e60a4)" style="fill: #1f77b4"/>
   </g>
   <g id="patch_18">
    <path d="M 155.251354 165.583625 
L 159.010312 165.583625 
L 159.010312 138.641168 
L 155.251354 138.641168 
z
" clip-path="url(#p89478e60a4)" style="fill: #1f77b4"/>
   </g>
   <g id="patch_19">
    <path d="M 162.769271 165.583625 
L 166.528229 165.583625 
L 166.528229 141.485987 
L 162.769271 141.485987 
z
" clip-path="url(#p89478e60a4)" style="fill: #1f77b4"/>
   </g>
   <g id="patch_20">
    <path d="M 170.287187 165.583625 
L 174.046146 165.583625 
L 174.046146 143.51545 
L 170.287187 143.51545 
z
" clip-path="url(#p89478e60a4)" style="fill: #1f77b4"/>
   </g>
   <g id="patch_21">
    <path d="M 177.805104 165.583625 
L 181.564063 165.583625 
L 181.564063 125.5062 
L 177.805104 125.5062 
z
" clip-path="url(#p89478e60a4)" style="fill: #1f77b4"/>
   </g>
   <g id="patch_22">
    <path d="M 185.323021 165.583625 
L 189.081979 165.583625 
L 189.081979 161.09024 
L 185.323021 161.09024 
z
" clip-path="url(#p89478e60a4)" style="fill: #1f77b4"/>
   </g>
   <g id="patch_23">
    <path d="M 192.840937 165.583625 
L 196.599896 165.583625 
L 196.599896 165.583625 
L 192.840937 165.583625 
z
" clip-path="url(#p89478e60a4)" style="fill: #1f77b4"/>
   </g>
   <g id="patch_24">
    <path d="M 200.358854 165.583625 
L 204.117813 165.583625 
L 204.117813 165.583625 
L 200.358854 165.583625 
z
" clip-path="url(#p89478e60a4)" style="fill: #1f77b4"/>
   </g>
   <g id="patch_25">
    <path d="M 207.876771 165.583625 
L 211.635729 165.583625 
L 211.635729 165.583625 
L 207.876771 165.583625 
z
" clip-path="url(#p89478e60a4)" style="fill: #1f77b4"/>
   </g>
   <g id="patch_26">
    <path d="M 215.394688 165.583625 
L 219.153646 165.583625 
L 219.153646 165.583625 
L 215.394688 165.583625 
z
" clip-path="url(#p89478e60a4)" style="fill: #1f77b4"/>
   </g>
   <g id="patch_27">
    <path d="M 42.482604 106.384019 
L 46.241563 106.384019 
L 46.241563 85.404969 
L 42.482604 85.404969 
z
" clip-path="url(#p89478e60a4)" style="fill: #ff7f0e"/>
   </g>
   <g id="patch_28">
    <path d="M 50.000521 165.583625 
L 53.759479 165.583625 
L 53.759479 165.583625 
L 50.000521 165.583625 
z
" clip-path="url(#p89478e60a4)" style="fill: #ff7f0e"/>
   </g>
   <g id="patch_29">
    <path d="M 57.518438 112.591437 
L 61.277396 112.591437 
L 61.277396 106.026929 
L 57.518438 106.026929 
z
" clip-path="url(#p89478e60a4)" style="fill: #ff7f0e"/>
   </g>
   <g id="patch_30">
    <path d="M 65.036354 165.583625 
L 68.795313 165.583625 
L 68.795313 165.583625 
L 65.036354 165.583625 
z
" clip-path="url(#p89478e60a4)" style="fill: #ff7f0e"/>
   </g>
   <g id="patch_31">
    <path d="M 72.554271 111.407088 
L 76.313229 111.407088 
L 76.313229 104.84258 
L 72.554271 104.84258 
z
" clip-path="url(#p89478e60a4)" style="fill: #ff7f0e"/>
   </g>
   <g id="patch_32">
    <path d="M 80.072188 110.966677 
L 83.831146 110.966677 
L 83.831146 106.503049 
L 80.072188 106.503049 
z
" clip-path="url(#p89478e60a4)" style="fill: #ff7f0e"/>
   </g>
   <g id="patch_33">
    <path d="M 87.590104 112.24625 
L 91.349063 112.24625 
L 91.349063 88.785423 
L 87.590104 88.785423 
z
" clip-path="url(#p89478e60a4)" style="fill: #ff7f0e"/>
   </g>
   <g id="patch_34">
    <path d="M 95.108021 165.583625 
L 98.866979 165.583625 
L 98.866979 165.583625 
L 95.108021 165.583625 
z
" clip-path="url(#p89478e60a4)" style="fill: #ff7f0e"/>
   </g>
   <g id="patch_35">
    <path d="M 102.625937 110.389381 
L 106.384896 110.389381 
L 106.384896 103.824873 
L 102.625937 103.824873 
z
" clip-path="url(#p89478e60a4)" style="fill: #ff7f0e"/>
   </g>
   <g id="patch_36">
    <path d="M 110.143854 110.198933 
L 113.902813 110.198933 
L 113.902813 103.467782 
L 110.143854 103.467782 
z
" clip-path="url(#p89478e60a4)" style="fill: #ff7f0e"/>
   </g>
   <g id="patch_37">
    <path d="M 117.661771 123.935003 
L 121.420729 123.935003 
L 121.420729 117.287174 
L 117.661771 117.287174 
z
" clip-path="url(#p89478e60a4)" style="fill: #ff7f0e"/>
   </g>
   <g id="patch_38">
    <path d="M 125.179688 130.564978 
L 128.938646 130.564978 
L 128.938646 124.00047 
L 125.179688 124.00047 
z
" clip-path="url(#p89478e60a4)" style="fill: #ff7f0e"/>
   </g>
   <g id="patch_39">
    <path d="M 132.697604 165.583625 
L 136.456563 165.583625 
L 136.456563 165.583625 
L 132.697604 165.583625 
z
" clip-path="url(#p89478e60a4)" style="fill: #ff7f0e"/>
   </g>
   <g id="patch_40">
    <path d="M 140.215521 128.547418 
L 143.974479 128.547418 
L 143.974479 121.98291 
L 140.215521 121.98291 
z
" clip-path="url(#p89478e60a4)" style="fill: #ff7f0e"/>
   </g>
   <g id="patch_41">
    <path d="M 147.733438 165.583625 
L 151.492396 165.583625 
L 151.492396 165.583625 
L 147.733438 165.583625 
z
" clip-path="url(#p89478e60a4)" style="fill: #ff7f0e"/>
   </g>
   <g id="patch_42">
    <path d="M 155.251354 138.641168 
L 159.010312 138.641168 
L 159.010312 132.07666 
L 155.251354 132.07666 
z
" clip-path="url(#p89478e60a4)" style="fill: #ff7f0e"/>
   </g>
   <g id="patch_43">
    <path d="M 162.769271 165.583625 
L 166.528229 165.583625 
L 166.528229 165.583625 
L 162.769271 165.583625 
z
" clip-path="url(#p89478e60a4)" style="fill: #ff7f0e"/>
   </g>
   <g id="patch_44">
    <path d="M 170.287187 143.51545 
L 174.046146 143.51545 
L 174.046146 136.950941 
L 170.287187 136.950941 
z
" clip-path="url(#p89478e60a4)" style="fill: #ff7f0e"/>
   </g>
   <g id="patch_45">
    <path d="M 177.805104 165.583625 
L 181.564063 165.583625 
L 181.564063 165.583625 
L 177.805104 165.583625 
z
" clip-path="url(#p89478e60a4)" style="fill: #ff7f0e"/>
   </g>
   <g id="patch_46">
    <path d="M 185.323021 161.09024 
L 189.081979 161.09024 
L 189.081979 154.525731 
L 185.323021 154.525731 
z
" clip-path="url(#p89478e60a4)" style="fill: #ff7f0e"/>
   </g>
   <g id="patch_47">
    <path d="M 192.840937 165.583625 
L 196.599896 165.583625 
L 196.599896 165.583625 
L 192.840937 165.583625 
z
" clip-path="url(#p89478e60a4)" style="fill: #ff7f0e"/>
   </g>
   <g id="patch_48">
    <path d="M 200.358854 165.583625 
L 204.117813 165.583625 
L 204.117813 159.013165 
L 200.358854 159.013165 
z
" clip-path="url(#p89478e60a4)" style="fill: #ff7f0e"/>
   </g>
   <g id="patch_49">
    <path d="M 207.876771 165.583625 
L 211.635729 165.583625 
L 211.635729 144.324854 
L 207.876771 144.324854 
z
" clip-path="url(#p89478e60a4)" style="fill: #ff7f0e"/>
   </g>
   <g id="patch_50">
    <path d="M 215.394688 165.583625 
L 219.153646 165.583625 
L 219.153646 159.019117 
L 215.394688 159.019117 
z
" clip-path="url(#p89478e60a4)" style="fill: #ff7f0e"/>
   </g>
   <g id="patch_51">
    <path d="M 42.482604 165.583625 
L 46.241563 165.583625 
L 46.241563 165.583625 
L 42.482604 165.583625 
z
" clip-path="url(#p89478e60a4)" style="fill: #2ca02c"/>
   </g>
   <g id="patch_52">
    <path d="M 50.000521 165.583625 
L 53.759479 165.583625 
L 53.759479 165.583625 
L 50.000521 165.583625 
z
" clip-path="url(#p89478e60a4)" style="fill: #2ca02c"/>
   </g>
   <g id="patch_53">
    <path d="M 57.518438 165.583625 
L 61.277396 165.583625 
L 61.277396 165.583625 
L 57.518438 165.583625 
z
" clip-path="url(#p89478e60a4)" style="fill: #2ca02c"/>
   </g>
   <g id="patch_54">
    <path d="M 65.036354 165.583625 
L 68.795313 165.583625 
L 68.795313 165.583625 
L 65.036354 165.583625 
z
" clip-path="url(#p89478e60a4)" style="fill: #2ca02c"/>
   </g>
   <g id="patch_55">
    <path d="M 72.554271 165.583625 
L 76.313229 165.583625 
L 76.313229 165.583625 
L 72.554271 165.583625 
z
" clip-path="url(#p89478e60a4)" style="fill: #2ca02c"/>
   </g>
   <g id="patch_56">
    <path d="M 80.072188 165.583625 
L 83.831146 165.583625 
L 83.831146 165.583625 
L 80.072188 165.583625 
z
" clip-path="url(#p89478e60a4)" style="fill: #2ca02c"/>
   </g>
   <g id="patch_57">
    <path d="M 87.590104 165.583625 
L 91.349063 165.583625 
L 91.349063 165.583625 
L 87.590104 165.583625 
z
" clip-path="url(#p89478e60a4)" style="fill: #2ca02c"/>
   </g>
   <g id="patch_58">
    <path d="M 95.108021 165.583625 
L 98.866979 165.583625 
L 98.866979 165.583625 
L 95.108021 165.583625 
z
" clip-path="url(#p89478e60a4)" style="fill: #2ca02c"/>
   </g>
   <g id="patch_59">
    <path d="M 102.625937 165.583625 
L 106.384896 165.583625 
L 106.384896 165.583625 
L 102.625937 165.583625 
z
" clip-path="url(#p89478e60a4)" style="fill: #2ca02c"/>
   </g>
   <g id="patch_60">
    <path d="M 110.143854 165.583625 
L 113.902813 165.583625 
L 113.902813 165.583625 
L 110.143854 165.583625 
z
" clip-path="url(#p89478e60a4)" style="fill: #2ca02c"/>
   </g>
   <g id="patch_61">
    <path d="M 117.661771 165.583625 
L 121.420729 165.583625 
L 121.420729 165.583625 
L 117.661771 165.583625 
z
" clip-path="url(#p89478e60a4)" style="fill: #2ca02c"/>
   </g>
   <g id="patch_62">
    <path d="M 125.179688 165.583625 
L 128.938646 165.583625 
L 128.938646 165.583625 
L 125.179688 165.583625 
z
" clip-path="url(#p89478e60a4)" style="fill: #2ca02c"/>
   </g>
   <g id="patch_63">
    <path d="M 132.697604 165.583625 
L 136.456563 165.583625 
L 136.456563 165.583625 
L 132.697604 165.583625 
z
" clip-path="url(#p89478e60a4)" style="fill: #2ca02c"/>
   </g>
   <g id="patch_64">
    <path d="M 140.215521 165.583625 
L 143.974479 165.583625 
L 143.974479 165.583625 
L 140.215521 165.583625 
z
" clip-path="url(#p89478e60a4)" style="fill: #2ca02c"/>
   </g>
   <g id="patch_65">
    <path d="M 147.733438 165.583625 
L 151.492396 165.583625 
L 151.492396 165.583625 
L 147.733438 165.583625 
z
" clip-path="url(#p89478e60a4)" style="fill: #2ca02c"/>
   </g>
   <g id="patch_66">
    <path d="M 155.251354 165.583625 
L 159.010312 165.583625 
L 159.010312 165.583625 
L 155.251354 165.583625 
z
" clip-path="url(#p89478e60a4)" style="fill: #2ca02c"/>
   </g>
   <g id="patch_67">
    <path d="M 162.769271 165.583625 
L 166.528229 165.583625 
L 166.528229 165.583625 
L 162.769271 165.583625 
z
" clip-path="url(#p89478e60a4)" style="fill: #2ca02c"/>
   </g>
   <g id="patch_68">
    <path d="M 170.287187 165.583625 
L 174.046146 165.583625 
L 174.046146 165.583625 
L 170.287187 165.583625 
z
" clip-path="url(#p89478e60a4)" style="fill: #2ca02c"/>
   </g>
   <g id="patch_69">
    <path d="M 177.805104 165.583625 
L 181.564063 165.583625 
L 181.564063 165.583625 
L 177.805104 165.583625 
z
" clip-path="url(#p89478e60a4)" style="fill: #2ca02c"/>
   </g>
   <g id="patch_70">
    <path d="M 185.323021 154.525731 
L 189.081979 154.525731 
L 189.081979 112.139123 
L 185.323021 112.139123 
z
" clip-path="url(#p89478e60a4)" style="fill: #2ca02c"/>
   </g>
   <g id="patch_71">
    <path d="M 192.840937 165.583625 
L 196.599896 165.583625 
L 196.599896 77.828705 
L 192.840937 77.828705 
z
" clip-path="url(#p89478e60a4)" style="fill: #2ca02c"/>
   </g>
   <g id="patch_72">
    <path d="M 200.358854 159.013165 
L 204.117813 159.013165 
L 204.117813 71.258245 
L 200.358854 71.258245 
z
" clip-path="url(#p89478e60a4)" style="fill: #2ca02c"/>
   </g>
   <g id="patch_73">
    <path d="M 207.876771 144.324854 
L 211.635729 144.324854 
L 211.635729 56.569935 
L 207.876771 56.569935 
z
" clip-path="url(#p89478e60a4)" style="fill: #2ca02c"/>
   </g>
   <g id="patch_74">
    <path d="M 215.394688 159.019117 
L 219.153646 159.019117 
L 219.153646 71.264197 
L 215.394688 71.264197 
z
" clip-path="url(#p89478e60a4)" style="fill: #2ca02c"/>
   </g>
   <g id="matplotlib.axis_1">
    <g id="text_1">
     <!-- Time of Day -->
     <g transform="translate(100.713438 177.182063) scale(0.1 -0.1)">
      <defs>
       <path id="DejaVuSans-54" d="M -19 4666 
L 3928 4666 
L 3928 4134 
L 2272 4134 
L 2272 0 
L 1638 0 
L 1638 4134 
L -19 4134 
L -19 4666 
z
" transform="scale(0.015625)"/>
       <path id="DejaVuSans-69" d="M 603 3500 
L 1178 3500 
L 1178 0 
L 603 0 
L 603 3500 
z
M 603 4863 
L 1178 4863 
L 1178 4134 
L 603 4134 
L 603 4863 
z
" transform="scale(0.015625)"/>
       <path id="DejaVuSans-6d" d="M 3328 2828 
Q 3544 3216 3844 3400 
Q 4144 3584 4550 3584 
Q 5097 3584 5394 3201 
Q 5691 2819 5691 2113 
L 5691 0 
L 5113 0 
L 5113 2094 
Q 5113 2597 4934 2840 
Q 4756 3084 4391 3084 
Q 3944 3084 3684 2787 
Q 3425 2491 3425 1978 
L 3425 0 
L 2847 0 
L 2847 2094 
Q 2847 2600 2669 2842 
Q 2491 3084 2119 3084 
Q 1678 3084 1418 2786 
Q 1159 2488 1159 1978 
L 1159 0 
L 581 0 
L 581 3500 
L 1159 3500 
L 1159 2956 
Q 1356 3278 1631 3431 
Q 1906 3584 2284 3584 
Q 2666 3584 2933 3390 
Q 3200 3197 3328 2828 
z
" transform="scale(0.015625)"/>
       <path id="DejaVuSans-65" d="M 3597 1894 
L 3597 1613 
L 953 1613 
Q 991 1019 1311 708 
Q 1631 397 2203 397 
Q 2534 397 2845 478 
Q 3156 559 3463 722 
L 3463 178 
Q 3153 47 2828 -22 
Q 2503 -91 2169 -91 
Q 1331 -91 842 396 
Q 353 884 353 1716 
Q 353 2575 817 3079 
Q 1281 3584 2069 3584 
Q 2775 3584 3186 3129 
Q 3597 2675 3597 1894 
z
M 3022 2063 
Q 3016 2534 2758 2815 
Q 2500 3097 2075 3097 
Q 1594 3097 1305 2825 
Q 1016 2553 972 2059 
L 3022 2063 
z
" transform="scale(0.015625)"/>
       <path id="DejaVuSans-20" transform="scale(0.015625)"/>
       <path id="DejaVuSans-6f" d="M 1959 3097 
Q 1497 3097 1228 2736 
Q 959 2375 959 1747 
Q 959 1119 1226 758 
Q 1494 397 1959 397 
Q 2419 397 2687 759 
Q 2956 1122 2956 1747 
Q 2956 2369 2687 2733 
Q 2419 3097 1959 3097 
z
M 1959 3584 
Q 2709 3584 3137 3096 
Q 3566 2609 3566 1747 
Q 3566 888 3137 398 
Q 2709 -91 1959 -91 
Q 1206 -91 779 398 
Q 353 888 353 1747 
Q 353 2609 779 3096 
Q 1206 3584 1959 3584 
z
" transform="scale(0.015625)"/>
       <path id="DejaVuSans-66" d="M 2375 4863 
L 2375 4384 
L 1825 4384 
Q 1516 4384 1395 4259 
Q 1275 4134 1275 3809 
L 1275 3500 
L 2222 3500 
L 2222 3053 
L 1275 3053 
L 1275 0 
L 697 0 
L 697 3053 
L 147 3053 
L 147 3500 
L 697 3500 
L 697 3744 
Q 697 4328 969 4595 
Q 1241 4863 1831 4863 
L 2375 4863 
z
" transform="scale(0.015625)"/>
       <path id="DejaVuSans-44" d="M 1259 4147 
L 1259 519 
L 2022 519 
Q 2988 519 3436 956 
Q 3884 1394 3884 2338 
Q 3884 3275 3436 3711 
Q 2988 4147 2022 4147 
L 1259 4147 
z
M 628 4666 
L 1925 4666 
Q 3281 4666 3915 4102 
Q 4550 3538 4550 2338 
Q 4550 1131 3912 565 
Q 3275 0 1925 0 
L 628 0 
L 628 4666 
z
" transform="scale(0.015625)"/>
       <path id="DejaVuSans-61" d="M 2194 1759 
Q 1497 1759 1228 1600 
Q 959 1441 959 1056 
Q 959 750 1161 570 
Q 1363 391 1709 391 
Q 2188 391 2477 730 
Q 2766 1069 2766 1631 
L 2766 1759 
L 2194 1759 
z
M 3341 1997 
L 3341 0 
L 2766 0 
L 2766 531 
Q 2569 213 2275 61 
Q 1981 -91 1556 -91 
Q 1019 -91 701 211 
Q 384 513 384 1019 
Q 384 1609 779 1909 
Q 1175 2209 1959 2209 
L 2766 2209 
L 2766 2266 
Q 2766 2663 2505 2880 
Q 2244 3097 1772 3097 
Q 1472 3097 1187 3025 
Q 903 2953 641 2809 
L 641 3341 
Q 956 3463 1253 3523 
Q 1550 3584 1831 3584 
Q 2591 3584 2966 3190 
Q 3341 2797 3341 1997 
z
" transform="scale(0.015625)"/>
       <path id="DejaVuSans-79" d="M 2059 -325 
Q 1816 -950 1584 -1140 
Q 1353 -1331 966 -1331 
L 506 -1331 
L 506 -850 
L 844 -850 
Q 1081 -850 1212 -737 
Q 1344 -625 1503 -206 
L 1606 56 
L 191 3500 
L 800 3500 
L 1894 763 
L 2988 3500 
L 3597 3500 
L 2059 -325 
z
" transform="scale(0.015625)"/>
      </defs>
      <use xlink:href="#DejaVuSans-54"/>
      <use xlink:href="#DejaVuSans-69" x="57.958984"/>
      <use xlink:href="#DejaVuSans-6d" x="85.742188"/>
      <use xlink:href="#DejaVuSans-65" x="183.154297"/>
      <use xlink:href="#DejaVuSans-20" x="244.677734"/>
      <use xlink:href="#DejaVuSans-6f" x="276.464844"/>
      <use xlink:href="#DejaVuSans-66" x="337.646484"/>
      <use xlink:href="#DejaVuSans-20" x="372.851562"/>
      <use xlink:href="#DejaVuSans-44" x="404.638672"/>
      <use xlink:href="#DejaVuSans-61" x="481.640625"/>
      <use xlink:href="#DejaVuSans-79" x="542.919922"/>
     </g>
    </g>
   </g>
   <g id="matplotlib.axis_2">
    <g id="ytick_1">
     <g id="line2d_1">
      <defs>
       <path id="md725e7ec57" d="M 0 0 
L -3.5 0 
" style="stroke: #000000; stroke-width: 0.8"/>
      </defs>
      <g>
       <use xlink:href="#md725e7ec57" x="40.603125" y="165.583625" style="stroke: #000000; stroke-width: 0.8"/>
      </g>
     </g>
     <g id="text_2">
      <!-- 0 -->
      <g transform="translate(27.240625 169.382844) scale(0.1 -0.1)">
       <defs>
        <path id="DejaVuSans-30" d="M 2034 4250 
Q 1547 4250 1301 3770 
Q 1056 3291 1056 2328 
Q 1056 1369 1301 889 
Q 1547 409 2034 409 
Q 2525 409 2770 889 
Q 3016 1369 3016 2328 
Q 3016 3291 2770 3770 
Q 2525 4250 2034 4250 
z
M 2034 4750 
Q 2819 4750 3233 4129 
Q 3647 3509 3647 2328 
Q 3647 1150 3233 529 
Q 2819 -91 2034 -91 
Q 1250 -91 836 529 
Q 422 1150 422 2328 
Q 422 3509 836 4129 
Q 1250 4750 2034 4750 
z
" transform="scale(0.015625)"/>
       </defs>
       <use xlink:href="#DejaVuSans-30"/>
      </g>
     </g>
    </g>
    <g id="ytick_2">
     <g id="line2d_2">
      <g>
       <use xlink:href="#md725e7ec57" x="40.603125" y="135.826107" style="stroke: #000000; stroke-width: 0.8"/>
      </g>
     </g>
     <g id="text_3">
      <!-- 5 -->
      <g transform="translate(27.240625 139.625326) scale(0.1 -0.1)">
       <defs>
        <path id="DejaVuSans-35" d="M 691 4666 
L 3169 4666 
L 3169 4134 
L 1269 4134 
L 1269 2991 
Q 1406 3038 1543 3061 
Q 1681 3084 1819 3084 
Q 2600 3084 3056 2656 
Q 3513 2228 3513 1497 
Q 3513 744 3044 326 
Q 2575 -91 1722 -91 
Q 1428 -91 1123 -41 
Q 819 9 494 109 
L 494 744 
Q 775 591 1075 516 
Q 1375 441 1709 441 
Q 2250 441 2565 725 
Q 2881 1009 2881 1497 
Q 2881 1984 2565 2268 
Q 2250 2553 1709 2553 
Q 1456 2553 1204 2497 
Q 953 2441 691 2322 
L 691 4666 
z
" transform="scale(0.015625)"/>
       </defs>
       <use xlink:href="#DejaVuSans-35"/>
      </g>
     </g>
    </g>
    <g id="ytick_3">
     <g id="line2d_3">
      <g>
       <use xlink:href="#md725e7ec57" x="40.603125" y="106.06859" style="stroke: #000000; stroke-width: 0.8"/>
      </g>
     </g>
     <g id="text_4">
      <!-- 10 -->
      <g transform="translate(20.878125 109.867808) scale(0.1 -0.1)">
       <defs>
        <path id="DejaVuSans-31" d="M 794 531 
L 1825 531 
L 1825 4091 
L 703 3866 
L 703 4441 
L 1819 4666 
L 2450 4666 
L 2450 531 
L 3481 531 
L 3481 0 
L 794 0 
L 794 531 
z
" transform="scale(0.015625)"/>
       </defs>
       <use xlink:href="#DejaVuSans-31"/>
       <use xlink:href="#DejaVuSans-30" x="63.623047"/>
      </g>
     </g>
    </g>
    <g id="ytick_4">
     <g id="line2d_4">
      <g>
       <use xlink:href="#md725e7ec57" x="40.603125" y="76.311072" style="stroke: #000000; stroke-width: 0.8"/>
      </g>
     </g>
     <g id="text_5">
      <!-- 15 -->
      <g transform="translate(20.878125 80.110291) scale(0.1 -0.1)">
       <use xlink:href="#DejaVuSans-31"/>
       <use xlink:href="#DejaVuSans-35" x="63.623047"/>
      </g>
     </g>
    </g>
    <g id="text_6">
     <!-- Natural Gas Usage (kWh) -->
     <g transform="translate(14.798438 171.592063) rotate(-90) scale(0.1 -0.1)">
      <defs>
       <path id="DejaVuSans-4e" d="M 628 4666 
L 1478 4666 
L 3547 763 
L 3547 4666 
L 4159 4666 
L 4159 0 
L 3309 0 
L 1241 3903 
L 1241 0 
L 628 0 
L 628 4666 
z
" transform="scale(0.015625)"/>
       <path id="DejaVuSans-74" d="M 1172 4494 
L 1172 3500 
L 2356 3500 
L 2356 3053 
L 1172 3053 
L 1172 1153 
Q 1172 725 1289 603 
Q 1406 481 1766 481 
L 2356 481 
L 2356 0 
L 1766 0 
Q 1100 0 847 248 
Q 594 497 594 1153 
L 594 3053 
L 172 3053 
L 172 3500 
L 594 3500 
L 594 4494 
L 1172 4494 
z
" transform="scale(0.015625)"/>
       <path id="DejaVuSans-75" d="M 544 1381 
L 544 3500 
L 1119 3500 
L 1119 1403 
Q 1119 906 1312 657 
Q 1506 409 1894 409 
Q 2359 409 2629 706 
Q 2900 1003 2900 1516 
L 2900 3500 
L 3475 3500 
L 3475 0 
L 2900 0 
L 2900 538 
Q 2691 219 2414 64 
Q 2138 -91 1772 -91 
Q 1169 -91 856 284 
Q 544 659 544 1381 
z
M 1991 3584 
L 1991 3584 
z
" transform="scale(0.015625)"/>
       <path id="DejaVuSans-72" d="M 2631 2963 
Q 2534 3019 2420 3045 
Q 2306 3072 2169 3072 
Q 1681 3072 1420 2755 
Q 1159 2438 1159 1844 
L 1159 0 
L 581 0 
L 581 3500 
L 1159 3500 
L 1159 2956 
Q 1341 3275 1631 3429 
Q 1922 3584 2338 3584 
Q 2397 3584 2469 3576 
Q 2541 3569 2628 3553 
L 2631 2963 
z
" transform="scale(0.015625)"/>
       <path id="DejaVuSans-6c" d="M 603 4863 
L 1178 4863 
L 1178 0 
L 603 0 
L 603 4863 
z
" transform="scale(0.015625)"/>
       <path id="DejaVuSans-47" d="M 3809 666 
L 3809 1919 
L 2778 1919 
L 2778 2438 
L 4434 2438 
L 4434 434 
Q 4069 175 3628 42 
Q 3188 -91 2688 -91 
Q 1594 -91 976 548 
Q 359 1188 359 2328 
Q 359 3472 976 4111 
Q 1594 4750 2688 4750 
Q 3144 4750 3555 4637 
Q 3966 4525 4313 4306 
L 4313 3634 
Q 3963 3931 3569 4081 
Q 3175 4231 2741 4231 
Q 1884 4231 1454 3753 
Q 1025 3275 1025 2328 
Q 1025 1384 1454 906 
Q 1884 428 2741 428 
Q 3075 428 3337 486 
Q 3600 544 3809 666 
z
" transform="scale(0.015625)"/>
       <path id="DejaVuSans-73" d="M 2834 3397 
L 2834 2853 
Q 2591 2978 2328 3040 
Q 2066 3103 1784 3103 
Q 1356 3103 1142 2972 
Q 928 2841 928 2578 
Q 928 2378 1081 2264 
Q 1234 2150 1697 2047 
L 1894 2003 
Q 2506 1872 2764 1633 
Q 3022 1394 3022 966 
Q 3022 478 2636 193 
Q 2250 -91 1575 -91 
Q 1294 -91 989 -36 
Q 684 19 347 128 
L 347 722 
Q 666 556 975 473 
Q 1284 391 1588 391 
Q 1994 391 2212 530 
Q 2431 669 2431 922 
Q 2431 1156 2273 1281 
Q 2116 1406 1581 1522 
L 1381 1569 
Q 847 1681 609 1914 
Q 372 2147 372 2553 
Q 372 3047 722 3315 
Q 1072 3584 1716 3584 
Q 2034 3584 2315 3537 
Q 2597 3491 2834 3397 
z
" transform="scale(0.015625)"/>
       <path id="DejaVuSans-55" d="M 556 4666 
L 1191 4666 
L 1191 1831 
Q 1191 1081 1462 751 
Q 1734 422 2344 422 
Q 2950 422 3222 751 
Q 3494 1081 3494 1831 
L 3494 4666 
L 4128 4666 
L 4128 1753 
Q 4128 841 3676 375 
Q 3225 -91 2344 -91 
Q 1459 -91 1007 375 
Q 556 841 556 1753 
L 556 4666 
z
" transform="scale(0.015625)"/>
       <path id="DejaVuSans-67" d="M 2906 1791 
Q 2906 2416 2648 2759 
Q 2391 3103 1925 3103 
Q 1463 3103 1205 2759 
Q 947 2416 947 1791 
Q 947 1169 1205 825 
Q 1463 481 1925 481 
Q 2391 481 2648 825 
Q 2906 1169 2906 1791 
z
M 3481 434 
Q 3481 -459 3084 -895 
Q 2688 -1331 1869 -1331 
Q 1566 -1331 1297 -1286 
Q 1028 -1241 775 -1147 
L 775 -588 
Q 1028 -725 1275 -790 
Q 1522 -856 1778 -856 
Q 2344 -856 2625 -561 
Q 2906 -266 2906 331 
L 2906 616 
Q 2728 306 2450 153 
Q 2172 0 1784 0 
Q 1141 0 747 490 
Q 353 981 353 1791 
Q 353 2603 747 3093 
Q 1141 3584 1784 3584 
Q 2172 3584 2450 3431 
Q 2728 3278 2906 2969 
L 2906 3500 
L 3481 3500 
L 3481 434 
z
" transform="scale(0.015625)"/>
       <path id="DejaVuSans-28" d="M 1984 4856 
Q 1566 4138 1362 3434 
Q 1159 2731 1159 2009 
Q 1159 1288 1364 580 
Q 1569 -128 1984 -844 
L 1484 -844 
Q 1016 -109 783 600 
Q 550 1309 550 2009 
Q 550 2706 781 3412 
Q 1013 4119 1484 4856 
L 1984 4856 
z
" transform="scale(0.015625)"/>
       <path id="DejaVuSans-6b" d="M 581 4863 
L 1159 4863 
L 1159 1991 
L 2875 3500 
L 3609 3500 
L 1753 1863 
L 3688 0 
L 2938 0 
L 1159 1709 
L 1159 0 
L 581 0 
L 581 4863 
z
" transform="scale(0.015625)"/>
       <path id="DejaVuSans-57" d="M 213 4666 
L 850 4666 
L 1831 722 
L 2809 4666 
L 3519 4666 
L 4500 722 
L 5478 4666 
L 6119 4666 
L 4947 0 
L 4153 0 
L 3169 4050 
L 2175 0 
L 1381 0 
L 213 4666 
z
" transform="scale(0.015625)"/>
       <path id="DejaVuSans-68" d="M 3513 2113 
L 3513 0 
L 2938 0 
L 2938 2094 
Q 2938 2591 2744 2837 
Q 2550 3084 2163 3084 
Q 1697 3084 1428 2787 
Q 1159 2491 1159 1978 
L 1159 0 
L 581 0 
L 581 4863 
L 1159 4863 
L 1159 2956 
Q 1366 3272 1645 3428 
Q 1925 3584 2291 3584 
Q 2894 3584 3203 3211 
Q 3513 2838 3513 2113 
z
" transform="scale(0.015625)"/>
       <path id="DejaVuSans-29" d="M 513 4856 
L 1013 4856 
Q 1481 4119 1714 3412 
Q 1947 2706 1947 2009 
Q 1947 1309 1714 600 
Q 1481 -109 1013 -844 
L 513 -844 
Q 928 -128 1133 580 
Q 1338 1288 1338 2009 
Q 1338 2731 1133 3434 
Q 928 4138 513 4856 
z
" transform="scale(0.015625)"/>
      </defs>
      <use xlink:href="#DejaVuSans-4e"/>
      <use xlink:href="#DejaVuSans-61" x="74.804688"/>
      <use xlink:href="#DejaVuSans-74" x="136.083984"/>
      <use xlink:href="#DejaVuSans-75" x="175.292969"/>
      <use xlink:href="#DejaVuSans-72" x="238.671875"/>
      <use xlink:href="#DejaVuSans-61" x="279.785156"/>
      <use xlink:href="#DejaVuSans-6c" x="341.064453"/>
      <use xlink:href="#DejaVuSans-20" x="368.847656"/>
      <use xlink:href="#DejaVuSans-47" x="400.634766"/>
      <use xlink:href="#DejaVuSans-61" x="478.125"/>
      <use xlink:href="#DejaVuSans-73" x="539.404297"/>
      <use xlink:href="#DejaVuSans-20" x="591.503906"/>
      <use xlink:href="#DejaVuSans-55" x="623.291016"/>
      <use xlink:href="#DejaVuSans-73" x="696.484375"/>
      <use xlink:href="#DejaVuSans-61" x="748.583984"/>
      <use xlink:href="#DejaVuSans-67" x="809.863281"/>
      <use xlink:href="#DejaVuSans-65" x="873.339844"/>
      <use xlink:href="#DejaVuSans-20" x="934.863281"/>
      <use xlink:href="#DejaVuSans-28" x="966.650391"/>
      <use xlink:href="#DejaVuSans-6b" x="1005.664062"/>
      <use xlink:href="#DejaVuSans-57" x="1063.574219"/>
      <use xlink:href="#DejaVuSans-68" x="1162.451172"/>
      <use xlink:href="#DejaVuSans-29" x="1225.830078"/>
     </g>
    </g>
   </g>
   <g id="patch_75">
    <path d="M 40.603125 165.583625 
L 40.603125 51.11925 
" style="fill: none; stroke: #000000; stroke-width: 0.8; stroke-linejoin: miter; stroke-linecap: square"/>
   </g>
   <g id="patch_76">
    <path d="M 221.033125 165.583625 
L 221.033125 51.11925 
" style="fill: none; stroke: #000000; stroke-width: 0.8; stroke-linejoin: miter; stroke-linecap: square"/>
   </g>
   <g id="patch_77">
    <path d="M 40.603125 165.583625 
L 221.033125 165.583625 
" style="fill: none; stroke: #000000; stroke-width: 0.8; stroke-linejoin: miter; stroke-linecap: square"/>
   </g>
   <g id="patch_78">
    <path d="M 40.603125 51.11925 
L 221.033125 51.11925 
" style="fill: none; stroke: #000000; stroke-width: 0.8; stroke-linejoin: miter; stroke-linecap: square"/>
   </g>
   <g id="text_7">
    <!-- Winter -->
    <g transform="translate(111.040625 45.11925) scale(0.12 -0.12)">
     <defs>
      <path id="DejaVuSans-6e" d="M 3513 2113 
L 3513 0 
L 2938 0 
L 2938 2094 
Q 2938 2591 2744 2837 
Q 2550 3084 2163 3084 
Q 1697 3084 1428 2787 
Q 1159 2491 1159 1978 
L 1159 0 
L 581 0 
L 581 3500 
L 1159 3500 
L 1159 2956 
Q 1366 3272 1645 3428 
Q 1925 3584 2291 3584 
Q 2894 3584 3203 3211 
Q 3513 2838 3513 2113 
z
" transform="scale(0.015625)"/>
     </defs>
     <use xlink:href="#DejaVuSans-57"/>
     <use xlink:href="#DejaVuSans-69" x="96.626953"/>
     <use xlink:href="#DejaVuSans-6e" x="124.410156"/>
     <use xlink:href="#DejaVuSans-74" x="187.789062"/>
     <use xlink:href="#DejaVuSans-65" x="226.998047"/>
     <use xlink:href="#DejaVuSans-72" x="288.521484"/>
    </g>
   </g>
  </g>
  <g id="axes_2">
   <g id="patch_79">
    <path d="M 265.603125 165.583625 
L 446.033125 165.583625 
L 446.033125 51.11925 
L 265.603125 51.11925 
z
" style="fill: #ffffff"/>
   </g>
   <g id="patch_80">
    <path d="M 267.482604 165.583625 
L 271.241562 165.583625 
L 271.241562 162.9529 
L 267.482604 162.9529 
z
" clip-path="url(#pe25af38d53)" style="fill: #1f77b4"/>
   </g>
   <g id="patch_81">
    <path d="M 275.000521 165.583625 
L 278.759479 165.583625 
L 278.759479 162.204207 
L 275.000521 162.204207 
z
" clip-path="url(#pe25af38d53)" style="fill: #1f77b4"/>
   </g>
   <g id="patch_82">
    <path d="M 282.518438 165.583625 
L 286.277396 165.583625 
L 286.277396 158.048623 
L 282.518438 158.048623 
z
" clip-path="url(#pe25af38d53)" style="fill: #1f77b4"/>
   </g>
   <g id="patch_83">
    <path d="M 290.036354 165.583625 
L 293.795312 165.583625 
L 293.795312 157.622761 
L 290.036354 157.622761 
z
" clip-path="url(#pe25af38d53)" style="fill: #1f77b4"/>
   </g>
   <g id="patch_84">
    <path d="M 297.554271 165.583625 
L 301.313229 165.583625 
L 301.313229 154.614255 
L 297.554271 154.614255 
z
" clip-path="url(#pe25af38d53)" style="fill: #1f77b4"/>
   </g>
   <g id="patch_85">
    <path d="M 305.072187 165.583625 
L 308.831146 165.583625 
L 308.831146 152.594847 
L 305.072187 152.594847 
z
" clip-path="url(#pe25af38d53)" style="fill: #1f77b4"/>
   </g>
   <g id="patch_86">
    <path d="M 312.590104 165.583625 
L 316.349063 165.583625 
L 316.349063 154.552437 
L 312.590104 154.552437 
z
" clip-path="url(#pe25af38d53)" style="fill: #1f77b4"/>
   </g>
   <g id="patch_87">
    <path d="M 320.108021 165.583625 
L 323.866979 165.583625 
L 323.866979 165.583625 
L 320.108021 165.583625 
z
" clip-path="url(#pe25af38d53)" style="fill: #1f77b4"/>
   </g>
   <g id="patch_88">
    <path d="M 327.625937 165.583625 
L 331.384896 165.583625 
L 331.384896 165.583625 
L 327.625937 165.583625 
z
" clip-path="url(#pe25af38d53)" style="fill: #1f77b4"/>
   </g>
   <g id="patch_89">
    <path d="M 335.143854 165.583625 
L 338.902812 165.583625 
L 338.902812 165.583625 
L 335.143854 165.583625 
z
" clip-path="url(#pe25af38d53)" style="fill: #1f77b4"/>
   </g>
   <g id="patch_90">
    <path d="M 342.661771 165.583625 
L 346.420729 165.583625 
L 346.420729 165.583625 
L 342.661771 165.583625 
z
" clip-path="url(#pe25af38d53)" style="fill: #1f77b4"/>
   </g>
   <g id="patch_91">
    <path d="M 350.179688 165.583625 
L 353.938646 165.583625 
L 353.938646 165.583625 
L 350.179688 165.583625 
z
" clip-path="url(#pe25af38d53)" style="fill: #1f77b4"/>
   </g>
   <g id="patch_92">
    <path d="M 357.697604 165.583625 
L 361.456563 165.583625 
L 361.456563 165.583625 
L 357.697604 165.583625 
z
" clip-path="url(#pe25af38d53)" style="fill: #1f77b4"/>
   </g>
   <g id="patch_93">
    <path d="M 365.215521 165.583625 
L 368.974479 165.583625 
L 368.974479 165.583625 
L 365.215521 165.583625 
z
" clip-path="url(#pe25af38d53)" style="fill: #1f77b4"/>
   </g>
   <g id="patch_94">
    <path d="M 372.733437 165.583625 
L 376.492396 165.583625 
L 376.492396 165.583625 
L 372.733437 165.583625 
z
" clip-path="url(#pe25af38d53)" style="fill: #1f77b4"/>
   </g>
   <g id="patch_95">
    <path d="M 380.251354 165.583625 
L 384.010312 165.583625 
L 384.010312 165.583625 
L 380.251354 165.583625 
z
" clip-path="url(#pe25af38d53)" style="fill: #1f77b4"/>
   </g>
   <g id="patch_96">
    <path d="M 387.769271 165.583625 
L 391.528229 165.583625 
L 391.528229 165.583625 
L 387.769271 165.583625 
z
" clip-path="url(#pe25af38d53)" style="fill: #1f77b4"/>
   </g>
   <g id="patch_97">
    <path d="M 395.287187 165.583625 
L 399.046146 165.583625 
L 399.046146 165.583625 
L 395.287187 165.583625 
z
" clip-path="url(#pe25af38d53)" style="fill: #1f77b4"/>
   </g>
   <g id="patch_98">
    <path d="M 402.805104 165.583625 
L 406.564062 165.583625 
L 406.564062 165.583625 
L 402.805104 165.583625 
z
" clip-path="url(#pe25af38d53)" style="fill: #1f77b4"/>
   </g>
   <g id="patch_99">
    <path d="M 410.323021 165.583625 
L 414.081979 165.583625 
L 414.081979 165.583625 
L 410.323021 165.583625 
z
" clip-path="url(#pe25af38d53)" style="fill: #1f77b4"/>
   </g>
   <g id="patch_100">
    <path d="M 417.840937 165.583625 
L 421.599896 165.583625 
L 421.599896 165.583625 
L 417.840937 165.583625 
z
" clip-path="url(#pe25af38d53)" style="fill: #1f77b4"/>
   </g>
   <g id="patch_101">
    <path d="M 425.358854 165.583625 
L 429.117813 165.583625 
L 429.117813 165.583625 
L 425.358854 165.583625 
z
" clip-path="url(#pe25af38d53)" style="fill: #1f77b4"/>
   </g>
   <g id="patch_102">
    <path d="M 432.876771 165.583625 
L 436.635729 165.583625 
L 436.635729 165.583625 
L 432.876771 165.583625 
z
" clip-path="url(#pe25af38d53)" style="fill: #1f77b4"/>
   </g>
   <g id="patch_103">
    <path d="M 440.394687 165.583625 
L 444.153646 165.583625 
L 444.153646 165.583625 
L 440.394687 165.583625 
z
" clip-path="url(#pe25af38d53)" style="fill: #1f77b4"/>
   </g>
   <g id="patch_104">
    <path d="M 267.482604 162.9529 
L 271.241562 162.9529 
L 271.241562 155.29426 
L 267.482604 155.29426 
z
" clip-path="url(#pe25af38d53)" style="fill: #ff7f0e"/>
   </g>
   <g id="patch_105">
    <path d="M 275.000521 162.204207 
L 278.759479 162.204207 
L 278.759479 154.627993 
L 275.000521 154.627993 
z
" clip-path="url(#pe25af38d53)" style="fill: #ff7f0e"/>
   </g>
   <g id="patch_106">
    <path d="M 282.518438 165.583625 
L 286.277396 165.583625 
L 286.277396 165.583625 
L 282.518438 165.583625 
z
" clip-path="url(#pe25af38d53)" style="fill: #ff7f0e"/>
   </g>
   <g id="patch_107">
    <path d="M 290.036354 157.622761 
L 293.795312 157.622761 
L 293.795312 150.046547 
L 290.036354 150.046547 
z
" clip-path="url(#pe25af38d53)" style="fill: #ff7f0e"/>
   </g>
   <g id="patch_108">
    <path d="M 297.554271 154.614255 
L 301.313229 154.614255 
L 301.313229 146.804504 
L 297.554271 146.804504 
z
" clip-path="url(#pe25af38d53)" style="fill: #ff7f0e"/>
   </g>
   <g id="patch_109">
    <path d="M 305.072187 152.594847 
L 308.831146 152.594847 
L 308.831146 144.970552 
L 305.072187 144.970552 
z
" clip-path="url(#pe25af38d53)" style="fill: #ff7f0e"/>
   </g>
   <g id="patch_110">
    <path d="M 312.590104 154.552437 
L 316.349063 154.552437 
L 316.349063 146.893798 
L 312.590104 146.893798 
z
" clip-path="url(#pe25af38d53)" style="fill: #ff7f0e"/>
   </g>
   <g id="patch_111">
    <path d="M 320.108021 165.583625 
L 323.866979 165.583625 
L 323.866979 158.00741 
L 320.108021 158.00741 
z
" clip-path="url(#pe25af38d53)" style="fill: #ff7f0e"/>
   </g>
   <g id="patch_112">
    <path d="M 327.625937 165.583625 
L 331.384896 165.583625 
L 331.384896 165.583625 
L 327.625937 165.583625 
z
" clip-path="url(#pe25af38d53)" style="fill: #ff7f0e"/>
   </g>
   <g id="patch_113">
    <path d="M 335.143854 165.583625 
L 338.902812 165.583625 
L 338.902812 158.00741 
L 335.143854 158.00741 
z
" clip-path="url(#pe25af38d53)" style="fill: #ff7f0e"/>
   </g>
   <g id="patch_114">
    <path d="M 342.661771 165.583625 
L 346.420729 165.583625 
L 346.420729 165.583625 
L 342.661771 165.583625 
z
" clip-path="url(#pe25af38d53)" style="fill: #ff7f0e"/>
   </g>
   <g id="patch_115">
    <path d="M 350.179688 165.583625 
L 353.938646 165.583625 
L 353.938646 158.00741 
L 350.179688 158.00741 
z
" clip-path="url(#pe25af38d53)" style="fill: #ff7f0e"/>
   </g>
   <g id="patch_116">
    <path d="M 357.697604 165.583625 
L 361.456563 165.583625 
L 361.456563 165.583625 
L 357.697604 165.583625 
z
" clip-path="url(#pe25af38d53)" style="fill: #ff7f0e"/>
   </g>
   <g id="patch_117">
    <path d="M 365.215521 165.583625 
L 368.974479 165.583625 
L 368.974479 149.764929 
L 365.215521 149.764929 
z
" clip-path="url(#pe25af38d53)" style="fill: #ff7f0e"/>
   </g>
   <g id="patch_118">
    <path d="M 372.733437 165.583625 
L 376.492396 165.583625 
L 376.492396 158.00741 
L 372.733437 158.00741 
z
" clip-path="url(#pe25af38d53)" style="fill: #ff7f0e"/>
   </g>
   <g id="patch_119">
    <path d="M 380.251354 165.583625 
L 384.010312 165.583625 
L 384.010312 165.583625 
L 380.251354 165.583625 
z
" clip-path="url(#pe25af38d53)" style="fill: #ff7f0e"/>
   </g>
   <g id="patch_120">
    <path d="M 387.769271 165.583625 
L 391.528229 165.583625 
L 391.528229 158.00741 
L 387.769271 158.00741 
z
" clip-path="url(#pe25af38d53)" style="fill: #ff7f0e"/>
   </g>
   <g id="patch_121">
    <path d="M 395.287187 165.583625 
L 399.046146 165.583625 
L 399.046146 165.583625 
L 395.287187 165.583625 
z
" clip-path="url(#pe25af38d53)" style="fill: #ff7f0e"/>
   </g>
   <g id="patch_122">
    <path d="M 402.805104 165.583625 
L 406.564062 165.583625 
L 406.564062 158.000542 
L 402.805104 158.000542 
z
" clip-path="url(#pe25af38d53)" style="fill: #ff7f0e"/>
   </g>
   <g id="patch_123">
    <path d="M 410.323021 165.583625 
L 414.081979 165.583625 
L 414.081979 165.583625 
L 410.323021 165.583625 
z
" clip-path="url(#pe25af38d53)" style="fill: #ff7f0e"/>
   </g>
   <g id="patch_124">
    <path d="M 417.840937 165.583625 
L 421.599896 165.583625 
L 421.599896 141.790328 
L 417.840937 141.790328 
z
" clip-path="url(#pe25af38d53)" style="fill: #ff7f0e"/>
   </g>
   <g id="patch_125">
    <path d="M 425.358854 165.583625 
L 429.117813 165.583625 
L 429.117813 157.84943 
L 425.358854 157.84943 
z
" clip-path="url(#pe25af38d53)" style="fill: #ff7f0e"/>
   </g>
   <g id="patch_126">
    <path d="M 432.876771 165.583625 
L 436.635729 165.583625 
L 436.635729 157.842561 
L 432.876771 157.842561 
z
" clip-path="url(#pe25af38d53)" style="fill: #ff7f0e"/>
   </g>
   <g id="patch_127">
    <path d="M 440.394687 165.583625 
L 444.153646 165.583625 
L 444.153646 150.101497 
L 440.394687 150.101497 
z
" clip-path="url(#pe25af38d53)" style="fill: #ff7f0e"/>
   </g>
   <g id="patch_128">
    <path d="M 267.482604 165.583625 
L 271.241562 165.583625 
L 271.241562 165.583625 
L 267.482604 165.583625 
z
" clip-path="url(#pe25af38d53)" style="fill: #2ca02c"/>
   </g>
   <g id="patch_129">
    <path d="M 275.000521 165.583625 
L 278.759479 165.583625 
L 278.759479 165.583625 
L 275.000521 165.583625 
z
" clip-path="url(#pe25af38d53)" style="fill: #2ca02c"/>
   </g>
   <g id="patch_130">
    <path d="M 282.518438 165.583625 
L 286.277396 165.583625 
L 286.277396 165.583625 
L 282.518438 165.583625 
z
" clip-path="url(#pe25af38d53)" style="fill: #2ca02c"/>
   </g>
   <g id="patch_131">
    <path d="M 290.036354 165.583625 
L 293.795312 165.583625 
L 293.795312 165.583625 
L 290.036354 165.583625 
z
" clip-path="url(#pe25af38d53)" style="fill: #2ca02c"/>
   </g>
   <g id="patch_132">
    <path d="M 297.554271 165.583625 
L 301.313229 165.583625 
L 301.313229 165.583625 
L 297.554271 165.583625 
z
" clip-path="url(#pe25af38d53)" style="fill: #2ca02c"/>
   </g>
   <g id="patch_133">
    <path d="M 305.072187 165.583625 
L 308.831146 165.583625 
L 308.831146 165.583625 
L 305.072187 165.583625 
z
" clip-path="url(#pe25af38d53)" style="fill: #2ca02c"/>
   </g>
   <g id="patch_134">
    <path d="M 312.590104 165.583625 
L 316.349063 165.583625 
L 316.349063 165.583625 
L 312.590104 165.583625 
z
" clip-path="url(#pe25af38d53)" style="fill: #2ca02c"/>
   </g>
   <g id="patch_135">
    <path d="M 320.108021 165.583625 
L 323.866979 165.583625 
L 323.866979 165.583625 
L 320.108021 165.583625 
z
" clip-path="url(#pe25af38d53)" style="fill: #2ca02c"/>
   </g>
   <g id="patch_136">
    <path d="M 327.625937 165.583625 
L 331.384896 165.583625 
L 331.384896 165.583625 
L 327.625937 165.583625 
z
" clip-path="url(#pe25af38d53)" style="fill: #2ca02c"/>
   </g>
   <g id="patch_137">
    <path d="M 335.143854 165.583625 
L 338.902812 165.583625 
L 338.902812 165.583625 
L 335.143854 165.583625 
z
" clip-path="url(#pe25af38d53)" style="fill: #2ca02c"/>
   </g>
   <g id="patch_138">
    <path d="M 342.661771 165.583625 
L 346.420729 165.583625 
L 346.420729 165.583625 
L 342.661771 165.583625 
z
" clip-path="url(#pe25af38d53)" style="fill: #2ca02c"/>
   </g>
   <g id="patch_139">
    <path d="M 350.179688 165.583625 
L 353.938646 165.583625 
L 353.938646 165.583625 
L 350.179688 165.583625 
z
" clip-path="url(#pe25af38d53)" style="fill: #2ca02c"/>
   </g>
   <g id="patch_140">
    <path d="M 357.697604 165.583625 
L 361.456563 165.583625 
L 361.456563 165.583625 
L 357.697604 165.583625 
z
" clip-path="url(#pe25af38d53)" style="fill: #2ca02c"/>
   </g>
   <g id="patch_141">
    <path d="M 365.215521 165.583625 
L 368.974479 165.583625 
L 368.974479 165.583625 
L 365.215521 165.583625 
z
" clip-path="url(#pe25af38d53)" style="fill: #2ca02c"/>
   </g>
   <g id="patch_142">
    <path d="M 372.733437 165.583625 
L 376.492396 165.583625 
L 376.492396 165.583625 
L 372.733437 165.583625 
z
" clip-path="url(#pe25af38d53)" style="fill: #2ca02c"/>
   </g>
   <g id="patch_143">
    <path d="M 380.251354 165.583625 
L 384.010312 165.583625 
L 384.010312 165.583625 
L 380.251354 165.583625 
z
" clip-path="url(#pe25af38d53)" style="fill: #2ca02c"/>
   </g>
   <g id="patch_144">
    <path d="M 387.769271 165.583625 
L 391.528229 165.583625 
L 391.528229 165.583625 
L 387.769271 165.583625 
z
" clip-path="url(#pe25af38d53)" style="fill: #2ca02c"/>
   </g>
   <g id="patch_145">
    <path d="M 395.287187 165.583625 
L 399.046146 165.583625 
L 399.046146 118.285517 
L 395.287187 118.285517 
z
" clip-path="url(#pe25af38d53)" style="fill: #2ca02c"/>
   </g>
   <g id="patch_146">
    <path d="M 402.805104 165.583625 
L 406.564062 165.583625 
L 406.564062 165.583625 
L 402.805104 165.583625 
z
" clip-path="url(#pe25af38d53)" style="fill: #2ca02c"/>
   </g>
   <g id="patch_147">
    <path d="M 410.323021 165.583625 
L 414.081979 165.583625 
L 414.081979 165.583625 
L 410.323021 165.583625 
z
" clip-path="url(#pe25af38d53)" style="fill: #2ca02c"/>
   </g>
   <g id="patch_148">
    <path d="M 417.840937 141.790328 
L 421.599896 141.790328 
L 421.599896 136.72807 
L 417.840937 136.72807 
z
" clip-path="url(#pe25af38d53)" style="fill: #2ca02c"/>
   </g>
   <g id="patch_149">
    <path d="M 425.358854 157.84943 
L 429.117813 157.84943 
L 429.117813 56.569935 
L 425.358854 56.569935 
z
" clip-path="url(#pe25af38d53)" style="fill: #2ca02c"/>
   </g>
   <g id="patch_150">
    <path d="M 432.876771 157.842561 
L 436.635729 157.842561 
L 436.635729 142.648919 
L 432.876771 142.648919 
z
" clip-path="url(#pe25af38d53)" style="fill: #2ca02c"/>
   </g>
   <g id="patch_151">
    <path d="M 440.394687 165.583625 
L 444.153646 165.583625 
L 444.153646 165.583625 
L 440.394687 165.583625 
z
" clip-path="url(#pe25af38d53)" style="fill: #2ca02c"/>
   </g>
   <g id="matplotlib.axis_3">
    <g id="text_8">
     <!-- Time of Day -->
     <g transform="translate(325.713437 177.182063) scale(0.1 -0.1)">
      <use xlink:href="#DejaVuSans-54"/>
      <use xlink:href="#DejaVuSans-69" x="57.958984"/>
      <use xlink:href="#DejaVuSans-6d" x="85.742188"/>
      <use xlink:href="#DejaVuSans-65" x="183.154297"/>
      <use xlink:href="#DejaVuSans-20" x="244.677734"/>
      <use xlink:href="#DejaVuSans-6f" x="276.464844"/>
      <use xlink:href="#DejaVuSans-66" x="337.646484"/>
      <use xlink:href="#DejaVuSans-20" x="372.851562"/>
      <use xlink:href="#DejaVuSans-44" x="404.638672"/>
      <use xlink:href="#DejaVuSans-61" x="481.640625"/>
      <use xlink:href="#DejaVuSans-79" x="542.919922"/>
     </g>
    </g>
   </g>
   <g id="matplotlib.axis_4">
    <g id="ytick_5">
     <g id="line2d_5">
      <g>
       <use xlink:href="#md725e7ec57" x="265.603125" y="165.583625" style="stroke: #000000; stroke-width: 0.8"/>
      </g>
     </g>
     <g id="text_9">
      <!-- 0 -->
      <g transform="translate(252.240625 169.382844) scale(0.1 -0.1)">
       <use xlink:href="#DejaVuSans-30"/>
      </g>
     </g>
    </g>
    <g id="ytick_6">
     <g id="line2d_6">
      <g>
       <use xlink:href="#md725e7ec57" x="265.603125" y="131.239951" style="stroke: #000000; stroke-width: 0.8"/>
      </g>
     </g>
     <g id="text_10">
      <!-- 5 -->
      <g transform="translate(252.240625 135.03917) scale(0.1 -0.1)">
       <use xlink:href="#DejaVuSans-35"/>
      </g>
     </g>
    </g>
    <g id="ytick_7">
     <g id="line2d_7">
      <g>
       <use xlink:href="#md725e7ec57" x="265.603125" y="96.896277" style="stroke: #000000; stroke-width: 0.8"/>
      </g>
     </g>
     <g id="text_11">
      <!-- 10 -->
      <g transform="translate(245.878125 100.695495) scale(0.1 -0.1)">
       <use xlink:href="#DejaVuSans-31"/>
       <use xlink:href="#DejaVuSans-30" x="63.623047"/>
      </g>
     </g>
    </g>
    <g id="ytick_8">
     <g id="line2d_8">
      <g>
       <use xlink:href="#md725e7ec57" x="265.603125" y="62.552603" style="stroke: #000000; stroke-width: 0.8"/>
      </g>
     </g>
     <g id="text_12">
      <!-- 15 -->
      <g transform="translate(245.878125 66.351821) scale(0.1 -0.1)">
       <use xlink:href="#DejaVuSans-31"/>
       <use xlink:href="#DejaVuSans-35" x="63.623047"/>
      </g>
     </g>
    </g>
    <g id="text_13">
     <!-- Natural Gas Usage (kWh) -->
     <g transform="translate(239.798437 171.592063) rotate(-90) scale(0.1 -0.1)">
      <use xlink:href="#DejaVuSans-4e"/>
      <use xlink:href="#DejaVuSans-61" x="74.804688"/>
      <use xlink:href="#DejaVuSans-74" x="136.083984"/>
      <use xlink:href="#DejaVuSans-75" x="175.292969"/>
      <use xlink:href="#DejaVuSans-72" x="238.671875"/>
      <use xlink:href="#DejaVuSans-61" x="279.785156"/>
      <use xlink:href="#DejaVuSans-6c" x="341.064453"/>
      <use xlink:href="#DejaVuSans-20" x="368.847656"/>
      <use xlink:href="#DejaVuSans-47" x="400.634766"/>
      <use xlink:href="#DejaVuSans-61" x="478.125"/>
      <use xlink:href="#DejaVuSans-73" x="539.404297"/>
      <use xlink:href="#DejaVuSans-20" x="591.503906"/>
      <use xlink:href="#DejaVuSans-55" x="623.291016"/>
      <use xlink:href="#DejaVuSans-73" x="696.484375"/>
      <use xlink:href="#DejaVuSans-61" x="748.583984"/>
      <use xlink:href="#DejaVuSans-67" x="809.863281"/>
      <use xlink:href="#DejaVuSans-65" x="873.339844"/>
      <use xlink:href="#DejaVuSans-20" x="934.863281"/>
      <use xlink:href="#DejaVuSans-28" x="966.650391"/>
      <use xlink:href="#DejaVuSans-6b" x="1005.664062"/>
      <use xlink:href="#DejaVuSans-57" x="1063.574219"/>
      <use xlink:href="#DejaVuSans-68" x="1162.451172"/>
      <use xlink:href="#DejaVuSans-29" x="1225.830078"/>
     </g>
    </g>
   </g>
   <g id="patch_152">
    <path d="M 265.603125 165.583625 
L 265.603125 51.11925 
" style="fill: none; stroke: #000000; stroke-width: 0.8; stroke-linejoin: miter; stroke-linecap: square"/>
   </g>
   <g id="patch_153">
    <path d="M 446.033125 165.583625 
L 446.033125 51.11925 
" style="fill: none; stroke: #000000; stroke-width: 0.8; stroke-linejoin: miter; stroke-linecap: square"/>
   </g>
   <g id="patch_154">
    <path d="M 265.603125 165.583625 
L 446.033125 165.583625 
" style="fill: none; stroke: #000000; stroke-width: 0.8; stroke-linejoin: miter; stroke-linecap: square"/>
   </g>
   <g id="patch_155">
    <path d="M 265.603125 51.11925 
L 446.033125 51.11925 
" style="fill: none; stroke: #000000; stroke-width: 0.8; stroke-linejoin: miter; stroke-linecap: square"/>
   </g>
   <g id="text_14">
    <!-- Spring -->
    <g transform="translate(336.455 45.11925) scale(0.12 -0.12)">
     <defs>
      <path id="DejaVuSans-53" d="M 3425 4513 
L 3425 3897 
Q 3066 4069 2747 4153 
Q 2428 4238 2131 4238 
Q 1616 4238 1336 4038 
Q 1056 3838 1056 3469 
Q 1056 3159 1242 3001 
Q 1428 2844 1947 2747 
L 2328 2669 
Q 3034 2534 3370 2195 
Q 3706 1856 3706 1288 
Q 3706 609 3251 259 
Q 2797 -91 1919 -91 
Q 1588 -91 1214 -16 
Q 841 59 441 206 
L 441 856 
Q 825 641 1194 531 
Q 1563 422 1919 422 
Q 2459 422 2753 634 
Q 3047 847 3047 1241 
Q 3047 1584 2836 1778 
Q 2625 1972 2144 2069 
L 1759 2144 
Q 1053 2284 737 2584 
Q 422 2884 422 3419 
Q 422 4038 858 4394 
Q 1294 4750 2059 4750 
Q 2388 4750 2728 4690 
Q 3069 4631 3425 4513 
z
" transform="scale(0.015625)"/>
      <path id="DejaVuSans-70" d="M 1159 525 
L 1159 -1331 
L 581 -1331 
L 581 3500 
L 1159 3500 
L 1159 2969 
Q 1341 3281 1617 3432 
Q 1894 3584 2278 3584 
Q 2916 3584 3314 3078 
Q 3713 2572 3713 1747 
Q 3713 922 3314 415 
Q 2916 -91 2278 -91 
Q 1894 -91 1617 61 
Q 1341 213 1159 525 
z
M 3116 1747 
Q 3116 2381 2855 2742 
Q 2594 3103 2138 3103 
Q 1681 3103 1420 2742 
Q 1159 2381 1159 1747 
Q 1159 1113 1420 752 
Q 1681 391 2138 391 
Q 2594 391 2855 752 
Q 3116 1113 3116 1747 
z
" transform="scale(0.015625)"/>
     </defs>
     <use xlink:href="#DejaVuSans-53"/>
     <use xlink:href="#DejaVuSans-70" x="63.476562"/>
     <use xlink:href="#DejaVuSans-72" x="126.953125"/>
     <use xlink:href="#DejaVuSans-69" x="168.066406"/>
     <use xlink:href="#DejaVuSans-6e" x="195.849609"/>
     <use xlink:href="#DejaVuSans-67" x="259.228516"/>
    </g>
   </g>
  </g>
  <g id="axes_3">
   <g id="patch_156">
    <path d="M 40.603125 321.008 
L 221.033125 321.008 
L 221.033125 206.543625 
L 40.603125 206.543625 
z
" style="fill: #ffffff"/>
   </g>
   <g id="patch_157">
    <path d="M 42.482604 321.008 
L 46.241563 321.008 
L 46.241563 321.008 
L 42.482604 321.008 
z
" clip-path="url(#pc61e863e9f)" style="fill: #1f77b4"/>
   </g>
   <g id="patch_158">
    <path d="M 50.000521 321.008 
L 53.759479 321.008 
L 53.759479 321.008 
L 50.000521 321.008 
z
" clip-path="url(#pc61e863e9f)" style="fill: #1f77b4"/>
   </g>
   <g id="patch_159">
    <path d="M 57.518438 321.008 
L 61.277396 321.008 
L 61.277396 321.008 
L 57.518438 321.008 
z
" clip-path="url(#pc61e863e9f)" style="fill: #1f77b4"/>
   </g>
   <g id="patch_160">
    <path d="M 65.036354 321.008 
L 68.795313 321.008 
L 68.795313 321.008 
L 65.036354 321.008 
z
" clip-path="url(#pc61e863e9f)" style="fill: #1f77b4"/>
   </g>
   <g id="patch_161">
    <path d="M 72.554271 321.008 
L 76.313229 321.008 
L 76.313229 321.008 
L 72.554271 321.008 
z
" clip-path="url(#pc61e863e9f)" style="fill: #1f77b4"/>
   </g>
   <g id="patch_162">
    <path d="M 80.072188 321.008 
L 83.831146 321.008 
L 83.831146 321.008 
L 80.072188 321.008 
z
" clip-path="url(#pc61e863e9f)" style="fill: #1f77b4"/>
   </g>
   <g id="patch_163">
    <path d="M 87.590104 321.008 
L 91.349063 321.008 
L 91.349063 321.008 
L 87.590104 321.008 
z
" clip-path="url(#pc61e863e9f)" style="fill: #1f77b4"/>
   </g>
   <g id="patch_164">
    <path d="M 95.108021 321.008 
L 98.866979 321.008 
L 98.866979 321.008 
L 95.108021 321.008 
z
" clip-path="url(#pc61e863e9f)" style="fill: #1f77b4"/>
   </g>
   <g id="patch_165">
    <path d="M 102.625937 321.008 
L 106.384896 321.008 
L 106.384896 321.008 
L 102.625937 321.008 
z
" clip-path="url(#pc61e863e9f)" style="fill: #1f77b4"/>
   </g>
   <g id="patch_166">
    <path d="M 110.143854 321.008 
L 113.902813 321.008 
L 113.902813 321.008 
L 110.143854 321.008 
z
" clip-path="url(#pc61e863e9f)" style="fill: #1f77b4"/>
   </g>
   <g id="patch_167">
    <path d="M 117.661771 321.008 
L 121.420729 321.008 
L 121.420729 321.008 
L 117.661771 321.008 
z
" clip-path="url(#pc61e863e9f)" style="fill: #1f77b4"/>
   </g>
   <g id="patch_168">
    <path d="M 125.179688 321.008 
L 128.938646 321.008 
L 128.938646 321.008 
L 125.179688 321.008 
z
" clip-path="url(#pc61e863e9f)" style="fill: #1f77b4"/>
   </g>
   <g id="patch_169">
    <path d="M 132.697604 321.008 
L 136.456563 321.008 
L 136.456563 321.008 
L 132.697604 321.008 
z
" clip-path="url(#pc61e863e9f)" style="fill: #1f77b4"/>
   </g>
   <g id="patch_170">
    <path d="M 140.215521 321.008 
L 143.974479 321.008 
L 143.974479 321.008 
L 140.215521 321.008 
z
" clip-path="url(#pc61e863e9f)" style="fill: #1f77b4"/>
   </g>
   <g id="patch_171">
    <path d="M 147.733438 321.008 
L 151.492396 321.008 
L 151.492396 321.008 
L 147.733438 321.008 
z
" clip-path="url(#pc61e863e9f)" style="fill: #1f77b4"/>
   </g>
   <g id="patch_172">
    <path d="M 155.251354 321.008 
L 159.010312 321.008 
L 159.010312 321.008 
L 155.251354 321.008 
z
" clip-path="url(#pc61e863e9f)" style="fill: #1f77b4"/>
   </g>
   <g id="patch_173">
    <path d="M 162.769271 321.008 
L 166.528229 321.008 
L 166.528229 321.008 
L 162.769271 321.008 
z
" clip-path="url(#pc61e863e9f)" style="fill: #1f77b4"/>
   </g>
   <g id="patch_174">
    <path d="M 170.287187 321.008 
L 174.046146 321.008 
L 174.046146 321.008 
L 170.287187 321.008 
z
" clip-path="url(#pc61e863e9f)" style="fill: #1f77b4"/>
   </g>
   <g id="patch_175">
    <path d="M 177.805104 321.008 
L 181.564063 321.008 
L 181.564063 321.008 
L 177.805104 321.008 
z
" clip-path="url(#pc61e863e9f)" style="fill: #1f77b4"/>
   </g>
   <g id="patch_176">
    <path d="M 185.323021 321.008 
L 189.081979 321.008 
L 189.081979 321.008 
L 185.323021 321.008 
z
" clip-path="url(#pc61e863e9f)" style="fill: #1f77b4"/>
   </g>
   <g id="patch_177">
    <path d="M 192.840937 321.008 
L 196.599896 321.008 
L 196.599896 321.008 
L 192.840937 321.008 
z
" clip-path="url(#pc61e863e9f)" style="fill: #1f77b4"/>
   </g>
   <g id="patch_178">
    <path d="M 200.358854 321.008 
L 204.117813 321.008 
L 204.117813 321.008 
L 200.358854 321.008 
z
" clip-path="url(#pc61e863e9f)" style="fill: #1f77b4"/>
   </g>
   <g id="patch_179">
    <path d="M 207.876771 321.008 
L 211.635729 321.008 
L 211.635729 321.008 
L 207.876771 321.008 
z
" clip-path="url(#pc61e863e9f)" style="fill: #1f77b4"/>
   </g>
   <g id="patch_180">
    <path d="M 215.394688 321.008 
L 219.153646 321.008 
L 219.153646 321.008 
L 215.394688 321.008 
z
" clip-path="url(#pc61e863e9f)" style="fill: #1f77b4"/>
   </g>
   <g id="patch_181">
    <path d="M 42.482604 321.008 
L 46.241563 321.008 
L 46.241563 321.008 
L 42.482604 321.008 
z
" clip-path="url(#pc61e863e9f)" style="fill: #ff7f0e"/>
   </g>
   <g id="patch_182">
    <path d="M 50.000521 321.008 
L 53.759479 321.008 
L 53.759479 313.550839 
L 50.000521 313.550839 
z
" clip-path="url(#pc61e863e9f)" style="fill: #ff7f0e"/>
   </g>
   <g id="patch_183">
    <path d="M 57.518438 321.008 
L 61.277396 321.008 
L 61.277396 313.557594 
L 57.518438 313.557594 
z
" clip-path="url(#pc61e863e9f)" style="fill: #ff7f0e"/>
   </g>
   <g id="patch_184">
    <path d="M 65.036354 321.008 
L 68.795313 321.008 
L 68.795313 321.008 
L 65.036354 321.008 
z
" clip-path="url(#pc61e863e9f)" style="fill: #ff7f0e"/>
   </g>
   <g id="patch_185">
    <path d="M 72.554271 321.008 
L 76.313229 321.008 
L 76.313229 313.557594 
L 72.554271 313.557594 
z
" clip-path="url(#pc61e863e9f)" style="fill: #ff7f0e"/>
   </g>
   <g id="patch_186">
    <path d="M 80.072188 321.008 
L 83.831146 321.008 
L 83.831146 313.43601 
L 80.072188 313.43601 
z
" clip-path="url(#pc61e863e9f)" style="fill: #ff7f0e"/>
   </g>
   <g id="patch_187">
    <path d="M 87.590104 321.008 
L 91.349063 321.008 
L 91.349063 313.381973 
L 87.590104 313.381973 
z
" clip-path="url(#pc61e863e9f)" style="fill: #ff7f0e"/>
   </g>
   <g id="patch_188">
    <path d="M 95.108021 321.008 
L 98.866979 321.008 
L 98.866979 313.557594 
L 95.108021 313.557594 
z
" clip-path="url(#pc61e863e9f)" style="fill: #ff7f0e"/>
   </g>
   <g id="patch_189">
    <path d="M 102.625937 321.008 
L 106.384896 321.008 
L 106.384896 321.008 
L 102.625937 321.008 
z
" clip-path="url(#pc61e863e9f)" style="fill: #ff7f0e"/>
   </g>
   <g id="patch_190">
    <path d="M 110.143854 321.008 
L 113.902813 321.008 
L 113.902813 313.496802 
L 110.143854 313.496802 
z
" clip-path="url(#pc61e863e9f)" style="fill: #ff7f0e"/>
   </g>
   <g id="patch_191">
    <path d="M 117.661771 321.008 
L 121.420729 321.008 
L 121.420729 313.557594 
L 117.661771 313.557594 
z
" clip-path="url(#pc61e863e9f)" style="fill: #ff7f0e"/>
   </g>
   <g id="patch_192">
    <path d="M 125.179688 321.008 
L 128.938646 321.008 
L 128.938646 321.008 
L 125.179688 321.008 
z
" clip-path="url(#pc61e863e9f)" style="fill: #ff7f0e"/>
   </g>
   <g id="patch_193">
    <path d="M 132.697604 321.008 
L 136.456563 321.008 
L 136.456563 313.557594 
L 132.697604 313.557594 
z
" clip-path="url(#pc61e863e9f)" style="fill: #ff7f0e"/>
   </g>
   <g id="patch_194">
    <path d="M 140.215521 321.008 
L 143.974479 321.008 
L 143.974479 321.008 
L 140.215521 321.008 
z
" clip-path="url(#pc61e863e9f)" style="fill: #ff7f0e"/>
   </g>
   <g id="patch_195">
    <path d="M 147.733438 321.008 
L 151.492396 321.008 
L 151.492396 313.557594 
L 147.733438 313.557594 
z
" clip-path="url(#pc61e863e9f)" style="fill: #ff7f0e"/>
   </g>
   <g id="patch_196">
    <path d="M 155.251354 321.008 
L 159.010312 321.008 
L 159.010312 321.008 
L 155.251354 321.008 
z
" clip-path="url(#pc61e863e9f)" style="fill: #ff7f0e"/>
   </g>
   <g id="patch_197">
    <path d="M 162.769271 321.008 
L 166.528229 321.008 
L 166.528229 313.557594 
L 162.769271 313.557594 
z
" clip-path="url(#pc61e863e9f)" style="fill: #ff7f0e"/>
   </g>
   <g id="patch_198">
    <path d="M 170.287187 321.008 
L 174.046146 321.008 
L 174.046146 321.008 
L 170.287187 321.008 
z
" clip-path="url(#pc61e863e9f)" style="fill: #ff7f0e"/>
   </g>
   <g id="patch_199">
    <path d="M 177.805104 321.008 
L 181.564063 321.008 
L 181.564063 313.564349 
L 177.805104 313.564349 
z
" clip-path="url(#pc61e863e9f)" style="fill: #ff7f0e"/>
   </g>
   <g id="patch_200">
    <path d="M 185.323021 321.008 
L 189.081979 321.008 
L 189.081979 315.347583 
L 185.323021 315.347583 
z
" clip-path="url(#pc61e863e9f)" style="fill: #ff7f0e"/>
   </g>
   <g id="patch_201">
    <path d="M 192.840937 321.008 
L 196.599896 321.008 
L 196.599896 311.591984 
L 192.840937 311.591984 
z
" clip-path="url(#pc61e863e9f)" style="fill: #ff7f0e"/>
   </g>
   <g id="patch_202">
    <path d="M 200.358854 321.008 
L 204.117813 321.008 
L 204.117813 313.449519 
L 200.358854 313.449519 
z
" clip-path="url(#pc61e863e9f)" style="fill: #ff7f0e"/>
   </g>
   <g id="patch_203">
    <path d="M 207.876771 321.008 
L 211.635729 321.008 
L 211.635729 321.008 
L 207.876771 321.008 
z
" clip-path="url(#pc61e863e9f)" style="fill: #ff7f0e"/>
   </g>
   <g id="patch_204">
    <path d="M 215.394688 321.008 
L 219.153646 321.008 
L 219.153646 313.557594 
L 215.394688 313.557594 
z
" clip-path="url(#pc61e863e9f)" style="fill: #ff7f0e"/>
   </g>
   <g id="patch_205">
    <path d="M 42.482604 321.008 
L 46.241563 321.008 
L 46.241563 321.008 
L 42.482604 321.008 
z
" clip-path="url(#pc61e863e9f)" style="fill: #2ca02c"/>
   </g>
   <g id="patch_206">
    <path d="M 50.000521 321.008 
L 53.759479 321.008 
L 53.759479 321.008 
L 50.000521 321.008 
z
" clip-path="url(#pc61e863e9f)" style="fill: #2ca02c"/>
   </g>
   <g id="patch_207">
    <path d="M 57.518438 321.008 
L 61.277396 321.008 
L 61.277396 321.008 
L 57.518438 321.008 
z
" clip-path="url(#pc61e863e9f)" style="fill: #2ca02c"/>
   </g>
   <g id="patch_208">
    <path d="M 65.036354 321.008 
L 68.795313 321.008 
L 68.795313 321.008 
L 65.036354 321.008 
z
" clip-path="url(#pc61e863e9f)" style="fill: #2ca02c"/>
   </g>
   <g id="patch_209">
    <path d="M 72.554271 321.008 
L 76.313229 321.008 
L 76.313229 321.008 
L 72.554271 321.008 
z
" clip-path="url(#pc61e863e9f)" style="fill: #2ca02c"/>
   </g>
   <g id="patch_210">
    <path d="M 80.072188 321.008 
L 83.831146 321.008 
L 83.831146 321.008 
L 80.072188 321.008 
z
" clip-path="url(#pc61e863e9f)" style="fill: #2ca02c"/>
   </g>
   <g id="patch_211">
    <path d="M 87.590104 321.008 
L 91.349063 321.008 
L 91.349063 321.008 
L 87.590104 321.008 
z
" clip-path="url(#pc61e863e9f)" style="fill: #2ca02c"/>
   </g>
   <g id="patch_212">
    <path d="M 95.108021 321.008 
L 98.866979 321.008 
L 98.866979 321.008 
L 95.108021 321.008 
z
" clip-path="url(#pc61e863e9f)" style="fill: #2ca02c"/>
   </g>
   <g id="patch_213">
    <path d="M 102.625937 321.008 
L 106.384896 321.008 
L 106.384896 321.008 
L 102.625937 321.008 
z
" clip-path="url(#pc61e863e9f)" style="fill: #2ca02c"/>
   </g>
   <g id="patch_214">
    <path d="M 110.143854 321.008 
L 113.902813 321.008 
L 113.902813 321.008 
L 110.143854 321.008 
z
" clip-path="url(#pc61e863e9f)" style="fill: #2ca02c"/>
   </g>
   <g id="patch_215">
    <path d="M 117.661771 321.008 
L 121.420729 321.008 
L 121.420729 321.008 
L 117.661771 321.008 
z
" clip-path="url(#pc61e863e9f)" style="fill: #2ca02c"/>
   </g>
   <g id="patch_216">
    <path d="M 125.179688 321.008 
L 128.938646 321.008 
L 128.938646 321.008 
L 125.179688 321.008 
z
" clip-path="url(#pc61e863e9f)" style="fill: #2ca02c"/>
   </g>
   <g id="patch_217">
    <path d="M 132.697604 321.008 
L 136.456563 321.008 
L 136.456563 321.008 
L 132.697604 321.008 
z
" clip-path="url(#pc61e863e9f)" style="fill: #2ca02c"/>
   </g>
   <g id="patch_218">
    <path d="M 140.215521 321.008 
L 143.974479 321.008 
L 143.974479 321.008 
L 140.215521 321.008 
z
" clip-path="url(#pc61e863e9f)" style="fill: #2ca02c"/>
   </g>
   <g id="patch_219">
    <path d="M 147.733438 321.008 
L 151.492396 321.008 
L 151.492396 321.008 
L 147.733438 321.008 
z
" clip-path="url(#pc61e863e9f)" style="fill: #2ca02c"/>
   </g>
   <g id="patch_220">
    <path d="M 155.251354 321.008 
L 159.010312 321.008 
L 159.010312 241.329861 
L 155.251354 241.329861 
z
" clip-path="url(#pc61e863e9f)" style="fill: #2ca02c"/>
   </g>
   <g id="patch_221">
    <path d="M 162.769271 313.557594 
L 166.528229 313.557594 
L 166.528229 213.95992 
L 162.769271 213.95992 
z
" clip-path="url(#pc61e863e9f)" style="fill: #2ca02c"/>
   </g>
   <g id="patch_222">
    <path d="M 170.287187 321.008 
L 174.046146 321.008 
L 174.046146 221.410326 
L 170.287187 221.410326 
z
" clip-path="url(#pc61e863e9f)" style="fill: #2ca02c"/>
   </g>
   <g id="patch_223">
    <path d="M 177.805104 313.564349 
L 181.564063 313.564349 
L 181.564063 213.966674 
L 177.805104 213.966674 
z
" clip-path="url(#pc61e863e9f)" style="fill: #2ca02c"/>
   </g>
   <g id="patch_224">
    <path d="M 185.323021 315.347583 
L 189.081979 315.347583 
L 189.081979 215.749909 
L 185.323021 215.749909 
z
" clip-path="url(#pc61e863e9f)" style="fill: #2ca02c"/>
   </g>
   <g id="patch_225">
    <path d="M 192.840937 311.591984 
L 196.599896 311.591984 
L 196.599896 211.99431 
L 192.840937 211.99431 
z
" clip-path="url(#pc61e863e9f)" style="fill: #2ca02c"/>
   </g>
   <g id="patch_226">
    <path d="M 200.358854 313.449519 
L 204.117813 313.449519 
L 204.117813 218.83004 
L 200.358854 218.83004 
z
" clip-path="url(#pc61e863e9f)" style="fill: #2ca02c"/>
   </g>
   <g id="patch_227">
    <path d="M 207.876771 321.008 
L 211.635729 321.008 
L 211.635729 321.008 
L 207.876771 321.008 
z
" clip-path="url(#pc61e863e9f)" style="fill: #2ca02c"/>
   </g>
   <g id="patch_228">
    <path d="M 215.394688 321.008 
L 219.153646 321.008 
L 219.153646 321.008 
L 215.394688 321.008 
z
" clip-path="url(#pc61e863e9f)" style="fill: #2ca02c"/>
   </g>
   <g id="matplotlib.axis_5">
    <g id="text_15">
     <!-- Time of Day -->
     <g transform="translate(100.713438 332.606437) scale(0.1 -0.1)">
      <use xlink:href="#DejaVuSans-54"/>
      <use xlink:href="#DejaVuSans-69" x="57.958984"/>
      <use xlink:href="#DejaVuSans-6d" x="85.742188"/>
      <use xlink:href="#DejaVuSans-65" x="183.154297"/>
      <use xlink:href="#DejaVuSans-20" x="244.677734"/>
      <use xlink:href="#DejaVuSans-6f" x="276.464844"/>
      <use xlink:href="#DejaVuSans-66" x="337.646484"/>
      <use xlink:href="#DejaVuSans-20" x="372.851562"/>
      <use xlink:href="#DejaVuSans-44" x="404.638672"/>
      <use xlink:href="#DejaVuSans-61" x="481.640625"/>
      <use xlink:href="#DejaVuSans-79" x="542.919922"/>
     </g>
    </g>
   </g>
   <g id="matplotlib.axis_6">
    <g id="ytick_9">
     <g id="line2d_9">
      <g>
       <use xlink:href="#md725e7ec57" x="40.603125" y="321.008" style="stroke: #000000; stroke-width: 0.8"/>
      </g>
     </g>
     <g id="text_16">
      <!-- 0 -->
      <g transform="translate(27.240625 324.807219) scale(0.1 -0.1)">
       <use xlink:href="#DejaVuSans-30"/>
      </g>
     </g>
    </g>
    <g id="ytick_10">
     <g id="line2d_10">
      <g>
       <use xlink:href="#md725e7ec57" x="40.603125" y="287.234628" style="stroke: #000000; stroke-width: 0.8"/>
      </g>
     </g>
     <g id="text_17">
      <!-- 5 -->
      <g transform="translate(27.240625 291.033847) scale(0.1 -0.1)">
       <use xlink:href="#DejaVuSans-35"/>
      </g>
     </g>
    </g>
    <g id="ytick_11">
     <g id="line2d_11">
      <g>
       <use xlink:href="#md725e7ec57" x="40.603125" y="253.461256" style="stroke: #000000; stroke-width: 0.8"/>
      </g>
     </g>
     <g id="text_18">
      <!-- 10 -->
      <g transform="translate(20.878125 257.260475) scale(0.1 -0.1)">
       <use xlink:href="#DejaVuSans-31"/>
       <use xlink:href="#DejaVuSans-30" x="63.623047"/>
      </g>
     </g>
    </g>
    <g id="ytick_12">
     <g id="line2d_12">
      <g>
       <use xlink:href="#md725e7ec57" x="40.603125" y="219.687884" style="stroke: #000000; stroke-width: 0.8"/>
      </g>
     </g>
     <g id="text_19">
      <!-- 15 -->
      <g transform="translate(20.878125 223.487102) scale(0.1 -0.1)">
       <use xlink:href="#DejaVuSans-31"/>
       <use xlink:href="#DejaVuSans-35" x="63.623047"/>
      </g>
     </g>
    </g>
    <g id="text_20">
     <!-- Natural Gas Usage (kWh) -->
     <g transform="translate(14.798438 327.016437) rotate(-90) scale(0.1 -0.1)">
      <use xlink:href="#DejaVuSans-4e"/>
      <use xlink:href="#DejaVuSans-61" x="74.804688"/>
      <use xlink:href="#DejaVuSans-74" x="136.083984"/>
      <use xlink:href="#DejaVuSans-75" x="175.292969"/>
      <use xlink:href="#DejaVuSans-72" x="238.671875"/>
      <use xlink:href="#DejaVuSans-61" x="279.785156"/>
      <use xlink:href="#DejaVuSans-6c" x="341.064453"/>
      <use xlink:href="#DejaVuSans-20" x="368.847656"/>
      <use xlink:href="#DejaVuSans-47" x="400.634766"/>
      <use xlink:href="#DejaVuSans-61" x="478.125"/>
      <use xlink:href="#DejaVuSans-73" x="539.404297"/>
      <use xlink:href="#DejaVuSans-20" x="591.503906"/>
      <use xlink:href="#DejaVuSans-55" x="623.291016"/>
      <use xlink:href="#DejaVuSans-73" x="696.484375"/>
      <use xlink:href="#DejaVuSans-61" x="748.583984"/>
      <use xlink:href="#DejaVuSans-67" x="809.863281"/>
      <use xlink:href="#DejaVuSans-65" x="873.339844"/>
      <use xlink:href="#DejaVuSans-20" x="934.863281"/>
      <use xlink:href="#DejaVuSans-28" x="966.650391"/>
      <use xlink:href="#DejaVuSans-6b" x="1005.664062"/>
      <use xlink:href="#DejaVuSans-57" x="1063.574219"/>
      <use xlink:href="#DejaVuSans-68" x="1162.451172"/>
      <use xlink:href="#DejaVuSans-29" x="1225.830078"/>
     </g>
    </g>
   </g>
   <g id="patch_229">
    <path d="M 40.603125 321.008 
L 40.603125 206.543625 
" style="fill: none; stroke: #000000; stroke-width: 0.8; stroke-linejoin: miter; stroke-linecap: square"/>
   </g>
   <g id="patch_230">
    <path d="M 221.033125 321.008 
L 221.033125 206.543625 
" style="fill: none; stroke: #000000; stroke-width: 0.8; stroke-linejoin: miter; stroke-linecap: square"/>
   </g>
   <g id="patch_231">
    <path d="M 40.603125 321.008 
L 221.033125 321.008 
" style="fill: none; stroke: #000000; stroke-width: 0.8; stroke-linejoin: miter; stroke-linecap: square"/>
   </g>
   <g id="patch_232">
    <path d="M 40.603125 206.543625 
L 221.033125 206.543625 
" style="fill: none; stroke: #000000; stroke-width: 0.8; stroke-linejoin: miter; stroke-linecap: square"/>
   </g>
   <g id="text_21">
    <!-- Summer -->
    <g transform="translate(105.359375 200.543625) scale(0.12 -0.12)">
     <use xlink:href="#DejaVuSans-53"/>
     <use xlink:href="#DejaVuSans-75" x="63.476562"/>
     <use xlink:href="#DejaVuSans-6d" x="126.855469"/>
     <use xlink:href="#DejaVuSans-6d" x="224.267578"/>
     <use xlink:href="#DejaVuSans-65" x="321.679688"/>
     <use xlink:href="#DejaVuSans-72" x="383.203125"/>
    </g>
   </g>
  </g>
  <g id="axes_4">
   <g id="patch_233">
    <path d="M 265.603125 321.008 
L 446.033125 321.008 
L 446.033125 206.543625 
L 265.603125 206.543625 
z
" style="fill: #ffffff"/>
   </g>
   <g id="patch_234">
    <path d="M 267.482604 321.008 
L 271.241562 321.008 
L 271.241562 321.008 
L 267.482604 321.008 
z
" clip-path="url(#p15f7597344)" style="fill: #1f77b4"/>
   </g>
   <g id="patch_235">
    <path d="M 275.000521 321.008 
L 278.759479 321.008 
L 278.759479 321.008 
L 275.000521 321.008 
z
" clip-path="url(#p15f7597344)" style="fill: #1f77b4"/>
   </g>
   <g id="patch_236">
    <path d="M 282.518438 321.008 
L 286.277396 321.008 
L 286.277396 321.008 
L 282.518438 321.008 
z
" clip-path="url(#p15f7597344)" style="fill: #1f77b4"/>
   </g>
   <g id="patch_237">
    <path d="M 290.036354 321.008 
L 293.795312 321.008 
L 293.795312 321.008 
L 290.036354 321.008 
z
" clip-path="url(#p15f7597344)" style="fill: #1f77b4"/>
   </g>
   <g id="patch_238">
    <path d="M 297.554271 321.008 
L 301.313229 321.008 
L 301.313229 321.008 
L 297.554271 321.008 
z
" clip-path="url(#p15f7597344)" style="fill: #1f77b4"/>
   </g>
   <g id="patch_239">
    <path d="M 305.072187 321.008 
L 308.831146 321.008 
L 308.831146 321.008 
L 305.072187 321.008 
z
" clip-path="url(#p15f7597344)" style="fill: #1f77b4"/>
   </g>
   <g id="patch_240">
    <path d="M 312.590104 321.008 
L 316.349063 321.008 
L 316.349063 321.008 
L 312.590104 321.008 
z
" clip-path="url(#p15f7597344)" style="fill: #1f77b4"/>
   </g>
   <g id="patch_241">
    <path d="M 320.108021 321.008 
L 323.866979 321.008 
L 323.866979 321.008 
L 320.108021 321.008 
z
" clip-path="url(#p15f7597344)" style="fill: #1f77b4"/>
   </g>
   <g id="patch_242">
    <path d="M 327.625937 321.008 
L 331.384896 321.008 
L 331.384896 321.008 
L 327.625937 321.008 
z
" clip-path="url(#p15f7597344)" style="fill: #1f77b4"/>
   </g>
   <g id="patch_243">
    <path d="M 335.143854 321.008 
L 338.902812 321.008 
L 338.902812 321.008 
L 335.143854 321.008 
z
" clip-path="url(#p15f7597344)" style="fill: #1f77b4"/>
   </g>
   <g id="patch_244">
    <path d="M 342.661771 321.008 
L 346.420729 321.008 
L 346.420729 321.008 
L 342.661771 321.008 
z
" clip-path="url(#p15f7597344)" style="fill: #1f77b4"/>
   </g>
   <g id="patch_245">
    <path d="M 350.179688 321.008 
L 353.938646 321.008 
L 353.938646 321.008 
L 350.179688 321.008 
z
" clip-path="url(#p15f7597344)" style="fill: #1f77b4"/>
   </g>
   <g id="patch_246">
    <path d="M 357.697604 321.008 
L 361.456563 321.008 
L 361.456563 321.008 
L 357.697604 321.008 
z
" clip-path="url(#p15f7597344)" style="fill: #1f77b4"/>
   </g>
   <g id="patch_247">
    <path d="M 365.215521 321.008 
L 368.974479 321.008 
L 368.974479 321.008 
L 365.215521 321.008 
z
" clip-path="url(#p15f7597344)" style="fill: #1f77b4"/>
   </g>
   <g id="patch_248">
    <path d="M 372.733437 321.008 
L 376.492396 321.008 
L 376.492396 321.008 
L 372.733437 321.008 
z
" clip-path="url(#p15f7597344)" style="fill: #1f77b4"/>
   </g>
   <g id="patch_249">
    <path d="M 380.251354 321.008 
L 384.010312 321.008 
L 384.010312 321.008 
L 380.251354 321.008 
z
" clip-path="url(#p15f7597344)" style="fill: #1f77b4"/>
   </g>
   <g id="patch_250">
    <path d="M 387.769271 321.008 
L 391.528229 321.008 
L 391.528229 321.008 
L 387.769271 321.008 
z
" clip-path="url(#p15f7597344)" style="fill: #1f77b4"/>
   </g>
   <g id="patch_251">
    <path d="M 395.287187 321.008 
L 399.046146 321.008 
L 399.046146 321.008 
L 395.287187 321.008 
z
" clip-path="url(#p15f7597344)" style="fill: #1f77b4"/>
   </g>
   <g id="patch_252">
    <path d="M 402.805104 321.008 
L 406.564062 321.008 
L 406.564062 321.008 
L 402.805104 321.008 
z
" clip-path="url(#p15f7597344)" style="fill: #1f77b4"/>
   </g>
   <g id="patch_253">
    <path d="M 410.323021 321.008 
L 414.081979 321.008 
L 414.081979 321.008 
L 410.323021 321.008 
z
" clip-path="url(#p15f7597344)" style="fill: #1f77b4"/>
   </g>
   <g id="patch_254">
    <path d="M 417.840937 321.008 
L 421.599896 321.008 
L 421.599896 321.008 
L 417.840937 321.008 
z
" clip-path="url(#p15f7597344)" style="fill: #1f77b4"/>
   </g>
   <g id="patch_255">
    <path d="M 425.358854 321.008 
L 429.117813 321.008 
L 429.117813 321.008 
L 425.358854 321.008 
z
" clip-path="url(#p15f7597344)" style="fill: #1f77b4"/>
   </g>
   <g id="patch_256">
    <path d="M 432.876771 321.008 
L 436.635729 321.008 
L 436.635729 321.008 
L 432.876771 321.008 
z
" clip-path="url(#p15f7597344)" style="fill: #1f77b4"/>
   </g>
   <g id="patch_257">
    <path d="M 440.394687 321.008 
L 444.153646 321.008 
L 444.153646 321.008 
L 440.394687 321.008 
z
" clip-path="url(#p15f7597344)" style="fill: #1f77b4"/>
   </g>
   <g id="patch_258">
    <path d="M 267.482604 321.008 
L 271.241562 321.008 
L 271.241562 312.573907 
L 267.482604 312.573907 
z
" clip-path="url(#p15f7597344)" style="fill: #ff7f0e"/>
   </g>
   <g id="patch_259">
    <path d="M 275.000521 321.008 
L 278.759479 321.008 
L 278.759479 312.642168 
L 275.000521 312.642168 
z
" clip-path="url(#p15f7597344)" style="fill: #ff7f0e"/>
   </g>
   <g id="patch_260">
    <path d="M 282.518438 321.008 
L 286.277396 321.008 
L 286.277396 321.008 
L 282.518438 321.008 
z
" clip-path="url(#p15f7597344)" style="fill: #ff7f0e"/>
   </g>
   <g id="patch_261">
    <path d="M 290.036354 321.008 
L 293.795312 321.008 
L 293.795312 312.642168 
L 290.036354 312.642168 
z
" clip-path="url(#p15f7597344)" style="fill: #ff7f0e"/>
   </g>
   <g id="patch_262">
    <path d="M 297.554271 321.008 
L 301.313229 321.008 
L 301.313229 293.847489 
L 297.554271 293.847489 
z
" clip-path="url(#p15f7597344)" style="fill: #ff7f0e"/>
   </g>
   <g id="patch_263">
    <path d="M 305.072187 321.008 
L 308.831146 321.008 
L 308.831146 294.439089 
L 305.072187 294.439089 
z
" clip-path="url(#p15f7597344)" style="fill: #ff7f0e"/>
   </g>
   <g id="patch_264">
    <path d="M 312.590104 321.008 
L 316.349063 321.008 
L 316.349063 312.467722 
L 312.590104 312.467722 
z
" clip-path="url(#p15f7597344)" style="fill: #ff7f0e"/>
   </g>
   <g id="patch_265">
    <path d="M 320.108021 321.008 
L 323.866979 321.008 
L 323.866979 303.654398 
L 320.108021 303.654398 
z
" clip-path="url(#p15f7597344)" style="fill: #ff7f0e"/>
   </g>
   <g id="patch_266">
    <path d="M 327.625937 321.008 
L 331.384896 321.008 
L 331.384896 283.858549 
L 327.625937 283.858549 
z
" clip-path="url(#p15f7597344)" style="fill: #ff7f0e"/>
   </g>
   <g id="patch_267">
    <path d="M 335.143854 321.008 
L 338.902812 321.008 
L 338.902812 294.636289 
L 335.143854 294.636289 
z
" clip-path="url(#p15f7597344)" style="fill: #ff7f0e"/>
   </g>
   <g id="patch_268">
    <path d="M 342.661771 321.008 
L 346.420729 321.008 
L 346.420729 321.008 
L 342.661771 321.008 
z
" clip-path="url(#p15f7597344)" style="fill: #ff7f0e"/>
   </g>
   <g id="patch_269">
    <path d="M 350.179688 321.008 
L 353.938646 321.008 
L 353.938646 312.634584 
L 350.179688 312.634584 
z
" clip-path="url(#p15f7597344)" style="fill: #ff7f0e"/>
   </g>
   <g id="patch_270">
    <path d="M 357.697604 321.008 
L 361.456563 321.008 
L 361.456563 321.008 
L 357.697604 321.008 
z
" clip-path="url(#p15f7597344)" style="fill: #ff7f0e"/>
   </g>
   <g id="patch_271">
    <path d="M 365.215521 321.008 
L 368.974479 321.008 
L 368.974479 294.393581 
L 365.215521 294.393581 
z
" clip-path="url(#p15f7597344)" style="fill: #ff7f0e"/>
   </g>
   <g id="patch_272">
    <path d="M 372.733437 321.008 
L 376.492396 321.008 
L 376.492396 312.642168 
L 372.733437 312.642168 
z
" clip-path="url(#p15f7597344)" style="fill: #ff7f0e"/>
   </g>
   <g id="patch_273">
    <path d="M 380.251354 321.008 
L 384.010312 321.008 
L 384.010312 321.008 
L 380.251354 321.008 
z
" clip-path="url(#p15f7597344)" style="fill: #ff7f0e"/>
   </g>
   <g id="patch_274">
    <path d="M 387.769271 321.008 
L 391.528229 321.008 
L 391.528229 312.642168 
L 387.769271 312.642168 
z
" clip-path="url(#p15f7597344)" style="fill: #ff7f0e"/>
   </g>
   <g id="patch_275">
    <path d="M 395.287187 321.008 
L 399.046146 321.008 
L 399.046146 321.008 
L 395.287187 321.008 
z
" clip-path="url(#p15f7597344)" style="fill: #ff7f0e"/>
   </g>
   <g id="patch_276">
    <path d="M 402.805104 321.008 
L 406.564062 321.008 
L 406.564062 312.642168 
L 402.805104 312.642168 
z
" clip-path="url(#p15f7597344)" style="fill: #ff7f0e"/>
   </g>
   <g id="patch_277">
    <path d="M 410.323021 321.008 
L 414.081979 321.008 
L 414.081979 321.008 
L 410.323021 321.008 
z
" clip-path="url(#p15f7597344)" style="fill: #ff7f0e"/>
   </g>
   <g id="patch_278">
    <path d="M 417.840937 321.008 
L 421.599896 321.008 
L 421.599896 312.642168 
L 417.840937 312.642168 
z
" clip-path="url(#p15f7597344)" style="fill: #ff7f0e"/>
   </g>
   <g id="patch_279">
    <path d="M 425.358854 321.008 
L 429.117813 321.008 
L 429.117813 303.578552 
L 425.358854 303.578552 
z
" clip-path="url(#p15f7597344)" style="fill: #ff7f0e"/>
   </g>
   <g id="patch_280">
    <path d="M 432.876771 321.008 
L 436.635729 321.008 
L 436.635729 303.722659 
L 432.876771 303.722659 
z
" clip-path="url(#p15f7597344)" style="fill: #ff7f0e"/>
   </g>
   <g id="patch_281">
    <path d="M 440.394687 321.008 
L 444.153646 321.008 
L 444.153646 321.008 
L 440.394687 321.008 
z
" clip-path="url(#p15f7597344)" style="fill: #ff7f0e"/>
   </g>
   <g id="patch_282">
    <path d="M 267.482604 321.008 
L 271.241562 321.008 
L 271.241562 321.008 
L 267.482604 321.008 
z
" clip-path="url(#p15f7597344)" style="fill: #2ca02c"/>
   </g>
   <g id="patch_283">
    <path d="M 275.000521 321.008 
L 278.759479 321.008 
L 278.759479 321.008 
L 275.000521 321.008 
z
" clip-path="url(#p15f7597344)" style="fill: #2ca02c"/>
   </g>
   <g id="patch_284">
    <path d="M 282.518438 321.008 
L 286.277396 321.008 
L 286.277396 321.008 
L 282.518438 321.008 
z
" clip-path="url(#p15f7597344)" style="fill: #2ca02c"/>
   </g>
   <g id="patch_285">
    <path d="M 290.036354 321.008 
L 293.795312 321.008 
L 293.795312 321.008 
L 290.036354 321.008 
z
" clip-path="url(#p15f7597344)" style="fill: #2ca02c"/>
   </g>
   <g id="patch_286">
    <path d="M 297.554271 321.008 
L 301.313229 321.008 
L 301.313229 321.008 
L 297.554271 321.008 
z
" clip-path="url(#p15f7597344)" style="fill: #2ca02c"/>
   </g>
   <g id="patch_287">
    <path d="M 305.072187 321.008 
L 308.831146 321.008 
L 308.831146 321.008 
L 305.072187 321.008 
z
" clip-path="url(#p15f7597344)" style="fill: #2ca02c"/>
   </g>
   <g id="patch_288">
    <path d="M 312.590104 321.008 
L 316.349063 321.008 
L 316.349063 321.008 
L 312.590104 321.008 
z
" clip-path="url(#p15f7597344)" style="fill: #2ca02c"/>
   </g>
   <g id="patch_289">
    <path d="M 320.108021 321.008 
L 323.866979 321.008 
L 323.866979 321.008 
L 320.108021 321.008 
z
" clip-path="url(#p15f7597344)" style="fill: #2ca02c"/>
   </g>
   <g id="patch_290">
    <path d="M 327.625937 321.008 
L 331.384896 321.008 
L 331.384896 321.008 
L 327.625937 321.008 
z
" clip-path="url(#p15f7597344)" style="fill: #2ca02c"/>
   </g>
   <g id="patch_291">
    <path d="M 335.143854 321.008 
L 338.902812 321.008 
L 338.902812 321.008 
L 335.143854 321.008 
z
" clip-path="url(#p15f7597344)" style="fill: #2ca02c"/>
   </g>
   <g id="patch_292">
    <path d="M 342.661771 321.008 
L 346.420729 321.008 
L 346.420729 321.008 
L 342.661771 321.008 
z
" clip-path="url(#p15f7597344)" style="fill: #2ca02c"/>
   </g>
   <g id="patch_293">
    <path d="M 350.179688 321.008 
L 353.938646 321.008 
L 353.938646 321.008 
L 350.179688 321.008 
z
" clip-path="url(#p15f7597344)" style="fill: #2ca02c"/>
   </g>
   <g id="patch_294">
    <path d="M 357.697604 321.008 
L 361.456563 321.008 
L 361.456563 321.008 
L 357.697604 321.008 
z
" clip-path="url(#p15f7597344)" style="fill: #2ca02c"/>
   </g>
   <g id="patch_295">
    <path d="M 365.215521 321.008 
L 368.974479 321.008 
L 368.974479 321.008 
L 365.215521 321.008 
z
" clip-path="url(#p15f7597344)" style="fill: #2ca02c"/>
   </g>
   <g id="patch_296">
    <path d="M 372.733437 321.008 
L 376.492396 321.008 
L 376.492396 321.008 
L 372.733437 321.008 
z
" clip-path="url(#p15f7597344)" style="fill: #2ca02c"/>
   </g>
   <g id="patch_297">
    <path d="M 380.251354 321.008 
L 384.010312 321.008 
L 384.010312 321.008 
L 380.251354 321.008 
z
" clip-path="url(#p15f7597344)" style="fill: #2ca02c"/>
   </g>
   <g id="patch_298">
    <path d="M 387.769271 321.008 
L 391.528229 321.008 
L 391.528229 321.008 
L 387.769271 321.008 
z
" clip-path="url(#p15f7597344)" style="fill: #2ca02c"/>
   </g>
   <g id="patch_299">
    <path d="M 395.287187 321.008 
L 399.046146 321.008 
L 399.046146 287.461242 
L 395.287187 287.461242 
z
" clip-path="url(#p15f7597344)" style="fill: #2ca02c"/>
   </g>
   <g id="patch_300">
    <path d="M 402.805104 312.642168 
L 406.564062 312.642168 
L 406.564062 211.99431 
L 402.805104 211.99431 
z
" clip-path="url(#p15f7597344)" style="fill: #2ca02c"/>
   </g>
   <g id="patch_301">
    <path d="M 410.323021 321.008 
L 414.081979 321.008 
L 414.081979 321.008 
L 410.323021 321.008 
z
" clip-path="url(#p15f7597344)" style="fill: #2ca02c"/>
   </g>
   <g id="patch_302">
    <path d="M 417.840937 321.008 
L 421.599896 321.008 
L 421.599896 321.008 
L 417.840937 321.008 
z
" clip-path="url(#p15f7597344)" style="fill: #2ca02c"/>
   </g>
   <g id="patch_303">
    <path d="M 425.358854 321.008 
L 429.117813 321.008 
L 429.117813 321.008 
L 425.358854 321.008 
z
" clip-path="url(#p15f7597344)" style="fill: #2ca02c"/>
   </g>
   <g id="patch_304">
    <path d="M 432.876771 321.008 
L 436.635729 321.008 
L 436.635729 321.008 
L 432.876771 321.008 
z
" clip-path="url(#p15f7597344)" style="fill: #2ca02c"/>
   </g>
   <g id="patch_305">
    <path d="M 440.394687 321.008 
L 444.153646 321.008 
L 444.153646 321.008 
L 440.394687 321.008 
z
" clip-path="url(#p15f7597344)" style="fill: #2ca02c"/>
   </g>
   <g id="matplotlib.axis_7">
    <g id="text_22">
     <!-- Time of Day -->
     <g transform="translate(325.713437 332.606437) scale(0.1 -0.1)">
      <use xlink:href="#DejaVuSans-54"/>
      <use xlink:href="#DejaVuSans-69" x="57.958984"/>
      <use xlink:href="#DejaVuSans-6d" x="85.742188"/>
      <use xlink:href="#DejaVuSans-65" x="183.154297"/>
      <use xlink:href="#DejaVuSans-20" x="244.677734"/>
      <use xlink:href="#DejaVuSans-6f" x="276.464844"/>
      <use xlink:href="#DejaVuSans-66" x="337.646484"/>
      <use xlink:href="#DejaVuSans-20" x="372.851562"/>
      <use xlink:href="#DejaVuSans-44" x="404.638672"/>
      <use xlink:href="#DejaVuSans-61" x="481.640625"/>
      <use xlink:href="#DejaVuSans-79" x="542.919922"/>
     </g>
    </g>
   </g>
   <g id="matplotlib.axis_8">
    <g id="ytick_13">
     <g id="line2d_13">
      <g>
       <use xlink:href="#md725e7ec57" x="265.603125" y="321.008" style="stroke: #000000; stroke-width: 0.8"/>
      </g>
     </g>
     <g id="text_23">
      <!-- 0 -->
      <g transform="translate(252.240625 324.807219) scale(0.1 -0.1)">
       <use xlink:href="#DejaVuSans-30"/>
      </g>
     </g>
    </g>
    <g id="ytick_14">
     <g id="line2d_14">
      <g>
       <use xlink:href="#md725e7ec57" x="265.603125" y="283.084918" style="stroke: #000000; stroke-width: 0.8"/>
      </g>
     </g>
     <g id="text_24">
      <!-- 5 -->
      <g transform="translate(252.240625 286.884137) scale(0.1 -0.1)">
       <use xlink:href="#DejaVuSans-35"/>
      </g>
     </g>
    </g>
    <g id="ytick_15">
     <g id="line2d_15">
      <g>
       <use xlink:href="#md725e7ec57" x="265.603125" y="245.161837" style="stroke: #000000; stroke-width: 0.8"/>
      </g>
     </g>
     <g id="text_25">
      <!-- 10 -->
      <g transform="translate(245.878125 248.961055) scale(0.1 -0.1)">
       <use xlink:href="#DejaVuSans-31"/>
       <use xlink:href="#DejaVuSans-30" x="63.623047"/>
      </g>
     </g>
    </g>
    <g id="ytick_16">
     <g id="line2d_16">
      <g>
       <use xlink:href="#md725e7ec57" x="265.603125" y="207.238755" style="stroke: #000000; stroke-width: 0.8"/>
      </g>
     </g>
     <g id="text_26">
      <!-- 15 -->
      <g transform="translate(245.878125 211.037974) scale(0.1 -0.1)">
       <use xlink:href="#DejaVuSans-31"/>
       <use xlink:href="#DejaVuSans-35" x="63.623047"/>
      </g>
     </g>
    </g>
    <g id="text_27">
     <!-- Natural Gas Usage (kWh) -->
     <g transform="translate(239.798437 327.016437) rotate(-90) scale(0.1 -0.1)">
      <use xlink:href="#DejaVuSans-4e"/>
      <use xlink:href="#DejaVuSans-61" x="74.804688"/>
      <use xlink:href="#DejaVuSans-74" x="136.083984"/>
      <use xlink:href="#DejaVuSans-75" x="175.292969"/>
      <use xlink:href="#DejaVuSans-72" x="238.671875"/>
      <use xlink:href="#DejaVuSans-61" x="279.785156"/>
      <use xlink:href="#DejaVuSans-6c" x="341.064453"/>
      <use xlink:href="#DejaVuSans-20" x="368.847656"/>
      <use xlink:href="#DejaVuSans-47" x="400.634766"/>
      <use xlink:href="#DejaVuSans-61" x="478.125"/>
      <use xlink:href="#DejaVuSans-73" x="539.404297"/>
      <use xlink:href="#DejaVuSans-20" x="591.503906"/>
      <use xlink:href="#DejaVuSans-55" x="623.291016"/>
      <use xlink:href="#DejaVuSans-73" x="696.484375"/>
      <use xlink:href="#DejaVuSans-61" x="748.583984"/>
      <use xlink:href="#DejaVuSans-67" x="809.863281"/>
      <use xlink:href="#DejaVuSans-65" x="873.339844"/>
      <use xlink:href="#DejaVuSans-20" x="934.863281"/>
      <use xlink:href="#DejaVuSans-28" x="966.650391"/>
      <use xlink:href="#DejaVuSans-6b" x="1005.664062"/>
      <use xlink:href="#DejaVuSans-57" x="1063.574219"/>
      <use xlink:href="#DejaVuSans-68" x="1162.451172"/>
      <use xlink:href="#DejaVuSans-29" x="1225.830078"/>
     </g>
    </g>
   </g>
   <g id="patch_306">
    <path d="M 265.603125 321.008 
L 265.603125 206.543625 
" style="fill: none; stroke: #000000; stroke-width: 0.8; stroke-linejoin: miter; stroke-linecap: square"/>
   </g>
   <g id="patch_307">
    <path d="M 446.033125 321.008 
L 446.033125 206.543625 
" style="fill: none; stroke: #000000; stroke-width: 0.8; stroke-linejoin: miter; stroke-linecap: square"/>
   </g>
   <g id="patch_308">
    <path d="M 265.603125 321.008 
L 446.033125 321.008 
" style="fill: none; stroke: #000000; stroke-width: 0.8; stroke-linejoin: miter; stroke-linecap: square"/>
   </g>
   <g id="patch_309">
    <path d="M 265.603125 206.543625 
L 446.033125 206.543625 
" style="fill: none; stroke: #000000; stroke-width: 0.8; stroke-linejoin: miter; stroke-linecap: square"/>
   </g>
   <g id="text_28">
    <!-- Fall -->
    <g transform="translate(345.904063 200.543625) scale(0.12 -0.12)">
     <defs>
      <path id="DejaVuSans-46" d="M 628 4666 
L 3309 4666 
L 3309 4134 
L 1259 4134 
L 1259 2759 
L 3109 2759 
L 3109 2228 
L 1259 2228 
L 1259 0 
L 628 0 
L 628 4666 
z
" transform="scale(0.015625)"/>
     </defs>
     <use xlink:href="#DejaVuSans-46"/>
     <use xlink:href="#DejaVuSans-61" x="48.394531"/>
     <use xlink:href="#DejaVuSans-6c" x="109.673828"/>
     <use xlink:href="#DejaVuSans-6c" x="137.457031"/>
    </g>
   </g>
  </g>
  <g id="text_29">
   <!-- Unit in a 3_4 unit building -->
   <g transform="translate(149.247813 16.318125) scale(0.12 -0.12)">
    <defs>
     <path id="DejaVuSans-33" d="M 2597 2516 
Q 3050 2419 3304 2112 
Q 3559 1806 3559 1356 
Q 3559 666 3084 287 
Q 2609 -91 1734 -91 
Q 1441 -91 1130 -33 
Q 819 25 488 141 
L 488 750 
Q 750 597 1062 519 
Q 1375 441 1716 441 
Q 2309 441 2620 675 
Q 2931 909 2931 1356 
Q 2931 1769 2642 2001 
Q 2353 2234 1838 2234 
L 1294 2234 
L 1294 2753 
L 1863 2753 
Q 2328 2753 2575 2939 
Q 2822 3125 2822 3475 
Q 2822 3834 2567 4026 
Q 2313 4219 1838 4219 
Q 1578 4219 1281 4162 
Q 984 4106 628 3988 
L 628 4550 
Q 988 4650 1302 4700 
Q 1616 4750 1894 4750 
Q 2613 4750 3031 4423 
Q 3450 4097 3450 3541 
Q 3450 3153 3228 2886 
Q 3006 2619 2597 2516 
z
" transform="scale(0.015625)"/>
     <path id="DejaVuSans-5f" d="M 3263 -1063 
L 3263 -1509 
L -63 -1509 
L -63 -1063 
L 3263 -1063 
z
" transform="scale(0.015625)"/>
     <path id="DejaVuSans-34" d="M 2419 4116 
L 825 1625 
L 2419 1625 
L 2419 4116 
z
M 2253 4666 
L 3047 4666 
L 3047 1625 
L 3713 1625 
L 3713 1100 
L 3047 1100 
L 3047 0 
L 2419 0 
L 2419 1100 
L 313 1100 
L 313 1709 
L 2253 4666 
z
" transform="scale(0.015625)"/>
     <path id="DejaVuSans-62" d="M 3116 1747 
Q 3116 2381 2855 2742 
Q 2594 3103 2138 3103 
Q 1681 3103 1420 2742 
Q 1159 2381 1159 1747 
Q 1159 1113 1420 752 
Q 1681 391 2138 391 
Q 2594 391 2855 752 
Q 3116 1113 3116 1747 
z
M 1159 2969 
Q 1341 3281 1617 3432 
Q 1894 3584 2278 3584 
Q 2916 3584 3314 3078 
Q 3713 2572 3713 1747 
Q 3713 922 3314 415 
Q 2916 -91 2278 -91 
Q 1894 -91 1617 61 
Q 1341 213 1159 525 
L 1159 0 
L 581 0 
L 581 4863 
L 1159 4863 
L 1159 2969 
z
" transform="scale(0.015625)"/>
     <path id="DejaVuSans-64" d="M 2906 2969 
L 2906 4863 
L 3481 4863 
L 3481 0 
L 2906 0 
L 2906 525 
Q 2725 213 2448 61 
Q 2172 -91 1784 -91 
Q 1150 -91 751 415 
Q 353 922 353 1747 
Q 353 2572 751 3078 
Q 1150 3584 1784 3584 
Q 2172 3584 2448 3432 
Q 2725 3281 2906 2969 
z
M 947 1747 
Q 947 1113 1208 752 
Q 1469 391 1925 391 
Q 2381 391 2643 752 
Q 2906 1113 2906 1747 
Q 2906 2381 2643 2742 
Q 2381 3103 1925 3103 
Q 1469 3103 1208 2742 
Q 947 2381 947 1747 
z
" transform="scale(0.015625)"/>
    </defs>
    <use xlink:href="#DejaVuSans-55"/>
    <use xlink:href="#DejaVuSans-6e" x="73.193359"/>
    <use xlink:href="#DejaVuSans-69" x="136.572266"/>
    <use xlink:href="#DejaVuSans-74" x="164.355469"/>
    <use xlink:href="#DejaVuSans-20" x="203.564453"/>
    <use xlink:href="#DejaVuSans-69" x="235.351562"/>
    <use xlink:href="#DejaVuSans-6e" x="263.134766"/>
    <use xlink:href="#DejaVuSans-20" x="326.513672"/>
    <use xlink:href="#DejaVuSans-61" x="358.300781"/>
    <use xlink:href="#DejaVuSans-20" x="419.580078"/>
    <use xlink:href="#DejaVuSans-33" x="451.367188"/>
    <use xlink:href="#DejaVuSans-5f" x="514.990234"/>
    <use xlink:href="#DejaVuSans-34" x="564.990234"/>
    <use xlink:href="#DejaVuSans-20" x="628.613281"/>
    <use xlink:href="#DejaVuSans-75" x="660.400391"/>
    <use xlink:href="#DejaVuSans-6e" x="723.779297"/>
    <use xlink:href="#DejaVuSans-69" x="787.158203"/>
    <use xlink:href="#DejaVuSans-74" x="814.941406"/>
    <use xlink:href="#DejaVuSans-20" x="854.150391"/>
    <use xlink:href="#DejaVuSans-62" x="885.9375"/>
    <use xlink:href="#DejaVuSans-75" x="949.414062"/>
    <use xlink:href="#DejaVuSans-69" x="1012.792969"/>
    <use xlink:href="#DejaVuSans-6c" x="1040.576172"/>
    <use xlink:href="#DejaVuSans-64" x="1068.359375"/>
    <use xlink:href="#DejaVuSans-69" x="1131.835938"/>
    <use xlink:href="#DejaVuSans-6e" x="1159.619141"/>
    <use xlink:href="#DejaVuSans-67" x="1222.998047"/>
   </g>
  </g>
  <g id="legend_1">
   <g id="patch_310">
    <path d="M 87.019844 368.566125 
L 365.846406 368.566125 
Q 367.846406 368.566125 367.846406 366.566125 
L 367.846406 352.888 
Q 367.846406 350.888 365.846406 350.888 
L 87.019844 350.888 
Q 85.019844 350.888 85.019844 352.888 
L 85.019844 366.566125 
Q 85.019844 368.566125 87.019844 368.566125 
z
" style="fill: #ffffff; opacity: 0.8; stroke: #cccccc; stroke-linejoin: miter"/>
   </g>
   <g id="patch_311">
    <path d="M 89.019844 362.486437 
L 109.019844 362.486437 
L 109.019844 355.486437 
L 89.019844 355.486437 
z
" style="fill: #1f77b4"/>
   </g>
   <g id="text_30">
    <!-- Heating -->
    <g transform="translate(117.019844 362.486437) scale(0.1 -0.1)">
     <defs>
      <path id="DejaVuSans-48" d="M 628 4666 
L 1259 4666 
L 1259 2753 
L 3553 2753 
L 3553 4666 
L 4184 4666 
L 4184 0 
L 3553 0 
L 3553 2222 
L 1259 2222 
L 1259 0 
L 628 0 
L 628 4666 
z
" transform="scale(0.015625)"/>
     </defs>
     <use xlink:href="#DejaVuSans-48"/>
     <use xlink:href="#DejaVuSans-65" x="75.195312"/>
     <use xlink:href="#DejaVuSans-61" x="136.71875"/>
     <use xlink:href="#DejaVuSans-74" x="197.998047"/>
     <use xlink:href="#DejaVuSans-69" x="237.207031"/>
     <use xlink:href="#DejaVuSans-6e" x="264.990234"/>
     <use xlink:href="#DejaVuSans-67" x="328.369141"/>
    </g>
   </g>
   <g id="patch_312">
    <path d="M 176.205781 362.486437 
L 196.205781 362.486437 
L 196.205781 355.486437 
L 176.205781 355.486437 
z
" style="fill: #ff7f0e"/>
   </g>
   <g id="text_31">
    <!-- Hot Water -->
    <g transform="translate(204.205781 362.486437) scale(0.1 -0.1)">
     <use xlink:href="#DejaVuSans-48"/>
     <use xlink:href="#DejaVuSans-6f" x="75.195312"/>
     <use xlink:href="#DejaVuSans-74" x="136.376953"/>
     <use xlink:href="#DejaVuSans-20" x="175.585938"/>
     <use xlink:href="#DejaVuSans-57" x="207.373047"/>
     <use xlink:href="#DejaVuSans-61" x="299.875"/>
     <use xlink:href="#DejaVuSans-74" x="361.154297"/>
     <use xlink:href="#DejaVuSans-65" x="400.363281"/>
     <use xlink:href="#DejaVuSans-72" x="461.886719"/>
    </g>
   </g>
   <g id="patch_313">
    <path d="M 274.505781 362.486437 
L 294.505781 362.486437 
L 294.505781 355.486437 
L 274.505781 355.486437 
z
" style="fill: #2ca02c"/>
   </g>
   <g id="text_32">
    <!-- Range/Oven -->
    <g transform="translate(302.505781 362.486437) scale(0.1 -0.1)">
     <defs>
      <path id="DejaVuSans-52" d="M 2841 2188 
Q 3044 2119 3236 1894 
Q 3428 1669 3622 1275 
L 4263 0 
L 3584 0 
L 2988 1197 
Q 2756 1666 2539 1819 
Q 2322 1972 1947 1972 
L 1259 1972 
L 1259 0 
L 628 0 
L 628 4666 
L 2053 4666 
Q 2853 4666 3247 4331 
Q 3641 3997 3641 3322 
Q 3641 2881 3436 2590 
Q 3231 2300 2841 2188 
z
M 1259 4147 
L 1259 2491 
L 2053 2491 
Q 2509 2491 2742 2702 
Q 2975 2913 2975 3322 
Q 2975 3731 2742 3939 
Q 2509 4147 2053 4147 
L 1259 4147 
z
" transform="scale(0.015625)"/>
      <path id="DejaVuSans-2f" d="M 1625 4666 
L 2156 4666 
L 531 -594 
L 0 -594 
L 1625 4666 
z
" transform="scale(0.015625)"/>
      <path id="DejaVuSans-4f" d="M 2522 4238 
Q 1834 4238 1429 3725 
Q 1025 3213 1025 2328 
Q 1025 1447 1429 934 
Q 1834 422 2522 422 
Q 3209 422 3611 934 
Q 4013 1447 4013 2328 
Q 4013 3213 3611 3725 
Q 3209 4238 2522 4238 
z
M 2522 4750 
Q 3503 4750 4090 4092 
Q 4678 3434 4678 2328 
Q 4678 1225 4090 567 
Q 3503 -91 2522 -91 
Q 1538 -91 948 565 
Q 359 1222 359 2328 
Q 359 3434 948 4092 
Q 1538 4750 2522 4750 
z
" transform="scale(0.015625)"/>
      <path id="DejaVuSans-76" d="M 191 3500 
L 800 3500 
L 1894 563 
L 2988 3500 
L 3597 3500 
L 2284 0 
L 1503 0 
L 191 3500 
z
" transform="scale(0.015625)"/>
     </defs>
     <use xlink:href="#DejaVuSans-52"/>
     <use xlink:href="#DejaVuSans-61" x="67.232422"/>
     <use xlink:href="#DejaVuSans-6e" x="128.511719"/>
     <use xlink:href="#DejaVuSans-67" x="191.890625"/>
     <use xlink:href="#DejaVuSans-65" x="255.367188"/>
     <use xlink:href="#DejaVuSans-2f" x="316.890625"/>
     <use xlink:href="#DejaVuSans-4f" x="350.582031"/>
     <use xlink:href="#DejaVuSans-76" x="429.292969"/>
     <use xlink:href="#DejaVuSans-65" x="488.472656"/>
     <use xlink:href="#DejaVuSans-6e" x="549.996094"/>
    </g>
   </g>
  </g>
 </g>
 <defs>
  <clipPath id="p89478e60a4">
   <rect x="40.603125" y="51.11925" width="180.43" height="114.464375"/>
  </clipPath>
  <clipPath id="pe25af38d53">
   <rect x="265.603125" y="51.11925" width="180.43" height="114.464375"/>
  </clipPath>
  <clipPath id="pc61e863e9f">
   <rect x="40.603125" y="206.543625" width="180.43" height="114.464375"/>
  </clipPath>
  <clipPath id="p15f7597344">
   <rect x="265.603125" y="206.543625" width="180.43" height="114.464375"/>
  </clipPath>
 </defs>
</svg>
