<?xml version="1.0" encoding="utf-8" standalone="no"?>
<!DOCTYPE svg PUBLIC "-//W3C//DTD SVG 1.1//EN"
  "http://www.w3.org/Graphics/SVG/1.1/DTD/svg11.dtd">
<svg xmlns:xlink="http://www.w3.org/1999/xlink" width="453.26125pt" height="341.831125pt" viewBox="0 0 453.26125 341.831125" xmlns="http://www.w3.org/2000/svg" version="1.1">
 <metadata>
  <rdf:RDF xmlns:dc="http://purl.org/dc/elements/1.1/" xmlns:cc="http://creativecommons.org/ns#" xmlns:rdf="http://www.w3.org/1999/02/22-rdf-syntax-ns#">
   <cc:Work>
    <dc:type rdf:resource="http://purl.org/dc/dcmitype/StillImage"/>
    <dc:date>2024-09-16T11:38:35.110684</dc:date>
    <dc:format>image/svg+xml</dc:format>
    <dc:creator>
     <cc:Agent>
      <dc:title>Matplotlib v3.9.1, https://matplotlib.org/</dc:title>
     </cc:Agent>
    </dc:creator>
   </cc:Work>
  </rdf:RDF>
 </metadata>
 <defs>
  <style type="text/css">*{stroke-linejoin: round; stroke-linecap: butt}</style>
 </defs>
 <g id="figure_1">
  <g id="patch_1">
   <path d="M 0 341.831125 
L 453.26125 341.831125 
L 453.26125 0 
L 0 0 
z
" style="fill: #ffffff"/>
  </g>
  <g id="axes_1">
   <g id="patch_2">
    <path d="M 43.78125 301.228 
L 446.06125 301.228 
L 446.06125 34.848 
L 43.78125 34.848 
z
" style="fill: #ffffff"/>
   </g>
   <g id="patch_3">
    <path d="M 47.971667 301.228 
L 50.765278 301.228 
L 50.765278 221.8272 
L 47.971667 221.8272 
z
" clip-path="url(#ped4ace0de6)" style="fill: #a52a2a"/>
   </g>
   <g id="patch_4">
    <path d="M 64.733333 301.228 
L 67.526944 301.228 
L 67.526944 246.572707 
L 64.733333 246.572707 
z
" clip-path="url(#ped4ace0de6)" style="fill: #a52a2a"/>
   </g>
   <g id="patch_5">
    <path d="M 81.495 301.228 
L 84.288611 301.228 
L 84.288611 260.989654 
L 81.495 260.989654 
z
" clip-path="url(#ped4ace0de6)" style="fill: #a52a2a"/>
   </g>
   <g id="patch_6">
    <path d="M 98.256667 301.228 
L 101.050278 301.228 
L 101.050278 271.318214 
L 98.256667 271.318214 
z
" clip-path="url(#ped4ace0de6)" style="fill: #a52a2a"/>
   </g>
   <g id="patch_7">
    <path d="M 115.018333 301.228 
L 117.811944 301.228 
L 117.811944 277.558385 
L 115.018333 277.558385 
z
" clip-path="url(#ped4ace0de6)" style="fill: #a52a2a"/>
   </g>
   <g id="patch_8">
    <path d="M 131.78 301.228 
L 134.573611 301.228 
L 134.573611 285.304804 
L 131.78 285.304804 
z
" clip-path="url(#ped4ace0de6)" style="fill: #a52a2a"/>
   </g>
   <g id="patch_9">
    <path d="M 148.541667 301.228 
L 151.335278 301.228 
L 151.335278 288.317301 
L 148.541667 288.317301 
z
" clip-path="url(#ped4ace0de6)" style="fill: #a52a2a"/>
   </g>
   <g id="patch_10">
    <path d="M 165.303333 301.228 
L 168.096944 301.228 
L 168.096944 281.431595 
L 165.303333 281.431595 
z
" clip-path="url(#ped4ace0de6)" style="fill: #a52a2a"/>
   </g>
   <g id="patch_11">
    <path d="M 182.065 301.228 
L 184.858611 301.228 
L 184.858611 260.559298 
L 182.065 260.559298 
z
" clip-path="url(#ped4ace0de6)" style="fill: #a52a2a"/>
   </g>
   <g id="patch_12">
    <path d="M 198.826667 301.228 
L 201.620278 301.228 
L 201.620278 238.611109 
L 198.826667 238.611109 
z
" clip-path="url(#ped4ace0de6)" style="fill: #a52a2a"/>
   </g>
   <g id="patch_13">
    <path d="M 215.588333 301.228 
L 218.381944 301.228 
L 218.381944 210.207571 
L 215.588333 210.207571 
z
" clip-path="url(#ped4ace0de6)" style="fill: #a52a2a"/>
   </g>
   <g id="patch_14">
    <path d="M 232.35 301.228 
L 235.143611 301.228 
L 235.143611 196.651337 
L 232.35 196.651337 
z
" clip-path="url(#ped4ace0de6)" style="fill: #a52a2a"/>
   </g>
   <g id="patch_15">
    <path d="M 249.111667 301.228 
L 251.905278 301.228 
L 251.905278 199.233477 
L 249.111667 199.233477 
z
" clip-path="url(#ped4ace0de6)" style="fill: #a52a2a"/>
   </g>
   <g id="patch_16">
    <path d="M 265.873333 301.228 
L 268.666944 301.228 
L 268.666944 175.77904 
L 265.873333 175.77904 
z
" clip-path="url(#ped4ace0de6)" style="fill: #a52a2a"/>
   </g>
   <g id="patch_17">
    <path d="M 282.635 301.228 
L 285.428611 301.228 
L 285.428611 136.831764 
L 282.635 136.831764 
z
" clip-path="url(#ped4ace0de6)" style="fill: #a52a2a"/>
   </g>
   <g id="patch_18">
    <path d="M 299.396667 301.228 
L 302.190278 301.228 
L 302.190278 118.756785 
L 299.396667 118.756785 
z
" clip-path="url(#ped4ace0de6)" style="fill: #a52a2a"/>
   </g>
   <g id="patch_19">
    <path d="M 316.158333 301.228 
L 318.951944 301.228 
L 318.951944 95.732705 
L 316.158333 95.732705 
z
" clip-path="url(#ped4ace0de6)" style="fill: #a52a2a"/>
   </g>
   <g id="patch_20">
    <path d="M 332.92 301.228 
L 335.713611 301.228 
L 335.713611 73.35416 
L 332.92 73.35416 
z
" clip-path="url(#ped4ace0de6)" style="fill: #a52a2a"/>
   </g>
   <g id="patch_21">
    <path d="M 349.681667 301.228 
L 352.475278 301.228 
L 352.475278 72.923804 
L 349.681667 72.923804 
z
" clip-path="url(#ped4ace0de6)" style="fill: #a52a2a"/>
   </g>
   <g id="patch_22">
    <path d="M 366.443333 301.228 
L 369.236944 301.228 
L 369.236944 72.923804 
L 366.443333 72.923804 
z
" clip-path="url(#ped4ace0de6)" style="fill: #a52a2a"/>
   </g>
   <g id="patch_23">
    <path d="M 383.205 301.228 
L 385.998611 301.228 
L 385.998611 91.429139 
L 383.205 91.429139 
z
" clip-path="url(#ped4ace0de6)" style="fill: #a52a2a"/>
   </g>
   <g id="patch_24">
    <path d="M 399.966667 301.228 
L 402.760278 301.228 
L 402.760278 119.832677 
L 399.966667 119.832677 
z
" clip-path="url(#ped4ace0de6)" style="fill: #a52a2a"/>
   </g>
   <g id="patch_25">
    <path d="M 416.728333 301.228 
L 419.521944 301.228 
L 419.521944 131.452306 
L 416.728333 131.452306 
z
" clip-path="url(#ped4ace0de6)" style="fill: #a52a2a"/>
   </g>
   <g id="patch_26">
    <path d="M 433.49 301.228 
L 436.283611 301.228 
L 436.283611 132.31302 
L 433.49 132.31302 
z
" clip-path="url(#ped4ace0de6)" style="fill: #a52a2a"/>
   </g>
   <g id="patch_27">
    <path d="M 50.765278 301.228 
L 53.558889 301.228 
L 53.558889 251.521808 
L 50.765278 251.521808 
z
" clip-path="url(#ped4ace0de6)" style="fill: #ffc0cb"/>
   </g>
   <g id="patch_28">
    <path d="M 67.526944 301.228 
L 70.320556 301.228 
L 70.320556 265.078042 
L 67.526944 265.078042 
z
" clip-path="url(#ped4ace0de6)" style="fill: #ffc0cb"/>
   </g>
   <g id="patch_29">
    <path d="M 84.288611 301.228 
L 87.082222 301.228 
L 87.082222 273.900353 
L 84.288611 273.900353 
z
" clip-path="url(#ped4ace0de6)" style="fill: #ffc0cb"/>
   </g>
   <g id="patch_30">
    <path d="M 101.050278 301.228 
L 103.843889 301.228 
L 103.843889 280.570881 
L 101.050278 280.570881 
z
" clip-path="url(#ped4ace0de6)" style="fill: #ffc0cb"/>
   </g>
   <g id="patch_31">
    <path d="M 117.811944 301.228 
L 120.605556 301.228 
L 120.605556 284.659269 
L 117.811944 284.659269 
z
" clip-path="url(#ped4ace0de6)" style="fill: #ffc0cb"/>
   </g>
   <g id="patch_32">
    <path d="M 134.573611 301.228 
L 137.367222 301.228 
L 137.367222 289.823549 
L 134.573611 289.823549 
z
" clip-path="url(#ped4ace0de6)" style="fill: #ffc0cb"/>
   </g>
   <g id="patch_33">
    <path d="M 151.335278 301.228 
L 154.128889 301.228 
L 154.128889 291.975332 
L 151.335278 291.975332 
z
" clip-path="url(#ped4ace0de6)" style="fill: #ffc0cb"/>
   </g>
   <g id="patch_34">
    <path d="M 168.096944 301.228 
L 170.890556 301.228 
L 170.890556 287.026231 
L 168.096944 287.026231 
z
" clip-path="url(#ped4ace0de6)" style="fill: #ffc0cb"/>
   </g>
   <g id="patch_35">
    <path d="M 184.858611 301.228 
L 187.652222 301.228 
L 187.652222 272.178927 
L 184.858611 272.178927 
z
" clip-path="url(#ped4ace0de6)" style="fill: #ffc0cb"/>
   </g>
   <g id="patch_36">
    <path d="M 201.620278 301.228 
L 204.413889 301.228 
L 204.413889 257.331623 
L 201.620278 257.331623 
z
" clip-path="url(#ped4ace0de6)" style="fill: #ffc0cb"/>
   </g>
   <g id="patch_37">
    <path d="M 218.381944 301.228 
L 221.175556 301.228 
L 221.175556 237.750396 
L 218.381944 237.750396 
z
" clip-path="url(#ped4ace0de6)" style="fill: #ffc0cb"/>
   </g>
   <g id="patch_38">
    <path d="M 235.143611 301.228 
L 237.937222 301.228 
L 237.937222 229.358441 
L 235.143611 229.358441 
z
" clip-path="url(#ped4ace0de6)" style="fill: #ffc0cb"/>
   </g>
   <g id="patch_39">
    <path d="M 251.905278 301.228 
L 254.698889 301.228 
L 254.698889 229.358441 
L 251.905278 229.358441 
z
" clip-path="url(#ped4ace0de6)" style="fill: #ffc0cb"/>
   </g>
   <g id="patch_40">
    <path d="M 268.666944 301.228 
L 271.460556 301.228 
L 271.460556 214.726316 
L 268.666944 214.726316 
z
" clip-path="url(#ped4ace0de6)" style="fill: #ffc0cb"/>
   </g>
   <g id="patch_41">
    <path d="M 285.428611 301.228 
L 288.222222 301.228 
L 288.222222 165.450481 
L 285.428611 165.450481 
z
" clip-path="url(#ped4ace0de6)" style="fill: #ffc0cb"/>
   </g>
   <g id="patch_42">
    <path d="M 302.190278 301.228 
L 304.983889 301.228 
L 304.983889 140.920152 
L 302.190278 140.920152 
z
" clip-path="url(#ped4ace0de6)" style="fill: #ffc0cb"/>
   </g>
   <g id="patch_43">
    <path d="M 318.951944 301.228 
L 321.745556 301.228 
L 321.745556 111.440723 
L 318.951944 111.440723 
z
" clip-path="url(#ped4ace0de6)" style="fill: #ffc0cb"/>
   </g>
   <g id="patch_44">
    <path d="M 335.713611 301.228 
L 338.507222 301.228 
L 338.507222 86.695216 
L 335.713611 86.695216 
z
" clip-path="url(#ped4ace0de6)" style="fill: #ffc0cb"/>
   </g>
   <g id="patch_45">
    <path d="M 352.475278 301.228 
L 355.268889 301.228 
L 355.268889 87.125573 
L 352.475278 87.125573 
z
" clip-path="url(#ped4ace0de6)" style="fill: #ffc0cb"/>
   </g>
   <g id="patch_46">
    <path d="M 369.236944 301.228 
L 372.030556 301.228 
L 372.030556 70.126485 
L 369.236944 70.126485 
z
" clip-path="url(#ped4ace0de6)" style="fill: #ffc0cb"/>
   </g>
   <g id="patch_47">
    <path d="M 385.998611 301.228 
L 388.792222 301.228 
L 388.792222 123.060352 
L 385.998611 123.060352 
z
" clip-path="url(#ped4ace0de6)" style="fill: #ffc0cb"/>
   </g>
   <g id="patch_48">
    <path d="M 402.760278 301.228 
L 405.553889 301.228 
L 405.553889 157.91924 
L 402.760278 157.91924 
z
" clip-path="url(#ped4ace0de6)" style="fill: #ffc0cb"/>
   </g>
   <g id="patch_49">
    <path d="M 419.521944 301.228 
L 422.315556 301.228 
L 422.315556 171.475474 
L 419.521944 171.475474 
z
" clip-path="url(#ped4ace0de6)" style="fill: #ffc0cb"/>
   </g>
   <g id="patch_50">
    <path d="M 436.283611 301.228 
L 439.077222 301.228 
L 439.077222 171.260295 
L 436.283611 171.260295 
z
" clip-path="url(#ped4ace0de6)" style="fill: #ffc0cb"/>
   </g>
   <g id="patch_51">
    <path d="M 53.558889 301.228 
L 56.3525 301.228 
L 56.3525 221.8272 
L 53.558889 221.8272 
z
" clip-path="url(#ped4ace0de6)"/>
   </g>
   <g id="patch_52">
    <path d="M 70.320556 301.228 
L 73.114167 301.228 
L 73.114167 244.636102 
L 70.320556 244.636102 
z
" clip-path="url(#ped4ace0de6)"/>
   </g>
   <g id="patch_53">
    <path d="M 87.082222 301.228 
L 89.875833 301.228 
L 89.875833 259.268228 
L 87.082222 259.268228 
z
" clip-path="url(#ped4ace0de6)"/>
   </g>
   <g id="patch_54">
    <path d="M 103.843889 301.228 
L 106.6375 301.228 
L 106.6375 268.951252 
L 103.843889 268.951252 
z
" clip-path="url(#ped4ace0de6)"/>
   </g>
   <g id="patch_55">
    <path d="M 120.605556 301.228 
L 123.399167 301.228 
L 123.399167 273.469997 
L 120.605556 273.469997 
z
" clip-path="url(#ped4ace0de6)"/>
   </g>
   <g id="patch_56">
    <path d="M 137.367222 301.228 
L 140.160833 301.228 
L 140.160833 278.419098 
L 137.367222 278.419098 
z
" clip-path="url(#ped4ace0de6)"/>
   </g>
   <g id="patch_57">
    <path d="M 154.128889 301.228 
L 156.9225 301.228 
L 156.9225 279.49499 
L 154.128889 279.49499 
z
" clip-path="url(#ped4ace0de6)"/>
   </g>
   <g id="patch_58">
    <path d="M 170.890556 301.228 
L 173.684167 301.228 
L 173.684167 281.216416 
L 170.890556 281.216416 
z
" clip-path="url(#ped4ace0de6)"/>
   </g>
   <g id="patch_59">
    <path d="M 187.652222 301.228 
L 190.445833 301.228 
L 190.445833 275.191423 
L 187.652222 275.191423 
z
" clip-path="url(#ped4ace0de6)"/>
   </g>
   <g id="patch_60">
    <path d="M 204.413889 301.228 
L 207.2075 301.228 
L 207.2075 269.16643 
L 204.413889 269.16643 
z
" clip-path="url(#ped4ace0de6)"/>
   </g>
   <g id="patch_61">
    <path d="M 221.175556 301.228 
L 223.969167 301.228 
L 223.969167 253.673592 
L 221.175556 253.673592 
z
" clip-path="url(#ped4ace0de6)"/>
   </g>
   <g id="patch_62">
    <path d="M 237.937222 301.228 
L 240.730833 301.228 
L 240.730833 230.219155 
L 237.937222 230.219155 
z
" clip-path="url(#ped4ace0de6)"/>
   </g>
   <g id="patch_63">
    <path d="M 254.698889 301.228 
L 257.4925 301.228 
L 257.4925 201.815617 
L 254.698889 201.815617 
z
" clip-path="url(#ped4ace0de6)"/>
   </g>
   <g id="patch_64">
    <path d="M 271.460556 301.228 
L 274.254167 301.228 
L 274.254167 172.336187 
L 271.460556 172.336187 
z
" clip-path="url(#ped4ace0de6)"/>
   </g>
   <g id="patch_65">
    <path d="M 288.222222 301.228 
L 291.015833 301.228 
L 291.015833 132.743376 
L 288.222222 132.743376 
z
" clip-path="url(#ped4ace0de6)"/>
   </g>
   <g id="patch_66">
    <path d="M 304.983889 301.228 
L 307.7775 301.228 
L 307.7775 97.884489 
L 304.983889 97.884489 
z
" clip-path="url(#ped4ace0de6)"/>
   </g>
   <g id="patch_67">
    <path d="M 321.745556 301.228 
L 324.539167 301.228 
L 324.539167 66.253276 
L 321.745556 66.253276 
z
" clip-path="url(#ped4ace0de6)"/>
   </g>
   <g id="patch_68">
    <path d="M 338.507222 301.228 
L 341.300833 301.228 
L 341.300833 49.684545 
L 338.507222 49.684545 
z
" clip-path="url(#ped4ace0de6)"/>
   </g>
   <g id="patch_69">
    <path d="M 355.268889 301.228 
L 358.0625 301.228 
L 358.0625 47.532762 
L 355.268889 47.532762 
z
" clip-path="url(#ped4ace0de6)"/>
   </g>
   <g id="patch_70">
    <path d="M 372.030556 301.228 
L 374.824167 301.228 
L 374.824167 63.455958 
L 372.030556 63.455958 
z
" clip-path="url(#ped4ace0de6)"/>
   </g>
   <g id="patch_71">
    <path d="M 388.792222 301.228 
L 391.585833 301.228 
L 391.585833 90.998782 
L 388.792222 90.998782 
z
" clip-path="url(#ped4ace0de6)"/>
   </g>
   <g id="patch_72">
    <path d="M 405.553889 301.228 
L 408.3475 301.228 
L 408.3475 129.73088 
L 405.553889 129.73088 
z
" clip-path="url(#ped4ace0de6)"/>
   </g>
   <g id="patch_73">
    <path d="M 422.315556 301.228 
L 425.109167 301.228 
L 425.109167 162.653163 
L 422.315556 162.653163 
z
" clip-path="url(#ped4ace0de6)"/>
   </g>
   <g id="patch_74">
    <path d="M 439.077222 301.228 
L 441.870833 301.228 
L 441.870833 195.360267 
L 439.077222 195.360267 
z
" clip-path="url(#ped4ace0de6)"/>
   </g>
   <g id="matplotlib.axis_1">
    <g id="xtick_1">
     <g id="line2d_1">
      <defs>
       <path id="m8f05762fed" d="M 0 0 
L 0 3.5 
" style="stroke: #000000; stroke-width: 0.8"/>
      </defs>
      <g>
       <use xlink:href="#m8f05762fed" x="52.162083" y="301.228" style="stroke: #000000; stroke-width: 0.8"/>
      </g>
     </g>
     <g id="text_1">
      <!-- 1 -->
      <g transform="translate(54.921458 314.5905) rotate(-90) scale(0.1 -0.1)">
       <defs>
        <path id="DejaVuSans-31" d="M 794 531 
L 1825 531 
L 1825 4091 
L 703 3866 
L 703 4441 
L 1819 4666 
L 2450 4666 
L 2450 531 
L 3481 531 
L 3481 0 
L 794 0 
L 794 531 
z
" transform="scale(0.015625)"/>
       </defs>
       <use xlink:href="#DejaVuSans-31"/>
      </g>
     </g>
    </g>
    <g id="xtick_2">
     <g id="line2d_2">
      <g>
       <use xlink:href="#m8f05762fed" x="68.92375" y="301.228" style="stroke: #000000; stroke-width: 0.8"/>
      </g>
     </g>
     <g id="text_2">
      <!-- 2 -->
      <g transform="translate(71.683125 314.5905) rotate(-90) scale(0.1 -0.1)">
       <defs>
        <path id="DejaVuSans-32" d="M 1228 531 
L 3431 531 
L 3431 0 
L 469 0 
L 469 531 
Q 828 903 1448 1529 
Q 2069 2156 2228 2338 
Q 2531 2678 2651 2914 
Q 2772 3150 2772 3378 
Q 2772 3750 2511 3984 
Q 2250 4219 1831 4219 
Q 1534 4219 1204 4116 
Q 875 4013 500 3803 
L 500 4441 
Q 881 4594 1212 4672 
Q 1544 4750 1819 4750 
Q 2544 4750 2975 4387 
Q 3406 4025 3406 3419 
Q 3406 3131 3298 2873 
Q 3191 2616 2906 2266 
Q 2828 2175 2409 1742 
Q 1991 1309 1228 531 
z
" transform="scale(0.015625)"/>
       </defs>
       <use xlink:href="#DejaVuSans-32"/>
      </g>
     </g>
    </g>
    <g id="xtick_3">
     <g id="line2d_3">
      <g>
       <use xlink:href="#m8f05762fed" x="85.685417" y="301.228" style="stroke: #000000; stroke-width: 0.8"/>
      </g>
     </g>
     <g id="text_3">
      <!-- 3 -->
      <g transform="translate(88.444792 314.5905) rotate(-90) scale(0.1 -0.1)">
       <defs>
        <path id="DejaVuSans-33" d="M 2597 2516 
Q 3050 2419 3304 2112 
Q 3559 1806 3559 1356 
Q 3559 666 3084 287 
Q 2609 -91 1734 -91 
Q 1441 -91 1130 -33 
Q 819 25 488 141 
L 488 750 
Q 750 597 1062 519 
Q 1375 441 1716 441 
Q 2309 441 2620 675 
Q 2931 909 2931 1356 
Q 2931 1769 2642 2001 
Q 2353 2234 1838 2234 
L 1294 2234 
L 1294 2753 
L 1863 2753 
Q 2328 2753 2575 2939 
Q 2822 3125 2822 3475 
Q 2822 3834 2567 4026 
Q 2313 4219 1838 4219 
Q 1578 4219 1281 4162 
Q 984 4106 628 3988 
L 628 4550 
Q 988 4650 1302 4700 
Q 1616 4750 1894 4750 
Q 2613 4750 3031 4423 
Q 3450 4097 3450 3541 
Q 3450 3153 3228 2886 
Q 3006 2619 2597 2516 
z
" transform="scale(0.015625)"/>
       </defs>
       <use xlink:href="#DejaVuSans-33"/>
      </g>
     </g>
    </g>
    <g id="xtick_4">
     <g id="line2d_4">
      <g>
       <use xlink:href="#m8f05762fed" x="102.447083" y="301.228" style="stroke: #000000; stroke-width: 0.8"/>
      </g>
     </g>
     <g id="text_4">
      <!-- 4 -->
      <g transform="translate(105.206458 314.5905) rotate(-90) scale(0.1 -0.1)">
       <defs>
        <path id="DejaVuSans-34" d="M 2419 4116 
L 825 1625 
L 2419 1625 
L 2419 4116 
z
M 2253 4666 
L 3047 4666 
L 3047 1625 
L 3713 1625 
L 3713 1100 
L 3047 1100 
L 3047 0 
L 2419 0 
L 2419 1100 
L 313 1100 
L 313 1709 
L 2253 4666 
z
" transform="scale(0.015625)"/>
       </defs>
       <use xlink:href="#DejaVuSans-34"/>
      </g>
     </g>
    </g>
    <g id="xtick_5">
     <g id="line2d_5">
      <g>
       <use xlink:href="#m8f05762fed" x="119.20875" y="301.228" style="stroke: #000000; stroke-width: 0.8"/>
      </g>
     </g>
     <g id="text_5">
      <!-- 5 -->
      <g transform="translate(121.968125 314.5905) rotate(-90) scale(0.1 -0.1)">
       <defs>
        <path id="DejaVuSans-35" d="M 691 4666 
L 3169 4666 
L 3169 4134 
L 1269 4134 
L 1269 2991 
Q 1406 3038 1543 3061 
Q 1681 3084 1819 3084 
Q 2600 3084 3056 2656 
Q 3513 2228 3513 1497 
Q 3513 744 3044 326 
Q 2575 -91 1722 -91 
Q 1428 -91 1123 -41 
Q 819 9 494 109 
L 494 744 
Q 775 591 1075 516 
Q 1375 441 1709 441 
Q 2250 441 2565 725 
Q 2881 1009 2881 1497 
Q 2881 1984 2565 2268 
Q 2250 2553 1709 2553 
Q 1456 2553 1204 2497 
Q 953 2441 691 2322 
L 691 4666 
z
" transform="scale(0.015625)"/>
       </defs>
       <use xlink:href="#DejaVuSans-35"/>
      </g>
     </g>
    </g>
    <g id="xtick_6">
     <g id="line2d_6">
      <g>
       <use xlink:href="#m8f05762fed" x="135.970417" y="301.228" style="stroke: #000000; stroke-width: 0.8"/>
      </g>
     </g>
     <g id="text_6">
      <!-- 6 -->
      <g transform="translate(138.729792 314.5905) rotate(-90) scale(0.1 -0.1)">
       <defs>
        <path id="DejaVuSans-36" d="M 2113 2584 
Q 1688 2584 1439 2293 
Q 1191 2003 1191 1497 
Q 1191 994 1439 701 
Q 1688 409 2113 409 
Q 2538 409 2786 701 
Q 3034 994 3034 1497 
Q 3034 2003 2786 2293 
Q 2538 2584 2113 2584 
z
M 3366 4563 
L 3366 3988 
Q 3128 4100 2886 4159 
Q 2644 4219 2406 4219 
Q 1781 4219 1451 3797 
Q 1122 3375 1075 2522 
Q 1259 2794 1537 2939 
Q 1816 3084 2150 3084 
Q 2853 3084 3261 2657 
Q 3669 2231 3669 1497 
Q 3669 778 3244 343 
Q 2819 -91 2113 -91 
Q 1303 -91 875 529 
Q 447 1150 447 2328 
Q 447 3434 972 4092 
Q 1497 4750 2381 4750 
Q 2619 4750 2861 4703 
Q 3103 4656 3366 4563 
z
" transform="scale(0.015625)"/>
       </defs>
       <use xlink:href="#DejaVuSans-36"/>
      </g>
     </g>
    </g>
    <g id="xtick_7">
     <g id="line2d_7">
      <g>
       <use xlink:href="#m8f05762fed" x="152.732083" y="301.228" style="stroke: #000000; stroke-width: 0.8"/>
      </g>
     </g>
     <g id="text_7">
      <!-- 7 -->
      <g transform="translate(155.491458 314.5905) rotate(-90) scale(0.1 -0.1)">
       <defs>
        <path id="DejaVuSans-37" d="M 525 4666 
L 3525 4666 
L 3525 4397 
L 1831 0 
L 1172 0 
L 2766 4134 
L 525 4134 
L 525 4666 
z
" transform="scale(0.015625)"/>
       </defs>
       <use xlink:href="#DejaVuSans-37"/>
      </g>
     </g>
    </g>
    <g id="xtick_8">
     <g id="line2d_8">
      <g>
       <use xlink:href="#m8f05762fed" x="169.49375" y="301.228" style="stroke: #000000; stroke-width: 0.8"/>
      </g>
     </g>
     <g id="text_8">
      <!-- 8 -->
      <g transform="translate(172.253125 314.5905) rotate(-90) scale(0.1 -0.1)">
       <defs>
        <path id="DejaVuSans-38" d="M 2034 2216 
Q 1584 2216 1326 1975 
Q 1069 1734 1069 1313 
Q 1069 891 1326 650 
Q 1584 409 2034 409 
Q 2484 409 2743 651 
Q 3003 894 3003 1313 
Q 3003 1734 2745 1975 
Q 2488 2216 2034 2216 
z
M 1403 2484 
Q 997 2584 770 2862 
Q 544 3141 544 3541 
Q 544 4100 942 4425 
Q 1341 4750 2034 4750 
Q 2731 4750 3128 4425 
Q 3525 4100 3525 3541 
Q 3525 3141 3298 2862 
Q 3072 2584 2669 2484 
Q 3125 2378 3379 2068 
Q 3634 1759 3634 1313 
Q 3634 634 3220 271 
Q 2806 -91 2034 -91 
Q 1263 -91 848 271 
Q 434 634 434 1313 
Q 434 1759 690 2068 
Q 947 2378 1403 2484 
z
M 1172 3481 
Q 1172 3119 1398 2916 
Q 1625 2713 2034 2713 
Q 2441 2713 2670 2916 
Q 2900 3119 2900 3481 
Q 2900 3844 2670 4047 
Q 2441 4250 2034 4250 
Q 1625 4250 1398 4047 
Q 1172 3844 1172 3481 
z
" transform="scale(0.015625)"/>
       </defs>
       <use xlink:href="#DejaVuSans-38"/>
      </g>
     </g>
    </g>
    <g id="xtick_9">
     <g id="line2d_9">
      <g>
       <use xlink:href="#m8f05762fed" x="186.255417" y="301.228" style="stroke: #000000; stroke-width: 0.8"/>
      </g>
     </g>
     <g id="text_9">
      <!-- 9 -->
      <g transform="translate(189.014792 314.5905) rotate(-90) scale(0.1 -0.1)">
       <defs>
        <path id="DejaVuSans-39" d="M 703 97 
L 703 672 
Q 941 559 1184 500 
Q 1428 441 1663 441 
Q 2288 441 2617 861 
Q 2947 1281 2994 2138 
Q 2813 1869 2534 1725 
Q 2256 1581 1919 1581 
Q 1219 1581 811 2004 
Q 403 2428 403 3163 
Q 403 3881 828 4315 
Q 1253 4750 1959 4750 
Q 2769 4750 3195 4129 
Q 3622 3509 3622 2328 
Q 3622 1225 3098 567 
Q 2575 -91 1691 -91 
Q 1453 -91 1209 -44 
Q 966 3 703 97 
z
M 1959 2075 
Q 2384 2075 2632 2365 
Q 2881 2656 2881 3163 
Q 2881 3666 2632 3958 
Q 2384 4250 1959 4250 
Q 1534 4250 1286 3958 
Q 1038 3666 1038 3163 
Q 1038 2656 1286 2365 
Q 1534 2075 1959 2075 
z
" transform="scale(0.015625)"/>
       </defs>
       <use xlink:href="#DejaVuSans-39"/>
      </g>
     </g>
    </g>
    <g id="xtick_10">
     <g id="line2d_10">
      <g>
       <use xlink:href="#m8f05762fed" x="203.017083" y="301.228" style="stroke: #000000; stroke-width: 0.8"/>
      </g>
     </g>
     <g id="text_10">
      <!-- 10 -->
      <g transform="translate(205.776458 320.953) rotate(-90) scale(0.1 -0.1)">
       <defs>
        <path id="DejaVuSans-30" d="M 2034 4250 
Q 1547 4250 1301 3770 
Q 1056 3291 1056 2328 
Q 1056 1369 1301 889 
Q 1547 409 2034 409 
Q 2525 409 2770 889 
Q 3016 1369 3016 2328 
Q 3016 3291 2770 3770 
Q 2525 4250 2034 4250 
z
M 2034 4750 
Q 2819 4750 3233 4129 
Q 3647 3509 3647 2328 
Q 3647 1150 3233 529 
Q 2819 -91 2034 -91 
Q 1250 -91 836 529 
Q 422 1150 422 2328 
Q 422 3509 836 4129 
Q 1250 4750 2034 4750 
z
" transform="scale(0.015625)"/>
       </defs>
       <use xlink:href="#DejaVuSans-31"/>
       <use xlink:href="#DejaVuSans-30" x="63.623047"/>
      </g>
     </g>
    </g>
    <g id="xtick_11">
     <g id="line2d_11">
      <g>
       <use xlink:href="#m8f05762fed" x="219.77875" y="301.228" style="stroke: #000000; stroke-width: 0.8"/>
      </g>
     </g>
     <g id="text_11">
      <!-- 11 -->
      <g transform="translate(222.538125 320.953) rotate(-90) scale(0.1 -0.1)">
       <use xlink:href="#DejaVuSans-31"/>
       <use xlink:href="#DejaVuSans-31" x="63.623047"/>
      </g>
     </g>
    </g>
    <g id="xtick_12">
     <g id="line2d_12">
      <g>
       <use xlink:href="#m8f05762fed" x="236.540417" y="301.228" style="stroke: #000000; stroke-width: 0.8"/>
      </g>
     </g>
     <g id="text_12">
      <!-- 12 -->
      <g transform="translate(239.299792 320.953) rotate(-90) scale(0.1 -0.1)">
       <use xlink:href="#DejaVuSans-31"/>
       <use xlink:href="#DejaVuSans-32" x="63.623047"/>
      </g>
     </g>
    </g>
    <g id="xtick_13">
     <g id="line2d_13">
      <g>
       <use xlink:href="#m8f05762fed" x="253.302083" y="301.228" style="stroke: #000000; stroke-width: 0.8"/>
      </g>
     </g>
     <g id="text_13">
      <!-- 13 -->
      <g transform="translate(256.061458 320.953) rotate(-90) scale(0.1 -0.1)">
       <use xlink:href="#DejaVuSans-31"/>
       <use xlink:href="#DejaVuSans-33" x="63.623047"/>
      </g>
     </g>
    </g>
    <g id="xtick_14">
     <g id="line2d_14">
      <g>
       <use xlink:href="#m8f05762fed" x="270.06375" y="301.228" style="stroke: #000000; stroke-width: 0.8"/>
      </g>
     </g>
     <g id="text_14">
      <!-- 14 -->
      <g transform="translate(272.823125 320.953) rotate(-90) scale(0.1 -0.1)">
       <use xlink:href="#DejaVuSans-31"/>
       <use xlink:href="#DejaVuSans-34" x="63.623047"/>
      </g>
     </g>
    </g>
    <g id="xtick_15">
     <g id="line2d_15">
      <g>
       <use xlink:href="#m8f05762fed" x="286.825417" y="301.228" style="stroke: #000000; stroke-width: 0.8"/>
      </g>
     </g>
     <g id="text_15">
      <!-- 15 -->
      <g transform="translate(289.584792 320.953) rotate(-90) scale(0.1 -0.1)">
       <use xlink:href="#DejaVuSans-31"/>
       <use xlink:href="#DejaVuSans-35" x="63.623047"/>
      </g>
     </g>
    </g>
    <g id="xtick_16">
     <g id="line2d_16">
      <g>
       <use xlink:href="#m8f05762fed" x="303.587083" y="301.228" style="stroke: #000000; stroke-width: 0.8"/>
      </g>
     </g>
     <g id="text_16">
      <!-- 16 -->
      <g transform="translate(306.346458 320.953) rotate(-90) scale(0.1 -0.1)">
       <use xlink:href="#DejaVuSans-31"/>
       <use xlink:href="#DejaVuSans-36" x="63.623047"/>
      </g>
     </g>
    </g>
    <g id="xtick_17">
     <g id="line2d_17">
      <g>
       <use xlink:href="#m8f05762fed" x="320.34875" y="301.228" style="stroke: #000000; stroke-width: 0.8"/>
      </g>
     </g>
     <g id="text_17">
      <!-- 17 -->
      <g transform="translate(323.108125 320.953) rotate(-90) scale(0.1 -0.1)">
       <use xlink:href="#DejaVuSans-31"/>
       <use xlink:href="#DejaVuSans-37" x="63.623047"/>
      </g>
     </g>
    </g>
    <g id="xtick_18">
     <g id="line2d_18">
      <g>
       <use xlink:href="#m8f05762fed" x="337.110417" y="301.228" style="stroke: #000000; stroke-width: 0.8"/>
      </g>
     </g>
     <g id="text_18">
      <!-- 18 -->
      <g transform="translate(339.869792 320.953) rotate(-90) scale(0.1 -0.1)">
       <use xlink:href="#DejaVuSans-31"/>
       <use xlink:href="#DejaVuSans-38" x="63.623047"/>
      </g>
     </g>
    </g>
    <g id="xtick_19">
     <g id="line2d_19">
      <g>
       <use xlink:href="#m8f05762fed" x="353.872083" y="301.228" style="stroke: #000000; stroke-width: 0.8"/>
      </g>
     </g>
     <g id="text_19">
      <!-- 19 -->
      <g transform="translate(356.631458 320.953) rotate(-90) scale(0.1 -0.1)">
       <use xlink:href="#DejaVuSans-31"/>
       <use xlink:href="#DejaVuSans-39" x="63.623047"/>
      </g>
     </g>
    </g>
    <g id="xtick_20">
     <g id="line2d_20">
      <g>
       <use xlink:href="#m8f05762fed" x="370.63375" y="301.228" style="stroke: #000000; stroke-width: 0.8"/>
      </g>
     </g>
     <g id="text_20">
      <!-- 20 -->
      <g transform="translate(373.393125 320.953) rotate(-90) scale(0.1 -0.1)">
       <use xlink:href="#DejaVuSans-32"/>
       <use xlink:href="#DejaVuSans-30" x="63.623047"/>
      </g>
     </g>
    </g>
    <g id="xtick_21">
     <g id="line2d_21">
      <g>
       <use xlink:href="#m8f05762fed" x="387.395417" y="301.228" style="stroke: #000000; stroke-width: 0.8"/>
      </g>
     </g>
     <g id="text_21">
      <!-- 21 -->
      <g transform="translate(390.154792 320.953) rotate(-90) scale(0.1 -0.1)">
       <use xlink:href="#DejaVuSans-32"/>
       <use xlink:href="#DejaVuSans-31" x="63.623047"/>
      </g>
     </g>
    </g>
    <g id="xtick_22">
     <g id="line2d_22">
      <g>
       <use xlink:href="#m8f05762fed" x="404.157083" y="301.228" style="stroke: #000000; stroke-width: 0.8"/>
      </g>
     </g>
     <g id="text_22">
      <!-- 22 -->
      <g transform="translate(406.916458 320.953) rotate(-90) scale(0.1 -0.1)">
       <use xlink:href="#DejaVuSans-32"/>
       <use xlink:href="#DejaVuSans-32" x="63.623047"/>
      </g>
     </g>
    </g>
    <g id="xtick_23">
     <g id="line2d_23">
      <g>
       <use xlink:href="#m8f05762fed" x="420.91875" y="301.228" style="stroke: #000000; stroke-width: 0.8"/>
      </g>
     </g>
     <g id="text_23">
      <!-- 23 -->
      <g transform="translate(423.678125 320.953) rotate(-90) scale(0.1 -0.1)">
       <use xlink:href="#DejaVuSans-32"/>
       <use xlink:href="#DejaVuSans-33" x="63.623047"/>
      </g>
     </g>
    </g>
    <g id="xtick_24">
     <g id="line2d_24">
      <g>
       <use xlink:href="#m8f05762fed" x="437.680417" y="301.228" style="stroke: #000000; stroke-width: 0.8"/>
      </g>
     </g>
     <g id="text_24">
      <!-- 24 -->
      <g transform="translate(440.439792 320.953) rotate(-90) scale(0.1 -0.1)">
       <use xlink:href="#DejaVuSans-32"/>
       <use xlink:href="#DejaVuSans-34" x="63.623047"/>
      </g>
     </g>
    </g>
    <g id="text_25">
     <!-- Hour -->
     <g transform="translate(232.8775 332.551437) scale(0.1 -0.1)">
      <defs>
       <path id="DejaVuSans-48" d="M 628 4666 
L 1259 4666 
L 1259 2753 
L 3553 2753 
L 3553 4666 
L 4184 4666 
L 4184 0 
L 3553 0 
L 3553 2222 
L 1259 2222 
L 1259 0 
L 628 0 
L 628 4666 
z
" transform="scale(0.015625)"/>
       <path id="DejaVuSans-6f" d="M 1959 3097 
Q 1497 3097 1228 2736 
Q 959 2375 959 1747 
Q 959 1119 1226 758 
Q 1494 397 1959 397 
Q 2419 397 2687 759 
Q 2956 1122 2956 1747 
Q 2956 2369 2687 2733 
Q 2419 3097 1959 3097 
z
M 1959 3584 
Q 2709 3584 3137 3096 
Q 3566 2609 3566 1747 
Q 3566 888 3137 398 
Q 2709 -91 1959 -91 
Q 1206 -91 779 398 
Q 353 888 353 1747 
Q 353 2609 779 3096 
Q 1206 3584 1959 3584 
z
" transform="scale(0.015625)"/>
       <path id="DejaVuSans-75" d="M 544 1381 
L 544 3500 
L 1119 3500 
L 1119 1403 
Q 1119 906 1312 657 
Q 1506 409 1894 409 
Q 2359 409 2629 706 
Q 2900 1003 2900 1516 
L 2900 3500 
L 3475 3500 
L 3475 0 
L 2900 0 
L 2900 538 
Q 2691 219 2414 64 
Q 2138 -91 1772 -91 
Q 1169 -91 856 284 
Q 544 659 544 1381 
z
M 1991 3584 
L 1991 3584 
z
" transform="scale(0.015625)"/>
       <path id="DejaVuSans-72" d="M 2631 2963 
Q 2534 3019 2420 3045 
Q 2306 3072 2169 3072 
Q 1681 3072 1420 2755 
Q 1159 2438 1159 1844 
L 1159 0 
L 581 0 
L 581 3500 
L 1159 3500 
L 1159 2956 
Q 1341 3275 1631 3429 
Q 1922 3584 2338 3584 
Q 2397 3584 2469 3576 
Q 2541 3569 2628 3553 
L 2631 2963 
z
" transform="scale(0.015625)"/>
      </defs>
      <use xlink:href="#DejaVuSans-48"/>
      <use xlink:href="#DejaVuSans-6f" x="75.195312"/>
      <use xlink:href="#DejaVuSans-75" x="136.376953"/>
      <use xlink:href="#DejaVuSans-72" x="199.755859"/>
     </g>
    </g>
   </g>
   <g id="matplotlib.axis_2">
    <g id="ytick_1">
     <g id="line2d_25">
      <defs>
       <path id="m06ef969226" d="M 0 0 
L -3.5 0 
" style="stroke: #000000; stroke-width: 0.8"/>
      </defs>
      <g>
       <use xlink:href="#m06ef969226" x="43.78125" y="301.228" style="stroke: #000000; stroke-width: 0.8"/>
      </g>
     </g>
     <g id="text_26">
      <!-- 0.0 -->
      <g transform="translate(20.878125 305.027219) scale(0.1 -0.1)">
       <defs>
        <path id="DejaVuSans-2e" d="M 684 794 
L 1344 794 
L 1344 0 
L 684 0 
L 684 794 
z
" transform="scale(0.015625)"/>
       </defs>
       <use xlink:href="#DejaVuSans-30"/>
       <use xlink:href="#DejaVuSans-2e" x="63.623047"/>
       <use xlink:href="#DejaVuSans-30" x="95.410156"/>
      </g>
     </g>
    </g>
    <g id="ytick_2">
     <g id="line2d_26">
      <g>
       <use xlink:href="#m06ef969226" x="43.78125" y="258.192336" style="stroke: #000000; stroke-width: 0.8"/>
      </g>
     </g>
     <g id="text_27">
      <!-- 0.2 -->
      <g transform="translate(20.878125 261.991555) scale(0.1 -0.1)">
       <use xlink:href="#DejaVuSans-30"/>
       <use xlink:href="#DejaVuSans-2e" x="63.623047"/>
       <use xlink:href="#DejaVuSans-32" x="95.410156"/>
      </g>
     </g>
    </g>
    <g id="ytick_3">
     <g id="line2d_27">
      <g>
       <use xlink:href="#m06ef969226" x="43.78125" y="215.156672" style="stroke: #000000; stroke-width: 0.8"/>
      </g>
     </g>
     <g id="text_28">
      <!-- 0.4 -->
      <g transform="translate(20.878125 218.955891) scale(0.1 -0.1)">
       <use xlink:href="#DejaVuSans-30"/>
       <use xlink:href="#DejaVuSans-2e" x="63.623047"/>
       <use xlink:href="#DejaVuSans-34" x="95.410156"/>
      </g>
     </g>
    </g>
    <g id="ytick_4">
     <g id="line2d_28">
      <g>
       <use xlink:href="#m06ef969226" x="43.78125" y="172.121009" style="stroke: #000000; stroke-width: 0.8"/>
      </g>
     </g>
     <g id="text_29">
      <!-- 0.6 -->
      <g transform="translate(20.878125 175.920227) scale(0.1 -0.1)">
       <use xlink:href="#DejaVuSans-30"/>
       <use xlink:href="#DejaVuSans-2e" x="63.623047"/>
       <use xlink:href="#DejaVuSans-36" x="95.410156"/>
      </g>
     </g>
    </g>
    <g id="ytick_5">
     <g id="line2d_29">
      <g>
       <use xlink:href="#m06ef969226" x="43.78125" y="129.085345" style="stroke: #000000; stroke-width: 0.8"/>
      </g>
     </g>
     <g id="text_30">
      <!-- 0.8 -->
      <g transform="translate(20.878125 132.884564) scale(0.1 -0.1)">
       <use xlink:href="#DejaVuSans-30"/>
       <use xlink:href="#DejaVuSans-2e" x="63.623047"/>
       <use xlink:href="#DejaVuSans-38" x="95.410156"/>
      </g>
     </g>
    </g>
    <g id="ytick_6">
     <g id="line2d_30">
      <g>
       <use xlink:href="#m06ef969226" x="43.78125" y="86.049681" style="stroke: #000000; stroke-width: 0.8"/>
      </g>
     </g>
     <g id="text_31">
      <!-- 1.0 -->
      <g transform="translate(20.878125 89.8489) scale(0.1 -0.1)">
       <use xlink:href="#DejaVuSans-31"/>
       <use xlink:href="#DejaVuSans-2e" x="63.623047"/>
       <use xlink:href="#DejaVuSans-30" x="95.410156"/>
      </g>
     </g>
    </g>
    <g id="ytick_7">
     <g id="line2d_31">
      <g>
       <use xlink:href="#m06ef969226" x="43.78125" y="43.014017" style="stroke: #000000; stroke-width: 0.8"/>
      </g>
     </g>
     <g id="text_32">
      <!-- 1.2 -->
      <g transform="translate(20.878125 46.813236) scale(0.1 -0.1)">
       <use xlink:href="#DejaVuSans-31"/>
       <use xlink:href="#DejaVuSans-2e" x="63.623047"/>
       <use xlink:href="#DejaVuSans-32" x="95.410156"/>
      </g>
     </g>
    </g>
    <g id="text_33">
     <!-- Electricity use (kWh) -->
     <g transform="translate(14.798438 219.812219) rotate(-90) scale(0.1 -0.1)">
      <defs>
       <path id="DejaVuSans-45" d="M 628 4666 
L 3578 4666 
L 3578 4134 
L 1259 4134 
L 1259 2753 
L 3481 2753 
L 3481 2222 
L 1259 2222 
L 1259 531 
L 3634 531 
L 3634 0 
L 628 0 
L 628 4666 
z
" transform="scale(0.015625)"/>
       <path id="DejaVuSans-6c" d="M 603 4863 
L 1178 4863 
L 1178 0 
L 603 0 
L 603 4863 
z
" transform="scale(0.015625)"/>
       <path id="DejaVuSans-65" d="M 3597 1894 
L 3597 1613 
L 953 1613 
Q 991 1019 1311 708 
Q 1631 397 2203 397 
Q 2534 397 2845 478 
Q 3156 559 3463 722 
L 3463 178 
Q 3153 47 2828 -22 
Q 2503 -91 2169 -91 
Q 1331 -91 842 396 
Q 353 884 353 1716 
Q 353 2575 817 3079 
Q 1281 3584 2069 3584 
Q 2775 3584 3186 3129 
Q 3597 2675 3597 1894 
z
M 3022 2063 
Q 3016 2534 2758 2815 
Q 2500 3097 2075 3097 
Q 1594 3097 1305 2825 
Q 1016 2553 972 2059 
L 3022 2063 
z
" transform="scale(0.015625)"/>
       <path id="DejaVuSans-63" d="M 3122 3366 
L 3122 2828 
Q 2878 2963 2633 3030 
Q 2388 3097 2138 3097 
Q 1578 3097 1268 2742 
Q 959 2388 959 1747 
Q 959 1106 1268 751 
Q 1578 397 2138 397 
Q 2388 397 2633 464 
Q 2878 531 3122 666 
L 3122 134 
Q 2881 22 2623 -34 
Q 2366 -91 2075 -91 
Q 1284 -91 818 406 
Q 353 903 353 1747 
Q 353 2603 823 3093 
Q 1294 3584 2113 3584 
Q 2378 3584 2631 3529 
Q 2884 3475 3122 3366 
z
" transform="scale(0.015625)"/>
       <path id="DejaVuSans-74" d="M 1172 4494 
L 1172 3500 
L 2356 3500 
L 2356 3053 
L 1172 3053 
L 1172 1153 
Q 1172 725 1289 603 
Q 1406 481 1766 481 
L 2356 481 
L 2356 0 
L 1766 0 
Q 1100 0 847 248 
Q 594 497 594 1153 
L 594 3053 
L 172 3053 
L 172 3500 
L 594 3500 
L 594 4494 
L 1172 4494 
z
" transform="scale(0.015625)"/>
       <path id="DejaVuSans-69" d="M 603 3500 
L 1178 3500 
L 1178 0 
L 603 0 
L 603 3500 
z
M 603 4863 
L 1178 4863 
L 1178 4134 
L 603 4134 
L 603 4863 
z
" transform="scale(0.015625)"/>
       <path id="DejaVuSans-79" d="M 2059 -325 
Q 1816 -950 1584 -1140 
Q 1353 -1331 966 -1331 
L 506 -1331 
L 506 -850 
L 844 -850 
Q 1081 -850 1212 -737 
Q 1344 -625 1503 -206 
L 1606 56 
L 191 3500 
L 800 3500 
L 1894 763 
L 2988 3500 
L 3597 3500 
L 2059 -325 
z
" transform="scale(0.015625)"/>
       <path id="DejaVuSans-20" transform="scale(0.015625)"/>
       <path id="DejaVuSans-73" d="M 2834 3397 
L 2834 2853 
Q 2591 2978 2328 3040 
Q 2066 3103 1784 3103 
Q 1356 3103 1142 2972 
Q 928 2841 928 2578 
Q 928 2378 1081 2264 
Q 1234 2150 1697 2047 
L 1894 2003 
Q 2506 1872 2764 1633 
Q 3022 1394 3022 966 
Q 3022 478 2636 193 
Q 2250 -91 1575 -91 
Q 1294 -91 989 -36 
Q 684 19 347 128 
L 347 722 
Q 666 556 975 473 
Q 1284 391 1588 391 
Q 1994 391 2212 530 
Q 2431 669 2431 922 
Q 2431 1156 2273 1281 
Q 2116 1406 1581 1522 
L 1381 1569 
Q 847 1681 609 1914 
Q 372 2147 372 2553 
Q 372 3047 722 3315 
Q 1072 3584 1716 3584 
Q 2034 3584 2315 3537 
Q 2597 3491 2834 3397 
z
" transform="scale(0.015625)"/>
       <path id="DejaVuSans-28" d="M 1984 4856 
Q 1566 4138 1362 3434 
Q 1159 2731 1159 2009 
Q 1159 1288 1364 580 
Q 1569 -128 1984 -844 
L 1484 -844 
Q 1016 -109 783 600 
Q 550 1309 550 2009 
Q 550 2706 781 3412 
Q 1013 4119 1484 4856 
L 1984 4856 
z
" transform="scale(0.015625)"/>
       <path id="DejaVuSans-6b" d="M 581 4863 
L 1159 4863 
L 1159 1991 
L 2875 3500 
L 3609 3500 
L 1753 1863 
L 3688 0 
L 2938 0 
L 1159 1709 
L 1159 0 
L 581 0 
L 581 4863 
z
" transform="scale(0.015625)"/>
       <path id="DejaVuSans-57" d="M 213 4666 
L 850 4666 
L 1831 722 
L 2809 4666 
L 3519 4666 
L 4500 722 
L 5478 4666 
L 6119 4666 
L 4947 0 
L 4153 0 
L 3169 4050 
L 2175 0 
L 1381 0 
L 213 4666 
z
" transform="scale(0.015625)"/>
       <path id="DejaVuSans-68" d="M 3513 2113 
L 3513 0 
L 2938 0 
L 2938 2094 
Q 2938 2591 2744 2837 
Q 2550 3084 2163 3084 
Q 1697 3084 1428 2787 
Q 1159 2491 1159 1978 
L 1159 0 
L 581 0 
L 581 4863 
L 1159 4863 
L 1159 2956 
Q 1366 3272 1645 3428 
Q 1925 3584 2291 3584 
Q 2894 3584 3203 3211 
Q 3513 2838 3513 2113 
z
" transform="scale(0.015625)"/>
       <path id="DejaVuSans-29" d="M 513 4856 
L 1013 4856 
Q 1481 4119 1714 3412 
Q 1947 2706 1947 2009 
Q 1947 1309 1714 600 
Q 1481 -109 1013 -844 
L 513 -844 
Q 928 -128 1133 580 
Q 1338 1288 1338 2009 
Q 1338 2731 1133 3434 
Q 928 4138 513 4856 
z
" transform="scale(0.015625)"/>
      </defs>
      <use xlink:href="#DejaVuSans-45"/>
      <use xlink:href="#DejaVuSans-6c" x="63.183594"/>
      <use xlink:href="#DejaVuSans-65" x="90.966797"/>
      <use xlink:href="#DejaVuSans-63" x="152.490234"/>
      <use xlink:href="#DejaVuSans-74" x="207.470703"/>
      <use xlink:href="#DejaVuSans-72" x="246.679688"/>
      <use xlink:href="#DejaVuSans-69" x="287.792969"/>
      <use xlink:href="#DejaVuSans-63" x="315.576172"/>
      <use xlink:href="#DejaVuSans-69" x="370.556641"/>
      <use xlink:href="#DejaVuSans-74" x="398.339844"/>
      <use xlink:href="#DejaVuSans-79" x="437.548828"/>
      <use xlink:href="#DejaVuSans-20" x="496.728516"/>
      <use xlink:href="#DejaVuSans-75" x="528.515625"/>
      <use xlink:href="#DejaVuSans-73" x="591.894531"/>
      <use xlink:href="#DejaVuSans-65" x="643.994141"/>
      <use xlink:href="#DejaVuSans-20" x="705.517578"/>
      <use xlink:href="#DejaVuSans-28" x="737.304688"/>
      <use xlink:href="#DejaVuSans-6b" x="776.318359"/>
      <use xlink:href="#DejaVuSans-57" x="834.228516"/>
      <use xlink:href="#DejaVuSans-68" x="933.105469"/>
      <use xlink:href="#DejaVuSans-29" x="996.484375"/>
     </g>
    </g>
   </g>
   <g id="patch_75">
    <path d="M 43.78125 301.228 
L 43.78125 34.848 
" style="fill: none; stroke: #000000; stroke-width: 0.8; stroke-linejoin: miter; stroke-linecap: square"/>
   </g>
   <g id="patch_76">
    <path d="M 446.06125 301.228 
L 446.06125 34.848 
" style="fill: none; stroke: #000000; stroke-width: 0.8; stroke-linejoin: miter; stroke-linecap: square"/>
   </g>
   <g id="patch_77">
    <path d="M 43.78125 301.228 
L 446.06125 301.228 
" style="fill: none; stroke: #000000; stroke-width: 0.8; stroke-linejoin: miter; stroke-linecap: square"/>
   </g>
   <g id="patch_78">
    <path d="M 43.78125 34.848 
L 446.06125 34.848 
" style="fill: none; stroke: #000000; stroke-width: 0.8; stroke-linejoin: miter; stroke-linecap: square"/>
   </g>
   <g id="legend_1">
    <g id="patch_79">
     <path d="M 50.78125 86.882375 
L 132.920312 86.882375 
Q 134.920312 86.882375 134.920312 84.882375 
L 134.920312 41.848 
Q 134.920312 39.848 132.920312 39.848 
L 50.78125 39.848 
Q 48.78125 39.848 48.78125 41.848 
L 48.78125 84.882375 
Q 48.78125 86.882375 50.78125 86.882375 
z
" style="fill: #ffffff; opacity: 0.8; stroke: #cccccc; stroke-linejoin: miter"/>
    </g>
    <g id="patch_80">
     <path d="M 52.78125 51.446438 
L 72.78125 51.446438 
L 72.78125 44.446438 
L 52.78125 44.446438 
z
" style="fill: #a52a2a"/>
    </g>
    <g id="text_34">
     <!-- ASHP -->
     <g transform="translate(80.78125 51.446438) scale(0.1 -0.1)">
      <defs>
       <path id="DejaVuSans-41" d="M 2188 4044 
L 1331 1722 
L 3047 1722 
L 2188 4044 
z
M 1831 4666 
L 2547 4666 
L 4325 0 
L 3669 0 
L 3244 1197 
L 1141 1197 
L 716 0 
L 50 0 
L 1831 4666 
z
" transform="scale(0.015625)"/>
       <path id="DejaVuSans-53" d="M 3425 4513 
L 3425 3897 
Q 3066 4069 2747 4153 
Q 2428 4238 2131 4238 
Q 1616 4238 1336 4038 
Q 1056 3838 1056 3469 
Q 1056 3159 1242 3001 
Q 1428 2844 1947 2747 
L 2328 2669 
Q 3034 2534 3370 2195 
Q 3706 1856 3706 1288 
Q 3706 609 3251 259 
Q 2797 -91 1919 -91 
Q 1588 -91 1214 -16 
Q 841 59 441 206 
L 441 856 
Q 825 641 1194 531 
Q 1563 422 1919 422 
Q 2459 422 2753 634 
Q 3047 847 3047 1241 
Q 3047 1584 2836 1778 
Q 2625 1972 2144 2069 
L 1759 2144 
Q 1053 2284 737 2584 
Q 422 2884 422 3419 
Q 422 4038 858 4394 
Q 1294 4750 2059 4750 
Q 2388 4750 2728 4690 
Q 3069 4631 3425 4513 
z
" transform="scale(0.015625)"/>
       <path id="DejaVuSans-50" d="M 1259 4147 
L 1259 2394 
L 2053 2394 
Q 2494 2394 2734 2622 
Q 2975 2850 2975 3272 
Q 2975 3691 2734 3919 
Q 2494 4147 2053 4147 
L 1259 4147 
z
M 628 4666 
L 2053 4666 
Q 2838 4666 3239 4311 
Q 3641 3956 3641 3272 
Q 3641 2581 3239 2228 
Q 2838 1875 2053 1875 
L 1259 1875 
L 1259 0 
L 628 0 
L 628 4666 
z
" transform="scale(0.015625)"/>
      </defs>
      <use xlink:href="#DejaVuSans-41"/>
      <use xlink:href="#DejaVuSans-53" x="68.408203"/>
      <use xlink:href="#DejaVuSans-48" x="131.884766"/>
      <use xlink:href="#DejaVuSans-50" x="207.080078"/>
     </g>
    </g>
    <g id="patch_81">
     <path d="M 52.78125 66.124563 
L 72.78125 66.124563 
L 72.78125 59.124563 
L 52.78125 59.124563 
z
" style="fill: #ffc0cb"/>
    </g>
    <g id="text_35">
     <!-- MSHP -->
     <g transform="translate(80.78125 66.124563) scale(0.1 -0.1)">
      <defs>
       <path id="DejaVuSans-4d" d="M 628 4666 
L 1569 4666 
L 2759 1491 
L 3956 4666 
L 4897 4666 
L 4897 0 
L 4281 0 
L 4281 4097 
L 3078 897 
L 2444 897 
L 1241 4097 
L 1241 0 
L 628 0 
L 628 4666 
z
" transform="scale(0.015625)"/>
      </defs>
      <use xlink:href="#DejaVuSans-4d"/>
      <use xlink:href="#DejaVuSans-53" x="86.279297"/>
      <use xlink:href="#DejaVuSans-48" x="149.755859"/>
      <use xlink:href="#DejaVuSans-50" x="224.951172"/>
     </g>
    </g>
    <g id="patch_82">
     <path d="M 52.78125 80.802687 
L 72.78125 80.802687 
L 72.78125 73.802687 
L 52.78125 73.802687 
z
"/>
    </g>
    <g id="text_36">
     <!-- Field Data -->
     <g transform="translate(80.78125 80.802687) scale(0.1 -0.1)">
      <defs>
       <path id="DejaVuSans-46" d="M 628 4666 
L 3309 4666 
L 3309 4134 
L 1259 4134 
L 1259 2759 
L 3109 2759 
L 3109 2228 
L 1259 2228 
L 1259 0 
L 628 0 
L 628 4666 
z
" transform="scale(0.015625)"/>
       <path id="DejaVuSans-64" d="M 2906 2969 
L 2906 4863 
L 3481 4863 
L 3481 0 
L 2906 0 
L 2906 525 
Q 2725 213 2448 61 
Q 2172 -91 1784 -91 
Q 1150 -91 751 415 
Q 353 922 353 1747 
Q 353 2572 751 3078 
Q 1150 3584 1784 3584 
Q 2172 3584 2448 3432 
Q 2725 3281 2906 2969 
z
M 947 1747 
Q 947 1113 1208 752 
Q 1469 391 1925 391 
Q 2381 391 2643 752 
Q 2906 1113 2906 1747 
Q 2906 2381 2643 2742 
Q 2381 3103 1925 3103 
Q 1469 3103 1208 2742 
Q 947 2381 947 1747 
z
" transform="scale(0.015625)"/>
       <path id="DejaVuSans-44" d="M 1259 4147 
L 1259 519 
L 2022 519 
Q 2988 519 3436 956 
Q 3884 1394 3884 2338 
Q 3884 3275 3436 3711 
Q 2988 4147 2022 4147 
L 1259 4147 
z
M 628 4666 
L 1925 4666 
Q 3281 4666 3915 4102 
Q 4550 3538 4550 2338 
Q 4550 1131 3912 565 
Q 3275 0 1925 0 
L 628 0 
L 628 4666 
z
" transform="scale(0.015625)"/>
       <path id="DejaVuSans-61" d="M 2194 1759 
Q 1497 1759 1228 1600 
Q 959 1441 959 1056 
Q 959 750 1161 570 
Q 1363 391 1709 391 
Q 2188 391 2477 730 
Q 2766 1069 2766 1631 
L 2766 1759 
L 2194 1759 
z
M 3341 1997 
L 3341 0 
L 2766 0 
L 2766 531 
Q 2569 213 2275 61 
Q 1981 -91 1556 -91 
Q 1019 -91 701 211 
Q 384 513 384 1019 
Q 384 1609 779 1909 
Q 1175 2209 1959 2209 
L 2766 2209 
L 2766 2266 
Q 2766 2663 2505 2880 
Q 2244 3097 1772 3097 
Q 1472 3097 1187 3025 
Q 903 2953 641 2809 
L 641 3341 
Q 956 3463 1253 3523 
Q 1550 3584 1831 3584 
Q 2591 3584 2966 3190 
Q 3341 2797 3341 1997 
z
" transform="scale(0.015625)"/>
      </defs>
      <use xlink:href="#DejaVuSans-46"/>
      <use xlink:href="#DejaVuSans-69" x="50.269531"/>
      <use xlink:href="#DejaVuSans-65" x="78.052734"/>
      <use xlink:href="#DejaVuSans-6c" x="139.576172"/>
      <use xlink:href="#DejaVuSans-64" x="167.359375"/>
      <use xlink:href="#DejaVuSans-20" x="230.835938"/>
      <use xlink:href="#DejaVuSans-44" x="262.623047"/>
      <use xlink:href="#DejaVuSans-61" x="339.625"/>
      <use xlink:href="#DejaVuSans-74" x="400.904297"/>
      <use xlink:href="#DejaVuSans-61" x="440.113281"/>
     </g>
    </g>
   </g>
  </g>
  <g id="text_37">
   <!-- Unit in a 2 unit building -->
   <g transform="translate(156.093437 16.318125) scale(0.12 -0.12)">
    <defs>
     <path id="DejaVuSans-55" d="M 556 4666 
L 1191 4666 
L 1191 1831 
Q 1191 1081 1462 751 
Q 1734 422 2344 422 
Q 2950 422 3222 751 
Q 3494 1081 3494 1831 
L 3494 4666 
L 4128 4666 
L 4128 1753 
Q 4128 841 3676 375 
Q 3225 -91 2344 -91 
Q 1459 -91 1007 375 
Q 556 841 556 1753 
L 556 4666 
z
" transform="scale(0.015625)"/>
     <path id="DejaVuSans-6e" d="M 3513 2113 
L 3513 0 
L 2938 0 
L 2938 2094 
Q 2938 2591 2744 2837 
Q 2550 3084 2163 3084 
Q 1697 3084 1428 2787 
Q 1159 2491 1159 1978 
L 1159 0 
L 581 0 
L 581 3500 
L 1159 3500 
L 1159 2956 
Q 1366 3272 1645 3428 
Q 1925 3584 2291 3584 
Q 2894 3584 3203 3211 
Q 3513 2838 3513 2113 
z
" transform="scale(0.015625)"/>
     <path id="DejaVuSans-62" d="M 3116 1747 
Q 3116 2381 2855 2742 
Q 2594 3103 2138 3103 
Q 1681 3103 1420 2742 
Q 1159 2381 1159 1747 
Q 1159 1113 1420 752 
Q 1681 391 2138 391 
Q 2594 391 2855 752 
Q 3116 1113 3116 1747 
z
M 1159 2969 
Q 1341 3281 1617 3432 
Q 1894 3584 2278 3584 
Q 2916 3584 3314 3078 
Q 3713 2572 3713 1747 
Q 3713 922 3314 415 
Q 2916 -91 2278 -91 
Q 1894 -91 1617 61 
Q 1341 213 1159 525 
L 1159 0 
L 581 0 
L 581 4863 
L 1159 4863 
L 1159 2969 
z
" transform="scale(0.015625)"/>
     <path id="DejaVuSans-67" d="M 2906 1791 
Q 2906 2416 2648 2759 
Q 2391 3103 1925 3103 
Q 1463 3103 1205 2759 
Q 947 2416 947 1791 
Q 947 1169 1205 825 
Q 1463 481 1925 481 
Q 2391 481 2648 825 
Q 2906 1169 2906 1791 
z
M 3481 434 
Q 3481 -459 3084 -895 
Q 2688 -1331 1869 -1331 
Q 1566 -1331 1297 -1286 
Q 1028 -1241 775 -1147 
L 775 -588 
Q 1028 -725 1275 -790 
Q 1522 -856 1778 -856 
Q 2344 -856 2625 -561 
Q 2906 -266 2906 331 
L 2906 616 
Q 2728 306 2450 153 
Q 2172 0 1784 0 
Q 1141 0 747 490 
Q 353 981 353 1791 
Q 353 2603 747 3093 
Q 1141 3584 1784 3584 
Q 2172 3584 2450 3431 
Q 2728 3278 2906 2969 
L 2906 3500 
L 3481 3500 
L 3481 434 
z
" transform="scale(0.015625)"/>
    </defs>
    <use xlink:href="#DejaVuSans-55"/>
    <use xlink:href="#DejaVuSans-6e" x="73.193359"/>
    <use xlink:href="#DejaVuSans-69" x="136.572266"/>
    <use xlink:href="#DejaVuSans-74" x="164.355469"/>
    <use xlink:href="#DejaVuSans-20" x="203.564453"/>
    <use xlink:href="#DejaVuSans-69" x="235.351562"/>
    <use xlink:href="#DejaVuSans-6e" x="263.134766"/>
    <use xlink:href="#DejaVuSans-20" x="326.513672"/>
    <use xlink:href="#DejaVuSans-61" x="358.300781"/>
    <use xlink:href="#DejaVuSans-20" x="419.580078"/>
    <use xlink:href="#DejaVuSans-32" x="451.367188"/>
    <use xlink:href="#DejaVuSans-20" x="514.990234"/>
    <use xlink:href="#DejaVuSans-75" x="546.777344"/>
    <use xlink:href="#DejaVuSans-6e" x="610.15625"/>
    <use xlink:href="#DejaVuSans-69" x="673.535156"/>
    <use xlink:href="#DejaVuSans-74" x="701.318359"/>
    <use xlink:href="#DejaVuSans-20" x="740.527344"/>
    <use xlink:href="#DejaVuSans-62" x="772.314453"/>
    <use xlink:href="#DejaVuSans-75" x="835.791016"/>
    <use xlink:href="#DejaVuSans-69" x="899.169922"/>
    <use xlink:href="#DejaVuSans-6c" x="926.953125"/>
    <use xlink:href="#DejaVuSans-64" x="954.736328"/>
    <use xlink:href="#DejaVuSans-69" x="1018.212891"/>
    <use xlink:href="#DejaVuSans-6e" x="1045.996094"/>
    <use xlink:href="#DejaVuSans-67" x="1109.375"/>
   </g>
  </g>
 </g>
 <defs>
  <clipPath id="ped4ace0de6">
   <rect x="43.78125" y="34.848" width="402.28" height="266.38"/>
  </clipPath>
 </defs>
</svg>
