<?xml version="1.0" encoding="utf-8" standalone="no"?>
<!DOCTYPE svg PUBLIC "-//W3C//DTD SVG 1.1//EN"
  "http://www.w3.org/Graphics/SVG/1.1/DTD/svg11.dtd">
<svg xmlns:xlink="http://www.w3.org/1999/xlink" width="524.979687pt" height="337.074375pt" viewBox="0 0 524.979687 337.074375" xmlns="http://www.w3.org/2000/svg" version="1.1">
 <metadata>
  <rdf:RDF xmlns:dc="http://purl.org/dc/elements/1.1/" xmlns:cc="http://creativecommons.org/ns#" xmlns:rdf="http://www.w3.org/1999/02/22-rdf-syntax-ns#">
   <cc:Work>
    <dc:type rdf:resource="http://purl.org/dc/dcmitype/StillImage"/>
    <dc:date>2024-08-12T17:29:25.824569</dc:date>
    <dc:format>image/svg+xml</dc:format>
    <dc:creator>
     <cc:Agent>
      <dc:title>Matplotlib v3.9.1, https://matplotlib.org/</dc:title>
     </cc:Agent>
    </dc:creator>
   </cc:Work>
  </rdf:RDF>
 </metadata>
 <defs>
  <style type="text/css">*{stroke-linejoin: round; stroke-linecap: butt}</style>
 </defs>
 <g id="figure_1">
  <g id="patch_1">
   <path d="M 0 337.074375 
L 524.979687 337.074375 
L 524.979687 0 
L 0 0 
z
" style="fill: #ffffff"/>
  </g>
  <g id="axes_1">
   <g id="patch_2">
    <path d="M 43.78125 299.518125 
L 434.38125 299.518125 
L 434.38125 22.318125 
L 43.78125 22.318125 
z
" style="fill: #ffffff"/>
   </g>
   <g id="matplotlib.axis_1">
    <g id="xtick_1">
     <g id="line2d_1">
      <defs>
       <path id="m1fca96908c" d="M 0 0 
L 0 3.5 
" style="stroke: #000000; stroke-width: 0.8"/>
      </defs>
      <g>
       <use xlink:href="#m1fca96908c" x="61.535795" y="299.518125" style="stroke: #000000; stroke-width: 0.8"/>
      </g>
     </g>
     <g id="text_1">
      <!-- 0 -->
      <g transform="translate(58.354545 314.116563) scale(0.1 -0.1)">
       <defs>
        <path id="DejaVuSans-30" d="M 2034 4250 
Q 1547 4250 1301 3770 
Q 1056 3291 1056 2328 
Q 1056 1369 1301 889 
Q 1547 409 2034 409 
Q 2525 409 2770 889 
Q 3016 1369 3016 2328 
Q 3016 3291 2770 3770 
Q 2525 4250 2034 4250 
z
M 2034 4750 
Q 2819 4750 3233 4129 
Q 3647 3509 3647 2328 
Q 3647 1150 3233 529 
Q 2819 -91 2034 -91 
Q 1250 -91 836 529 
Q 422 1150 422 2328 
Q 422 3509 836 4129 
Q 1250 4750 2034 4750 
z
" transform="scale(0.015625)"/>
       </defs>
       <use xlink:href="#DejaVuSans-30"/>
      </g>
     </g>
    </g>
    <g id="xtick_2">
     <g id="line2d_2">
      <g>
       <use xlink:href="#m1fca96908c" x="138.729471" y="299.518125" style="stroke: #000000; stroke-width: 0.8"/>
      </g>
     </g>
     <g id="text_2">
      <!-- 5 -->
      <g transform="translate(135.548221 314.116563) scale(0.1 -0.1)">
       <defs>
        <path id="DejaVuSans-35" d="M 691 4666 
L 3169 4666 
L 3169 4134 
L 1269 4134 
L 1269 2991 
Q 1406 3038 1543 3061 
Q 1681 3084 1819 3084 
Q 2600 3084 3056 2656 
Q 3513 2228 3513 1497 
Q 3513 744 3044 326 
Q 2575 -91 1722 -91 
Q 1428 -91 1123 -41 
Q 819 9 494 109 
L 494 744 
Q 775 591 1075 516 
Q 1375 441 1709 441 
Q 2250 441 2565 725 
Q 2881 1009 2881 1497 
Q 2881 1984 2565 2268 
Q 2250 2553 1709 2553 
Q 1456 2553 1204 2497 
Q 953 2441 691 2322 
L 691 4666 
z
" transform="scale(0.015625)"/>
       </defs>
       <use xlink:href="#DejaVuSans-35"/>
      </g>
     </g>
    </g>
    <g id="xtick_3">
     <g id="line2d_3">
      <g>
       <use xlink:href="#m1fca96908c" x="215.923147" y="299.518125" style="stroke: #000000; stroke-width: 0.8"/>
      </g>
     </g>
     <g id="text_3">
      <!-- 10 -->
      <g transform="translate(209.560647 314.116563) scale(0.1 -0.1)">
       <defs>
        <path id="DejaVuSans-31" d="M 794 531 
L 1825 531 
L 1825 4091 
L 703 3866 
L 703 4441 
L 1819 4666 
L 2450 4666 
L 2450 531 
L 3481 531 
L 3481 0 
L 794 0 
L 794 531 
z
" transform="scale(0.015625)"/>
       </defs>
       <use xlink:href="#DejaVuSans-31"/>
       <use xlink:href="#DejaVuSans-30" x="63.623047"/>
      </g>
     </g>
    </g>
    <g id="xtick_4">
     <g id="line2d_4">
      <g>
       <use xlink:href="#m1fca96908c" x="293.116823" y="299.518125" style="stroke: #000000; stroke-width: 0.8"/>
      </g>
     </g>
     <g id="text_4">
      <!-- 15 -->
      <g transform="translate(286.754323 314.116563) scale(0.1 -0.1)">
       <use xlink:href="#DejaVuSans-31"/>
       <use xlink:href="#DejaVuSans-35" x="63.623047"/>
      </g>
     </g>
    </g>
    <g id="xtick_5">
     <g id="line2d_5">
      <g>
       <use xlink:href="#m1fca96908c" x="370.310499" y="299.518125" style="stroke: #000000; stroke-width: 0.8"/>
      </g>
     </g>
     <g id="text_5">
      <!-- 20 -->
      <g transform="translate(363.947999 314.116563) scale(0.1 -0.1)">
       <defs>
        <path id="DejaVuSans-32" d="M 1228 531 
L 3431 531 
L 3431 0 
L 469 0 
L 469 531 
Q 828 903 1448 1529 
Q 2069 2156 2228 2338 
Q 2531 2678 2651 2914 
Q 2772 3150 2772 3378 
Q 2772 3750 2511 3984 
Q 2250 4219 1831 4219 
Q 1534 4219 1204 4116 
Q 875 4013 500 3803 
L 500 4441 
Q 881 4594 1212 4672 
Q 1544 4750 1819 4750 
Q 2544 4750 2975 4387 
Q 3406 4025 3406 3419 
Q 3406 3131 3298 2873 
Q 3191 2616 2906 2266 
Q 2828 2175 2409 1742 
Q 1991 1309 1228 531 
z
" transform="scale(0.015625)"/>
       </defs>
       <use xlink:href="#DejaVuSans-32"/>
       <use xlink:href="#DejaVuSans-30" x="63.623047"/>
      </g>
     </g>
    </g>
    <g id="text_6">
     <!-- Time -->
     <g transform="translate(226.847656 327.794688) scale(0.1 -0.1)">
      <defs>
       <path id="DejaVuSans-54" d="M -19 4666 
L 3928 4666 
L 3928 4134 
L 2272 4134 
L 2272 0 
L 1638 0 
L 1638 4134 
L -19 4134 
L -19 4666 
z
" transform="scale(0.015625)"/>
       <path id="DejaVuSans-69" d="M 603 3500 
L 1178 3500 
L 1178 0 
L 603 0 
L 603 3500 
z
M 603 4863 
L 1178 4863 
L 1178 4134 
L 603 4134 
L 603 4863 
z
" transform="scale(0.015625)"/>
       <path id="DejaVuSans-6d" d="M 3328 2828 
Q 3544 3216 3844 3400 
Q 4144 3584 4550 3584 
Q 5097 3584 5394 3201 
Q 5691 2819 5691 2113 
L 5691 0 
L 5113 0 
L 5113 2094 
Q 5113 2597 4934 2840 
Q 4756 3084 4391 3084 
Q 3944 3084 3684 2787 
Q 3425 2491 3425 1978 
L 3425 0 
L 2847 0 
L 2847 2094 
Q 2847 2600 2669 2842 
Q 2491 3084 2119 3084 
Q 1678 3084 1418 2786 
Q 1159 2488 1159 1978 
L 1159 0 
L 581 0 
L 581 3500 
L 1159 3500 
L 1159 2956 
Q 1356 3278 1631 3431 
Q 1906 3584 2284 3584 
Q 2666 3584 2933 3390 
Q 3200 3197 3328 2828 
z
" transform="scale(0.015625)"/>
       <path id="DejaVuSans-65" d="M 3597 1894 
L 3597 1613 
L 953 1613 
Q 991 1019 1311 708 
Q 1631 397 2203 397 
Q 2534 397 2845 478 
Q 3156 559 3463 722 
L 3463 178 
Q 3153 47 2828 -22 
Q 2503 -91 2169 -91 
Q 1331 -91 842 396 
Q 353 884 353 1716 
Q 353 2575 817 3079 
Q 1281 3584 2069 3584 
Q 2775 3584 3186 3129 
Q 3597 2675 3597 1894 
z
M 3022 2063 
Q 3016 2534 2758 2815 
Q 2500 3097 2075 3097 
Q 1594 3097 1305 2825 
Q 1016 2553 972 2059 
L 3022 2063 
z
" transform="scale(0.015625)"/>
      </defs>
      <use xlink:href="#DejaVuSans-54"/>
      <use xlink:href="#DejaVuSans-69" x="57.958984"/>
      <use xlink:href="#DejaVuSans-6d" x="85.742188"/>
      <use xlink:href="#DejaVuSans-65" x="183.154297"/>
     </g>
    </g>
   </g>
   <g id="matplotlib.axis_2">
    <g id="ytick_1">
     <g id="line2d_6">
      <defs>
       <path id="m89885a3167" d="M 0 0 
L -3.5 0 
" style="stroke: #000000; stroke-width: 0.8"/>
      </defs>
      <g>
       <use xlink:href="#m89885a3167" x="43.78125" y="270.491458" style="stroke: #000000; stroke-width: 0.8"/>
      </g>
     </g>
     <g id="text_7">
      <!-- 0.4 -->
      <g transform="translate(20.878125 274.290677) scale(0.1 -0.1)">
       <defs>
        <path id="DejaVuSans-2e" d="M 684 794 
L 1344 794 
L 1344 0 
L 684 0 
L 684 794 
z
" transform="scale(0.015625)"/>
        <path id="DejaVuSans-34" d="M 2419 4116 
L 825 1625 
L 2419 1625 
L 2419 4116 
z
M 2253 4666 
L 3047 4666 
L 3047 1625 
L 3713 1625 
L 3713 1100 
L 3047 1100 
L 3047 0 
L 2419 0 
L 2419 1100 
L 313 1100 
L 313 1709 
L 2253 4666 
z
" transform="scale(0.015625)"/>
       </defs>
       <use xlink:href="#DejaVuSans-30"/>
       <use xlink:href="#DejaVuSans-2e" x="63.623047"/>
       <use xlink:href="#DejaVuSans-34" x="95.410156"/>
      </g>
     </g>
    </g>
    <g id="ytick_2">
     <g id="line2d_7">
      <g>
       <use xlink:href="#m89885a3167" x="43.78125" y="233.158125" style="stroke: #000000; stroke-width: 0.8"/>
      </g>
     </g>
     <g id="text_8">
      <!-- 0.6 -->
      <g transform="translate(20.878125 236.957344) scale(0.1 -0.1)">
       <defs>
        <path id="DejaVuSans-36" d="M 2113 2584 
Q 1688 2584 1439 2293 
Q 1191 2003 1191 1497 
Q 1191 994 1439 701 
Q 1688 409 2113 409 
Q 2538 409 2786 701 
Q 3034 994 3034 1497 
Q 3034 2003 2786 2293 
Q 2538 2584 2113 2584 
z
M 3366 4563 
L 3366 3988 
Q 3128 4100 2886 4159 
Q 2644 4219 2406 4219 
Q 1781 4219 1451 3797 
Q 1122 3375 1075 2522 
Q 1259 2794 1537 2939 
Q 1816 3084 2150 3084 
Q 2853 3084 3261 2657 
Q 3669 2231 3669 1497 
Q 3669 778 3244 343 
Q 2819 -91 2113 -91 
Q 1303 -91 875 529 
Q 447 1150 447 2328 
Q 447 3434 972 4092 
Q 1497 4750 2381 4750 
Q 2619 4750 2861 4703 
Q 3103 4656 3366 4563 
z
" transform="scale(0.015625)"/>
       </defs>
       <use xlink:href="#DejaVuSans-30"/>
       <use xlink:href="#DejaVuSans-2e" x="63.623047"/>
       <use xlink:href="#DejaVuSans-36" x="95.410156"/>
      </g>
     </g>
    </g>
    <g id="ytick_3">
     <g id="line2d_8">
      <g>
       <use xlink:href="#m89885a3167" x="43.78125" y="195.824792" style="stroke: #000000; stroke-width: 0.8"/>
      </g>
     </g>
     <g id="text_9">
      <!-- 0.8 -->
      <g transform="translate(20.878125 199.62401) scale(0.1 -0.1)">
       <defs>
        <path id="DejaVuSans-38" d="M 2034 2216 
Q 1584 2216 1326 1975 
Q 1069 1734 1069 1313 
Q 1069 891 1326 650 
Q 1584 409 2034 409 
Q 2484 409 2743 651 
Q 3003 894 3003 1313 
Q 3003 1734 2745 1975 
Q 2488 2216 2034 2216 
z
M 1403 2484 
Q 997 2584 770 2862 
Q 544 3141 544 3541 
Q 544 4100 942 4425 
Q 1341 4750 2034 4750 
Q 2731 4750 3128 4425 
Q 3525 4100 3525 3541 
Q 3525 3141 3298 2862 
Q 3072 2584 2669 2484 
Q 3125 2378 3379 2068 
Q 3634 1759 3634 1313 
Q 3634 634 3220 271 
Q 2806 -91 2034 -91 
Q 1263 -91 848 271 
Q 434 634 434 1313 
Q 434 1759 690 2068 
Q 947 2378 1403 2484 
z
M 1172 3481 
Q 1172 3119 1398 2916 
Q 1625 2713 2034 2713 
Q 2441 2713 2670 2916 
Q 2900 3119 2900 3481 
Q 2900 3844 2670 4047 
Q 2441 4250 2034 4250 
Q 1625 4250 1398 4047 
Q 1172 3844 1172 3481 
z
" transform="scale(0.015625)"/>
       </defs>
       <use xlink:href="#DejaVuSans-30"/>
       <use xlink:href="#DejaVuSans-2e" x="63.623047"/>
       <use xlink:href="#DejaVuSans-38" x="95.410156"/>
      </g>
     </g>
    </g>
    <g id="ytick_4">
     <g id="line2d_9">
      <g>
       <use xlink:href="#m89885a3167" x="43.78125" y="158.491458" style="stroke: #000000; stroke-width: 0.8"/>
      </g>
     </g>
     <g id="text_10">
      <!-- 1.0 -->
      <g transform="translate(20.878125 162.290677) scale(0.1 -0.1)">
       <use xlink:href="#DejaVuSans-31"/>
       <use xlink:href="#DejaVuSans-2e" x="63.623047"/>
       <use xlink:href="#DejaVuSans-30" x="95.410156"/>
      </g>
     </g>
    </g>
    <g id="ytick_5">
     <g id="line2d_10">
      <g>
       <use xlink:href="#m89885a3167" x="43.78125" y="121.158125" style="stroke: #000000; stroke-width: 0.8"/>
      </g>
     </g>
     <g id="text_11">
      <!-- 1.2 -->
      <g transform="translate(20.878125 124.957344) scale(0.1 -0.1)">
       <use xlink:href="#DejaVuSans-31"/>
       <use xlink:href="#DejaVuSans-2e" x="63.623047"/>
       <use xlink:href="#DejaVuSans-32" x="95.410156"/>
      </g>
     </g>
    </g>
    <g id="ytick_6">
     <g id="line2d_11">
      <g>
       <use xlink:href="#m89885a3167" x="43.78125" y="83.824792" style="stroke: #000000; stroke-width: 0.8"/>
      </g>
     </g>
     <g id="text_12">
      <!-- 1.4 -->
      <g transform="translate(20.878125 87.62401) scale(0.1 -0.1)">
       <use xlink:href="#DejaVuSans-31"/>
       <use xlink:href="#DejaVuSans-2e" x="63.623047"/>
       <use xlink:href="#DejaVuSans-34" x="95.410156"/>
      </g>
     </g>
    </g>
    <g id="ytick_7">
     <g id="line2d_12">
      <g>
       <use xlink:href="#m89885a3167" x="43.78125" y="46.491458" style="stroke: #000000; stroke-width: 0.8"/>
      </g>
     </g>
     <g id="text_13">
      <!-- 1.6 -->
      <g transform="translate(20.878125 50.290677) scale(0.1 -0.1)">
       <use xlink:href="#DejaVuSans-31"/>
       <use xlink:href="#DejaVuSans-2e" x="63.623047"/>
       <use xlink:href="#DejaVuSans-36" x="95.410156"/>
      </g>
     </g>
    </g>
    <g id="text_14">
     <!-- Fuel Use: Electricity: Total -->
     <g transform="translate(14.798438 224.780625) rotate(-90) scale(0.1 -0.1)">
      <defs>
       <path id="DejaVuSans-46" d="M 628 4666 
L 3309 4666 
L 3309 4134 
L 1259 4134 
L 1259 2759 
L 3109 2759 
L 3109 2228 
L 1259 2228 
L 1259 0 
L 628 0 
L 628 4666 
z
" transform="scale(0.015625)"/>
       <path id="DejaVuSans-75" d="M 544 1381 
L 544 3500 
L 1119 3500 
L 1119 1403 
Q 1119 906 1312 657 
Q 1506 409 1894 409 
Q 2359 409 2629 706 
Q 2900 1003 2900 1516 
L 2900 3500 
L 3475 3500 
L 3475 0 
L 2900 0 
L 2900 538 
Q 2691 219 2414 64 
Q 2138 -91 1772 -91 
Q 1169 -91 856 284 
Q 544 659 544 1381 
z
M 1991 3584 
L 1991 3584 
z
" transform="scale(0.015625)"/>
       <path id="DejaVuSans-6c" d="M 603 4863 
L 1178 4863 
L 1178 0 
L 603 0 
L 603 4863 
z
" transform="scale(0.015625)"/>
       <path id="DejaVuSans-20" transform="scale(0.015625)"/>
       <path id="DejaVuSans-55" d="M 556 4666 
L 1191 4666 
L 1191 1831 
Q 1191 1081 1462 751 
Q 1734 422 2344 422 
Q 2950 422 3222 751 
Q 3494 1081 3494 1831 
L 3494 4666 
L 4128 4666 
L 4128 1753 
Q 4128 841 3676 375 
Q 3225 -91 2344 -91 
Q 1459 -91 1007 375 
Q 556 841 556 1753 
L 556 4666 
z
" transform="scale(0.015625)"/>
       <path id="DejaVuSans-73" d="M 2834 3397 
L 2834 2853 
Q 2591 2978 2328 3040 
Q 2066 3103 1784 3103 
Q 1356 3103 1142 2972 
Q 928 2841 928 2578 
Q 928 2378 1081 2264 
Q 1234 2150 1697 2047 
L 1894 2003 
Q 2506 1872 2764 1633 
Q 3022 1394 3022 966 
Q 3022 478 2636 193 
Q 2250 -91 1575 -91 
Q 1294 -91 989 -36 
Q 684 19 347 128 
L 347 722 
Q 666 556 975 473 
Q 1284 391 1588 391 
Q 1994 391 2212 530 
Q 2431 669 2431 922 
Q 2431 1156 2273 1281 
Q 2116 1406 1581 1522 
L 1381 1569 
Q 847 1681 609 1914 
Q 372 2147 372 2553 
Q 372 3047 722 3315 
Q 1072 3584 1716 3584 
Q 2034 3584 2315 3537 
Q 2597 3491 2834 3397 
z
" transform="scale(0.015625)"/>
       <path id="DejaVuSans-3a" d="M 750 794 
L 1409 794 
L 1409 0 
L 750 0 
L 750 794 
z
M 750 3309 
L 1409 3309 
L 1409 2516 
L 750 2516 
L 750 3309 
z
" transform="scale(0.015625)"/>
       <path id="DejaVuSans-45" d="M 628 4666 
L 3578 4666 
L 3578 4134 
L 1259 4134 
L 1259 2753 
L 3481 2753 
L 3481 2222 
L 1259 2222 
L 1259 531 
L 3634 531 
L 3634 0 
L 628 0 
L 628 4666 
z
" transform="scale(0.015625)"/>
       <path id="DejaVuSans-63" d="M 3122 3366 
L 3122 2828 
Q 2878 2963 2633 3030 
Q 2388 3097 2138 3097 
Q 1578 3097 1268 2742 
Q 959 2388 959 1747 
Q 959 1106 1268 751 
Q 1578 397 2138 397 
Q 2388 397 2633 464 
Q 2878 531 3122 666 
L 3122 134 
Q 2881 22 2623 -34 
Q 2366 -91 2075 -91 
Q 1284 -91 818 406 
Q 353 903 353 1747 
Q 353 2603 823 3093 
Q 1294 3584 2113 3584 
Q 2378 3584 2631 3529 
Q 2884 3475 3122 3366 
z
" transform="scale(0.015625)"/>
       <path id="DejaVuSans-74" d="M 1172 4494 
L 1172 3500 
L 2356 3500 
L 2356 3053 
L 1172 3053 
L 1172 1153 
Q 1172 725 1289 603 
Q 1406 481 1766 481 
L 2356 481 
L 2356 0 
L 1766 0 
Q 1100 0 847 248 
Q 594 497 594 1153 
L 594 3053 
L 172 3053 
L 172 3500 
L 594 3500 
L 594 4494 
L 1172 4494 
z
" transform="scale(0.015625)"/>
       <path id="DejaVuSans-72" d="M 2631 2963 
Q 2534 3019 2420 3045 
Q 2306 3072 2169 3072 
Q 1681 3072 1420 2755 
Q 1159 2438 1159 1844 
L 1159 0 
L 581 0 
L 581 3500 
L 1159 3500 
L 1159 2956 
Q 1341 3275 1631 3429 
Q 1922 3584 2338 3584 
Q 2397 3584 2469 3576 
Q 2541 3569 2628 3553 
L 2631 2963 
z
" transform="scale(0.015625)"/>
       <path id="DejaVuSans-79" d="M 2059 -325 
Q 1816 -950 1584 -1140 
Q 1353 -1331 966 -1331 
L 506 -1331 
L 506 -850 
L 844 -850 
Q 1081 -850 1212 -737 
Q 1344 -625 1503 -206 
L 1606 56 
L 191 3500 
L 800 3500 
L 1894 763 
L 2988 3500 
L 3597 3500 
L 2059 -325 
z
" transform="scale(0.015625)"/>
       <path id="DejaVuSans-6f" d="M 1959 3097 
Q 1497 3097 1228 2736 
Q 959 2375 959 1747 
Q 959 1119 1226 758 
Q 1494 397 1959 397 
Q 2419 397 2687 759 
Q 2956 1122 2956 1747 
Q 2956 2369 2687 2733 
Q 2419 3097 1959 3097 
z
M 1959 3584 
Q 2709 3584 3137 3096 
Q 3566 2609 3566 1747 
Q 3566 888 3137 398 
Q 2709 -91 1959 -91 
Q 1206 -91 779 398 
Q 353 888 353 1747 
Q 353 2609 779 3096 
Q 1206 3584 1959 3584 
z
" transform="scale(0.015625)"/>
       <path id="DejaVuSans-61" d="M 2194 1759 
Q 1497 1759 1228 1600 
Q 959 1441 959 1056 
Q 959 750 1161 570 
Q 1363 391 1709 391 
Q 2188 391 2477 730 
Q 2766 1069 2766 1631 
L 2766 1759 
L 2194 1759 
z
M 3341 1997 
L 3341 0 
L 2766 0 
L 2766 531 
Q 2569 213 2275 61 
Q 1981 -91 1556 -91 
Q 1019 -91 701 211 
Q 384 513 384 1019 
Q 384 1609 779 1909 
Q 1175 2209 1959 2209 
L 2766 2209 
L 2766 2266 
Q 2766 2663 2505 2880 
Q 2244 3097 1772 3097 
Q 1472 3097 1187 3025 
Q 903 2953 641 2809 
L 641 3341 
Q 956 3463 1253 3523 
Q 1550 3584 1831 3584 
Q 2591 3584 2966 3190 
Q 3341 2797 3341 1997 
z
" transform="scale(0.015625)"/>
      </defs>
      <use xlink:href="#DejaVuSans-46"/>
      <use xlink:href="#DejaVuSans-75" x="52.019531"/>
      <use xlink:href="#DejaVuSans-65" x="115.398438"/>
      <use xlink:href="#DejaVuSans-6c" x="176.921875"/>
      <use xlink:href="#DejaVuSans-20" x="204.705078"/>
      <use xlink:href="#DejaVuSans-55" x="236.492188"/>
      <use xlink:href="#DejaVuSans-73" x="309.685547"/>
      <use xlink:href="#DejaVuSans-65" x="361.785156"/>
      <use xlink:href="#DejaVuSans-3a" x="423.308594"/>
      <use xlink:href="#DejaVuSans-20" x="457"/>
      <use xlink:href="#DejaVuSans-45" x="488.787109"/>
      <use xlink:href="#DejaVuSans-6c" x="551.970703"/>
      <use xlink:href="#DejaVuSans-65" x="579.753906"/>
      <use xlink:href="#DejaVuSans-63" x="641.277344"/>
      <use xlink:href="#DejaVuSans-74" x="696.257812"/>
      <use xlink:href="#DejaVuSans-72" x="735.466797"/>
      <use xlink:href="#DejaVuSans-69" x="776.580078"/>
      <use xlink:href="#DejaVuSans-63" x="804.363281"/>
      <use xlink:href="#DejaVuSans-69" x="859.34375"/>
      <use xlink:href="#DejaVuSans-74" x="887.126953"/>
      <use xlink:href="#DejaVuSans-79" x="926.335938"/>
      <use xlink:href="#DejaVuSans-3a" x="978.265625"/>
      <use xlink:href="#DejaVuSans-20" x="1011.957031"/>
      <use xlink:href="#DejaVuSans-54" x="1043.744141"/>
      <use xlink:href="#DejaVuSans-6f" x="1087.828125"/>
      <use xlink:href="#DejaVuSans-74" x="1149.009766"/>
      <use xlink:href="#DejaVuSans-61" x="1188.21875"/>
      <use xlink:href="#DejaVuSans-6c" x="1249.498047"/>
     </g>
    </g>
   </g>
   <g id="line2d_13">
    <path d="M 61.535795 237.638125 
L 76.974531 248.091458 
L 92.413266 247.158125 
L 107.852001 254.811458 
L 123.290736 258.544792 
L 138.729471 263.958125 
L 154.168207 231.291458 
L 169.606942 264.518125 
L 185.045677 257.424792 
L 200.484412 253.504792 
L 215.923147 233.531458 
L 231.361882 226.251458 
L 246.800618 222.704792 
L 262.239353 214.678125 
L 277.678088 213.931458 
L 293.116823 88.864792 
L 308.555558 79.904792 
L 323.994293 70.198125 
L 339.433029 71.318125 
L 354.871764 64.411458 
L 370.310499 57.131458 
L 385.749234 41.264792 
L 401.187969 93.531458 
L 416.626705 137.958125 
" clip-path="url(#p905e72c4d1)" style="fill: none; stroke: #808080; stroke-width: 1.5; stroke-linecap: square"/>
    <defs>
     <path id="mf874da95ae" d="M 0 3 
C 0.795609 3 1.55874 2.683901 2.12132 2.12132 
C 2.683901 1.55874 3 0.795609 3 0 
C 3 -0.795609 2.683901 -1.55874 2.12132 -2.12132 
C 1.55874 -2.683901 0.795609 -3 0 -3 
C -0.795609 -3 -1.55874 -2.683901 -2.12132 -2.12132 
C -2.683901 -1.55874 -3 -0.795609 -3 0 
C -3 0.795609 -2.683901 1.55874 -2.12132 2.12132 
C -1.55874 2.683901 -0.795609 3 0 3 
z
" style="stroke: #808080"/>
    </defs>
    <g clip-path="url(#p905e72c4d1)">
     <use xlink:href="#mf874da95ae" x="61.535795" y="237.638125" style="fill: #808080; stroke: #808080"/>
     <use xlink:href="#mf874da95ae" x="76.974531" y="248.091458" style="fill: #808080; stroke: #808080"/>
     <use xlink:href="#mf874da95ae" x="92.413266" y="247.158125" style="fill: #808080; stroke: #808080"/>
     <use xlink:href="#mf874da95ae" x="107.852001" y="254.811458" style="fill: #808080; stroke: #808080"/>
     <use xlink:href="#mf874da95ae" x="123.290736" y="258.544792" style="fill: #808080; stroke: #808080"/>
     <use xlink:href="#mf874da95ae" x="138.729471" y="263.958125" style="fill: #808080; stroke: #808080"/>
     <use xlink:href="#mf874da95ae" x="154.168207" y="231.291458" style="fill: #808080; stroke: #808080"/>
     <use xlink:href="#mf874da95ae" x="169.606942" y="264.518125" style="fill: #808080; stroke: #808080"/>
     <use xlink:href="#mf874da95ae" x="185.045677" y="257.424792" style="fill: #808080; stroke: #808080"/>
     <use xlink:href="#mf874da95ae" x="200.484412" y="253.504792" style="fill: #808080; stroke: #808080"/>
     <use xlink:href="#mf874da95ae" x="215.923147" y="233.531458" style="fill: #808080; stroke: #808080"/>
     <use xlink:href="#mf874da95ae" x="231.361882" y="226.251458" style="fill: #808080; stroke: #808080"/>
     <use xlink:href="#mf874da95ae" x="246.800618" y="222.704792" style="fill: #808080; stroke: #808080"/>
     <use xlink:href="#mf874da95ae" x="262.239353" y="214.678125" style="fill: #808080; stroke: #808080"/>
     <use xlink:href="#mf874da95ae" x="277.678088" y="213.931458" style="fill: #808080; stroke: #808080"/>
     <use xlink:href="#mf874da95ae" x="293.116823" y="88.864792" style="fill: #808080; stroke: #808080"/>
     <use xlink:href="#mf874da95ae" x="308.555558" y="79.904792" style="fill: #808080; stroke: #808080"/>
     <use xlink:href="#mf874da95ae" x="323.994293" y="70.198125" style="fill: #808080; stroke: #808080"/>
     <use xlink:href="#mf874da95ae" x="339.433029" y="71.318125" style="fill: #808080; stroke: #808080"/>
     <use xlink:href="#mf874da95ae" x="354.871764" y="64.411458" style="fill: #808080; stroke: #808080"/>
     <use xlink:href="#mf874da95ae" x="370.310499" y="57.131458" style="fill: #808080; stroke: #808080"/>
     <use xlink:href="#mf874da95ae" x="385.749234" y="41.264792" style="fill: #808080; stroke: #808080"/>
     <use xlink:href="#mf874da95ae" x="401.187969" y="93.531458" style="fill: #808080; stroke: #808080"/>
     <use xlink:href="#mf874da95ae" x="416.626705" y="137.958125" style="fill: #808080; stroke: #808080"/>
    </g>
   </g>
   <g id="line2d_14">
    <path d="M 61.535795 267.131458 
L 76.974531 275.904792 
L 92.413266 275.344792 
L 107.852001 279.264792 
L 123.290736 281.318125 
L 138.729471 284.304792 
L 154.168207 252.198125 
L 169.606942 284.118125 
L 185.045677 280.384792 
L 200.484412 278.704792 
L 215.923147 270.304792 
L 231.361882 267.131458 
L 246.800618 264.518125 
L 262.239353 261.344792 
L 277.678088 260.224792 
L 293.116823 112.758125 
L 308.555558 65.531458 
L 323.994293 58.251458 
L 339.433029 61.611458 
L 354.871764 56.571458 
L 370.310499 54.891458 
L 385.749234 39.398125 
L 401.187969 163.718125 
L 416.626705 227.558125 
" clip-path="url(#p905e72c4d1)" style="fill: none; stroke: #a52a2a; stroke-width: 1.5; stroke-linecap: square"/>
    <defs>
     <path id="mcc77349055" d="M -1.5 3 
L 0 1.5 
L 1.5 3 
L 3 1.5 
L 1.5 0 
L 3 -1.5 
L 1.5 -3 
L 0 -1.5 
L -1.5 -3 
L -3 -1.5 
L -1.5 0 
L -3 1.5 
z
" style="stroke: #a52a2a; stroke-linejoin: miter"/>
    </defs>
    <g clip-path="url(#p905e72c4d1)">
     <use xlink:href="#mcc77349055" x="61.535795" y="267.131458" style="fill: #a52a2a; stroke: #a52a2a; stroke-linejoin: miter"/>
     <use xlink:href="#mcc77349055" x="76.974531" y="275.904792" style="fill: #a52a2a; stroke: #a52a2a; stroke-linejoin: miter"/>
     <use xlink:href="#mcc77349055" x="92.413266" y="275.344792" style="fill: #a52a2a; stroke: #a52a2a; stroke-linejoin: miter"/>
     <use xlink:href="#mcc77349055" x="107.852001" y="279.264792" style="fill: #a52a2a; stroke: #a52a2a; stroke-linejoin: miter"/>
     <use xlink:href="#mcc77349055" x="123.290736" y="281.318125" style="fill: #a52a2a; stroke: #a52a2a; stroke-linejoin: miter"/>
     <use xlink:href="#mcc77349055" x="138.729471" y="284.304792" style="fill: #a52a2a; stroke: #a52a2a; stroke-linejoin: miter"/>
     <use xlink:href="#mcc77349055" x="154.168207" y="252.198125" style="fill: #a52a2a; stroke: #a52a2a; stroke-linejoin: miter"/>
     <use xlink:href="#mcc77349055" x="169.606942" y="284.118125" style="fill: #a52a2a; stroke: #a52a2a; stroke-linejoin: miter"/>
     <use xlink:href="#mcc77349055" x="185.045677" y="280.384792" style="fill: #a52a2a; stroke: #a52a2a; stroke-linejoin: miter"/>
     <use xlink:href="#mcc77349055" x="200.484412" y="278.704792" style="fill: #a52a2a; stroke: #a52a2a; stroke-linejoin: miter"/>
     <use xlink:href="#mcc77349055" x="215.923147" y="270.304792" style="fill: #a52a2a; stroke: #a52a2a; stroke-linejoin: miter"/>
     <use xlink:href="#mcc77349055" x="231.361882" y="267.131458" style="fill: #a52a2a; stroke: #a52a2a; stroke-linejoin: miter"/>
     <use xlink:href="#mcc77349055" x="246.800618" y="264.518125" style="fill: #a52a2a; stroke: #a52a2a; stroke-linejoin: miter"/>
     <use xlink:href="#mcc77349055" x="262.239353" y="261.344792" style="fill: #a52a2a; stroke: #a52a2a; stroke-linejoin: miter"/>
     <use xlink:href="#mcc77349055" x="277.678088" y="260.224792" style="fill: #a52a2a; stroke: #a52a2a; stroke-linejoin: miter"/>
     <use xlink:href="#mcc77349055" x="293.116823" y="112.758125" style="fill: #a52a2a; stroke: #a52a2a; stroke-linejoin: miter"/>
     <use xlink:href="#mcc77349055" x="308.555558" y="65.531458" style="fill: #a52a2a; stroke: #a52a2a; stroke-linejoin: miter"/>
     <use xlink:href="#mcc77349055" x="323.994293" y="58.251458" style="fill: #a52a2a; stroke: #a52a2a; stroke-linejoin: miter"/>
     <use xlink:href="#mcc77349055" x="339.433029" y="61.611458" style="fill: #a52a2a; stroke: #a52a2a; stroke-linejoin: miter"/>
     <use xlink:href="#mcc77349055" x="354.871764" y="56.571458" style="fill: #a52a2a; stroke: #a52a2a; stroke-linejoin: miter"/>
     <use xlink:href="#mcc77349055" x="370.310499" y="54.891458" style="fill: #a52a2a; stroke: #a52a2a; stroke-linejoin: miter"/>
     <use xlink:href="#mcc77349055" x="385.749234" y="39.398125" style="fill: #a52a2a; stroke: #a52a2a; stroke-linejoin: miter"/>
     <use xlink:href="#mcc77349055" x="401.187969" y="163.718125" style="fill: #a52a2a; stroke: #a52a2a; stroke-linejoin: miter"/>
     <use xlink:href="#mcc77349055" x="416.626705" y="227.558125" style="fill: #a52a2a; stroke: #a52a2a; stroke-linejoin: miter"/>
    </g>
   </g>
   <g id="line2d_15">
    <path d="M 61.535795 270.864792 
L 76.974531 279.638125 
L 92.413266 279.264792 
L 107.852001 282.624792 
L 123.290736 284.491458 
L 138.729471 286.918125 
L 154.168207 254.998125 
L 169.606942 286.731458 
L 185.045677 283.558125 
L 200.484412 282.064792 
L 215.923147 275.158125 
L 231.361882 272.358125 
L 246.800618 269.931458 
L 262.239353 267.318125 
L 277.678088 266.198125 
L 293.116823 132.918125 
L 308.555558 102.304792 
L 323.994293 94.278125 
L 339.433029 97.264792 
L 354.871764 91.851458 
L 370.310499 88.491458 
L 385.749234 72.998125 
L 401.187969 175.104792 
L 416.626705 236.331458 
" clip-path="url(#p905e72c4d1)" style="fill: none; stroke: #ffc0cb; stroke-width: 1.5; stroke-linecap: square"/>
    <defs>
     <path id="m255c23b6fc" d="M 0 -3 
L -3 3 
L 3 3 
z
" style="stroke: #ffc0cb; stroke-linejoin: miter"/>
    </defs>
    <g clip-path="url(#p905e72c4d1)">
     <use xlink:href="#m255c23b6fc" x="61.535795" y="270.864792" style="fill: #ffc0cb; stroke: #ffc0cb; stroke-linejoin: miter"/>
     <use xlink:href="#m255c23b6fc" x="76.974531" y="279.638125" style="fill: #ffc0cb; stroke: #ffc0cb; stroke-linejoin: miter"/>
     <use xlink:href="#m255c23b6fc" x="92.413266" y="279.264792" style="fill: #ffc0cb; stroke: #ffc0cb; stroke-linejoin: miter"/>
     <use xlink:href="#m255c23b6fc" x="107.852001" y="282.624792" style="fill: #ffc0cb; stroke: #ffc0cb; stroke-linejoin: miter"/>
     <use xlink:href="#m255c23b6fc" x="123.290736" y="284.491458" style="fill: #ffc0cb; stroke: #ffc0cb; stroke-linejoin: miter"/>
     <use xlink:href="#m255c23b6fc" x="138.729471" y="286.918125" style="fill: #ffc0cb; stroke: #ffc0cb; stroke-linejoin: miter"/>
     <use xlink:href="#m255c23b6fc" x="154.168207" y="254.998125" style="fill: #ffc0cb; stroke: #ffc0cb; stroke-linejoin: miter"/>
     <use xlink:href="#m255c23b6fc" x="169.606942" y="286.731458" style="fill: #ffc0cb; stroke: #ffc0cb; stroke-linejoin: miter"/>
     <use xlink:href="#m255c23b6fc" x="185.045677" y="283.558125" style="fill: #ffc0cb; stroke: #ffc0cb; stroke-linejoin: miter"/>
     <use xlink:href="#m255c23b6fc" x="200.484412" y="282.064792" style="fill: #ffc0cb; stroke: #ffc0cb; stroke-linejoin: miter"/>
     <use xlink:href="#m255c23b6fc" x="215.923147" y="275.158125" style="fill: #ffc0cb; stroke: #ffc0cb; stroke-linejoin: miter"/>
     <use xlink:href="#m255c23b6fc" x="231.361882" y="272.358125" style="fill: #ffc0cb; stroke: #ffc0cb; stroke-linejoin: miter"/>
     <use xlink:href="#m255c23b6fc" x="246.800618" y="269.931458" style="fill: #ffc0cb; stroke: #ffc0cb; stroke-linejoin: miter"/>
     <use xlink:href="#m255c23b6fc" x="262.239353" y="267.318125" style="fill: #ffc0cb; stroke: #ffc0cb; stroke-linejoin: miter"/>
     <use xlink:href="#m255c23b6fc" x="277.678088" y="266.198125" style="fill: #ffc0cb; stroke: #ffc0cb; stroke-linejoin: miter"/>
     <use xlink:href="#m255c23b6fc" x="293.116823" y="132.918125" style="fill: #ffc0cb; stroke: #ffc0cb; stroke-linejoin: miter"/>
     <use xlink:href="#m255c23b6fc" x="308.555558" y="102.304792" style="fill: #ffc0cb; stroke: #ffc0cb; stroke-linejoin: miter"/>
     <use xlink:href="#m255c23b6fc" x="323.994293" y="94.278125" style="fill: #ffc0cb; stroke: #ffc0cb; stroke-linejoin: miter"/>
     <use xlink:href="#m255c23b6fc" x="339.433029" y="97.264792" style="fill: #ffc0cb; stroke: #ffc0cb; stroke-linejoin: miter"/>
     <use xlink:href="#m255c23b6fc" x="354.871764" y="91.851458" style="fill: #ffc0cb; stroke: #ffc0cb; stroke-linejoin: miter"/>
     <use xlink:href="#m255c23b6fc" x="370.310499" y="88.491458" style="fill: #ffc0cb; stroke: #ffc0cb; stroke-linejoin: miter"/>
     <use xlink:href="#m255c23b6fc" x="385.749234" y="72.998125" style="fill: #ffc0cb; stroke: #ffc0cb; stroke-linejoin: miter"/>
     <use xlink:href="#m255c23b6fc" x="401.187969" y="175.104792" style="fill: #ffc0cb; stroke: #ffc0cb; stroke-linejoin: miter"/>
     <use xlink:href="#m255c23b6fc" x="416.626705" y="236.331458" style="fill: #ffc0cb; stroke: #ffc0cb; stroke-linejoin: miter"/>
    </g>
   </g>
   <g id="line2d_16">
    <path d="M 61.535795 257.611458 
L 76.974531 267.131458 
L 92.413266 267.691458 
L 107.852001 271.238125 
L 123.290736 273.291458 
L 138.729471 276.651458 
L 154.168207 243.798125 
L 169.606942 276.838125 
L 185.045677 273.104792 
L 200.484412 271.238125 
L 215.923147 258.544792 
L 231.361882 254.811458 
L 246.800618 254.624792 
L 262.239353 249.211458 
L 277.678088 249.958125 
L 293.116823 128.998125 
L 308.555558 86.438125 
L 323.994293 65.158125 
L 339.433029 62.358125 
L 354.871764 53.771458 
L 370.310499 46.304792 
L 385.749234 34.918125 
L 401.187969 155.131458 
L 416.626705 212.811458 
" clip-path="url(#p905e72c4d1)" style="fill: none; stroke: #00ffff; stroke-width: 1.5; stroke-linecap: square"/>
    <defs>
     <path id="m7986bf33fa" d="M 0 4.242641 
L 4.242641 0 
L 0 -4.242641 
L -4.242641 0 
z
" style="stroke: #00ffff; stroke-linejoin: miter"/>
    </defs>
    <g clip-path="url(#p905e72c4d1)">
     <use xlink:href="#m7986bf33fa" x="61.535795" y="257.611458" style="fill: #00ffff; stroke: #00ffff; stroke-linejoin: miter"/>
     <use xlink:href="#m7986bf33fa" x="76.974531" y="267.131458" style="fill: #00ffff; stroke: #00ffff; stroke-linejoin: miter"/>
     <use xlink:href="#m7986bf33fa" x="92.413266" y="267.691458" style="fill: #00ffff; stroke: #00ffff; stroke-linejoin: miter"/>
     <use xlink:href="#m7986bf33fa" x="107.852001" y="271.238125" style="fill: #00ffff; stroke: #00ffff; stroke-linejoin: miter"/>
     <use xlink:href="#m7986bf33fa" x="123.290736" y="273.291458" style="fill: #00ffff; stroke: #00ffff; stroke-linejoin: miter"/>
     <use xlink:href="#m7986bf33fa" x="138.729471" y="276.651458" style="fill: #00ffff; stroke: #00ffff; stroke-linejoin: miter"/>
     <use xlink:href="#m7986bf33fa" x="154.168207" y="243.798125" style="fill: #00ffff; stroke: #00ffff; stroke-linejoin: miter"/>
     <use xlink:href="#m7986bf33fa" x="169.606942" y="276.838125" style="fill: #00ffff; stroke: #00ffff; stroke-linejoin: miter"/>
     <use xlink:href="#m7986bf33fa" x="185.045677" y="273.104792" style="fill: #00ffff; stroke: #00ffff; stroke-linejoin: miter"/>
     <use xlink:href="#m7986bf33fa" x="200.484412" y="271.238125" style="fill: #00ffff; stroke: #00ffff; stroke-linejoin: miter"/>
     <use xlink:href="#m7986bf33fa" x="215.923147" y="258.544792" style="fill: #00ffff; stroke: #00ffff; stroke-linejoin: miter"/>
     <use xlink:href="#m7986bf33fa" x="231.361882" y="254.811458" style="fill: #00ffff; stroke: #00ffff; stroke-linejoin: miter"/>
     <use xlink:href="#m7986bf33fa" x="246.800618" y="254.624792" style="fill: #00ffff; stroke: #00ffff; stroke-linejoin: miter"/>
     <use xlink:href="#m7986bf33fa" x="262.239353" y="249.211458" style="fill: #00ffff; stroke: #00ffff; stroke-linejoin: miter"/>
     <use xlink:href="#m7986bf33fa" x="277.678088" y="249.958125" style="fill: #00ffff; stroke: #00ffff; stroke-linejoin: miter"/>
     <use xlink:href="#m7986bf33fa" x="293.116823" y="128.998125" style="fill: #00ffff; stroke: #00ffff; stroke-linejoin: miter"/>
     <use xlink:href="#m7986bf33fa" x="308.555558" y="86.438125" style="fill: #00ffff; stroke: #00ffff; stroke-linejoin: miter"/>
     <use xlink:href="#m7986bf33fa" x="323.994293" y="65.158125" style="fill: #00ffff; stroke: #00ffff; stroke-linejoin: miter"/>
     <use xlink:href="#m7986bf33fa" x="339.433029" y="62.358125" style="fill: #00ffff; stroke: #00ffff; stroke-linejoin: miter"/>
     <use xlink:href="#m7986bf33fa" x="354.871764" y="53.771458" style="fill: #00ffff; stroke: #00ffff; stroke-linejoin: miter"/>
     <use xlink:href="#m7986bf33fa" x="370.310499" y="46.304792" style="fill: #00ffff; stroke: #00ffff; stroke-linejoin: miter"/>
     <use xlink:href="#m7986bf33fa" x="385.749234" y="34.918125" style="fill: #00ffff; stroke: #00ffff; stroke-linejoin: miter"/>
     <use xlink:href="#m7986bf33fa" x="401.187969" y="155.131458" style="fill: #00ffff; stroke: #00ffff; stroke-linejoin: miter"/>
     <use xlink:href="#m7986bf33fa" x="416.626705" y="212.811458" style="fill: #00ffff; stroke: #00ffff; stroke-linejoin: miter"/>
    </g>
   </g>
   <g id="patch_3">
    <path d="M 43.78125 299.518125 
L 43.78125 22.318125 
" style="fill: none; stroke: #000000; stroke-width: 0.8; stroke-linejoin: miter; stroke-linecap: square"/>
   </g>
   <g id="patch_4">
    <path d="M 434.38125 299.518125 
L 434.38125 22.318125 
" style="fill: none; stroke: #000000; stroke-width: 0.8; stroke-linejoin: miter; stroke-linecap: square"/>
   </g>
   <g id="patch_5">
    <path d="M 43.78125 299.518125 
L 434.38125 299.518125 
" style="fill: none; stroke: #000000; stroke-width: 0.8; stroke-linejoin: miter; stroke-linecap: square"/>
   </g>
   <g id="patch_6">
    <path d="M 43.78125 22.318125 
L 434.38125 22.318125 
" style="fill: none; stroke: #000000; stroke-width: 0.8; stroke-linejoin: miter; stroke-linecap: square"/>
   </g>
   <g id="text_15">
    <!-- Mean -->
    <g style="fill: #808080" transform="translate(434.38125 180.525903) scale(0.08 -0.08)">
     <defs>
      <path id="DejaVuSans-4d" d="M 628 4666 
L 1569 4666 
L 2759 1491 
L 3956 4666 
L 4897 4666 
L 4897 0 
L 4281 0 
L 4281 4097 
L 3078 897 
L 2444 897 
L 1241 4097 
L 1241 0 
L 628 0 
L 628 4666 
z
" transform="scale(0.015625)"/>
      <path id="DejaVuSans-6e" d="M 3513 2113 
L 3513 0 
L 2938 0 
L 2938 2094 
Q 2938 2591 2744 2837 
Q 2550 3084 2163 3084 
Q 1697 3084 1428 2787 
Q 1159 2491 1159 1978 
L 1159 0 
L 581 0 
L 581 3500 
L 1159 3500 
L 1159 2956 
Q 1366 3272 1645 3428 
Q 1925 3584 2291 3584 
Q 2894 3584 3203 3211 
Q 3513 2838 3513 2113 
z
" transform="scale(0.015625)"/>
     </defs>
     <use xlink:href="#DejaVuSans-4d"/>
     <use xlink:href="#DejaVuSans-65" x="86.279297"/>
     <use xlink:href="#DejaVuSans-61" x="147.802734"/>
     <use xlink:href="#DejaVuSans-6e" x="209.082031"/>
    </g>
   </g>
   <g id="text_16">
    <!-- Mean -->
    <g style="fill: #a52a2a" transform="translate(434.38125 205.103681) scale(0.08 -0.08)">
     <use xlink:href="#DejaVuSans-4d"/>
     <use xlink:href="#DejaVuSans-65" x="86.279297"/>
     <use xlink:href="#DejaVuSans-61" x="147.802734"/>
     <use xlink:href="#DejaVuSans-6e" x="209.082031"/>
    </g>
   </g>
   <g id="text_17">
    <!-- Mean -->
    <g style="fill: #ffc0cb" transform="translate(434.38125 218.069236) scale(0.08 -0.08)">
     <use xlink:href="#DejaVuSans-4d"/>
     <use xlink:href="#DejaVuSans-65" x="86.279297"/>
     <use xlink:href="#DejaVuSans-61" x="147.802734"/>
     <use xlink:href="#DejaVuSans-6e" x="209.082031"/>
    </g>
   </g>
   <g id="text_18">
    <!-- Mean -->
    <g style="fill: #00ffff" transform="translate(434.38125 199.651458) scale(0.08 -0.08)">
     <use xlink:href="#DejaVuSans-4d"/>
     <use xlink:href="#DejaVuSans-65" x="86.279297"/>
     <use xlink:href="#DejaVuSans-61" x="147.802734"/>
     <use xlink:href="#DejaVuSans-6e" x="209.082031"/>
    </g>
   </g>
   <g id="text_19">
    <!-- Unit in 2 Unit Residence -->
    <g transform="translate(167.063438 16.318125) scale(0.12 -0.12)">
     <defs>
      <path id="DejaVuSans-52" d="M 2841 2188 
Q 3044 2119 3236 1894 
Q 3428 1669 3622 1275 
L 4263 0 
L 3584 0 
L 2988 1197 
Q 2756 1666 2539 1819 
Q 2322 1972 1947 1972 
L 1259 1972 
L 1259 0 
L 628 0 
L 628 4666 
L 2053 4666 
Q 2853 4666 3247 4331 
Q 3641 3997 3641 3322 
Q 3641 2881 3436 2590 
Q 3231 2300 2841 2188 
z
M 1259 4147 
L 1259 2491 
L 2053 2491 
Q 2509 2491 2742 2702 
Q 2975 2913 2975 3322 
Q 2975 3731 2742 3939 
Q 2509 4147 2053 4147 
L 1259 4147 
z
" transform="scale(0.015625)"/>
      <path id="DejaVuSans-64" d="M 2906 2969 
L 2906 4863 
L 3481 4863 
L 3481 0 
L 2906 0 
L 2906 525 
Q 2725 213 2448 61 
Q 2172 -91 1784 -91 
Q 1150 -91 751 415 
Q 353 922 353 1747 
Q 353 2572 751 3078 
Q 1150 3584 1784 3584 
Q 2172 3584 2448 3432 
Q 2725 3281 2906 2969 
z
M 947 1747 
Q 947 1113 1208 752 
Q 1469 391 1925 391 
Q 2381 391 2643 752 
Q 2906 1113 2906 1747 
Q 2906 2381 2643 2742 
Q 2381 3103 1925 3103 
Q 1469 3103 1208 2742 
Q 947 2381 947 1747 
z
" transform="scale(0.015625)"/>
     </defs>
     <use xlink:href="#DejaVuSans-55"/>
     <use xlink:href="#DejaVuSans-6e" x="73.193359"/>
     <use xlink:href="#DejaVuSans-69" x="136.572266"/>
     <use xlink:href="#DejaVuSans-74" x="164.355469"/>
     <use xlink:href="#DejaVuSans-20" x="203.564453"/>
     <use xlink:href="#DejaVuSans-69" x="235.351562"/>
     <use xlink:href="#DejaVuSans-6e" x="263.134766"/>
     <use xlink:href="#DejaVuSans-20" x="326.513672"/>
     <use xlink:href="#DejaVuSans-32" x="358.300781"/>
     <use xlink:href="#DejaVuSans-20" x="421.923828"/>
     <use xlink:href="#DejaVuSans-55" x="453.710938"/>
     <use xlink:href="#DejaVuSans-6e" x="526.904297"/>
     <use xlink:href="#DejaVuSans-69" x="590.283203"/>
     <use xlink:href="#DejaVuSans-74" x="618.066406"/>
     <use xlink:href="#DejaVuSans-20" x="657.275391"/>
     <use xlink:href="#DejaVuSans-52" x="689.0625"/>
     <use xlink:href="#DejaVuSans-65" x="754.044922"/>
     <use xlink:href="#DejaVuSans-73" x="815.568359"/>
     <use xlink:href="#DejaVuSans-69" x="867.667969"/>
     <use xlink:href="#DejaVuSans-64" x="895.451172"/>
     <use xlink:href="#DejaVuSans-65" x="958.927734"/>
     <use xlink:href="#DejaVuSans-6e" x="1020.451172"/>
     <use xlink:href="#DejaVuSans-63" x="1083.830078"/>
     <use xlink:href="#DejaVuSans-65" x="1138.810547"/>
    </g>
   </g>
   <g id="legend_1">
    <g id="patch_7">
     <path d="M 441.38125 108.614375 
L 515.779688 108.614375 
Q 517.779688 108.614375 517.779688 106.614375 
L 517.779688 48.901875 
Q 517.779688 46.901875 515.779688 46.901875 
L 441.38125 46.901875 
Q 439.38125 46.901875 439.38125 48.901875 
L 439.38125 106.614375 
Q 439.38125 108.614375 441.38125 108.614375 
z
" style="fill: #ffffff; opacity: 0.8; stroke: #cccccc; stroke-linejoin: miter"/>
    </g>
    <g id="line2d_17">
     <path d="M 443.38125 55.000313 
L 453.38125 55.000313 
L 463.38125 55.000313 
" style="fill: none; stroke: #808080; stroke-width: 1.5; stroke-linecap: square"/>
     <g>
      <use xlink:href="#mf874da95ae" x="453.38125" y="55.000313" style="fill: #808080; stroke: #808080"/>
     </g>
    </g>
    <g id="text_20">
     <!-- Baseline -->
     <g transform="translate(471.38125 58.500313) scale(0.1 -0.1)">
      <defs>
       <path id="DejaVuSans-42" d="M 1259 2228 
L 1259 519 
L 2272 519 
Q 2781 519 3026 730 
Q 3272 941 3272 1375 
Q 3272 1813 3026 2020 
Q 2781 2228 2272 2228 
L 1259 2228 
z
M 1259 4147 
L 1259 2741 
L 2194 2741 
Q 2656 2741 2882 2914 
Q 3109 3088 3109 3444 
Q 3109 3797 2882 3972 
Q 2656 4147 2194 4147 
L 1259 4147 
z
M 628 4666 
L 2241 4666 
Q 2963 4666 3353 4366 
Q 3744 4066 3744 3513 
Q 3744 3084 3544 2831 
Q 3344 2578 2956 2516 
Q 3422 2416 3680 2098 
Q 3938 1781 3938 1306 
Q 3938 681 3513 340 
Q 3088 0 2303 0 
L 628 0 
L 628 4666 
z
" transform="scale(0.015625)"/>
      </defs>
      <use xlink:href="#DejaVuSans-42"/>
      <use xlink:href="#DejaVuSans-61" x="68.603516"/>
      <use xlink:href="#DejaVuSans-73" x="129.882812"/>
      <use xlink:href="#DejaVuSans-65" x="181.982422"/>
      <use xlink:href="#DejaVuSans-6c" x="243.505859"/>
      <use xlink:href="#DejaVuSans-69" x="271.289062"/>
      <use xlink:href="#DejaVuSans-6e" x="299.072266"/>
      <use xlink:href="#DejaVuSans-65" x="362.451172"/>
     </g>
    </g>
    <g id="line2d_18">
     <path d="M 443.38125 69.678438 
L 453.38125 69.678438 
L 463.38125 69.678438 
" style="fill: none; stroke: #a52a2a; stroke-width: 1.5; stroke-linecap: square"/>
     <g>
      <use xlink:href="#mcc77349055" x="453.38125" y="69.678438" style="fill: #a52a2a; stroke: #a52a2a; stroke-linejoin: miter"/>
     </g>
    </g>
    <g id="text_21">
     <!-- ASHP -->
     <g transform="translate(471.38125 73.178438) scale(0.1 -0.1)">
      <defs>
       <path id="DejaVuSans-41" d="M 2188 4044 
L 1331 1722 
L 3047 1722 
L 2188 4044 
z
M 1831 4666 
L 2547 4666 
L 4325 0 
L 3669 0 
L 3244 1197 
L 1141 1197 
L 716 0 
L 50 0 
L 1831 4666 
z
" transform="scale(0.015625)"/>
       <path id="DejaVuSans-53" d="M 3425 4513 
L 3425 3897 
Q 3066 4069 2747 4153 
Q 2428 4238 2131 4238 
Q 1616 4238 1336 4038 
Q 1056 3838 1056 3469 
Q 1056 3159 1242 3001 
Q 1428 2844 1947 2747 
L 2328 2669 
Q 3034 2534 3370 2195 
Q 3706 1856 3706 1288 
Q 3706 609 3251 259 
Q 2797 -91 1919 -91 
Q 1588 -91 1214 -16 
Q 841 59 441 206 
L 441 856 
Q 825 641 1194 531 
Q 1563 422 1919 422 
Q 2459 422 2753 634 
Q 3047 847 3047 1241 
Q 3047 1584 2836 1778 
Q 2625 1972 2144 2069 
L 1759 2144 
Q 1053 2284 737 2584 
Q 422 2884 422 3419 
Q 422 4038 858 4394 
Q 1294 4750 2059 4750 
Q 2388 4750 2728 4690 
Q 3069 4631 3425 4513 
z
" transform="scale(0.015625)"/>
       <path id="DejaVuSans-48" d="M 628 4666 
L 1259 4666 
L 1259 2753 
L 3553 2753 
L 3553 4666 
L 4184 4666 
L 4184 0 
L 3553 0 
L 3553 2222 
L 1259 2222 
L 1259 0 
L 628 0 
L 628 4666 
z
" transform="scale(0.015625)"/>
       <path id="DejaVuSans-50" d="M 1259 4147 
L 1259 2394 
L 2053 2394 
Q 2494 2394 2734 2622 
Q 2975 2850 2975 3272 
Q 2975 3691 2734 3919 
Q 2494 4147 2053 4147 
L 1259 4147 
z
M 628 4666 
L 2053 4666 
Q 2838 4666 3239 4311 
Q 3641 3956 3641 3272 
Q 3641 2581 3239 2228 
Q 2838 1875 2053 1875 
L 1259 1875 
L 1259 0 
L 628 0 
L 628 4666 
z
" transform="scale(0.015625)"/>
      </defs>
      <use xlink:href="#DejaVuSans-41"/>
      <use xlink:href="#DejaVuSans-53" x="68.408203"/>
      <use xlink:href="#DejaVuSans-48" x="131.884766"/>
      <use xlink:href="#DejaVuSans-50" x="207.080078"/>
     </g>
    </g>
    <g id="line2d_19">
     <path d="M 443.38125 84.356562 
L 453.38125 84.356562 
L 463.38125 84.356562 
" style="fill: none; stroke: #ffc0cb; stroke-width: 1.5; stroke-linecap: square"/>
     <g>
      <use xlink:href="#m255c23b6fc" x="453.38125" y="84.356562" style="fill: #ffc0cb; stroke: #ffc0cb; stroke-linejoin: miter"/>
     </g>
    </g>
    <g id="text_22">
     <!-- MSHP -->
     <g transform="translate(471.38125 87.856562) scale(0.1 -0.1)">
      <use xlink:href="#DejaVuSans-4d"/>
      <use xlink:href="#DejaVuSans-53" x="86.279297"/>
      <use xlink:href="#DejaVuSans-48" x="149.755859"/>
      <use xlink:href="#DejaVuSans-50" x="224.951172"/>
     </g>
    </g>
    <g id="line2d_20">
     <path d="M 443.38125 99.034688 
L 453.38125 99.034688 
L 463.38125 99.034688 
" style="fill: none; stroke: #00ffff; stroke-width: 1.5; stroke-linecap: square"/>
     <g>
      <use xlink:href="#m7986bf33fa" x="453.38125" y="99.034688" style="fill: #00ffff; stroke: #00ffff; stroke-linejoin: miter"/>
     </g>
    </g>
    <g id="text_23">
     <!-- GSHP -->
     <g transform="translate(471.38125 102.534688) scale(0.1 -0.1)">
      <defs>
       <path id="DejaVuSans-47" d="M 3809 666 
L 3809 1919 
L 2778 1919 
L 2778 2438 
L 4434 2438 
L 4434 434 
Q 4069 175 3628 42 
Q 3188 -91 2688 -91 
Q 1594 -91 976 548 
Q 359 1188 359 2328 
Q 359 3472 976 4111 
Q 1594 4750 2688 4750 
Q 3144 4750 3555 4637 
Q 3966 4525 4313 4306 
L 4313 3634 
Q 3963 3931 3569 4081 
Q 3175 4231 2741 4231 
Q 1884 4231 1454 3753 
Q 1025 3275 1025 2328 
Q 1025 1384 1454 906 
Q 1884 428 2741 428 
Q 3075 428 3337 486 
Q 3600 544 3809 666 
z
" transform="scale(0.015625)"/>
      </defs>
      <use xlink:href="#DejaVuSans-47"/>
      <use xlink:href="#DejaVuSans-53" x="77.490234"/>
      <use xlink:href="#DejaVuSans-48" x="140.966797"/>
      <use xlink:href="#DejaVuSans-50" x="216.162109"/>
     </g>
    </g>
   </g>
  </g>
 </g>
 <defs>
  <clipPath id="p905e72c4d1">
   <rect x="43.78125" y="22.318125" width="390.6" height="277.2"/>
  </clipPath>
 </defs>
</svg>
