<?xml version="1.0" encoding="utf-8" standalone="no"?>
<!DOCTYPE svg PUBLIC "-//W3C//DTD SVG 1.1//EN"
  "http://www.w3.org/Graphics/SVG/1.1/DTD/svg11.dtd">
<svg xmlns:xlink="http://www.w3.org/1999/xlink" width="711.040625pt" height="393.070625pt" viewBox="0 0 711.040625 393.070625" xmlns="http://www.w3.org/2000/svg" version="1.1">
 <metadata>
  <rdf:RDF xmlns:dc="http://purl.org/dc/elements/1.1/" xmlns:cc="http://creativecommons.org/ns#" xmlns:rdf="http://www.w3.org/1999/02/22-rdf-syntax-ns#">
   <cc:Work>
    <dc:type rdf:resource="http://purl.org/dc/dcmitype/StillImage"/>
    <dc:date>2024-08-12T17:01:54.059383</dc:date>
    <dc:format>image/svg+xml</dc:format>
    <dc:creator>
     <cc:Agent>
      <dc:title>Matplotlib v3.9.1, https://matplotlib.org/</dc:title>
     </cc:Agent>
    </dc:creator>
   </cc:Work>
  </rdf:RDF>
 </metadata>
 <defs>
  <style type="text/css">*{stroke-linejoin: round; stroke-linecap: butt}</style>
 </defs>
 <g id="figure_1">
  <g id="patch_1">
   <path d="M 0 393.070625 
L 711.040625 393.070625 
L 711.040625 0 
L 0 0 
z
" style="fill: #ffffff"/>
  </g>
  <g id="axes_1">
   <g id="patch_2">
    <path d="M 34.240625 354.958125 
L 703.840625 354.958125 
L 703.840625 22.318125 
L 34.240625 22.318125 
z
" style="fill: #ffffff"/>
   </g>
   <g id="patch_3">
    <path d="M 76.090625 341.701095 
L 76.090625 341.701095 
L 76.090625 341.701095 
L 76.090625 341.701095 
z
" clip-path="url(#p5f2394c9d3)" style="fill: #808080; stroke: #262626; stroke-linejoin: miter"/>
   </g>
   <g id="patch_4">
    <path d="M 76.090625 341.701095 
L 76.090625 341.701095 
L 76.090625 341.701095 
L 76.090625 341.701095 
z
" clip-path="url(#p5f2394c9d3)" style="fill: #963939; stroke: #262626; stroke-linejoin: miter"/>
   </g>
   <g id="patch_5">
    <path d="M 76.090625 341.701095 
L 76.090625 341.701095 
L 76.090625 341.701095 
L 76.090625 341.701095 
z
" clip-path="url(#p5f2394c9d3)" style="fill: #f7c8d0; stroke: #262626; stroke-linejoin: miter"/>
   </g>
   <g id="patch_6">
    <path d="M 76.090625 341.701095 
L 76.090625 341.701095 
L 76.090625 341.701095 
L 76.090625 341.701095 
z
" clip-path="url(#p5f2394c9d3)" style="fill: #20dfdf; stroke: #262626; stroke-linejoin: miter"/>
   </g>
   <g id="patch_7">
    <path d="M 76.090625 341.701095 
L 76.090625 341.701095 
L 76.090625 341.701095 
L 76.090625 341.701095 
z
" clip-path="url(#p5f2394c9d3)" style="fill: #707010; stroke: #262626; stroke-linejoin: miter"/>
   </g>
   <g id="matplotlib.axis_1">
    <g id="xtick_1">
     <g id="line2d_1">
      <defs>
       <path id="me8b6370d91" d="M 0 0 
L 0 3.5 
" style="stroke: #000000; stroke-width: 0.8"/>
      </defs>
      <g>
       <use xlink:href="#me8b6370d91" x="76.090625" y="354.958125" style="stroke: #000000; stroke-width: 0.8"/>
      </g>
     </g>
     <g id="text_1">
      <!-- 2 -->
      <g transform="translate(72.909375 369.556562) scale(0.1 -0.1)">
       <defs>
        <path id="DejaVuSans-32" d="M 1228 531 
L 3431 531 
L 3431 0 
L 469 0 
L 469 531 
Q 828 903 1448 1529 
Q 2069 2156 2228 2338 
Q 2531 2678 2651 2914 
Q 2772 3150 2772 3378 
Q 2772 3750 2511 3984 
Q 2250 4219 1831 4219 
Q 1534 4219 1204 4116 
Q 875 4013 500 3803 
L 500 4441 
Q 881 4594 1212 4672 
Q 1544 4750 1819 4750 
Q 2544 4750 2975 4387 
Q 3406 4025 3406 3419 
Q 3406 3131 3298 2873 
Q 3191 2616 2906 2266 
Q 2828 2175 2409 1742 
Q 1991 1309 1228 531 
z
" transform="scale(0.015625)"/>
       </defs>
       <use xlink:href="#DejaVuSans-32"/>
      </g>
     </g>
    </g>
    <g id="xtick_2">
     <g id="line2d_2">
      <g>
       <use xlink:href="#me8b6370d91" x="159.790625" y="354.958125" style="stroke: #000000; stroke-width: 0.8"/>
      </g>
     </g>
     <g id="text_2">
      <!-- 3_4 -->
      <g transform="translate(150.928125 369.38) scale(0.1 -0.1)">
       <defs>
        <path id="DejaVuSans-33" d="M 2597 2516 
Q 3050 2419 3304 2112 
Q 3559 1806 3559 1356 
Q 3559 666 3084 287 
Q 2609 -91 1734 -91 
Q 1441 -91 1130 -33 
Q 819 25 488 141 
L 488 750 
Q 750 597 1062 519 
Q 1375 441 1716 441 
Q 2309 441 2620 675 
Q 2931 909 2931 1356 
Q 2931 1769 2642 2001 
Q 2353 2234 1838 2234 
L 1294 2234 
L 1294 2753 
L 1863 2753 
Q 2328 2753 2575 2939 
Q 2822 3125 2822 3475 
Q 2822 3834 2567 4026 
Q 2313 4219 1838 4219 
Q 1578 4219 1281 4162 
Q 984 4106 628 3988 
L 628 4550 
Q 988 4650 1302 4700 
Q 1616 4750 1894 4750 
Q 2613 4750 3031 4423 
Q 3450 4097 3450 3541 
Q 3450 3153 3228 2886 
Q 3006 2619 2597 2516 
z
" transform="scale(0.015625)"/>
        <path id="DejaVuSans-5f" d="M 3263 -1063 
L 3263 -1509 
L -63 -1509 
L -63 -1063 
L 3263 -1063 
z
" transform="scale(0.015625)"/>
        <path id="DejaVuSans-34" d="M 2419 4116 
L 825 1625 
L 2419 1625 
L 2419 4116 
z
M 2253 4666 
L 3047 4666 
L 3047 1625 
L 3713 1625 
L 3713 1100 
L 3047 1100 
L 3047 0 
L 2419 0 
L 2419 1100 
L 313 1100 
L 313 1709 
L 2253 4666 
z
" transform="scale(0.015625)"/>
       </defs>
       <use xlink:href="#DejaVuSans-33"/>
       <use xlink:href="#DejaVuSans-5f" x="63.623047"/>
       <use xlink:href="#DejaVuSans-34" x="113.623047"/>
      </g>
     </g>
    </g>
    <g id="xtick_3">
     <g id="line2d_3">
      <g>
       <use xlink:href="#me8b6370d91" x="243.490625" y="354.958125" style="stroke: #000000; stroke-width: 0.8"/>
      </g>
     </g>
     <g id="text_3">
      <!-- 5_9 -->
      <g transform="translate(234.628125 369.38) scale(0.1 -0.1)">
       <defs>
        <path id="DejaVuSans-35" d="M 691 4666 
L 3169 4666 
L 3169 4134 
L 1269 4134 
L 1269 2991 
Q 1406 3038 1543 3061 
Q 1681 3084 1819 3084 
Q 2600 3084 3056 2656 
Q 3513 2228 3513 1497 
Q 3513 744 3044 326 
Q 2575 -91 1722 -91 
Q 1428 -91 1123 -41 
Q 819 9 494 109 
L 494 744 
Q 775 591 1075 516 
Q 1375 441 1709 441 
Q 2250 441 2565 725 
Q 2881 1009 2881 1497 
Q 2881 1984 2565 2268 
Q 2250 2553 1709 2553 
Q 1456 2553 1204 2497 
Q 953 2441 691 2322 
L 691 4666 
z
" transform="scale(0.015625)"/>
        <path id="DejaVuSans-39" d="M 703 97 
L 703 672 
Q 941 559 1184 500 
Q 1428 441 1663 441 
Q 2288 441 2617 861 
Q 2947 1281 2994 2138 
Q 2813 1869 2534 1725 
Q 2256 1581 1919 1581 
Q 1219 1581 811 2004 
Q 403 2428 403 3163 
Q 403 3881 828 4315 
Q 1253 4750 1959 4750 
Q 2769 4750 3195 4129 
Q 3622 3509 3622 2328 
Q 3622 1225 3098 567 
Q 2575 -91 1691 -91 
Q 1453 -91 1209 -44 
Q 966 3 703 97 
z
M 1959 2075 
Q 2384 2075 2632 2365 
Q 2881 2656 2881 3163 
Q 2881 3666 2632 3958 
Q 2384 4250 1959 4250 
Q 1534 4250 1286 3958 
Q 1038 3666 1038 3163 
Q 1038 2656 1286 2365 
Q 1534 2075 1959 2075 
z
" transform="scale(0.015625)"/>
       </defs>
       <use xlink:href="#DejaVuSans-35"/>
       <use xlink:href="#DejaVuSans-5f" x="63.623047"/>
       <use xlink:href="#DejaVuSans-39" x="113.623047"/>
      </g>
     </g>
    </g>
    <g id="xtick_4">
     <g id="line2d_4">
      <g>
       <use xlink:href="#me8b6370d91" x="327.190625" y="354.958125" style="stroke: #000000; stroke-width: 0.8"/>
      </g>
     </g>
     <g id="text_4">
      <!-- 10_19 -->
      <g transform="translate(311.965625 369.38) scale(0.1 -0.1)">
       <defs>
        <path id="DejaVuSans-31" d="M 794 531 
L 1825 531 
L 1825 4091 
L 703 3866 
L 703 4441 
L 1819 4666 
L 2450 4666 
L 2450 531 
L 3481 531 
L 3481 0 
L 794 0 
L 794 531 
z
" transform="scale(0.015625)"/>
        <path id="DejaVuSans-30" d="M 2034 4250 
Q 1547 4250 1301 3770 
Q 1056 3291 1056 2328 
Q 1056 1369 1301 889 
Q 1547 409 2034 409 
Q 2525 409 2770 889 
Q 3016 1369 3016 2328 
Q 3016 3291 2770 3770 
Q 2525 4250 2034 4250 
z
M 2034 4750 
Q 2819 4750 3233 4129 
Q 3647 3509 3647 2328 
Q 3647 1150 3233 529 
Q 2819 -91 2034 -91 
Q 1250 -91 836 529 
Q 422 1150 422 2328 
Q 422 3509 836 4129 
Q 1250 4750 2034 4750 
z
" transform="scale(0.015625)"/>
       </defs>
       <use xlink:href="#DejaVuSans-31"/>
       <use xlink:href="#DejaVuSans-30" x="63.623047"/>
       <use xlink:href="#DejaVuSans-5f" x="127.246094"/>
       <use xlink:href="#DejaVuSans-31" x="177.246094"/>
       <use xlink:href="#DejaVuSans-39" x="240.869141"/>
      </g>
     </g>
    </g>
    <g id="xtick_5">
     <g id="line2d_5">
      <g>
       <use xlink:href="#me8b6370d91" x="410.890625" y="354.958125" style="stroke: #000000; stroke-width: 0.8"/>
      </g>
     </g>
     <g id="text_5">
      <!-- 20_49 -->
      <g transform="translate(395.665625 369.38) scale(0.1 -0.1)">
       <use xlink:href="#DejaVuSans-32"/>
       <use xlink:href="#DejaVuSans-30" x="63.623047"/>
       <use xlink:href="#DejaVuSans-5f" x="127.246094"/>
       <use xlink:href="#DejaVuSans-34" x="177.246094"/>
       <use xlink:href="#DejaVuSans-39" x="240.869141"/>
      </g>
     </g>
    </g>
    <g id="xtick_6">
     <g id="line2d_6">
      <g>
       <use xlink:href="#me8b6370d91" x="494.590625" y="354.958125" style="stroke: #000000; stroke-width: 0.8"/>
      </g>
     </g>
     <g id="text_6">
      <!-- 50_plus -->
      <g transform="translate(475.391406 369.556562) scale(0.1 -0.1)">
       <defs>
        <path id="DejaVuSans-70" d="M 1159 525 
L 1159 -1331 
L 581 -1331 
L 581 3500 
L 1159 3500 
L 1159 2969 
Q 1341 3281 1617 3432 
Q 1894 3584 2278 3584 
Q 2916 3584 3314 3078 
Q 3713 2572 3713 1747 
Q 3713 922 3314 415 
Q 2916 -91 2278 -91 
Q 1894 -91 1617 61 
Q 1341 213 1159 525 
z
M 3116 1747 
Q 3116 2381 2855 2742 
Q 2594 3103 2138 3103 
Q 1681 3103 1420 2742 
Q 1159 2381 1159 1747 
Q 1159 1113 1420 752 
Q 1681 391 2138 391 
Q 2594 391 2855 752 
Q 3116 1113 3116 1747 
z
" transform="scale(0.015625)"/>
        <path id="DejaVuSans-6c" d="M 603 4863 
L 1178 4863 
L 1178 0 
L 603 0 
L 603 4863 
z
" transform="scale(0.015625)"/>
        <path id="DejaVuSans-75" d="M 544 1381 
L 544 3500 
L 1119 3500 
L 1119 1403 
Q 1119 906 1312 657 
Q 1506 409 1894 409 
Q 2359 409 2629 706 
Q 2900 1003 2900 1516 
L 2900 3500 
L 3475 3500 
L 3475 0 
L 2900 0 
L 2900 538 
Q 2691 219 2414 64 
Q 2138 -91 1772 -91 
Q 1169 -91 856 284 
Q 544 659 544 1381 
z
M 1991 3584 
L 1991 3584 
z
" transform="scale(0.015625)"/>
        <path id="DejaVuSans-73" d="M 2834 3397 
L 2834 2853 
Q 2591 2978 2328 3040 
Q 2066 3103 1784 3103 
Q 1356 3103 1142 2972 
Q 928 2841 928 2578 
Q 928 2378 1081 2264 
Q 1234 2150 1697 2047 
L 1894 2003 
Q 2506 1872 2764 1633 
Q 3022 1394 3022 966 
Q 3022 478 2636 193 
Q 2250 -91 1575 -91 
Q 1294 -91 989 -36 
Q 684 19 347 128 
L 347 722 
Q 666 556 975 473 
Q 1284 391 1588 391 
Q 1994 391 2212 530 
Q 2431 669 2431 922 
Q 2431 1156 2273 1281 
Q 2116 1406 1581 1522 
L 1381 1569 
Q 847 1681 609 1914 
Q 372 2147 372 2553 
Q 372 3047 722 3315 
Q 1072 3584 1716 3584 
Q 2034 3584 2315 3537 
Q 2597 3491 2834 3397 
z
" transform="scale(0.015625)"/>
       </defs>
       <use xlink:href="#DejaVuSans-35"/>
       <use xlink:href="#DejaVuSans-30" x="63.623047"/>
       <use xlink:href="#DejaVuSans-5f" x="127.246094"/>
       <use xlink:href="#DejaVuSans-70" x="177.246094"/>
       <use xlink:href="#DejaVuSans-6c" x="240.722656"/>
       <use xlink:href="#DejaVuSans-75" x="268.505859"/>
       <use xlink:href="#DejaVuSans-73" x="331.884766"/>
      </g>
     </g>
    </g>
    <g id="xtick_7">
     <g id="line2d_7">
      <g>
       <use xlink:href="#me8b6370d91" x="578.290625" y="354.958125" style="stroke: #000000; stroke-width: 0.8"/>
      </g>
     </g>
     <g id="text_7">
      <!-- SFA -->
      <g transform="translate(569.276563 369.556562) scale(0.1 -0.1)">
       <defs>
        <path id="DejaVuSans-53" d="M 3425 4513 
L 3425 3897 
Q 3066 4069 2747 4153 
Q 2428 4238 2131 4238 
Q 1616 4238 1336 4038 
Q 1056 3838 1056 3469 
Q 1056 3159 1242 3001 
Q 1428 2844 1947 2747 
L 2328 2669 
Q 3034 2534 3370 2195 
Q 3706 1856 3706 1288 
Q 3706 609 3251 259 
Q 2797 -91 1919 -91 
Q 1588 -91 1214 -16 
Q 841 59 441 206 
L 441 856 
Q 825 641 1194 531 
Q 1563 422 1919 422 
Q 2459 422 2753 634 
Q 3047 847 3047 1241 
Q 3047 1584 2836 1778 
Q 2625 1972 2144 2069 
L 1759 2144 
Q 1053 2284 737 2584 
Q 422 2884 422 3419 
Q 422 4038 858 4394 
Q 1294 4750 2059 4750 
Q 2388 4750 2728 4690 
Q 3069 4631 3425 4513 
z
" transform="scale(0.015625)"/>
        <path id="DejaVuSans-46" d="M 628 4666 
L 3309 4666 
L 3309 4134 
L 1259 4134 
L 1259 2759 
L 3109 2759 
L 3109 2228 
L 1259 2228 
L 1259 0 
L 628 0 
L 628 4666 
z
" transform="scale(0.015625)"/>
        <path id="DejaVuSans-41" d="M 2188 4044 
L 1331 1722 
L 3047 1722 
L 2188 4044 
z
M 1831 4666 
L 2547 4666 
L 4325 0 
L 3669 0 
L 3244 1197 
L 1141 1197 
L 716 0 
L 50 0 
L 1831 4666 
z
" transform="scale(0.015625)"/>
       </defs>
       <use xlink:href="#DejaVuSans-53"/>
       <use xlink:href="#DejaVuSans-46" x="63.476562"/>
       <use xlink:href="#DejaVuSans-41" x="111.871094"/>
      </g>
     </g>
    </g>
    <g id="xtick_8">
     <g id="line2d_8">
      <g>
       <use xlink:href="#me8b6370d91" x="661.990625" y="354.958125" style="stroke: #000000; stroke-width: 0.8"/>
      </g>
     </g>
     <g id="text_8">
      <!-- SFD -->
      <g transform="translate(652.090625 369.556562) scale(0.1 -0.1)">
       <defs>
        <path id="DejaVuSans-44" d="M 1259 4147 
L 1259 519 
L 2022 519 
Q 2988 519 3436 956 
Q 3884 1394 3884 2338 
Q 3884 3275 3436 3711 
Q 2988 4147 2022 4147 
L 1259 4147 
z
M 628 4666 
L 1925 4666 
Q 3281 4666 3915 4102 
Q 4550 3538 4550 2338 
Q 4550 1131 3912 565 
Q 3275 0 1925 0 
L 628 0 
L 628 4666 
z
" transform="scale(0.015625)"/>
       </defs>
       <use xlink:href="#DejaVuSans-53"/>
       <use xlink:href="#DejaVuSans-46" x="63.476562"/>
       <use xlink:href="#DejaVuSans-44" x="120.996094"/>
      </g>
     </g>
    </g>
    <g id="text_9">
     <!-- Unit in __ Unit Residence -->
     <g transform="translate(307.207031 383.512812) scale(0.1 -0.1)">
      <defs>
       <path id="DejaVuSans-55" d="M 556 4666 
L 1191 4666 
L 1191 1831 
Q 1191 1081 1462 751 
Q 1734 422 2344 422 
Q 2950 422 3222 751 
Q 3494 1081 3494 1831 
L 3494 4666 
L 4128 4666 
L 4128 1753 
Q 4128 841 3676 375 
Q 3225 -91 2344 -91 
Q 1459 -91 1007 375 
Q 556 841 556 1753 
L 556 4666 
z
" transform="scale(0.015625)"/>
       <path id="DejaVuSans-6e" d="M 3513 2113 
L 3513 0 
L 2938 0 
L 2938 2094 
Q 2938 2591 2744 2837 
Q 2550 3084 2163 3084 
Q 1697 3084 1428 2787 
Q 1159 2491 1159 1978 
L 1159 0 
L 581 0 
L 581 3500 
L 1159 3500 
L 1159 2956 
Q 1366 3272 1645 3428 
Q 1925 3584 2291 3584 
Q 2894 3584 3203 3211 
Q 3513 2838 3513 2113 
z
" transform="scale(0.015625)"/>
       <path id="DejaVuSans-69" d="M 603 3500 
L 1178 3500 
L 1178 0 
L 603 0 
L 603 3500 
z
M 603 4863 
L 1178 4863 
L 1178 4134 
L 603 4134 
L 603 4863 
z
" transform="scale(0.015625)"/>
       <path id="DejaVuSans-74" d="M 1172 4494 
L 1172 3500 
L 2356 3500 
L 2356 3053 
L 1172 3053 
L 1172 1153 
Q 1172 725 1289 603 
Q 1406 481 1766 481 
L 2356 481 
L 2356 0 
L 1766 0 
Q 1100 0 847 248 
Q 594 497 594 1153 
L 594 3053 
L 172 3053 
L 172 3500 
L 594 3500 
L 594 4494 
L 1172 4494 
z
" transform="scale(0.015625)"/>
       <path id="DejaVuSans-20" transform="scale(0.015625)"/>
       <path id="DejaVuSans-52" d="M 2841 2188 
Q 3044 2119 3236 1894 
Q 3428 1669 3622 1275 
L 4263 0 
L 3584 0 
L 2988 1197 
Q 2756 1666 2539 1819 
Q 2322 1972 1947 1972 
L 1259 1972 
L 1259 0 
L 628 0 
L 628 4666 
L 2053 4666 
Q 2853 4666 3247 4331 
Q 3641 3997 3641 3322 
Q 3641 2881 3436 2590 
Q 3231 2300 2841 2188 
z
M 1259 4147 
L 1259 2491 
L 2053 2491 
Q 2509 2491 2742 2702 
Q 2975 2913 2975 3322 
Q 2975 3731 2742 3939 
Q 2509 4147 2053 4147 
L 1259 4147 
z
" transform="scale(0.015625)"/>
       <path id="DejaVuSans-65" d="M 3597 1894 
L 3597 1613 
L 953 1613 
Q 991 1019 1311 708 
Q 1631 397 2203 397 
Q 2534 397 2845 478 
Q 3156 559 3463 722 
L 3463 178 
Q 3153 47 2828 -22 
Q 2503 -91 2169 -91 
Q 1331 -91 842 396 
Q 353 884 353 1716 
Q 353 2575 817 3079 
Q 1281 3584 2069 3584 
Q 2775 3584 3186 3129 
Q 3597 2675 3597 1894 
z
M 3022 2063 
Q 3016 2534 2758 2815 
Q 2500 3097 2075 3097 
Q 1594 3097 1305 2825 
Q 1016 2553 972 2059 
L 3022 2063 
z
" transform="scale(0.015625)"/>
       <path id="DejaVuSans-64" d="M 2906 2969 
L 2906 4863 
L 3481 4863 
L 3481 0 
L 2906 0 
L 2906 525 
Q 2725 213 2448 61 
Q 2172 -91 1784 -91 
Q 1150 -91 751 415 
Q 353 922 353 1747 
Q 353 2572 751 3078 
Q 1150 3584 1784 3584 
Q 2172 3584 2448 3432 
Q 2725 3281 2906 2969 
z
M 947 1747 
Q 947 1113 1208 752 
Q 1469 391 1925 391 
Q 2381 391 2643 752 
Q 2906 1113 2906 1747 
Q 2906 2381 2643 2742 
Q 2381 3103 1925 3103 
Q 1469 3103 1208 2742 
Q 947 2381 947 1747 
z
" transform="scale(0.015625)"/>
       <path id="DejaVuSans-63" d="M 3122 3366 
L 3122 2828 
Q 2878 2963 2633 3030 
Q 2388 3097 2138 3097 
Q 1578 3097 1268 2742 
Q 959 2388 959 1747 
Q 959 1106 1268 751 
Q 1578 397 2138 397 
Q 2388 397 2633 464 
Q 2878 531 3122 666 
L 3122 134 
Q 2881 22 2623 -34 
Q 2366 -91 2075 -91 
Q 1284 -91 818 406 
Q 353 903 353 1747 
Q 353 2603 823 3093 
Q 1294 3584 2113 3584 
Q 2378 3584 2631 3529 
Q 2884 3475 3122 3366 
z
" transform="scale(0.015625)"/>
      </defs>
      <use xlink:href="#DejaVuSans-55"/>
      <use xlink:href="#DejaVuSans-6e" x="73.193359"/>
      <use xlink:href="#DejaVuSans-69" x="136.572266"/>
      <use xlink:href="#DejaVuSans-74" x="164.355469"/>
      <use xlink:href="#DejaVuSans-20" x="203.564453"/>
      <use xlink:href="#DejaVuSans-69" x="235.351562"/>
      <use xlink:href="#DejaVuSans-6e" x="263.134766"/>
      <use xlink:href="#DejaVuSans-20" x="326.513672"/>
      <use xlink:href="#DejaVuSans-5f" x="358.300781"/>
      <use xlink:href="#DejaVuSans-5f" x="408.300781"/>
      <use xlink:href="#DejaVuSans-20" x="458.300781"/>
      <use xlink:href="#DejaVuSans-55" x="490.087891"/>
      <use xlink:href="#DejaVuSans-6e" x="563.28125"/>
      <use xlink:href="#DejaVuSans-69" x="626.660156"/>
      <use xlink:href="#DejaVuSans-74" x="654.443359"/>
      <use xlink:href="#DejaVuSans-20" x="693.652344"/>
      <use xlink:href="#DejaVuSans-52" x="725.439453"/>
      <use xlink:href="#DejaVuSans-65" x="790.421875"/>
      <use xlink:href="#DejaVuSans-73" x="851.945312"/>
      <use xlink:href="#DejaVuSans-69" x="904.044922"/>
      <use xlink:href="#DejaVuSans-64" x="931.828125"/>
      <use xlink:href="#DejaVuSans-65" x="995.304688"/>
      <use xlink:href="#DejaVuSans-6e" x="1056.828125"/>
      <use xlink:href="#DejaVuSans-63" x="1120.207031"/>
      <use xlink:href="#DejaVuSans-65" x="1175.1875"/>
     </g>
    </g>
   </g>
   <g id="matplotlib.axis_2">
    <g id="ytick_1">
     <g id="line2d_9">
      <defs>
       <path id="mf4e8f8b251" d="M 0 0 
L -3.5 0 
" style="stroke: #000000; stroke-width: 0.8"/>
      </defs>
      <g>
       <use xlink:href="#mf4e8f8b251" x="34.240625" y="341.701095" style="stroke: #000000; stroke-width: 0.8"/>
      </g>
     </g>
     <g id="text_10">
      <!-- 0 -->
      <g transform="translate(20.878125 345.500314) scale(0.1 -0.1)">
       <use xlink:href="#DejaVuSans-30"/>
      </g>
     </g>
    </g>
    <g id="ytick_2">
     <g id="line2d_10">
      <g>
       <use xlink:href="#mf4e8f8b251" x="34.240625" y="275.166442" style="stroke: #000000; stroke-width: 0.8"/>
      </g>
     </g>
     <g id="text_11">
      <!-- 1 -->
      <g transform="translate(20.878125 278.965661) scale(0.1 -0.1)">
       <use xlink:href="#DejaVuSans-31"/>
      </g>
     </g>
    </g>
    <g id="ytick_3">
     <g id="line2d_11">
      <g>
       <use xlink:href="#mf4e8f8b251" x="34.240625" y="208.631788" style="stroke: #000000; stroke-width: 0.8"/>
      </g>
     </g>
     <g id="text_12">
      <!-- 2 -->
      <g transform="translate(20.878125 212.431007) scale(0.1 -0.1)">
       <use xlink:href="#DejaVuSans-32"/>
      </g>
     </g>
    </g>
    <g id="ytick_4">
     <g id="line2d_12">
      <g>
       <use xlink:href="#mf4e8f8b251" x="34.240625" y="142.097135" style="stroke: #000000; stroke-width: 0.8"/>
      </g>
     </g>
     <g id="text_13">
      <!-- 3 -->
      <g transform="translate(20.878125 145.896354) scale(0.1 -0.1)">
       <use xlink:href="#DejaVuSans-33"/>
      </g>
     </g>
    </g>
    <g id="ytick_5">
     <g id="line2d_13">
      <g>
       <use xlink:href="#mf4e8f8b251" x="34.240625" y="75.562481" style="stroke: #000000; stroke-width: 0.8"/>
      </g>
     </g>
     <g id="text_14">
      <!-- 4 -->
      <g transform="translate(20.878125 79.3617) scale(0.1 -0.1)">
       <use xlink:href="#DejaVuSans-34"/>
      </g>
     </g>
    </g>
    <g id="text_15">
     <!-- HVAC Electricity -->
     <g transform="translate(14.798438 228.749844) rotate(-90) scale(0.1 -0.1)">
      <defs>
       <path id="DejaVuSans-48" d="M 628 4666 
L 1259 4666 
L 1259 2753 
L 3553 2753 
L 3553 4666 
L 4184 4666 
L 4184 0 
L 3553 0 
L 3553 2222 
L 1259 2222 
L 1259 0 
L 628 0 
L 628 4666 
z
" transform="scale(0.015625)"/>
       <path id="DejaVuSans-56" d="M 1831 0 
L 50 4666 
L 709 4666 
L 2188 738 
L 3669 4666 
L 4325 4666 
L 2547 0 
L 1831 0 
z
" transform="scale(0.015625)"/>
       <path id="DejaVuSans-43" d="M 4122 4306 
L 4122 3641 
Q 3803 3938 3442 4084 
Q 3081 4231 2675 4231 
Q 1875 4231 1450 3742 
Q 1025 3253 1025 2328 
Q 1025 1406 1450 917 
Q 1875 428 2675 428 
Q 3081 428 3442 575 
Q 3803 722 4122 1019 
L 4122 359 
Q 3791 134 3420 21 
Q 3050 -91 2638 -91 
Q 1578 -91 968 557 
Q 359 1206 359 2328 
Q 359 3453 968 4101 
Q 1578 4750 2638 4750 
Q 3056 4750 3426 4639 
Q 3797 4528 4122 4306 
z
" transform="scale(0.015625)"/>
       <path id="DejaVuSans-45" d="M 628 4666 
L 3578 4666 
L 3578 4134 
L 1259 4134 
L 1259 2753 
L 3481 2753 
L 3481 2222 
L 1259 2222 
L 1259 531 
L 3634 531 
L 3634 0 
L 628 0 
L 628 4666 
z
" transform="scale(0.015625)"/>
       <path id="DejaVuSans-72" d="M 2631 2963 
Q 2534 3019 2420 3045 
Q 2306 3072 2169 3072 
Q 1681 3072 1420 2755 
Q 1159 2438 1159 1844 
L 1159 0 
L 581 0 
L 581 3500 
L 1159 3500 
L 1159 2956 
Q 1341 3275 1631 3429 
Q 1922 3584 2338 3584 
Q 2397 3584 2469 3576 
Q 2541 3569 2628 3553 
L 2631 2963 
z
" transform="scale(0.015625)"/>
       <path id="DejaVuSans-79" d="M 2059 -325 
Q 1816 -950 1584 -1140 
Q 1353 -1331 966 -1331 
L 506 -1331 
L 506 -850 
L 844 -850 
Q 1081 -850 1212 -737 
Q 1344 -625 1503 -206 
L 1606 56 
L 191 3500 
L 800 3500 
L 1894 763 
L 2988 3500 
L 3597 3500 
L 2059 -325 
z
" transform="scale(0.015625)"/>
      </defs>
      <use xlink:href="#DejaVuSans-48"/>
      <use xlink:href="#DejaVuSans-56" x="75.195312"/>
      <use xlink:href="#DejaVuSans-41" x="137.228516"/>
      <use xlink:href="#DejaVuSans-43" x="203.886719"/>
      <use xlink:href="#DejaVuSans-20" x="273.710938"/>
      <use xlink:href="#DejaVuSans-45" x="305.498047"/>
      <use xlink:href="#DejaVuSans-6c" x="368.681641"/>
      <use xlink:href="#DejaVuSans-65" x="396.464844"/>
      <use xlink:href="#DejaVuSans-63" x="457.988281"/>
      <use xlink:href="#DejaVuSans-74" x="512.96875"/>
      <use xlink:href="#DejaVuSans-72" x="552.177734"/>
      <use xlink:href="#DejaVuSans-69" x="593.291016"/>
      <use xlink:href="#DejaVuSans-63" x="621.074219"/>
      <use xlink:href="#DejaVuSans-69" x="676.054688"/>
      <use xlink:href="#DejaVuSans-74" x="703.837891"/>
      <use xlink:href="#DejaVuSans-79" x="743.046875"/>
     </g>
    </g>
   </g>
   <g id="patch_8">
    <path d="M 42.610625 335.347036 
L 56.002625 335.347036 
L 56.002625 333.783472 
L 42.610625 333.783472 
L 42.610625 335.347036 
z
" clip-path="url(#p5f2394c9d3)" style="fill: #808080; stroke: #262626; stroke-linejoin: miter"/>
   </g>
   <g id="line2d_14">
    <path d="M 49.306625 335.347036 
L 49.306625 336.511392 
" clip-path="url(#p5f2394c9d3)" style="fill: none; stroke: #262626"/>
   </g>
   <g id="line2d_15">
    <path d="M 49.306625 333.783472 
L 49.306625 331.720897 
" clip-path="url(#p5f2394c9d3)" style="fill: none; stroke: #262626"/>
   </g>
   <g id="line2d_16">
    <path d="M 45.958625 336.511392 
L 52.654625 336.511392 
" clip-path="url(#p5f2394c9d3)" style="fill: none; stroke: #262626; stroke-linecap: square"/>
   </g>
   <g id="line2d_17">
    <path d="M 45.958625 331.720897 
L 52.654625 331.720897 
" clip-path="url(#p5f2394c9d3)" style="fill: none; stroke: #262626; stroke-linecap: square"/>
   </g>
   <g id="line2d_18">
    <defs>
     <path id="m8a7655118d" d="M 0 3 
C 0.795609 3 1.55874 2.683901 2.12132 2.12132 
C 2.683901 1.55874 3 0.795609 3 0 
C 3 -0.795609 2.683901 -1.55874 2.12132 -2.12132 
C 1.55874 -2.683901 0.795609 -3 0 -3 
C -0.795609 -3 -1.55874 -2.683901 -2.12132 -2.12132 
C -2.683901 -1.55874 -3 -0.795609 -3 0 
C -3 0.795609 -2.683901 1.55874 -2.12132 2.12132 
C -1.55874 2.683901 -0.795609 3 0 3 
z
" style="stroke: #262626"/>
    </defs>
    <g clip-path="url(#p5f2394c9d3)">
     <use xlink:href="#m8a7655118d" x="49.306625" y="337.975155" style="fill-opacity: 0; stroke: #262626"/>
     <use xlink:href="#m8a7655118d" x="49.306625" y="329.791392" style="fill-opacity: 0; stroke: #262626"/>
     <use xlink:href="#m8a7655118d" x="49.306625" y="329.19258" style="fill-opacity: 0; stroke: #262626"/>
     <use xlink:href="#m8a7655118d" x="49.306625" y="329.658323" style="fill-opacity: 0; stroke: #262626"/>
    </g>
   </g>
   <g id="patch_9">
    <path d="M 126.310625 335.347036 
L 139.702625 335.347036 
L 139.702625 333.783472 
L 126.310625 333.783472 
L 126.310625 335.347036 
z
" clip-path="url(#p5f2394c9d3)" style="fill: #808080; stroke: #262626; stroke-linejoin: miter"/>
   </g>
   <g id="line2d_19">
    <path d="M 133.006625 335.347036 
L 133.006625 336.511392 
" clip-path="url(#p5f2394c9d3)" style="fill: none; stroke: #262626"/>
   </g>
   <g id="line2d_20">
    <path d="M 133.006625 333.783472 
L 133.006625 331.720897 
" clip-path="url(#p5f2394c9d3)" style="fill: none; stroke: #262626"/>
   </g>
   <g id="line2d_21">
    <path d="M 129.658625 336.511392 
L 136.354625 336.511392 
" clip-path="url(#p5f2394c9d3)" style="fill: none; stroke: #262626; stroke-linecap: square"/>
   </g>
   <g id="line2d_22">
    <path d="M 129.658625 331.720897 
L 136.354625 331.720897 
" clip-path="url(#p5f2394c9d3)" style="fill: none; stroke: #262626; stroke-linecap: square"/>
   </g>
   <g id="line2d_23">
    <g clip-path="url(#p5f2394c9d3)">
     <use xlink:href="#m8a7655118d" x="133.006625" y="337.975155" style="fill-opacity: 0; stroke: #262626"/>
     <use xlink:href="#m8a7655118d" x="133.006625" y="329.791392" style="fill-opacity: 0; stroke: #262626"/>
     <use xlink:href="#m8a7655118d" x="133.006625" y="329.19258" style="fill-opacity: 0; stroke: #262626"/>
     <use xlink:href="#m8a7655118d" x="133.006625" y="329.658323" style="fill-opacity: 0; stroke: #262626"/>
    </g>
   </g>
   <g id="patch_10">
    <path d="M 210.010625 337.72565 
L 223.402625 337.72565 
L 223.402625 336.777531 
L 210.010625 336.777531 
L 210.010625 337.72565 
z
" clip-path="url(#p5f2394c9d3)" style="fill: #808080; stroke: #262626; stroke-linejoin: miter"/>
   </g>
   <g id="line2d_24">
    <path d="M 216.706625 337.72565 
L 216.706625 338.174759 
" clip-path="url(#p5f2394c9d3)" style="fill: none; stroke: #262626"/>
   </g>
   <g id="line2d_25">
    <path d="M 216.706625 336.777531 
L 216.706625 336.511392 
" clip-path="url(#p5f2394c9d3)" style="fill: none; stroke: #262626"/>
   </g>
   <g id="line2d_26">
    <path d="M 213.358625 338.174759 
L 220.054625 338.174759 
" clip-path="url(#p5f2394c9d3)" style="fill: none; stroke: #262626; stroke-linecap: square"/>
   </g>
   <g id="line2d_27">
    <path d="M 213.358625 336.511392 
L 220.054625 336.511392 
" clip-path="url(#p5f2394c9d3)" style="fill: none; stroke: #262626; stroke-linecap: square"/>
   </g>
   <g id="line2d_28">
    <g clip-path="url(#p5f2394c9d3)">
     <use xlink:href="#m8a7655118d" x="216.706625" y="330.789412" style="fill-opacity: 0; stroke: #262626"/>
     <use xlink:href="#m8a7655118d" x="216.706625" y="329.19258" style="fill-opacity: 0; stroke: #262626"/>
     <use xlink:href="#m8a7655118d" x="216.706625" y="329.259115" style="fill-opacity: 0; stroke: #262626"/>
     <use xlink:href="#m8a7655118d" x="216.706625" y="329.857927" style="fill-opacity: 0; stroke: #262626"/>
    </g>
   </g>
   <g id="patch_11">
    <path d="M 293.710625 116.813967 
L 307.102625 116.813967 
L 307.102625 64.268224 
L 293.710625 64.268224 
L 293.710625 116.813967 
z
" clip-path="url(#p5f2394c9d3)" style="fill: #808080; stroke: #262626; stroke-linejoin: miter"/>
   </g>
   <g id="line2d_29">
    <path d="M 300.406625 116.813967 
L 300.406625 135.842877 
" clip-path="url(#p5f2394c9d3)" style="fill: none; stroke: #262626"/>
   </g>
   <g id="line2d_30">
    <path d="M 300.406625 64.268224 
L 300.406625 37.438125 
" clip-path="url(#p5f2394c9d3)" style="fill: none; stroke: #262626"/>
   </g>
   <g id="line2d_31">
    <path d="M 297.058625 135.842877 
L 303.754625 135.842877 
" clip-path="url(#p5f2394c9d3)" style="fill: none; stroke: #262626; stroke-linecap: square"/>
   </g>
   <g id="line2d_32">
    <path d="M 297.058625 37.438125 
L 303.754625 37.438125 
" clip-path="url(#p5f2394c9d3)" style="fill: none; stroke: #262626; stroke-linecap: square"/>
   </g>
   <g id="line2d_33"/>
   <g id="patch_12">
    <path d="M 377.410625 308.017927 
L 390.802625 308.017927 
L 390.802625 298.420303 
L 377.410625 298.420303 
L 377.410625 308.017927 
z
" clip-path="url(#p5f2394c9d3)" style="fill: #808080; stroke: #262626; stroke-linejoin: miter"/>
   </g>
   <g id="line2d_34">
    <path d="M 384.106625 308.017927 
L 384.106625 321.740699 
" clip-path="url(#p5f2394c9d3)" style="fill: none; stroke: #262626"/>
   </g>
   <g id="line2d_35">
    <path d="M 384.106625 298.420303 
L 384.106625 293.130798 
" clip-path="url(#p5f2394c9d3)" style="fill: none; stroke: #262626"/>
   </g>
   <g id="line2d_36">
    <path d="M 380.758625 321.740699 
L 387.454625 321.740699 
" clip-path="url(#p5f2394c9d3)" style="fill: none; stroke: #262626; stroke-linecap: square"/>
   </g>
   <g id="line2d_37">
    <path d="M 380.758625 293.130798 
L 387.454625 293.130798 
" clip-path="url(#p5f2394c9d3)" style="fill: none; stroke: #262626; stroke-linecap: square"/>
   </g>
   <g id="line2d_38">
    <g clip-path="url(#p5f2394c9d3)">
     <use xlink:href="#m8a7655118d" x="384.106625" y="331.920501" style="fill-opacity: 0; stroke: #262626"/>
     <use xlink:href="#m8a7655118d" x="384.106625" y="239.703472" style="fill-opacity: 0; stroke: #262626"/>
     <use xlink:href="#m8a7655118d" x="384.106625" y="176.362481" style="fill-opacity: 0; stroke: #262626"/>
     <use xlink:href="#m8a7655118d" x="384.106625" y="137.572778" style="fill-opacity: 0; stroke: #262626"/>
     <use xlink:href="#m8a7655118d" x="384.106625" y="137.572778" style="fill-opacity: 0; stroke: #262626"/>
    </g>
   </g>
   <g id="patch_13">
    <path d="M 461.110625 334.947828 
L 474.502625 334.947828 
L 474.502625 333.949808 
L 461.110625 333.949808 
L 461.110625 334.947828 
z
" clip-path="url(#p5f2394c9d3)" style="fill: #808080; stroke: #262626; stroke-linejoin: miter"/>
   </g>
   <g id="line2d_39">
    <path d="M 467.806625 334.947828 
L 467.806625 335.712976 
" clip-path="url(#p5f2394c9d3)" style="fill: none; stroke: #262626"/>
   </g>
   <g id="line2d_40">
    <path d="M 467.806625 333.949808 
L 467.806625 332.585848 
" clip-path="url(#p5f2394c9d3)" style="fill: none; stroke: #262626"/>
   </g>
   <g id="line2d_41">
    <path d="M 464.458625 335.712976 
L 471.154625 335.712976 
" clip-path="url(#p5f2394c9d3)" style="fill: none; stroke: #262626; stroke-linecap: square"/>
   </g>
   <g id="line2d_42">
    <path d="M 464.458625 332.585848 
L 471.154625 332.585848 
" clip-path="url(#p5f2394c9d3)" style="fill: none; stroke: #262626; stroke-linecap: square"/>
   </g>
   <g id="line2d_43"/>
   <g id="patch_14">
    <path d="M 544.810625 328.344264 
L 558.202625 328.344264 
L 558.202625 324.185848 
L 544.810625 324.185848 
L 544.810625 328.344264 
z
" clip-path="url(#p5f2394c9d3)" style="fill: #808080; stroke: #262626; stroke-linejoin: miter"/>
   </g>
   <g id="line2d_44">
    <path d="M 551.506625 328.344264 
L 551.506625 329.791392 
" clip-path="url(#p5f2394c9d3)" style="fill: none; stroke: #262626"/>
   </g>
   <g id="line2d_45">
    <path d="M 551.506625 324.185848 
L 551.506625 322.738719 
" clip-path="url(#p5f2394c9d3)" style="fill: none; stroke: #262626"/>
   </g>
   <g id="line2d_46">
    <path d="M 548.158625 329.791392 
L 554.854625 329.791392 
" clip-path="url(#p5f2394c9d3)" style="fill: none; stroke: #262626; stroke-linecap: square"/>
   </g>
   <g id="line2d_47">
    <path d="M 548.158625 322.738719 
L 554.854625 322.738719 
" clip-path="url(#p5f2394c9d3)" style="fill: none; stroke: #262626; stroke-linecap: square"/>
   </g>
   <g id="line2d_48"/>
   <g id="patch_15">
    <path d="M 628.510625 333.400897 
L 641.902625 333.400897 
L 641.902625 332.486046 
L 628.510625 332.486046 
L 628.510625 333.400897 
z
" clip-path="url(#p5f2394c9d3)" style="fill: #808080; stroke: #262626; stroke-linejoin: miter"/>
   </g>
   <g id="line2d_49">
    <path d="M 635.206625 333.400897 
L 635.206625 334.382283 
" clip-path="url(#p5f2394c9d3)" style="fill: none; stroke: #262626"/>
   </g>
   <g id="line2d_50">
    <path d="M 635.206625 332.486046 
L 635.206625 332.120105 
" clip-path="url(#p5f2394c9d3)" style="fill: none; stroke: #262626"/>
   </g>
   <g id="line2d_51">
    <path d="M 631.858625 334.382283 
L 638.554625 334.382283 
" clip-path="url(#p5f2394c9d3)" style="fill: none; stroke: #262626; stroke-linecap: square"/>
   </g>
   <g id="line2d_52">
    <path d="M 631.858625 332.120105 
L 638.554625 332.120105 
" clip-path="url(#p5f2394c9d3)" style="fill: none; stroke: #262626; stroke-linecap: square"/>
   </g>
   <g id="line2d_53">
    <g clip-path="url(#p5f2394c9d3)">
     <use xlink:href="#m8a7655118d" x="635.206625" y="335.579907" style="fill-opacity: 0; stroke: #262626"/>
     <use xlink:href="#m8a7655118d" x="635.206625" y="335.04763" style="fill-opacity: 0; stroke: #262626"/>
     <use xlink:href="#m8a7655118d" x="635.206625" y="329.857927" style="fill-opacity: 0; stroke: #262626"/>
     <use xlink:href="#m8a7655118d" x="635.206625" y="330.523274" style="fill-opacity: 0; stroke: #262626"/>
     <use xlink:href="#m8a7655118d" x="635.206625" y="330.589808" style="fill-opacity: 0; stroke: #262626"/>
    </g>
   </g>
   <g id="patch_16">
    <path d="M 56.002625 332.918521 
L 69.394625 332.918521 
L 69.394625 304.225452 
L 56.002625 304.225452 
L 56.002625 332.918521 
z
" clip-path="url(#p5f2394c9d3)" style="fill: #963939; stroke: #262626; stroke-linejoin: miter"/>
   </g>
   <g id="line2d_54">
    <path d="M 62.698625 332.918521 
L 62.698625 332.918521 
" clip-path="url(#p5f2394c9d3)" style="fill: none; stroke: #262626"/>
   </g>
   <g id="line2d_55">
    <path d="M 62.698625 304.225452 
L 62.698625 267.84763 
" clip-path="url(#p5f2394c9d3)" style="fill: none; stroke: #262626"/>
   </g>
   <g id="line2d_56">
    <path d="M 59.350625 332.918521 
L 66.046625 332.918521 
" clip-path="url(#p5f2394c9d3)" style="fill: none; stroke: #262626; stroke-linecap: square"/>
   </g>
   <g id="line2d_57">
    <path d="M 59.350625 267.84763 
L 66.046625 267.84763 
" clip-path="url(#p5f2394c9d3)" style="fill: none; stroke: #262626; stroke-linecap: square"/>
   </g>
   <g id="line2d_58"/>
   <g id="patch_17">
    <path d="M 139.702625 332.918521 
L 153.094625 332.918521 
L 153.094625 304.225452 
L 139.702625 304.225452 
L 139.702625 332.918521 
z
" clip-path="url(#p5f2394c9d3)" style="fill: #963939; stroke: #262626; stroke-linejoin: miter"/>
   </g>
   <g id="line2d_59">
    <path d="M 146.398625 332.918521 
L 146.398625 332.918521 
" clip-path="url(#p5f2394c9d3)" style="fill: none; stroke: #262626"/>
   </g>
   <g id="line2d_60">
    <path d="M 146.398625 304.225452 
L 146.398625 267.84763 
" clip-path="url(#p5f2394c9d3)" style="fill: none; stroke: #262626"/>
   </g>
   <g id="line2d_61">
    <path d="M 143.050625 332.918521 
L 149.746625 332.918521 
" clip-path="url(#p5f2394c9d3)" style="fill: none; stroke: #262626; stroke-linecap: square"/>
   </g>
   <g id="line2d_62">
    <path d="M 143.050625 267.84763 
L 149.746625 267.84763 
" clip-path="url(#p5f2394c9d3)" style="fill: none; stroke: #262626; stroke-linecap: square"/>
   </g>
   <g id="line2d_63"/>
   <g id="patch_18">
    <path d="M 223.402625 332.818719 
L 236.794625 332.818719 
L 236.794625 312.309412 
L 223.402625 312.309412 
L 223.402625 332.818719 
z
" clip-path="url(#p5f2394c9d3)" style="fill: #963939; stroke: #262626; stroke-linejoin: miter"/>
   </g>
   <g id="line2d_64">
    <path d="M 230.098625 332.818719 
L 230.098625 337.90862 
" clip-path="url(#p5f2394c9d3)" style="fill: none; stroke: #262626"/>
   </g>
   <g id="line2d_65">
    <path d="M 230.098625 312.309412 
L 230.098625 303.510204 
" clip-path="url(#p5f2394c9d3)" style="fill: none; stroke: #262626"/>
   </g>
   <g id="line2d_66">
    <path d="M 226.750625 337.90862 
L 233.446625 337.90862 
" clip-path="url(#p5f2394c9d3)" style="fill: none; stroke: #262626; stroke-linecap: square"/>
   </g>
   <g id="line2d_67">
    <path d="M 226.750625 303.510204 
L 233.446625 303.510204 
" clip-path="url(#p5f2394c9d3)" style="fill: none; stroke: #262626; stroke-linecap: square"/>
   </g>
   <g id="line2d_68"/>
   <g id="patch_19">
    <path d="M 390.802625 332.053571 
L 404.194625 332.053571 
L 404.194625 329.109412 
L 390.802625 329.109412 
L 390.802625 332.053571 
z
" clip-path="url(#p5f2394c9d3)" style="fill: #963939; stroke: #262626; stroke-linejoin: miter"/>
   </g>
   <g id="line2d_69">
    <path d="M 397.498625 332.053571 
L 397.498625 334.781491 
" clip-path="url(#p5f2394c9d3)" style="fill: none; stroke: #262626"/>
   </g>
   <g id="line2d_70">
    <path d="M 397.498625 329.109412 
L 397.498625 328.992976 
" clip-path="url(#p5f2394c9d3)" style="fill: none; stroke: #262626"/>
   </g>
   <g id="line2d_71">
    <path d="M 394.150625 334.781491 
L 400.846625 334.781491 
" clip-path="url(#p5f2394c9d3)" style="fill: none; stroke: #262626; stroke-linecap: square"/>
   </g>
   <g id="line2d_72">
    <path d="M 394.150625 328.992976 
L 400.846625 328.992976 
" clip-path="url(#p5f2394c9d3)" style="fill: none; stroke: #262626; stroke-linecap: square"/>
   </g>
   <g id="line2d_73">
    <g clip-path="url(#p5f2394c9d3)">
     <use xlink:href="#m8a7655118d" x="397.498625" y="336.9106" style="fill-opacity: 0; stroke: #262626"/>
     <use xlink:href="#m8a7655118d" x="397.498625" y="309.232184" style="fill-opacity: 0; stroke: #262626"/>
     <use xlink:href="#m8a7655118d" x="397.498625" y="297.455551" style="fill-opacity: 0; stroke: #262626"/>
     <use xlink:href="#m8a7655118d" x="397.498625" y="297.455551" style="fill-opacity: 0; stroke: #262626"/>
     <use xlink:href="#m8a7655118d" x="397.498625" y="298.653175" style="fill-opacity: 0; stroke: #262626"/>
    </g>
   </g>
   <g id="patch_20">
    <path d="M 474.502625 334.714957 
L 487.894625 334.714957 
L 487.894625 334.714957 
L 474.502625 334.714957 
L 474.502625 334.714957 
z
" clip-path="url(#p5f2394c9d3)" style="fill: #963939; stroke: #262626; stroke-linejoin: miter"/>
   </g>
   <g id="line2d_74">
    <path d="M 481.198625 334.714957 
L 481.198625 334.714957 
" clip-path="url(#p5f2394c9d3)" style="fill: none; stroke: #262626"/>
   </g>
   <g id="line2d_75">
    <path d="M 481.198625 334.714957 
L 481.198625 334.714957 
" clip-path="url(#p5f2394c9d3)" style="fill: none; stroke: #262626"/>
   </g>
   <g id="line2d_76">
    <path d="M 477.850625 334.714957 
L 484.546625 334.714957 
" clip-path="url(#p5f2394c9d3)" style="fill: none; stroke: #262626; stroke-linecap: square"/>
   </g>
   <g id="line2d_77">
    <path d="M 477.850625 334.714957 
L 484.546625 334.714957 
" clip-path="url(#p5f2394c9d3)" style="fill: none; stroke: #262626; stroke-linecap: square"/>
   </g>
   <g id="line2d_78"/>
   <g id="patch_21">
    <path d="M 558.202625 329.126046 
L 571.594625 329.126046 
L 571.594625 329.126046 
L 558.202625 329.126046 
L 558.202625 329.126046 
z
" clip-path="url(#p5f2394c9d3)" style="fill: #963939; stroke: #262626; stroke-linejoin: miter"/>
   </g>
   <g id="line2d_79">
    <path d="M 564.898625 329.126046 
L 564.898625 329.126046 
" clip-path="url(#p5f2394c9d3)" style="fill: none; stroke: #262626"/>
   </g>
   <g id="line2d_80">
    <path d="M 564.898625 329.126046 
L 564.898625 329.126046 
" clip-path="url(#p5f2394c9d3)" style="fill: none; stroke: #262626"/>
   </g>
   <g id="line2d_81">
    <path d="M 561.550625 329.126046 
L 568.246625 329.126046 
" clip-path="url(#p5f2394c9d3)" style="fill: none; stroke: #262626; stroke-linecap: square"/>
   </g>
   <g id="line2d_82">
    <path d="M 561.550625 329.126046 
L 568.246625 329.126046 
" clip-path="url(#p5f2394c9d3)" style="fill: none; stroke: #262626; stroke-linecap: square"/>
   </g>
   <g id="line2d_83"/>
   <g id="patch_22">
    <path d="M 641.902625 291.05159 
L 655.294625 291.05159 
L 655.294625 276.147828 
L 641.902625 276.147828 
L 641.902625 291.05159 
z
" clip-path="url(#p5f2394c9d3)" style="fill: #963939; stroke: #262626; stroke-linejoin: miter"/>
   </g>
   <g id="line2d_84">
    <path d="M 648.598625 291.05159 
L 648.598625 310.0306 
" clip-path="url(#p5f2394c9d3)" style="fill: none; stroke: #262626"/>
   </g>
   <g id="line2d_85">
    <path d="M 648.598625 276.147828 
L 648.598625 265.252778 
" clip-path="url(#p5f2394c9d3)" style="fill: none; stroke: #262626"/>
   </g>
   <g id="line2d_86">
    <path d="M 645.250625 310.0306 
L 651.946625 310.0306 
" clip-path="url(#p5f2394c9d3)" style="fill: none; stroke: #262626; stroke-linecap: square"/>
   </g>
   <g id="line2d_87">
    <path d="M 645.250625 265.252778 
L 651.946625 265.252778 
" clip-path="url(#p5f2394c9d3)" style="fill: none; stroke: #262626; stroke-linecap: square"/>
   </g>
   <g id="line2d_88">
    <g clip-path="url(#p5f2394c9d3)">
     <use xlink:href="#m8a7655118d" x="648.598625" y="332.918521" style="fill-opacity: 0; stroke: #262626"/>
     <use xlink:href="#m8a7655118d" x="648.598625" y="315.286838" style="fill-opacity: 0; stroke: #262626"/>
    </g>
   </g>
   <g id="patch_23">
    <path d="M 69.394625 335.779511 
L 82.786625 335.779511 
L 82.786625 309.864264 
L 69.394625 309.864264 
L 69.394625 335.779511 
z
" clip-path="url(#p5f2394c9d3)" style="fill: #f7c8d0; stroke: #262626; stroke-linejoin: miter"/>
   </g>
   <g id="line2d_89">
    <path d="M 76.090625 335.779511 
L 76.090625 335.779511 
" clip-path="url(#p5f2394c9d3)" style="fill: none; stroke: #262626"/>
   </g>
   <g id="line2d_90">
    <path d="M 76.090625 309.864264 
L 76.090625 283.217135 
" clip-path="url(#p5f2394c9d3)" style="fill: none; stroke: #262626"/>
   </g>
   <g id="line2d_91">
    <path d="M 72.742625 335.779511 
L 79.438625 335.779511 
" clip-path="url(#p5f2394c9d3)" style="fill: none; stroke: #262626; stroke-linecap: square"/>
   </g>
   <g id="line2d_92">
    <path d="M 72.742625 283.217135 
L 79.438625 283.217135 
" clip-path="url(#p5f2394c9d3)" style="fill: none; stroke: #262626; stroke-linecap: square"/>
   </g>
   <g id="line2d_93"/>
   <g id="patch_24">
    <path d="M 153.094625 335.779511 
L 166.486625 335.779511 
L 166.486625 309.864264 
L 153.094625 309.864264 
L 153.094625 335.779511 
z
" clip-path="url(#p5f2394c9d3)" style="fill: #f7c8d0; stroke: #262626; stroke-linejoin: miter"/>
   </g>
   <g id="line2d_94">
    <path d="M 159.790625 335.779511 
L 159.790625 335.779511 
" clip-path="url(#p5f2394c9d3)" style="fill: none; stroke: #262626"/>
   </g>
   <g id="line2d_95">
    <path d="M 159.790625 309.864264 
L 159.790625 283.217135 
" clip-path="url(#p5f2394c9d3)" style="fill: none; stroke: #262626"/>
   </g>
   <g id="line2d_96">
    <path d="M 156.442625 335.779511 
L 163.138625 335.779511 
" clip-path="url(#p5f2394c9d3)" style="fill: none; stroke: #262626; stroke-linecap: square"/>
   </g>
   <g id="line2d_97">
    <path d="M 156.442625 283.217135 
L 163.138625 283.217135 
" clip-path="url(#p5f2394c9d3)" style="fill: none; stroke: #262626; stroke-linecap: square"/>
   </g>
   <g id="line2d_98"/>
   <g id="patch_25">
    <path d="M 236.794625 325.732778 
L 250.186625 325.732778 
L 250.186625 320.775947 
L 236.794625 320.775947 
L 236.794625 325.732778 
z
" clip-path="url(#p5f2394c9d3)" style="fill: #f7c8d0; stroke: #262626; stroke-linejoin: miter"/>
   </g>
   <g id="line2d_99">
    <path d="M 243.490625 325.732778 
L 243.490625 331.987036 
" clip-path="url(#p5f2394c9d3)" style="fill: none; stroke: #262626"/>
   </g>
   <g id="line2d_100">
    <path d="M 243.490625 320.775947 
L 243.490625 316.617531 
" clip-path="url(#p5f2394c9d3)" style="fill: none; stroke: #262626"/>
   </g>
   <g id="line2d_101">
    <path d="M 240.142625 331.987036 
L 246.838625 331.987036 
" clip-path="url(#p5f2394c9d3)" style="fill: none; stroke: #262626; stroke-linecap: square"/>
   </g>
   <g id="line2d_102">
    <path d="M 240.142625 316.617531 
L 246.838625 316.617531 
" clip-path="url(#p5f2394c9d3)" style="fill: none; stroke: #262626; stroke-linecap: square"/>
   </g>
   <g id="line2d_103">
    <g clip-path="url(#p5f2394c9d3)">
     <use xlink:href="#m8a7655118d" x="243.490625" y="337.04367" style="fill-opacity: 0; stroke: #262626"/>
     <use xlink:href="#m8a7655118d" x="243.490625" y="338.041689" style="fill-opacity: 0; stroke: #262626"/>
     <use xlink:href="#m8a7655118d" x="243.490625" y="311.827036" style="fill-opacity: 0; stroke: #262626"/>
    </g>
   </g>
   <g id="patch_26">
    <path d="M 404.194625 333.650402 
L 417.586625 333.650402 
L 417.586625 331.321689 
L 404.194625 331.321689 
L 404.194625 333.650402 
z
" clip-path="url(#p5f2394c9d3)" style="fill: #f7c8d0; stroke: #262626; stroke-linejoin: miter"/>
   </g>
   <g id="line2d_104">
    <path d="M 410.890625 333.650402 
L 410.890625 335.646442 
" clip-path="url(#p5f2394c9d3)" style="fill: none; stroke: #262626"/>
   </g>
   <g id="line2d_105">
    <path d="M 410.890625 331.321689 
L 410.890625 331.321689 
" clip-path="url(#p5f2394c9d3)" style="fill: none; stroke: #262626"/>
   </g>
   <g id="line2d_106">
    <path d="M 407.542625 335.646442 
L 414.238625 335.646442 
" clip-path="url(#p5f2394c9d3)" style="fill: none; stroke: #262626; stroke-linecap: square"/>
   </g>
   <g id="line2d_107">
    <path d="M 407.542625 331.321689 
L 414.238625 331.321689 
" clip-path="url(#p5f2394c9d3)" style="fill: none; stroke: #262626; stroke-linecap: square"/>
   </g>
   <g id="line2d_108">
    <g clip-path="url(#p5f2394c9d3)">
     <use xlink:href="#m8a7655118d" x="410.890625" y="337.243274" style="fill-opacity: 0; stroke: #262626"/>
     <use xlink:href="#m8a7655118d" x="410.890625" y="315.619511" style="fill-opacity: 0; stroke: #262626"/>
     <use xlink:href="#m8a7655118d" x="410.890625" y="307.103075" style="fill-opacity: 0; stroke: #262626"/>
     <use xlink:href="#m8a7655118d" x="410.890625" y="307.103075" style="fill-opacity: 0; stroke: #262626"/>
     <use xlink:href="#m8a7655118d" x="410.890625" y="308.034561" style="fill-opacity: 0; stroke: #262626"/>
    </g>
   </g>
   <g id="patch_27">
    <path d="M 487.894625 336.710996 
L 501.286625 336.710996 
L 501.286625 336.710996 
L 487.894625 336.710996 
L 487.894625 336.710996 
z
" clip-path="url(#p5f2394c9d3)" style="fill: #f7c8d0; stroke: #262626; stroke-linejoin: miter"/>
   </g>
   <g id="line2d_109">
    <path d="M 494.590625 336.710996 
L 494.590625 336.710996 
" clip-path="url(#p5f2394c9d3)" style="fill: none; stroke: #262626"/>
   </g>
   <g id="line2d_110">
    <path d="M 494.590625 336.710996 
L 494.590625 336.710996 
" clip-path="url(#p5f2394c9d3)" style="fill: none; stroke: #262626"/>
   </g>
   <g id="line2d_111">
    <path d="M 491.242625 336.710996 
L 497.938625 336.710996 
" clip-path="url(#p5f2394c9d3)" style="fill: none; stroke: #262626; stroke-linecap: square"/>
   </g>
   <g id="line2d_112">
    <path d="M 491.242625 336.710996 
L 497.938625 336.710996 
" clip-path="url(#p5f2394c9d3)" style="fill: none; stroke: #262626; stroke-linecap: square"/>
   </g>
   <g id="line2d_113"/>
   <g id="patch_28">
    <path d="M 571.594625 333.983075 
L 584.986625 333.983075 
L 584.986625 333.983075 
L 571.594625 333.983075 
L 571.594625 333.983075 
z
" clip-path="url(#p5f2394c9d3)" style="fill: #f7c8d0; stroke: #262626; stroke-linejoin: miter"/>
   </g>
   <g id="line2d_114">
    <path d="M 578.290625 333.983075 
L 578.290625 333.983075 
" clip-path="url(#p5f2394c9d3)" style="fill: none; stroke: #262626"/>
   </g>
   <g id="line2d_115">
    <path d="M 578.290625 333.983075 
L 578.290625 333.983075 
" clip-path="url(#p5f2394c9d3)" style="fill: none; stroke: #262626"/>
   </g>
   <g id="line2d_116">
    <path d="M 574.942625 333.983075 
L 581.638625 333.983075 
" clip-path="url(#p5f2394c9d3)" style="fill: none; stroke: #262626; stroke-linecap: square"/>
   </g>
   <g id="line2d_117">
    <path d="M 574.942625 333.983075 
L 581.638625 333.983075 
" clip-path="url(#p5f2394c9d3)" style="fill: none; stroke: #262626; stroke-linecap: square"/>
   </g>
   <g id="line2d_118"/>
   <g id="patch_29">
    <path d="M 655.294625 300.316541 
L 668.686625 300.316541 
L 668.686625 289.354957 
L 655.294625 289.354957 
L 655.294625 300.316541 
z
" clip-path="url(#p5f2394c9d3)" style="fill: #f7c8d0; stroke: #262626; stroke-linejoin: miter"/>
   </g>
   <g id="line2d_119">
    <path d="M 661.990625 300.316541 
L 661.990625 314.155749 
" clip-path="url(#p5f2394c9d3)" style="fill: none; stroke: #262626"/>
   </g>
   <g id="line2d_120">
    <path d="M 661.990625 289.354957 
L 661.990625 280.954957 
" clip-path="url(#p5f2394c9d3)" style="fill: none; stroke: #262626"/>
   </g>
   <g id="line2d_121">
    <path d="M 658.642625 314.155749 
L 665.338625 314.155749 
" clip-path="url(#p5f2394c9d3)" style="fill: none; stroke: #262626; stroke-linecap: square"/>
   </g>
   <g id="line2d_122">
    <path d="M 658.642625 280.954957 
L 665.338625 280.954957 
" clip-path="url(#p5f2394c9d3)" style="fill: none; stroke: #262626; stroke-linecap: square"/>
   </g>
   <g id="line2d_123">
    <g clip-path="url(#p5f2394c9d3)">
     <use xlink:href="#m8a7655118d" x="661.990625" y="335.779511" style="fill-opacity: 0; stroke: #262626"/>
     <use xlink:href="#m8a7655118d" x="661.990625" y="319.079313" style="fill-opacity: 0; stroke: #262626"/>
    </g>
   </g>
   <g id="patch_30">
    <path d="M 82.786625 248.086838 
L 96.178625 248.086838 
L 96.178625 248.020303 
L 82.786625 248.020303 
L 82.786625 248.086838 
z
" clip-path="url(#p5f2394c9d3)" style="fill: #20dfdf; stroke: #262626; stroke-linejoin: miter"/>
   </g>
   <g id="line2d_124">
    <path d="M 89.482625 248.086838 
L 89.482625 248.086838 
" clip-path="url(#p5f2394c9d3)" style="fill: none; stroke: #262626"/>
   </g>
   <g id="line2d_125">
    <path d="M 89.482625 248.020303 
L 89.482625 248.020303 
" clip-path="url(#p5f2394c9d3)" style="fill: none; stroke: #262626"/>
   </g>
   <g id="line2d_126">
    <path d="M 86.134625 248.086838 
L 92.830625 248.086838 
" clip-path="url(#p5f2394c9d3)" style="fill: none; stroke: #262626; stroke-linecap: square"/>
   </g>
   <g id="line2d_127">
    <path d="M 86.134625 248.020303 
L 92.830625 248.020303 
" clip-path="url(#p5f2394c9d3)" style="fill: none; stroke: #262626; stroke-linecap: square"/>
   </g>
   <g id="line2d_128">
    <g clip-path="url(#p5f2394c9d3)">
     <use xlink:href="#m8a7655118d" x="89.482625" y="254.074957" style="fill-opacity: 0; stroke: #262626"/>
     <use xlink:href="#m8a7655118d" x="89.482625" y="253.609214" style="fill-opacity: 0; stroke: #262626"/>
     <use xlink:href="#m8a7655118d" x="89.482625" y="251.413571" style="fill-opacity: 0; stroke: #262626"/>
     <use xlink:href="#m8a7655118d" x="89.482625" y="248.885254" style="fill-opacity: 0; stroke: #262626"/>
     <use xlink:href="#m8a7655118d" x="89.482625" y="249.084858" style="fill-opacity: 0; stroke: #262626"/>
    </g>
   </g>
   <g id="patch_31">
    <path d="M 166.486625 248.086838 
L 179.878625 248.086838 
L 179.878625 248.020303 
L 166.486625 248.020303 
L 166.486625 248.086838 
z
" clip-path="url(#p5f2394c9d3)" style="fill: #20dfdf; stroke: #262626; stroke-linejoin: miter"/>
   </g>
   <g id="line2d_129">
    <path d="M 173.182625 248.086838 
L 173.182625 248.086838 
" clip-path="url(#p5f2394c9d3)" style="fill: none; stroke: #262626"/>
   </g>
   <g id="line2d_130">
    <path d="M 173.182625 248.020303 
L 173.182625 248.020303 
" clip-path="url(#p5f2394c9d3)" style="fill: none; stroke: #262626"/>
   </g>
   <g id="line2d_131">
    <path d="M 169.834625 248.086838 
L 176.530625 248.086838 
" clip-path="url(#p5f2394c9d3)" style="fill: none; stroke: #262626; stroke-linecap: square"/>
   </g>
   <g id="line2d_132">
    <path d="M 169.834625 248.020303 
L 176.530625 248.020303 
" clip-path="url(#p5f2394c9d3)" style="fill: none; stroke: #262626; stroke-linecap: square"/>
   </g>
   <g id="line2d_133">
    <g clip-path="url(#p5f2394c9d3)">
     <use xlink:href="#m8a7655118d" x="173.182625" y="254.074957" style="fill-opacity: 0; stroke: #262626"/>
     <use xlink:href="#m8a7655118d" x="173.182625" y="253.609214" style="fill-opacity: 0; stroke: #262626"/>
     <use xlink:href="#m8a7655118d" x="173.182625" y="251.413571" style="fill-opacity: 0; stroke: #262626"/>
     <use xlink:href="#m8a7655118d" x="173.182625" y="248.885254" style="fill-opacity: 0; stroke: #262626"/>
     <use xlink:href="#m8a7655118d" x="173.182625" y="249.084858" style="fill-opacity: 0; stroke: #262626"/>
    </g>
   </g>
   <g id="patch_32">
    <path d="M 250.186625 323.636937 
L 263.578625 323.636937 
L 263.578625 308.633373 
L 250.186625 308.633373 
L 250.186625 323.636937 
z
" clip-path="url(#p5f2394c9d3)" style="fill: #20dfdf; stroke: #262626; stroke-linejoin: miter"/>
   </g>
   <g id="line2d_134">
    <path d="M 256.882625 323.636937 
L 256.882625 331.055551 
" clip-path="url(#p5f2394c9d3)" style="fill: none; stroke: #262626"/>
   </g>
   <g id="line2d_135">
    <path d="M 256.882625 308.633373 
L 256.882625 298.58664 
" clip-path="url(#p5f2394c9d3)" style="fill: none; stroke: #262626"/>
   </g>
   <g id="line2d_136">
    <path d="M 253.534625 331.055551 
L 260.230625 331.055551 
" clip-path="url(#p5f2394c9d3)" style="fill: none; stroke: #262626; stroke-linecap: square"/>
   </g>
   <g id="line2d_137">
    <path d="M 253.534625 298.58664 
L 260.230625 298.58664 
" clip-path="url(#p5f2394c9d3)" style="fill: none; stroke: #262626; stroke-linecap: square"/>
   </g>
   <g id="line2d_138"/>
   <g id="patch_33">
    <path d="M 417.586625 333.251194 
L 430.978625 333.251194 
L 430.978625 330.639709 
L 417.586625 330.639709 
L 417.586625 333.251194 
z
" clip-path="url(#p5f2394c9d3)" style="fill: #20dfdf; stroke: #262626; stroke-linejoin: miter"/>
   </g>
   <g id="line2d_139">
    <path d="M 424.282625 333.251194 
L 424.282625 336.977135 
" clip-path="url(#p5f2394c9d3)" style="fill: none; stroke: #262626"/>
   </g>
   <g id="line2d_140">
    <path d="M 424.282625 330.639709 
L 424.282625 329.19258 
" clip-path="url(#p5f2394c9d3)" style="fill: none; stroke: #262626"/>
   </g>
   <g id="line2d_141">
    <path d="M 420.934625 336.977135 
L 427.630625 336.977135 
" clip-path="url(#p5f2394c9d3)" style="fill: none; stroke: #262626; stroke-linecap: square"/>
   </g>
   <g id="line2d_142">
    <path d="M 420.934625 329.19258 
L 427.630625 329.19258 
" clip-path="url(#p5f2394c9d3)" style="fill: none; stroke: #262626; stroke-linecap: square"/>
   </g>
   <g id="line2d_143">
    <g clip-path="url(#p5f2394c9d3)">
     <use xlink:href="#m8a7655118d" x="424.282625" y="339.838125" style="fill-opacity: 0; stroke: #262626"/>
     <use xlink:href="#m8a7655118d" x="424.282625" y="315.220303" style="fill-opacity: 0; stroke: #262626"/>
     <use xlink:href="#m8a7655118d" x="424.282625" y="299.58466" style="fill-opacity: 0; stroke: #262626"/>
     <use xlink:href="#m8a7655118d" x="424.282625" y="285.346244" style="fill-opacity: 0; stroke: #262626"/>
     <use xlink:href="#m8a7655118d" x="424.282625" y="285.745452" style="fill-opacity: 0; stroke: #262626"/>
    </g>
   </g>
   <g id="patch_34">
    <path d="M 501.286625 310.363274 
L 514.678625 310.363274 
L 514.678625 303.343868 
L 501.286625 303.343868 
L 501.286625 310.363274 
z
" clip-path="url(#p5f2394c9d3)" style="fill: #20dfdf; stroke: #262626; stroke-linejoin: miter"/>
   </g>
   <g id="line2d_144">
    <path d="M 507.982625 310.363274 
L 507.982625 317.216343 
" clip-path="url(#p5f2394c9d3)" style="fill: none; stroke: #262626"/>
   </g>
   <g id="line2d_145">
    <path d="M 507.982625 303.343868 
L 507.982625 299.318521 
" clip-path="url(#p5f2394c9d3)" style="fill: none; stroke: #262626"/>
   </g>
   <g id="line2d_146">
    <path d="M 504.634625 317.216343 
L 511.330625 317.216343 
" clip-path="url(#p5f2394c9d3)" style="fill: none; stroke: #262626; stroke-linecap: square"/>
   </g>
   <g id="line2d_147">
    <path d="M 504.634625 299.318521 
L 511.330625 299.318521 
" clip-path="url(#p5f2394c9d3)" style="fill: none; stroke: #262626; stroke-linecap: square"/>
   </g>
   <g id="line2d_148">
    <g clip-path="url(#p5f2394c9d3)">
     <use xlink:href="#m8a7655118d" x="507.982625" y="291.999709" style="fill-opacity: 0; stroke: #262626"/>
     <use xlink:href="#m8a7655118d" x="507.982625" y="290.269808" style="fill-opacity: 0; stroke: #262626"/>
    </g>
   </g>
   <g id="patch_35">
    <path d="M 584.986625 219.077729 
L 598.378625 219.077729 
L 598.378625 219.011194 
L 584.986625 219.011194 
L 584.986625 219.077729 
z
" clip-path="url(#p5f2394c9d3)" style="fill: #20dfdf; stroke: #262626; stroke-linejoin: miter"/>
   </g>
   <g id="line2d_149">
    <path d="M 591.682625 219.077729 
L 591.682625 219.144264 
" clip-path="url(#p5f2394c9d3)" style="fill: none; stroke: #262626"/>
   </g>
   <g id="line2d_150">
    <path d="M 591.682625 219.011194 
L 591.682625 219.011194 
" clip-path="url(#p5f2394c9d3)" style="fill: none; stroke: #262626"/>
   </g>
   <g id="line2d_151">
    <path d="M 588.334625 219.144264 
L 595.030625 219.144264 
" clip-path="url(#p5f2394c9d3)" style="fill: none; stroke: #262626; stroke-linecap: square"/>
   </g>
   <g id="line2d_152">
    <path d="M 588.334625 219.011194 
L 595.030625 219.011194 
" clip-path="url(#p5f2394c9d3)" style="fill: none; stroke: #262626; stroke-linecap: square"/>
   </g>
   <g id="line2d_153"/>
   <g id="patch_36">
    <path d="M 668.686625 252.494759 
L 682.078625 252.494759 
L 682.078625 242.048818 
L 668.686625 242.048818 
L 668.686625 252.494759 
z
" clip-path="url(#p5f2394c9d3)" style="fill: #20dfdf; stroke: #262626; stroke-linejoin: miter"/>
   </g>
   <g id="line2d_154">
    <path d="M 675.382625 252.494759 
L 675.382625 260.12961 
" clip-path="url(#p5f2394c9d3)" style="fill: none; stroke: #262626"/>
   </g>
   <g id="line2d_155">
    <path d="M 675.382625 242.048818 
L 675.382625 238.97159 
" clip-path="url(#p5f2394c9d3)" style="fill: none; stroke: #262626"/>
   </g>
   <g id="line2d_156">
    <path d="M 672.034625 260.12961 
L 678.730625 260.12961 
" clip-path="url(#p5f2394c9d3)" style="fill: none; stroke: #262626; stroke-linecap: square"/>
   </g>
   <g id="line2d_157">
    <path d="M 672.034625 238.97159 
L 678.730625 238.97159 
" clip-path="url(#p5f2394c9d3)" style="fill: none; stroke: #262626; stroke-linecap: square"/>
   </g>
   <g id="line2d_158"/>
   <g id="patch_37">
    <path d="M 347.278625 250.482085 
L 360.670625 250.482085 
L 360.670625 248.136739 
L 347.278625 248.136739 
L 347.278625 250.482085 
z
" clip-path="url(#p5f2394c9d3)" style="fill: #707010; stroke: #262626; stroke-linejoin: miter"/>
   </g>
   <g id="line2d_159">
    <path d="M 353.974625 250.482085 
L 353.974625 251.080897 
" clip-path="url(#p5f2394c9d3)" style="fill: none; stroke: #262626"/>
   </g>
   <g id="line2d_160">
    <path d="M 353.974625 248.136739 
L 353.974625 245.891194 
" clip-path="url(#p5f2394c9d3)" style="fill: none; stroke: #262626"/>
   </g>
   <g id="line2d_161">
    <path d="M 350.626625 251.080897 
L 357.322625 251.080897 
" clip-path="url(#p5f2394c9d3)" style="fill: none; stroke: #262626; stroke-linecap: square"/>
   </g>
   <g id="line2d_162">
    <path d="M 350.626625 245.891194 
L 357.322625 245.891194 
" clip-path="url(#p5f2394c9d3)" style="fill: none; stroke: #262626; stroke-linecap: square"/>
   </g>
   <g id="line2d_163"/>
   <g id="line2d_164">
    <path d="M 42.610625 333.949808 
L 56.002625 333.949808 
" clip-path="url(#p5f2394c9d3)" style="fill: none; stroke: #262626"/>
   </g>
   <g id="line2d_165">
    <path d="M 126.310625 333.949808 
L 139.702625 333.949808 
" clip-path="url(#p5f2394c9d3)" style="fill: none; stroke: #262626"/>
   </g>
   <g id="line2d_166">
    <path d="M 210.010625 336.9106 
L 223.402625 336.9106 
" clip-path="url(#p5f2394c9d3)" style="fill: none; stroke: #262626"/>
   </g>
   <g id="line2d_167">
    <path d="M 293.710625 89.468224 
L 307.102625 89.468224 
" clip-path="url(#p5f2394c9d3)" style="fill: none; stroke: #262626"/>
   </g>
   <g id="line2d_168">
    <path d="M 377.410625 306.604066 
L 390.802625 306.604066 
" clip-path="url(#p5f2394c9d3)" style="fill: none; stroke: #262626"/>
   </g>
   <g id="line2d_169">
    <path d="M 461.110625 334.382283 
L 474.502625 334.382283 
" clip-path="url(#p5f2394c9d3)" style="fill: none; stroke: #262626"/>
   </g>
   <g id="line2d_170">
    <path d="M 544.810625 326.497927 
L 558.202625 326.497927 
" clip-path="url(#p5f2394c9d3)" style="fill: none; stroke: #262626"/>
   </g>
   <g id="line2d_171">
    <path d="M 628.510625 332.785452 
L 641.902625 332.785452 
" clip-path="url(#p5f2394c9d3)" style="fill: none; stroke: #262626"/>
   </g>
   <g id="line2d_172">
    <path d="M 56.002625 332.918521 
L 69.394625 332.918521 
" clip-path="url(#p5f2394c9d3)" style="fill: none; stroke: #262626"/>
   </g>
   <g id="line2d_173">
    <path d="M 139.702625 332.918521 
L 153.094625 332.918521 
" clip-path="url(#p5f2394c9d3)" style="fill: none; stroke: #262626"/>
   </g>
   <g id="line2d_174">
    <path d="M 223.402625 327.130006 
L 236.794625 327.130006 
" clip-path="url(#p5f2394c9d3)" style="fill: none; stroke: #262626"/>
   </g>
   <g id="line2d_175">
    <path d="M 390.802625 331.787432 
L 404.194625 331.787432 
" clip-path="url(#p5f2394c9d3)" style="fill: none; stroke: #262626"/>
   </g>
   <g id="line2d_176">
    <path d="M 474.502625 334.714957 
L 487.894625 334.714957 
" clip-path="url(#p5f2394c9d3)" style="fill: none; stroke: #262626"/>
   </g>
   <g id="line2d_177">
    <path d="M 558.202625 329.126046 
L 571.594625 329.126046 
" clip-path="url(#p5f2394c9d3)" style="fill: none; stroke: #262626"/>
   </g>
   <g id="line2d_178">
    <path d="M 641.902625 282.019511 
L 655.294625 282.019511 
" clip-path="url(#p5f2394c9d3)" style="fill: none; stroke: #262626"/>
   </g>
   <g id="line2d_179">
    <path d="M 69.394625 335.779511 
L 82.786625 335.779511 
" clip-path="url(#p5f2394c9d3)" style="fill: none; stroke: #262626"/>
   </g>
   <g id="line2d_180">
    <path d="M 153.094625 335.779511 
L 166.486625 335.779511 
" clip-path="url(#p5f2394c9d3)" style="fill: none; stroke: #262626"/>
   </g>
   <g id="line2d_181">
    <path d="M 236.794625 323.137927 
L 250.186625 323.137927 
" clip-path="url(#p5f2394c9d3)" style="fill: none; stroke: #262626"/>
   </g>
   <g id="line2d_182">
    <path d="M 404.194625 333.417531 
L 417.586625 333.417531 
" clip-path="url(#p5f2394c9d3)" style="fill: none; stroke: #262626"/>
   </g>
   <g id="line2d_183">
    <path d="M 487.894625 336.710996 
L 501.286625 336.710996 
" clip-path="url(#p5f2394c9d3)" style="fill: none; stroke: #262626"/>
   </g>
   <g id="line2d_184">
    <path d="M 571.594625 333.983075 
L 584.986625 333.983075 
" clip-path="url(#p5f2394c9d3)" style="fill: none; stroke: #262626"/>
   </g>
   <g id="line2d_185">
    <path d="M 655.294625 293.72961 
L 668.686625 293.72961 
" clip-path="url(#p5f2394c9d3)" style="fill: none; stroke: #262626"/>
   </g>
   <g id="line2d_186">
    <path d="M 82.786625 248.086838 
L 96.178625 248.086838 
" clip-path="url(#p5f2394c9d3)" style="fill: none; stroke: #262626"/>
   </g>
   <g id="line2d_187">
    <path d="M 166.486625 248.086838 
L 179.878625 248.086838 
" clip-path="url(#p5f2394c9d3)" style="fill: none; stroke: #262626"/>
   </g>
   <g id="line2d_188">
    <path d="M 250.186625 317.881689 
L 263.578625 317.881689 
" clip-path="url(#p5f2394c9d3)" style="fill: none; stroke: #262626"/>
   </g>
   <g id="line2d_189">
    <path d="M 417.586625 332.851986 
L 430.978625 332.851986 
" clip-path="url(#p5f2394c9d3)" style="fill: none; stroke: #262626"/>
   </g>
   <g id="line2d_190">
    <path d="M 501.286625 306.504264 
L 514.678625 306.504264 
" clip-path="url(#p5f2394c9d3)" style="fill: none; stroke: #262626"/>
   </g>
   <g id="line2d_191">
    <path d="M 584.986625 219.077729 
L 598.378625 219.077729 
" clip-path="url(#p5f2394c9d3)" style="fill: none; stroke: #262626"/>
   </g>
   <g id="line2d_192">
    <path d="M 668.686625 247.521293 
L 682.078625 247.521293 
" clip-path="url(#p5f2394c9d3)" style="fill: none; stroke: #262626"/>
   </g>
   <g id="line2d_193">
    <path d="M 347.278625 249.68367 
L 360.670625 249.68367 
" clip-path="url(#p5f2394c9d3)" style="fill: none; stroke: #262626"/>
   </g>
   <g id="patch_38">
    <path d="M 34.240625 354.958125 
L 34.240625 22.318125 
" style="fill: none; stroke: #000000; stroke-width: 0.8; stroke-linejoin: miter; stroke-linecap: square"/>
   </g>
   <g id="patch_39">
    <path d="M 703.840625 354.958125 
L 703.840625 22.318125 
" style="fill: none; stroke: #000000; stroke-width: 0.8; stroke-linejoin: miter; stroke-linecap: square"/>
   </g>
   <g id="patch_40">
    <path d="M 34.240625 354.958125 
L 703.840625 354.958125 
" style="fill: none; stroke: #000000; stroke-width: 0.8; stroke-linejoin: miter; stroke-linecap: square"/>
   </g>
   <g id="patch_41">
    <path d="M 34.240625 22.318125 
L 703.840625 22.318125 
" style="fill: none; stroke: #000000; stroke-width: 0.8; stroke-linejoin: miter; stroke-linecap: square"/>
   </g>
   <g id="text_16">
    <!-- Winter Baseline for Peak Electricity Day -->
    <g transform="translate(250.144063 16.318125) scale(0.12 -0.12)">
     <defs>
      <path id="DejaVuSans-57" d="M 213 4666 
L 850 4666 
L 1831 722 
L 2809 4666 
L 3519 4666 
L 4500 722 
L 5478 4666 
L 6119 4666 
L 4947 0 
L 4153 0 
L 3169 4050 
L 2175 0 
L 1381 0 
L 213 4666 
z
" transform="scale(0.015625)"/>
      <path id="DejaVuSans-42" d="M 1259 2228 
L 1259 519 
L 2272 519 
Q 2781 519 3026 730 
Q 3272 941 3272 1375 
Q 3272 1813 3026 2020 
Q 2781 2228 2272 2228 
L 1259 2228 
z
M 1259 4147 
L 1259 2741 
L 2194 2741 
Q 2656 2741 2882 2914 
Q 3109 3088 3109 3444 
Q 3109 3797 2882 3972 
Q 2656 4147 2194 4147 
L 1259 4147 
z
M 628 4666 
L 2241 4666 
Q 2963 4666 3353 4366 
Q 3744 4066 3744 3513 
Q 3744 3084 3544 2831 
Q 3344 2578 2956 2516 
Q 3422 2416 3680 2098 
Q 3938 1781 3938 1306 
Q 3938 681 3513 340 
Q 3088 0 2303 0 
L 628 0 
L 628 4666 
z
" transform="scale(0.015625)"/>
      <path id="DejaVuSans-61" d="M 2194 1759 
Q 1497 1759 1228 1600 
Q 959 1441 959 1056 
Q 959 750 1161 570 
Q 1363 391 1709 391 
Q 2188 391 2477 730 
Q 2766 1069 2766 1631 
L 2766 1759 
L 2194 1759 
z
M 3341 1997 
L 3341 0 
L 2766 0 
L 2766 531 
Q 2569 213 2275 61 
Q 1981 -91 1556 -91 
Q 1019 -91 701 211 
Q 384 513 384 1019 
Q 384 1609 779 1909 
Q 1175 2209 1959 2209 
L 2766 2209 
L 2766 2266 
Q 2766 2663 2505 2880 
Q 2244 3097 1772 3097 
Q 1472 3097 1187 3025 
Q 903 2953 641 2809 
L 641 3341 
Q 956 3463 1253 3523 
Q 1550 3584 1831 3584 
Q 2591 3584 2966 3190 
Q 3341 2797 3341 1997 
z
" transform="scale(0.015625)"/>
      <path id="DejaVuSans-66" d="M 2375 4863 
L 2375 4384 
L 1825 4384 
Q 1516 4384 1395 4259 
Q 1275 4134 1275 3809 
L 1275 3500 
L 2222 3500 
L 2222 3053 
L 1275 3053 
L 1275 0 
L 697 0 
L 697 3053 
L 147 3053 
L 147 3500 
L 697 3500 
L 697 3744 
Q 697 4328 969 4595 
Q 1241 4863 1831 4863 
L 2375 4863 
z
" transform="scale(0.015625)"/>
      <path id="DejaVuSans-6f" d="M 1959 3097 
Q 1497 3097 1228 2736 
Q 959 2375 959 1747 
Q 959 1119 1226 758 
Q 1494 397 1959 397 
Q 2419 397 2687 759 
Q 2956 1122 2956 1747 
Q 2956 2369 2687 2733 
Q 2419 3097 1959 3097 
z
M 1959 3584 
Q 2709 3584 3137 3096 
Q 3566 2609 3566 1747 
Q 3566 888 3137 398 
Q 2709 -91 1959 -91 
Q 1206 -91 779 398 
Q 353 888 353 1747 
Q 353 2609 779 3096 
Q 1206 3584 1959 3584 
z
" transform="scale(0.015625)"/>
      <path id="DejaVuSans-50" d="M 1259 4147 
L 1259 2394 
L 2053 2394 
Q 2494 2394 2734 2622 
Q 2975 2850 2975 3272 
Q 2975 3691 2734 3919 
Q 2494 4147 2053 4147 
L 1259 4147 
z
M 628 4666 
L 2053 4666 
Q 2838 4666 3239 4311 
Q 3641 3956 3641 3272 
Q 3641 2581 3239 2228 
Q 2838 1875 2053 1875 
L 1259 1875 
L 1259 0 
L 628 0 
L 628 4666 
z
" transform="scale(0.015625)"/>
      <path id="DejaVuSans-6b" d="M 581 4863 
L 1159 4863 
L 1159 1991 
L 2875 3500 
L 3609 3500 
L 1753 1863 
L 3688 0 
L 2938 0 
L 1159 1709 
L 1159 0 
L 581 0 
L 581 4863 
z
" transform="scale(0.015625)"/>
     </defs>
     <use xlink:href="#DejaVuSans-57"/>
     <use xlink:href="#DejaVuSans-69" x="96.626953"/>
     <use xlink:href="#DejaVuSans-6e" x="124.410156"/>
     <use xlink:href="#DejaVuSans-74" x="187.789062"/>
     <use xlink:href="#DejaVuSans-65" x="226.998047"/>
     <use xlink:href="#DejaVuSans-72" x="288.521484"/>
     <use xlink:href="#DejaVuSans-20" x="329.634766"/>
     <use xlink:href="#DejaVuSans-42" x="361.421875"/>
     <use xlink:href="#DejaVuSans-61" x="430.025391"/>
     <use xlink:href="#DejaVuSans-73" x="491.304688"/>
     <use xlink:href="#DejaVuSans-65" x="543.404297"/>
     <use xlink:href="#DejaVuSans-6c" x="604.927734"/>
     <use xlink:href="#DejaVuSans-69" x="632.710938"/>
     <use xlink:href="#DejaVuSans-6e" x="660.494141"/>
     <use xlink:href="#DejaVuSans-65" x="723.873047"/>
     <use xlink:href="#DejaVuSans-20" x="785.396484"/>
     <use xlink:href="#DejaVuSans-66" x="817.183594"/>
     <use xlink:href="#DejaVuSans-6f" x="852.388672"/>
     <use xlink:href="#DejaVuSans-72" x="913.570312"/>
     <use xlink:href="#DejaVuSans-20" x="954.683594"/>
     <use xlink:href="#DejaVuSans-50" x="986.470703"/>
     <use xlink:href="#DejaVuSans-65" x="1043.148438"/>
     <use xlink:href="#DejaVuSans-61" x="1104.671875"/>
     <use xlink:href="#DejaVuSans-6b" x="1165.951172"/>
     <use xlink:href="#DejaVuSans-20" x="1223.861328"/>
     <use xlink:href="#DejaVuSans-45" x="1255.648438"/>
     <use xlink:href="#DejaVuSans-6c" x="1318.832031"/>
     <use xlink:href="#DejaVuSans-65" x="1346.615234"/>
     <use xlink:href="#DejaVuSans-63" x="1408.138672"/>
     <use xlink:href="#DejaVuSans-74" x="1463.119141"/>
     <use xlink:href="#DejaVuSans-72" x="1502.328125"/>
     <use xlink:href="#DejaVuSans-69" x="1543.441406"/>
     <use xlink:href="#DejaVuSans-63" x="1571.224609"/>
     <use xlink:href="#DejaVuSans-69" x="1626.205078"/>
     <use xlink:href="#DejaVuSans-74" x="1653.988281"/>
     <use xlink:href="#DejaVuSans-79" x="1693.197266"/>
     <use xlink:href="#DejaVuSans-20" x="1752.376953"/>
     <use xlink:href="#DejaVuSans-44" x="1784.164062"/>
     <use xlink:href="#DejaVuSans-61" x="1861.166016"/>
     <use xlink:href="#DejaVuSans-79" x="1922.445312"/>
    </g>
   </g>
   <g id="legend_1">
    <g id="patch_42">
     <path d="M 593.351562 118.386875 
L 696.840625 118.386875 
Q 698.840625 118.386875 698.840625 116.386875 
L 698.840625 29.318125 
Q 698.840625 27.318125 696.840625 27.318125 
L 593.351562 27.318125 
Q 591.351562 27.318125 591.351562 29.318125 
L 591.351562 116.386875 
Q 591.351562 118.386875 593.351562 118.386875 
z
" style="fill: #ffffff; opacity: 0.8; stroke: #cccccc; stroke-linejoin: miter"/>
    </g>
    <g id="text_17">
     <!-- Upgrade Type -->
     <g transform="translate(610.646094 38.916562) scale(0.1 -0.1)">
      <defs>
       <path id="DejaVuSans-67" d="M 2906 1791 
Q 2906 2416 2648 2759 
Q 2391 3103 1925 3103 
Q 1463 3103 1205 2759 
Q 947 2416 947 1791 
Q 947 1169 1205 825 
Q 1463 481 1925 481 
Q 2391 481 2648 825 
Q 2906 1169 2906 1791 
z
M 3481 434 
Q 3481 -459 3084 -895 
Q 2688 -1331 1869 -1331 
Q 1566 -1331 1297 -1286 
Q 1028 -1241 775 -1147 
L 775 -588 
Q 1028 -725 1275 -790 
Q 1522 -856 1778 -856 
Q 2344 -856 2625 -561 
Q 2906 -266 2906 331 
L 2906 616 
Q 2728 306 2450 153 
Q 2172 0 1784 0 
Q 1141 0 747 490 
Q 353 981 353 1791 
Q 353 2603 747 3093 
Q 1141 3584 1784 3584 
Q 2172 3584 2450 3431 
Q 2728 3278 2906 2969 
L 2906 3500 
L 3481 3500 
L 3481 434 
z
" transform="scale(0.015625)"/>
       <path id="DejaVuSans-54" d="M -19 4666 
L 3928 4666 
L 3928 4134 
L 2272 4134 
L 2272 0 
L 1638 0 
L 1638 4134 
L -19 4134 
L -19 4666 
z
" transform="scale(0.015625)"/>
      </defs>
      <use xlink:href="#DejaVuSans-55"/>
      <use xlink:href="#DejaVuSans-70" x="73.193359"/>
      <use xlink:href="#DejaVuSans-67" x="136.669922"/>
      <use xlink:href="#DejaVuSans-72" x="200.146484"/>
      <use xlink:href="#DejaVuSans-61" x="241.259766"/>
      <use xlink:href="#DejaVuSans-64" x="302.539062"/>
      <use xlink:href="#DejaVuSans-65" x="366.015625"/>
      <use xlink:href="#DejaVuSans-20" x="427.539062"/>
      <use xlink:href="#DejaVuSans-54" x="459.326172"/>
      <use xlink:href="#DejaVuSans-79" x="504.785156"/>
      <use xlink:href="#DejaVuSans-70" x="563.964844"/>
      <use xlink:href="#DejaVuSans-65" x="627.441406"/>
     </g>
    </g>
    <g id="patch_43">
     <path d="M 595.351562 53.594688 
L 615.351562 53.594688 
L 615.351562 46.594688 
L 595.351562 46.594688 
z
" style="fill: #808080; stroke: #262626; stroke-linejoin: miter"/>
    </g>
    <g id="text_18">
     <!-- Baseline -->
     <g transform="translate(623.351562 53.594688) scale(0.1 -0.1)">
      <use xlink:href="#DejaVuSans-42"/>
      <use xlink:href="#DejaVuSans-61" x="68.603516"/>
      <use xlink:href="#DejaVuSans-73" x="129.882812"/>
      <use xlink:href="#DejaVuSans-65" x="181.982422"/>
      <use xlink:href="#DejaVuSans-6c" x="243.505859"/>
      <use xlink:href="#DejaVuSans-69" x="271.289062"/>
      <use xlink:href="#DejaVuSans-6e" x="299.072266"/>
      <use xlink:href="#DejaVuSans-65" x="362.451172"/>
     </g>
    </g>
    <g id="patch_44">
     <path d="M 595.351562 68.272813 
L 615.351562 68.272813 
L 615.351562 61.272813 
L 595.351562 61.272813 
z
" style="fill: #963939; stroke: #262626; stroke-linejoin: miter"/>
    </g>
    <g id="text_19">
     <!-- ASHP -->
     <g transform="translate(623.351562 68.272813) scale(0.1 -0.1)">
      <use xlink:href="#DejaVuSans-41"/>
      <use xlink:href="#DejaVuSans-53" x="68.408203"/>
      <use xlink:href="#DejaVuSans-48" x="131.884766"/>
      <use xlink:href="#DejaVuSans-50" x="207.080078"/>
     </g>
    </g>
    <g id="patch_45">
     <path d="M 595.351562 82.950938 
L 615.351562 82.950938 
L 615.351562 75.950938 
L 595.351562 75.950938 
z
" style="fill: #f7c8d0; stroke: #262626; stroke-linejoin: miter"/>
    </g>
    <g id="text_20">
     <!-- MSHP -->
     <g transform="translate(623.351562 82.950938) scale(0.1 -0.1)">
      <defs>
       <path id="DejaVuSans-4d" d="M 628 4666 
L 1569 4666 
L 2759 1491 
L 3956 4666 
L 4897 4666 
L 4897 0 
L 4281 0 
L 4281 4097 
L 3078 897 
L 2444 897 
L 1241 4097 
L 1241 0 
L 628 0 
L 628 4666 
z
" transform="scale(0.015625)"/>
      </defs>
      <use xlink:href="#DejaVuSans-4d"/>
      <use xlink:href="#DejaVuSans-53" x="86.279297"/>
      <use xlink:href="#DejaVuSans-48" x="149.755859"/>
      <use xlink:href="#DejaVuSans-50" x="224.951172"/>
     </g>
    </g>
    <g id="patch_46">
     <path d="M 595.351562 97.629063 
L 615.351562 97.629063 
L 615.351562 90.629063 
L 595.351562 90.629063 
z
" style="fill: #20dfdf; stroke: #262626; stroke-linejoin: miter"/>
    </g>
    <g id="text_21">
     <!-- GSHP -->
     <g transform="translate(623.351562 97.629063) scale(0.1 -0.1)">
      <defs>
       <path id="DejaVuSans-47" d="M 3809 666 
L 3809 1919 
L 2778 1919 
L 2778 2438 
L 4434 2438 
L 4434 434 
Q 4069 175 3628 42 
Q 3188 -91 2688 -91 
Q 1594 -91 976 548 
Q 359 1188 359 2328 
Q 359 3472 976 4111 
Q 1594 4750 2688 4750 
Q 3144 4750 3555 4637 
Q 3966 4525 4313 4306 
L 4313 3634 
Q 3963 3931 3569 4081 
Q 3175 4231 2741 4231 
Q 1884 4231 1454 3753 
Q 1025 3275 1025 2328 
Q 1025 1384 1454 906 
Q 1884 428 2741 428 
Q 3075 428 3337 486 
Q 3600 544 3809 666 
z
" transform="scale(0.015625)"/>
      </defs>
      <use xlink:href="#DejaVuSans-47"/>
      <use xlink:href="#DejaVuSans-53" x="77.490234"/>
      <use xlink:href="#DejaVuSans-48" x="140.966797"/>
      <use xlink:href="#DejaVuSans-50" x="216.162109"/>
     </g>
    </g>
    <g id="patch_47">
     <path d="M 595.351562 112.307187 
L 615.351562 112.307187 
L 615.351562 105.307187 
L 595.351562 105.307187 
z
" style="fill: #707010; stroke: #262626; stroke-linejoin: miter"/>
    </g>
    <g id="text_22">
     <!-- MSHPwoDucts -->
     <g transform="translate(623.351562 112.307187) scale(0.1 -0.1)">
      <defs>
       <path id="DejaVuSans-77" d="M 269 3500 
L 844 3500 
L 1563 769 
L 2278 3500 
L 2956 3500 
L 3675 769 
L 4391 3500 
L 4966 3500 
L 4050 0 
L 3372 0 
L 2619 2869 
L 1863 0 
L 1184 0 
L 269 3500 
z
" transform="scale(0.015625)"/>
      </defs>
      <use xlink:href="#DejaVuSans-4d"/>
      <use xlink:href="#DejaVuSans-53" x="86.279297"/>
      <use xlink:href="#DejaVuSans-48" x="149.755859"/>
      <use xlink:href="#DejaVuSans-50" x="224.951172"/>
      <use xlink:href="#DejaVuSans-77" x="285.253906"/>
      <use xlink:href="#DejaVuSans-6f" x="367.041016"/>
      <use xlink:href="#DejaVuSans-44" x="428.222656"/>
      <use xlink:href="#DejaVuSans-75" x="505.224609"/>
      <use xlink:href="#DejaVuSans-63" x="568.603516"/>
      <use xlink:href="#DejaVuSans-74" x="623.583984"/>
      <use xlink:href="#DejaVuSans-73" x="662.792969"/>
     </g>
    </g>
   </g>
  </g>
 </g>
 <defs>
  <clipPath id="p5f2394c9d3">
   <rect x="34.240625" y="22.318125" width="669.6" height="332.64"/>
  </clipPath>
 </defs>
</svg>
