<?xml version="1.0" encoding="utf-8" standalone="no"?>
<!DOCTYPE svg PUBLIC "-//W3C//DTD SVG 1.1//EN"
  "http://www.w3.org/Graphics/SVG/1.1/DTD/svg11.dtd">
<svg xmlns:xlink="http://www.w3.org/1999/xlink" width="453.233125pt" height="375.766125pt" viewBox="0 0 453.233125 375.766125" xmlns="http://www.w3.org/2000/svg" version="1.1">
 <metadata>
  <rdf:RDF xmlns:dc="http://purl.org/dc/elements/1.1/" xmlns:cc="http://creativecommons.org/ns#" xmlns:rdf="http://www.w3.org/1999/02/22-rdf-syntax-ns#">
   <cc:Work>
    <dc:type rdf:resource="http://purl.org/dc/dcmitype/StillImage"/>
    <dc:date>2024-09-13T17:15:05.828694</dc:date>
    <dc:format>image/svg+xml</dc:format>
    <dc:creator>
     <cc:Agent>
      <dc:title>Matplotlib v3.9.1, https://matplotlib.org/</dc:title>
     </cc:Agent>
    </dc:creator>
   </cc:Work>
  </rdf:RDF>
 </metadata>
 <defs>
  <style type="text/css">*{stroke-linejoin: round; stroke-linecap: butt}</style>
 </defs>
 <g id="figure_1">
  <g id="patch_1">
   <path d="M 0 375.766125 
L 453.233125 375.766125 
L 453.233125 -0 
L 0 -0 
z
" style="fill: #ffffff"/>
  </g>
  <g id="axes_1">
   <g id="patch_2">
    <path d="M 40.603125 165.488 
L 216.308125 165.488 
L 216.308125 50.928 
L 40.603125 50.928 
z
" style="fill: #ffffff"/>
   </g>
   <g id="patch_3">
    <path d="M 42.433385 165.488 
L 46.093906 165.488 
L 46.093906 76.611849 
L 42.433385 76.611849 
z
" clip-path="url(#p958533f88b)" style="fill: #1f77b4"/>
   </g>
   <g id="patch_4">
    <path d="M 49.754427 165.488 
L 53.414948 165.488 
L 53.414948 85.972745 
L 49.754427 85.972745 
z
" clip-path="url(#p958533f88b)" style="fill: #1f77b4"/>
   </g>
   <g id="patch_5">
    <path d="M 57.075469 165.488 
L 60.73599 165.488 
L 60.73599 76.696208 
L 57.075469 76.696208 
z
" clip-path="url(#p958533f88b)" style="fill: #1f77b4"/>
   </g>
   <g id="patch_6">
    <path d="M 64.39651 165.488 
L 68.057031 165.488 
L 68.057031 83.255816 
L 64.39651 83.255816 
z
" clip-path="url(#p958533f88b)" style="fill: #1f77b4"/>
   </g>
   <g id="patch_7">
    <path d="M 71.717552 165.488 
L 75.378073 165.488 
L 75.378073 79.197877 
L 71.717552 79.197877 
z
" clip-path="url(#p958533f88b)" style="fill: #1f77b4"/>
   </g>
   <g id="patch_8">
    <path d="M 79.038594 165.488 
L 82.699115 165.488 
L 82.699115 73.929827 
L 79.038594 73.929827 
z
" clip-path="url(#p958533f88b)" style="fill: #1f77b4"/>
   </g>
   <g id="patch_9">
    <path d="M 86.359635 165.488 
L 90.020156 165.488 
L 90.020156 74.092727 
L 86.359635 74.092727 
z
" clip-path="url(#p958533f88b)" style="fill: #1f77b4"/>
   </g>
   <g id="patch_10">
    <path d="M 93.680677 165.488 
L 97.341198 165.488 
L 97.341198 56.383238 
L 93.680677 56.383238 
z
" clip-path="url(#p958533f88b)" style="fill: #1f77b4"/>
   </g>
   <g id="patch_11">
    <path d="M 101.001719 165.488 
L 104.66224 165.488 
L 104.66224 63.070839 
L 101.001719 63.070839 
z
" clip-path="url(#p958533f88b)" style="fill: #1f77b4"/>
   </g>
   <g id="patch_12">
    <path d="M 108.32276 165.488 
L 111.983281 165.488 
L 111.983281 85.536407 
L 108.32276 85.536407 
z
" clip-path="url(#p958533f88b)" style="fill: #1f77b4"/>
   </g>
   <g id="patch_13">
    <path d="M 115.643802 165.488 
L 119.304323 165.488 
L 119.304323 90.737552 
L 115.643802 90.737552 
z
" clip-path="url(#p958533f88b)" style="fill: #1f77b4"/>
   </g>
   <g id="patch_14">
    <path d="M 122.964844 165.488 
L 126.625365 165.488 
L 126.625365 91.787671 
L 122.964844 91.787671 
z
" clip-path="url(#p958533f88b)" style="fill: #1f77b4"/>
   </g>
   <g id="patch_15">
    <path d="M 130.285885 165.488 
L 133.946406 165.488 
L 133.946406 88.131162 
L 130.285885 88.131162 
z
" clip-path="url(#p958533f88b)" style="fill: #1f77b4"/>
   </g>
   <g id="patch_16">
    <path d="M 137.606927 165.488 
L 141.267448 165.488 
L 141.267448 99.030875 
L 137.606927 99.030875 
z
" clip-path="url(#p958533f88b)" style="fill: #1f77b4"/>
   </g>
   <g id="patch_17">
    <path d="M 144.927969 165.488 
L 148.58849 165.488 
L 148.58849 99.382854 
L 144.927969 99.382854 
z
" clip-path="url(#p958533f88b)" style="fill: #1f77b4"/>
   </g>
   <g id="patch_18">
    <path d="M 152.24901 165.488 
L 155.909531 165.488 
L 155.909531 100.511514 
L 152.24901 100.511514 
z
" clip-path="url(#p958533f88b)" style="fill: #1f77b4"/>
   </g>
   <g id="patch_19">
    <path d="M 159.570052 165.488 
L 163.230573 165.488 
L 163.230573 108.033974 
L 159.570052 108.033974 
z
" clip-path="url(#p958533f88b)" style="fill: #1f77b4"/>
   </g>
   <g id="patch_20">
    <path d="M 166.891094 165.488 
L 170.551615 165.488 
L 170.551615 99.717379 
L 166.891094 99.717379 
z
" clip-path="url(#p958533f88b)" style="fill: #1f77b4"/>
   </g>
   <g id="patch_21">
    <path d="M 174.212135 165.488 
L 177.872656 165.488 
L 177.872656 106.242081 
L 174.212135 106.242081 
z
" clip-path="url(#p958533f88b)" style="fill: #1f77b4"/>
   </g>
   <g id="patch_22">
    <path d="M 181.533177 165.488 
L 185.193698 165.488 
L 185.193698 110.817808 
L 181.533177 110.817808 
z
" clip-path="url(#p958533f88b)" style="fill: #1f77b4"/>
   </g>
   <g id="patch_23">
    <path d="M 188.854219 165.488 
L 192.51474 165.488 
L 192.51474 109.840412 
L 188.854219 109.840412 
z
" clip-path="url(#p958533f88b)" style="fill: #1f77b4"/>
   </g>
   <g id="patch_24">
    <path d="M 196.17526 165.488 
L 199.835781 165.488 
L 199.835781 91.712039 
L 196.17526 91.712039 
z
" clip-path="url(#p958533f88b)" style="fill: #1f77b4"/>
   </g>
   <g id="patch_25">
    <path d="M 203.496302 165.488 
L 207.156823 165.488 
L 207.156823 96.767737 
L 203.496302 96.767737 
z
" clip-path="url(#p958533f88b)" style="fill: #1f77b4"/>
   </g>
   <g id="patch_26">
    <path d="M 210.817344 165.488 
L 214.477865 165.488 
L 214.477865 91.508415 
L 210.817344 91.508415 
z
" clip-path="url(#p958533f88b)" style="fill: #1f77b4"/>
   </g>
   <g id="matplotlib.axis_1">
    <g id="text_1">
     <!-- Time of Day -->
     <g transform="translate(98.350938 177.086437) scale(0.1 -0.1)">
      <defs>
       <path id="DejaVuSans-54" d="M -19 4666 
L 3928 4666 
L 3928 4134 
L 2272 4134 
L 2272 0 
L 1638 0 
L 1638 4134 
L -19 4134 
L -19 4666 
z
" transform="scale(0.015625)"/>
       <path id="DejaVuSans-69" d="M 603 3500 
L 1178 3500 
L 1178 0 
L 603 0 
L 603 3500 
z
M 603 4863 
L 1178 4863 
L 1178 4134 
L 603 4134 
L 603 4863 
z
" transform="scale(0.015625)"/>
       <path id="DejaVuSans-6d" d="M 3328 2828 
Q 3544 3216 3844 3400 
Q 4144 3584 4550 3584 
Q 5097 3584 5394 3201 
Q 5691 2819 5691 2113 
L 5691 0 
L 5113 0 
L 5113 2094 
Q 5113 2597 4934 2840 
Q 4756 3084 4391 3084 
Q 3944 3084 3684 2787 
Q 3425 2491 3425 1978 
L 3425 0 
L 2847 0 
L 2847 2094 
Q 2847 2600 2669 2842 
Q 2491 3084 2119 3084 
Q 1678 3084 1418 2786 
Q 1159 2488 1159 1978 
L 1159 0 
L 581 0 
L 581 3500 
L 1159 3500 
L 1159 2956 
Q 1356 3278 1631 3431 
Q 1906 3584 2284 3584 
Q 2666 3584 2933 3390 
Q 3200 3197 3328 2828 
z
" transform="scale(0.015625)"/>
       <path id="DejaVuSans-65" d="M 3597 1894 
L 3597 1613 
L 953 1613 
Q 991 1019 1311 708 
Q 1631 397 2203 397 
Q 2534 397 2845 478 
Q 3156 559 3463 722 
L 3463 178 
Q 3153 47 2828 -22 
Q 2503 -91 2169 -91 
Q 1331 -91 842 396 
Q 353 884 353 1716 
Q 353 2575 817 3079 
Q 1281 3584 2069 3584 
Q 2775 3584 3186 3129 
Q 3597 2675 3597 1894 
z
M 3022 2063 
Q 3016 2534 2758 2815 
Q 2500 3097 2075 3097 
Q 1594 3097 1305 2825 
Q 1016 2553 972 2059 
L 3022 2063 
z
" transform="scale(0.015625)"/>
       <path id="DejaVuSans-20" transform="scale(0.015625)"/>
       <path id="DejaVuSans-6f" d="M 1959 3097 
Q 1497 3097 1228 2736 
Q 959 2375 959 1747 
Q 959 1119 1226 758 
Q 1494 397 1959 397 
Q 2419 397 2687 759 
Q 2956 1122 2956 1747 
Q 2956 2369 2687 2733 
Q 2419 3097 1959 3097 
z
M 1959 3584 
Q 2709 3584 3137 3096 
Q 3566 2609 3566 1747 
Q 3566 888 3137 398 
Q 2709 -91 1959 -91 
Q 1206 -91 779 398 
Q 353 888 353 1747 
Q 353 2609 779 3096 
Q 1206 3584 1959 3584 
z
" transform="scale(0.015625)"/>
       <path id="DejaVuSans-66" d="M 2375 4863 
L 2375 4384 
L 1825 4384 
Q 1516 4384 1395 4259 
Q 1275 4134 1275 3809 
L 1275 3500 
L 2222 3500 
L 2222 3053 
L 1275 3053 
L 1275 0 
L 697 0 
L 697 3053 
L 147 3053 
L 147 3500 
L 697 3500 
L 697 3744 
Q 697 4328 969 4595 
Q 1241 4863 1831 4863 
L 2375 4863 
z
" transform="scale(0.015625)"/>
       <path id="DejaVuSans-44" d="M 1259 4147 
L 1259 519 
L 2022 519 
Q 2988 519 3436 956 
Q 3884 1394 3884 2338 
Q 3884 3275 3436 3711 
Q 2988 4147 2022 4147 
L 1259 4147 
z
M 628 4666 
L 1925 4666 
Q 3281 4666 3915 4102 
Q 4550 3538 4550 2338 
Q 4550 1131 3912 565 
Q 3275 0 1925 0 
L 628 0 
L 628 4666 
z
" transform="scale(0.015625)"/>
       <path id="DejaVuSans-61" d="M 2194 1759 
Q 1497 1759 1228 1600 
Q 959 1441 959 1056 
Q 959 750 1161 570 
Q 1363 391 1709 391 
Q 2188 391 2477 730 
Q 2766 1069 2766 1631 
L 2766 1759 
L 2194 1759 
z
M 3341 1997 
L 3341 0 
L 2766 0 
L 2766 531 
Q 2569 213 2275 61 
Q 1981 -91 1556 -91 
Q 1019 -91 701 211 
Q 384 513 384 1019 
Q 384 1609 779 1909 
Q 1175 2209 1959 2209 
L 2766 2209 
L 2766 2266 
Q 2766 2663 2505 2880 
Q 2244 3097 1772 3097 
Q 1472 3097 1187 3025 
Q 903 2953 641 2809 
L 641 3341 
Q 956 3463 1253 3523 
Q 1550 3584 1831 3584 
Q 2591 3584 2966 3190 
Q 3341 2797 3341 1997 
z
" transform="scale(0.015625)"/>
       <path id="DejaVuSans-79" d="M 2059 -325 
Q 1816 -950 1584 -1140 
Q 1353 -1331 966 -1331 
L 506 -1331 
L 506 -850 
L 844 -850 
Q 1081 -850 1212 -737 
Q 1344 -625 1503 -206 
L 1606 56 
L 191 3500 
L 800 3500 
L 1894 763 
L 2988 3500 
L 3597 3500 
L 2059 -325 
z
" transform="scale(0.015625)"/>
      </defs>
      <use xlink:href="#DejaVuSans-54"/>
      <use xlink:href="#DejaVuSans-69" x="57.958984"/>
      <use xlink:href="#DejaVuSans-6d" x="85.742188"/>
      <use xlink:href="#DejaVuSans-65" x="183.154297"/>
      <use xlink:href="#DejaVuSans-20" x="244.677734"/>
      <use xlink:href="#DejaVuSans-6f" x="276.464844"/>
      <use xlink:href="#DejaVuSans-66" x="337.646484"/>
      <use xlink:href="#DejaVuSans-20" x="372.851562"/>
      <use xlink:href="#DejaVuSans-44" x="404.638672"/>
      <use xlink:href="#DejaVuSans-61" x="481.640625"/>
      <use xlink:href="#DejaVuSans-79" x="542.919922"/>
     </g>
    </g>
   </g>
   <g id="matplotlib.axis_2">
    <g id="ytick_1">
     <g id="line2d_1">
      <defs>
       <path id="ma38c50269e" d="M 0 0 
L -3.5 0 
" style="stroke: #000000; stroke-width: 0.8"/>
      </defs>
      <g>
       <use xlink:href="#ma38c50269e" x="40.603125" y="165.488" style="stroke: #000000; stroke-width: 0.8"/>
      </g>
     </g>
     <g id="text_2">
      <!-- 0 -->
      <g transform="translate(27.240625 169.287219) scale(0.1 -0.1)">
       <defs>
        <path id="DejaVuSans-30" d="M 2034 4250 
Q 1547 4250 1301 3770 
Q 1056 3291 1056 2328 
Q 1056 1369 1301 889 
Q 1547 409 2034 409 
Q 2525 409 2770 889 
Q 3016 1369 3016 2328 
Q 3016 3291 2770 3770 
Q 2525 4250 2034 4250 
z
M 2034 4750 
Q 2819 4750 3233 4129 
Q 3647 3509 3647 2328 
Q 3647 1150 3233 529 
Q 2819 -91 2034 -91 
Q 1250 -91 836 529 
Q 422 1150 422 2328 
Q 422 3509 836 4129 
Q 1250 4750 2034 4750 
z
" transform="scale(0.015625)"/>
       </defs>
       <use xlink:href="#DejaVuSans-30"/>
      </g>
     </g>
    </g>
    <g id="ytick_2">
     <g id="line2d_2">
      <g>
       <use xlink:href="#ma38c50269e" x="40.603125" y="136.398827" style="stroke: #000000; stroke-width: 0.8"/>
      </g>
     </g>
     <g id="text_3">
      <!-- 10 -->
      <g transform="translate(20.878125 140.198046) scale(0.1 -0.1)">
       <defs>
        <path id="DejaVuSans-31" d="M 794 531 
L 1825 531 
L 1825 4091 
L 703 3866 
L 703 4441 
L 1819 4666 
L 2450 4666 
L 2450 531 
L 3481 531 
L 3481 0 
L 794 0 
L 794 531 
z
" transform="scale(0.015625)"/>
       </defs>
       <use xlink:href="#DejaVuSans-31"/>
       <use xlink:href="#DejaVuSans-30" x="63.623047"/>
      </g>
     </g>
    </g>
    <g id="ytick_3">
     <g id="line2d_3">
      <g>
       <use xlink:href="#ma38c50269e" x="40.603125" y="107.309654" style="stroke: #000000; stroke-width: 0.8"/>
      </g>
     </g>
     <g id="text_4">
      <!-- 20 -->
      <g transform="translate(20.878125 111.108872) scale(0.1 -0.1)">
       <defs>
        <path id="DejaVuSans-32" d="M 1228 531 
L 3431 531 
L 3431 0 
L 469 0 
L 469 531 
Q 828 903 1448 1529 
Q 2069 2156 2228 2338 
Q 2531 2678 2651 2914 
Q 2772 3150 2772 3378 
Q 2772 3750 2511 3984 
Q 2250 4219 1831 4219 
Q 1534 4219 1204 4116 
Q 875 4013 500 3803 
L 500 4441 
Q 881 4594 1212 4672 
Q 1544 4750 1819 4750 
Q 2544 4750 2975 4387 
Q 3406 4025 3406 3419 
Q 3406 3131 3298 2873 
Q 3191 2616 2906 2266 
Q 2828 2175 2409 1742 
Q 1991 1309 1228 531 
z
" transform="scale(0.015625)"/>
       </defs>
       <use xlink:href="#DejaVuSans-32"/>
       <use xlink:href="#DejaVuSans-30" x="63.623047"/>
      </g>
     </g>
    </g>
    <g id="ytick_4">
     <g id="line2d_4">
      <g>
       <use xlink:href="#ma38c50269e" x="40.603125" y="78.22048" style="stroke: #000000; stroke-width: 0.8"/>
      </g>
     </g>
     <g id="text_5">
      <!-- 30 -->
      <g transform="translate(20.878125 82.019699) scale(0.1 -0.1)">
       <defs>
        <path id="DejaVuSans-33" d="M 2597 2516 
Q 3050 2419 3304 2112 
Q 3559 1806 3559 1356 
Q 3559 666 3084 287 
Q 2609 -91 1734 -91 
Q 1441 -91 1130 -33 
Q 819 25 488 141 
L 488 750 
Q 750 597 1062 519 
Q 1375 441 1716 441 
Q 2309 441 2620 675 
Q 2931 909 2931 1356 
Q 2931 1769 2642 2001 
Q 2353 2234 1838 2234 
L 1294 2234 
L 1294 2753 
L 1863 2753 
Q 2328 2753 2575 2939 
Q 2822 3125 2822 3475 
Q 2822 3834 2567 4026 
Q 2313 4219 1838 4219 
Q 1578 4219 1281 4162 
Q 984 4106 628 3988 
L 628 4550 
Q 988 4650 1302 4700 
Q 1616 4750 1894 4750 
Q 2613 4750 3031 4423 
Q 3450 4097 3450 3541 
Q 3450 3153 3228 2886 
Q 3006 2619 2597 2516 
z
" transform="scale(0.015625)"/>
       </defs>
       <use xlink:href="#DejaVuSans-33"/>
       <use xlink:href="#DejaVuSans-30" x="63.623047"/>
      </g>
     </g>
    </g>
    <g id="text_6">
     <!-- Natural Gas Usage (kWh) -->
     <g transform="translate(14.798438 171.448625) rotate(-90) scale(0.1 -0.1)">
      <defs>
       <path id="DejaVuSans-4e" d="M 628 4666 
L 1478 4666 
L 3547 763 
L 3547 4666 
L 4159 4666 
L 4159 0 
L 3309 0 
L 1241 3903 
L 1241 0 
L 628 0 
L 628 4666 
z
" transform="scale(0.015625)"/>
       <path id="DejaVuSans-74" d="M 1172 4494 
L 1172 3500 
L 2356 3500 
L 2356 3053 
L 1172 3053 
L 1172 1153 
Q 1172 725 1289 603 
Q 1406 481 1766 481 
L 2356 481 
L 2356 0 
L 1766 0 
Q 1100 0 847 248 
Q 594 497 594 1153 
L 594 3053 
L 172 3053 
L 172 3500 
L 594 3500 
L 594 4494 
L 1172 4494 
z
" transform="scale(0.015625)"/>
       <path id="DejaVuSans-75" d="M 544 1381 
L 544 3500 
L 1119 3500 
L 1119 1403 
Q 1119 906 1312 657 
Q 1506 409 1894 409 
Q 2359 409 2629 706 
Q 2900 1003 2900 1516 
L 2900 3500 
L 3475 3500 
L 3475 0 
L 2900 0 
L 2900 538 
Q 2691 219 2414 64 
Q 2138 -91 1772 -91 
Q 1169 -91 856 284 
Q 544 659 544 1381 
z
M 1991 3584 
L 1991 3584 
z
" transform="scale(0.015625)"/>
       <path id="DejaVuSans-72" d="M 2631 2963 
Q 2534 3019 2420 3045 
Q 2306 3072 2169 3072 
Q 1681 3072 1420 2755 
Q 1159 2438 1159 1844 
L 1159 0 
L 581 0 
L 581 3500 
L 1159 3500 
L 1159 2956 
Q 1341 3275 1631 3429 
Q 1922 3584 2338 3584 
Q 2397 3584 2469 3576 
Q 2541 3569 2628 3553 
L 2631 2963 
z
" transform="scale(0.015625)"/>
       <path id="DejaVuSans-6c" d="M 603 4863 
L 1178 4863 
L 1178 0 
L 603 0 
L 603 4863 
z
" transform="scale(0.015625)"/>
       <path id="DejaVuSans-47" d="M 3809 666 
L 3809 1919 
L 2778 1919 
L 2778 2438 
L 4434 2438 
L 4434 434 
Q 4069 175 3628 42 
Q 3188 -91 2688 -91 
Q 1594 -91 976 548 
Q 359 1188 359 2328 
Q 359 3472 976 4111 
Q 1594 4750 2688 4750 
Q 3144 4750 3555 4637 
Q 3966 4525 4313 4306 
L 4313 3634 
Q 3963 3931 3569 4081 
Q 3175 4231 2741 4231 
Q 1884 4231 1454 3753 
Q 1025 3275 1025 2328 
Q 1025 1384 1454 906 
Q 1884 428 2741 428 
Q 3075 428 3337 486 
Q 3600 544 3809 666 
z
" transform="scale(0.015625)"/>
       <path id="DejaVuSans-73" d="M 2834 3397 
L 2834 2853 
Q 2591 2978 2328 3040 
Q 2066 3103 1784 3103 
Q 1356 3103 1142 2972 
Q 928 2841 928 2578 
Q 928 2378 1081 2264 
Q 1234 2150 1697 2047 
L 1894 2003 
Q 2506 1872 2764 1633 
Q 3022 1394 3022 966 
Q 3022 478 2636 193 
Q 2250 -91 1575 -91 
Q 1294 -91 989 -36 
Q 684 19 347 128 
L 347 722 
Q 666 556 975 473 
Q 1284 391 1588 391 
Q 1994 391 2212 530 
Q 2431 669 2431 922 
Q 2431 1156 2273 1281 
Q 2116 1406 1581 1522 
L 1381 1569 
Q 847 1681 609 1914 
Q 372 2147 372 2553 
Q 372 3047 722 3315 
Q 1072 3584 1716 3584 
Q 2034 3584 2315 3537 
Q 2597 3491 2834 3397 
z
" transform="scale(0.015625)"/>
       <path id="DejaVuSans-55" d="M 556 4666 
L 1191 4666 
L 1191 1831 
Q 1191 1081 1462 751 
Q 1734 422 2344 422 
Q 2950 422 3222 751 
Q 3494 1081 3494 1831 
L 3494 4666 
L 4128 4666 
L 4128 1753 
Q 4128 841 3676 375 
Q 3225 -91 2344 -91 
Q 1459 -91 1007 375 
Q 556 841 556 1753 
L 556 4666 
z
" transform="scale(0.015625)"/>
       <path id="DejaVuSans-67" d="M 2906 1791 
Q 2906 2416 2648 2759 
Q 2391 3103 1925 3103 
Q 1463 3103 1205 2759 
Q 947 2416 947 1791 
Q 947 1169 1205 825 
Q 1463 481 1925 481 
Q 2391 481 2648 825 
Q 2906 1169 2906 1791 
z
M 3481 434 
Q 3481 -459 3084 -895 
Q 2688 -1331 1869 -1331 
Q 1566 -1331 1297 -1286 
Q 1028 -1241 775 -1147 
L 775 -588 
Q 1028 -725 1275 -790 
Q 1522 -856 1778 -856 
Q 2344 -856 2625 -561 
Q 2906 -266 2906 331 
L 2906 616 
Q 2728 306 2450 153 
Q 2172 0 1784 0 
Q 1141 0 747 490 
Q 353 981 353 1791 
Q 353 2603 747 3093 
Q 1141 3584 1784 3584 
Q 2172 3584 2450 3431 
Q 2728 3278 2906 2969 
L 2906 3500 
L 3481 3500 
L 3481 434 
z
" transform="scale(0.015625)"/>
       <path id="DejaVuSans-28" d="M 1984 4856 
Q 1566 4138 1362 3434 
Q 1159 2731 1159 2009 
Q 1159 1288 1364 580 
Q 1569 -128 1984 -844 
L 1484 -844 
Q 1016 -109 783 600 
Q 550 1309 550 2009 
Q 550 2706 781 3412 
Q 1013 4119 1484 4856 
L 1984 4856 
z
" transform="scale(0.015625)"/>
       <path id="DejaVuSans-6b" d="M 581 4863 
L 1159 4863 
L 1159 1991 
L 2875 3500 
L 3609 3500 
L 1753 1863 
L 3688 0 
L 2938 0 
L 1159 1709 
L 1159 0 
L 581 0 
L 581 4863 
z
" transform="scale(0.015625)"/>
       <path id="DejaVuSans-57" d="M 213 4666 
L 850 4666 
L 1831 722 
L 2809 4666 
L 3519 4666 
L 4500 722 
L 5478 4666 
L 6119 4666 
L 4947 0 
L 4153 0 
L 3169 4050 
L 2175 0 
L 1381 0 
L 213 4666 
z
" transform="scale(0.015625)"/>
       <path id="DejaVuSans-68" d="M 3513 2113 
L 3513 0 
L 2938 0 
L 2938 2094 
Q 2938 2591 2744 2837 
Q 2550 3084 2163 3084 
Q 1697 3084 1428 2787 
Q 1159 2491 1159 1978 
L 1159 0 
L 581 0 
L 581 4863 
L 1159 4863 
L 1159 2956 
Q 1366 3272 1645 3428 
Q 1925 3584 2291 3584 
Q 2894 3584 3203 3211 
Q 3513 2838 3513 2113 
z
" transform="scale(0.015625)"/>
       <path id="DejaVuSans-29" d="M 513 4856 
L 1013 4856 
Q 1481 4119 1714 3412 
Q 1947 2706 1947 2009 
Q 1947 1309 1714 600 
Q 1481 -109 1013 -844 
L 513 -844 
Q 928 -128 1133 580 
Q 1338 1288 1338 2009 
Q 1338 2731 1133 3434 
Q 928 4138 513 4856 
z
" transform="scale(0.015625)"/>
      </defs>
      <use xlink:href="#DejaVuSans-4e"/>
      <use xlink:href="#DejaVuSans-61" x="74.804688"/>
      <use xlink:href="#DejaVuSans-74" x="136.083984"/>
      <use xlink:href="#DejaVuSans-75" x="175.292969"/>
      <use xlink:href="#DejaVuSans-72" x="238.671875"/>
      <use xlink:href="#DejaVuSans-61" x="279.785156"/>
      <use xlink:href="#DejaVuSans-6c" x="341.064453"/>
      <use xlink:href="#DejaVuSans-20" x="368.847656"/>
      <use xlink:href="#DejaVuSans-47" x="400.634766"/>
      <use xlink:href="#DejaVuSans-61" x="478.125"/>
      <use xlink:href="#DejaVuSans-73" x="539.404297"/>
      <use xlink:href="#DejaVuSans-20" x="591.503906"/>
      <use xlink:href="#DejaVuSans-55" x="623.291016"/>
      <use xlink:href="#DejaVuSans-73" x="696.484375"/>
      <use xlink:href="#DejaVuSans-61" x="748.583984"/>
      <use xlink:href="#DejaVuSans-67" x="809.863281"/>
      <use xlink:href="#DejaVuSans-65" x="873.339844"/>
      <use xlink:href="#DejaVuSans-20" x="934.863281"/>
      <use xlink:href="#DejaVuSans-28" x="966.650391"/>
      <use xlink:href="#DejaVuSans-6b" x="1005.664062"/>
      <use xlink:href="#DejaVuSans-57" x="1063.574219"/>
      <use xlink:href="#DejaVuSans-68" x="1162.451172"/>
      <use xlink:href="#DejaVuSans-29" x="1225.830078"/>
     </g>
    </g>
   </g>
   <g id="patch_27">
    <path d="M 40.603125 165.488 
L 40.603125 50.928 
" style="fill: none; stroke: #000000; stroke-width: 0.8; stroke-linejoin: miter; stroke-linecap: square"/>
   </g>
   <g id="patch_28">
    <path d="M 216.308125 165.488 
L 216.308125 50.928 
" style="fill: none; stroke: #000000; stroke-width: 0.8; stroke-linejoin: miter; stroke-linecap: square"/>
   </g>
   <g id="patch_29">
    <path d="M 40.603125 165.488 
L 216.308125 165.488 
" style="fill: none; stroke: #000000; stroke-width: 0.8; stroke-linejoin: miter; stroke-linecap: square"/>
   </g>
   <g id="patch_30">
    <path d="M 40.603125 50.928 
L 216.308125 50.928 
" style="fill: none; stroke: #000000; stroke-width: 0.8; stroke-linejoin: miter; stroke-linecap: square"/>
   </g>
   <g id="text_7">
    <!-- Winter -->
    <g transform="translate(108.678125 44.928) scale(0.12 -0.12)">
     <defs>
      <path id="DejaVuSans-6e" d="M 3513 2113 
L 3513 0 
L 2938 0 
L 2938 2094 
Q 2938 2591 2744 2837 
Q 2550 3084 2163 3084 
Q 1697 3084 1428 2787 
Q 1159 2491 1159 1978 
L 1159 0 
L 581 0 
L 581 3500 
L 1159 3500 
L 1159 2956 
Q 1366 3272 1645 3428 
Q 1925 3584 2291 3584 
Q 2894 3584 3203 3211 
Q 3513 2838 3513 2113 
z
" transform="scale(0.015625)"/>
     </defs>
     <use xlink:href="#DejaVuSans-57"/>
     <use xlink:href="#DejaVuSans-69" x="96.626953"/>
     <use xlink:href="#DejaVuSans-6e" x="124.410156"/>
     <use xlink:href="#DejaVuSans-74" x="187.789062"/>
     <use xlink:href="#DejaVuSans-65" x="226.998047"/>
     <use xlink:href="#DejaVuSans-72" x="288.521484"/>
    </g>
   </g>
  </g>
  <g id="axes_2">
   <g id="patch_31">
    <path d="M 270.328125 165.488 
L 446.033125 165.488 
L 446.033125 50.928 
L 270.328125 50.928 
z
" style="fill: #ffffff"/>
   </g>
   <g id="patch_32">
    <path d="M 272.158385 165.488 
L 275.818906 165.488 
L 275.818906 56.383238 
L 272.158385 56.383238 
z
" clip-path="url(#p27bf679a8d)" style="fill: #1f77b4"/>
   </g>
   <g id="patch_33">
    <path d="M 279.479427 165.488 
L 283.139948 165.488 
L 283.139948 79.298303 
L 279.479427 79.298303 
z
" clip-path="url(#p27bf679a8d)" style="fill: #1f77b4"/>
   </g>
   <g id="patch_34">
    <path d="M 286.800469 165.488 
L 290.46099 165.488 
L 290.46099 68.315194 
L 286.800469 68.315194 
z
" clip-path="url(#p27bf679a8d)" style="fill: #1f77b4"/>
   </g>
   <g id="patch_35">
    <path d="M 294.12151 165.488 
L 297.782031 165.488 
L 297.782031 90.936368 
L 294.12151 90.936368 
z
" clip-path="url(#p27bf679a8d)" style="fill: #1f77b4"/>
   </g>
   <g id="patch_36">
    <path d="M 301.442552 165.488 
L 305.103073 165.488 
L 305.103073 90.558509 
L 301.442552 90.558509 
z
" clip-path="url(#p27bf679a8d)" style="fill: #1f77b4"/>
   </g>
   <g id="patch_37">
    <path d="M 308.763594 165.488 
L 312.424115 165.488 
L 312.424115 70.691509 
L 308.763594 70.691509 
z
" clip-path="url(#p27bf679a8d)" style="fill: #1f77b4"/>
   </g>
   <g id="patch_38">
    <path d="M 316.084635 165.488 
L 319.745156 165.488 
L 319.745156 74.373537 
L 316.084635 74.373537 
z
" clip-path="url(#p27bf679a8d)" style="fill: #1f77b4"/>
   </g>
   <g id="patch_39">
    <path d="M 323.405677 165.488 
L 327.066198 165.488 
L 327.066198 80.797145 
L 323.405677 80.797145 
z
" clip-path="url(#p27bf679a8d)" style="fill: #1f77b4"/>
   </g>
   <g id="patch_40">
    <path d="M 330.726719 165.488 
L 334.38724 165.488 
L 334.38724 94.509237 
L 330.726719 94.509237 
z
" clip-path="url(#p27bf679a8d)" style="fill: #1f77b4"/>
   </g>
   <g id="patch_41">
    <path d="M 338.04776 165.488 
L 341.708281 165.488 
L 341.708281 107.60416 
L 338.04776 107.60416 
z
" clip-path="url(#p27bf679a8d)" style="fill: #1f77b4"/>
   </g>
   <g id="patch_42">
    <path d="M 345.368802 165.488 
L 349.029323 165.488 
L 349.029323 80.465468 
L 345.368802 80.465468 
z
" clip-path="url(#p27bf679a8d)" style="fill: #1f77b4"/>
   </g>
   <g id="patch_43">
    <path d="M 352.689844 165.488 
L 356.350365 165.488 
L 356.350365 106.957601 
L 352.689844 106.957601 
z
" clip-path="url(#p27bf679a8d)" style="fill: #1f77b4"/>
   </g>
   <g id="patch_44">
    <path d="M 360.010885 165.488 
L 363.671406 165.488 
L 363.671406 106.831648 
L 360.010885 106.831648 
z
" clip-path="url(#p27bf679a8d)" style="fill: #1f77b4"/>
   </g>
   <g id="patch_45">
    <path d="M 367.331927 165.488 
L 370.992448 165.488 
L 370.992448 114.720509 
L 367.331927 114.720509 
z
" clip-path="url(#p27bf679a8d)" style="fill: #1f77b4"/>
   </g>
   <g id="patch_46">
    <path d="M 374.652969 165.488 
L 378.31349 165.488 
L 378.31349 100.403842 
L 374.652969 100.403842 
z
" clip-path="url(#p27bf679a8d)" style="fill: #1f77b4"/>
   </g>
   <g id="patch_47">
    <path d="M 381.97401 165.488 
L 385.634531 165.488 
L 385.634531 90.029506 
L 381.97401 90.029506 
z
" clip-path="url(#p27bf679a8d)" style="fill: #1f77b4"/>
   </g>
   <g id="patch_48">
    <path d="M 389.295052 165.488 
L 392.955573 165.488 
L 392.955573 105.886999 
L 389.295052 105.886999 
z
" clip-path="url(#p27bf679a8d)" style="fill: #1f77b4"/>
   </g>
   <g id="patch_49">
    <path d="M 396.616094 165.488 
L 400.276615 165.488 
L 400.276615 119.107875 
L 396.616094 119.107875 
z
" clip-path="url(#p27bf679a8d)" style="fill: #1f77b4"/>
   </g>
   <g id="patch_50">
    <path d="M 403.937135 165.488 
L 407.597656 165.488 
L 407.597656 97.393563 
L 403.937135 97.393563 
z
" clip-path="url(#p27bf679a8d)" style="fill: #1f77b4"/>
   </g>
   <g id="patch_51">
    <path d="M 411.258177 165.488 
L 414.918698 165.488 
L 414.918698 119.292606 
L 411.258177 119.292606 
z
" clip-path="url(#p27bf679a8d)" style="fill: #1f77b4"/>
   </g>
   <g id="patch_52">
    <path d="M 418.579219 165.488 
L 422.23974 165.488 
L 422.23974 87.38869 
L 418.579219 87.38869 
z
" clip-path="url(#p27bf679a8d)" style="fill: #1f77b4"/>
   </g>
   <g id="patch_53">
    <path d="M 425.90026 165.488 
L 429.560781 165.488 
L 429.560781 106.751877 
L 425.90026 106.751877 
z
" clip-path="url(#p27bf679a8d)" style="fill: #1f77b4"/>
   </g>
   <g id="patch_54">
    <path d="M 433.221302 165.488 
L 436.881823 165.488 
L 436.881823 99.064541 
L 433.221302 99.064541 
z
" clip-path="url(#p27bf679a8d)" style="fill: #1f77b4"/>
   </g>
   <g id="patch_55">
    <path d="M 440.542344 165.488 
L 444.202865 165.488 
L 444.202865 87.590214 
L 440.542344 87.590214 
z
" clip-path="url(#p27bf679a8d)" style="fill: #1f77b4"/>
   </g>
   <g id="matplotlib.axis_3">
    <g id="text_8">
     <!-- Time of Day -->
     <g transform="translate(328.075937 177.086437) scale(0.1 -0.1)">
      <use xlink:href="#DejaVuSans-54"/>
      <use xlink:href="#DejaVuSans-69" x="57.958984"/>
      <use xlink:href="#DejaVuSans-6d" x="85.742188"/>
      <use xlink:href="#DejaVuSans-65" x="183.154297"/>
      <use xlink:href="#DejaVuSans-20" x="244.677734"/>
      <use xlink:href="#DejaVuSans-6f" x="276.464844"/>
      <use xlink:href="#DejaVuSans-66" x="337.646484"/>
      <use xlink:href="#DejaVuSans-20" x="372.851562"/>
      <use xlink:href="#DejaVuSans-44" x="404.638672"/>
      <use xlink:href="#DejaVuSans-61" x="481.640625"/>
      <use xlink:href="#DejaVuSans-79" x="542.919922"/>
     </g>
    </g>
   </g>
   <g id="matplotlib.axis_4">
    <g id="ytick_5">
     <g id="line2d_5">
      <g>
       <use xlink:href="#ma38c50269e" x="270.328125" y="165.488" style="stroke: #000000; stroke-width: 0.8"/>
      </g>
     </g>
     <g id="text_9">
      <!-- 0 -->
      <g transform="translate(256.965625 169.287219) scale(0.1 -0.1)">
       <use xlink:href="#DejaVuSans-30"/>
      </g>
     </g>
    </g>
    <g id="ytick_6">
     <g id="line2d_6">
      <g>
       <use xlink:href="#ma38c50269e" x="270.328125" y="123.503638" style="stroke: #000000; stroke-width: 0.8"/>
      </g>
     </g>
     <g id="text_10">
      <!-- 10 -->
      <g transform="translate(250.603125 127.302857) scale(0.1 -0.1)">
       <use xlink:href="#DejaVuSans-31"/>
       <use xlink:href="#DejaVuSans-30" x="63.623047"/>
      </g>
     </g>
    </g>
    <g id="ytick_7">
     <g id="line2d_7">
      <g>
       <use xlink:href="#ma38c50269e" x="270.328125" y="81.519276" style="stroke: #000000; stroke-width: 0.8"/>
      </g>
     </g>
     <g id="text_11">
      <!-- 20 -->
      <g transform="translate(250.603125 85.318494) scale(0.1 -0.1)">
       <use xlink:href="#DejaVuSans-32"/>
       <use xlink:href="#DejaVuSans-30" x="63.623047"/>
      </g>
     </g>
    </g>
    <g id="text_12">
     <!-- Natural Gas Usage (kWh) -->
     <g transform="translate(244.523437 171.448625) rotate(-90) scale(0.1 -0.1)">
      <use xlink:href="#DejaVuSans-4e"/>
      <use xlink:href="#DejaVuSans-61" x="74.804688"/>
      <use xlink:href="#DejaVuSans-74" x="136.083984"/>
      <use xlink:href="#DejaVuSans-75" x="175.292969"/>
      <use xlink:href="#DejaVuSans-72" x="238.671875"/>
      <use xlink:href="#DejaVuSans-61" x="279.785156"/>
      <use xlink:href="#DejaVuSans-6c" x="341.064453"/>
      <use xlink:href="#DejaVuSans-20" x="368.847656"/>
      <use xlink:href="#DejaVuSans-47" x="400.634766"/>
      <use xlink:href="#DejaVuSans-61" x="478.125"/>
      <use xlink:href="#DejaVuSans-73" x="539.404297"/>
      <use xlink:href="#DejaVuSans-20" x="591.503906"/>
      <use xlink:href="#DejaVuSans-55" x="623.291016"/>
      <use xlink:href="#DejaVuSans-73" x="696.484375"/>
      <use xlink:href="#DejaVuSans-61" x="748.583984"/>
      <use xlink:href="#DejaVuSans-67" x="809.863281"/>
      <use xlink:href="#DejaVuSans-65" x="873.339844"/>
      <use xlink:href="#DejaVuSans-20" x="934.863281"/>
      <use xlink:href="#DejaVuSans-28" x="966.650391"/>
      <use xlink:href="#DejaVuSans-6b" x="1005.664062"/>
      <use xlink:href="#DejaVuSans-57" x="1063.574219"/>
      <use xlink:href="#DejaVuSans-68" x="1162.451172"/>
      <use xlink:href="#DejaVuSans-29" x="1225.830078"/>
     </g>
    </g>
   </g>
   <g id="patch_56">
    <path d="M 270.328125 165.488 
L 270.328125 50.928 
" style="fill: none; stroke: #000000; stroke-width: 0.8; stroke-linejoin: miter; stroke-linecap: square"/>
   </g>
   <g id="patch_57">
    <path d="M 446.033125 165.488 
L 446.033125 50.928 
" style="fill: none; stroke: #000000; stroke-width: 0.8; stroke-linejoin: miter; stroke-linecap: square"/>
   </g>
   <g id="patch_58">
    <path d="M 270.328125 165.488 
L 446.033125 165.488 
" style="fill: none; stroke: #000000; stroke-width: 0.8; stroke-linejoin: miter; stroke-linecap: square"/>
   </g>
   <g id="patch_59">
    <path d="M 270.328125 50.928 
L 446.033125 50.928 
" style="fill: none; stroke: #000000; stroke-width: 0.8; stroke-linejoin: miter; stroke-linecap: square"/>
   </g>
   <g id="text_13">
    <!-- Spring -->
    <g transform="translate(338.8175 44.928) scale(0.12 -0.12)">
     <defs>
      <path id="DejaVuSans-53" d="M 3425 4513 
L 3425 3897 
Q 3066 4069 2747 4153 
Q 2428 4238 2131 4238 
Q 1616 4238 1336 4038 
Q 1056 3838 1056 3469 
Q 1056 3159 1242 3001 
Q 1428 2844 1947 2747 
L 2328 2669 
Q 3034 2534 3370 2195 
Q 3706 1856 3706 1288 
Q 3706 609 3251 259 
Q 2797 -91 1919 -91 
Q 1588 -91 1214 -16 
Q 841 59 441 206 
L 441 856 
Q 825 641 1194 531 
Q 1563 422 1919 422 
Q 2459 422 2753 634 
Q 3047 847 3047 1241 
Q 3047 1584 2836 1778 
Q 2625 1972 2144 2069 
L 1759 2144 
Q 1053 2284 737 2584 
Q 422 2884 422 3419 
Q 422 4038 858 4394 
Q 1294 4750 2059 4750 
Q 2388 4750 2728 4690 
Q 3069 4631 3425 4513 
z
" transform="scale(0.015625)"/>
      <path id="DejaVuSans-70" d="M 1159 525 
L 1159 -1331 
L 581 -1331 
L 581 3500 
L 1159 3500 
L 1159 2969 
Q 1341 3281 1617 3432 
Q 1894 3584 2278 3584 
Q 2916 3584 3314 3078 
Q 3713 2572 3713 1747 
Q 3713 922 3314 415 
Q 2916 -91 2278 -91 
Q 1894 -91 1617 61 
Q 1341 213 1159 525 
z
M 3116 1747 
Q 3116 2381 2855 2742 
Q 2594 3103 2138 3103 
Q 1681 3103 1420 2742 
Q 1159 2381 1159 1747 
Q 1159 1113 1420 752 
Q 1681 391 2138 391 
Q 2594 391 2855 752 
Q 3116 1113 3116 1747 
z
" transform="scale(0.015625)"/>
     </defs>
     <use xlink:href="#DejaVuSans-53"/>
     <use xlink:href="#DejaVuSans-70" x="63.476562"/>
     <use xlink:href="#DejaVuSans-72" x="126.953125"/>
     <use xlink:href="#DejaVuSans-69" x="168.066406"/>
     <use xlink:href="#DejaVuSans-6e" x="195.849609"/>
     <use xlink:href="#DejaVuSans-67" x="259.228516"/>
    </g>
   </g>
  </g>
  <g id="axes_3">
   <g id="patch_60">
    <path d="M 40.603125 321.008 
L 216.308125 321.008 
L 216.308125 206.448 
L 40.603125 206.448 
z
" style="fill: #ffffff"/>
   </g>
   <g id="patch_61">
    <path d="M 42.433385 321.008 
L 46.093906 321.008 
L 46.093906 321.008 
L 42.433385 321.008 
z
" clip-path="url(#pacd3e0b18d)" style="fill: #1f77b4"/>
   </g>
   <g id="patch_62">
    <path d="M 49.754427 321.008 
L 53.414948 321.008 
L 53.414948 321.008 
L 49.754427 321.008 
z
" clip-path="url(#pacd3e0b18d)" style="fill: #1f77b4"/>
   </g>
   <g id="patch_63">
    <path d="M 57.075469 321.008 
L 60.73599 321.008 
L 60.73599 270.272041 
L 57.075469 270.272041 
z
" clip-path="url(#pacd3e0b18d)" style="fill: #1f77b4"/>
   </g>
   <g id="patch_64">
    <path d="M 64.39651 321.008 
L 68.057031 321.008 
L 68.057031 321.008 
L 64.39651 321.008 
z
" clip-path="url(#pacd3e0b18d)" style="fill: #1f77b4"/>
   </g>
   <g id="patch_65">
    <path d="M 71.717552 321.008 
L 75.378073 321.008 
L 75.378073 321.008 
L 71.717552 321.008 
z
" clip-path="url(#pacd3e0b18d)" style="fill: #1f77b4"/>
   </g>
   <g id="patch_66">
    <path d="M 79.038594 321.008 
L 82.699115 321.008 
L 82.699115 270.272041 
L 79.038594 270.272041 
z
" clip-path="url(#pacd3e0b18d)" style="fill: #1f77b4"/>
   </g>
   <g id="patch_67">
    <path d="M 86.359635 321.008 
L 90.020156 321.008 
L 90.020156 321.008 
L 86.359635 321.008 
z
" clip-path="url(#pacd3e0b18d)" style="fill: #1f77b4"/>
   </g>
   <g id="patch_68">
    <path d="M 93.680677 321.008 
L 97.341198 321.008 
L 97.341198 321.008 
L 93.680677 321.008 
z
" clip-path="url(#pacd3e0b18d)" style="fill: #1f77b4"/>
   </g>
   <g id="patch_69">
    <path d="M 101.001719 321.008 
L 104.66224 321.008 
L 104.66224 270.272041 
L 101.001719 270.272041 
z
" clip-path="url(#pacd3e0b18d)" style="fill: #1f77b4"/>
   </g>
   <g id="patch_70">
    <path d="M 108.32276 321.008 
L 111.983281 321.008 
L 111.983281 269.063219 
L 108.32276 269.063219 
z
" clip-path="url(#pacd3e0b18d)" style="fill: #1f77b4"/>
   </g>
   <g id="patch_71">
    <path d="M 115.643802 321.008 
L 119.304323 321.008 
L 119.304323 213.802815 
L 115.643802 213.802815 
z
" clip-path="url(#pacd3e0b18d)" style="fill: #1f77b4"/>
   </g>
   <g id="patch_72">
    <path d="M 122.964844 321.008 
L 126.625365 321.008 
L 126.625365 321.008 
L 122.964844 321.008 
z
" clip-path="url(#pacd3e0b18d)" style="fill: #1f77b4"/>
   </g>
   <g id="patch_73">
    <path d="M 130.285885 321.008 
L 133.946406 321.008 
L 133.946406 321.008 
L 130.285885 321.008 
z
" clip-path="url(#pacd3e0b18d)" style="fill: #1f77b4"/>
   </g>
   <g id="patch_74">
    <path d="M 137.606927 321.008 
L 141.267448 321.008 
L 141.267448 270.272041 
L 137.606927 270.272041 
z
" clip-path="url(#pacd3e0b18d)" style="fill: #1f77b4"/>
   </g>
   <g id="patch_75">
    <path d="M 144.927969 321.008 
L 148.58849 321.008 
L 148.58849 268.75238 
L 144.927969 268.75238 
z
" clip-path="url(#pacd3e0b18d)" style="fill: #1f77b4"/>
   </g>
   <g id="patch_76">
    <path d="M 152.24901 321.008 
L 155.909531 321.008 
L 155.909531 212.075927 
L 152.24901 212.075927 
z
" clip-path="url(#pacd3e0b18d)" style="fill: #1f77b4"/>
   </g>
   <g id="patch_77">
    <path d="M 159.570052 321.008 
L 163.230573 321.008 
L 163.230573 269.753974 
L 159.570052 269.753974 
z
" clip-path="url(#pacd3e0b18d)" style="fill: #1f77b4"/>
   </g>
   <g id="patch_78">
    <path d="M 166.891094 321.008 
L 170.551615 321.008 
L 170.551615 321.008 
L 166.891094 321.008 
z
" clip-path="url(#pacd3e0b18d)" style="fill: #1f77b4"/>
   </g>
   <g id="patch_79">
    <path d="M 174.212135 321.008 
L 177.872656 321.008 
L 177.872656 215.322476 
L 174.212135 215.322476 
z
" clip-path="url(#pacd3e0b18d)" style="fill: #1f77b4"/>
   </g>
   <g id="patch_80">
    <path d="M 181.533177 321.008 
L 185.193698 321.008 
L 185.193698 268.717842 
L 181.533177 268.717842 
z
" clip-path="url(#pacd3e0b18d)" style="fill: #1f77b4"/>
   </g>
   <g id="patch_81">
    <path d="M 188.854219 321.008 
L 192.51474 321.008 
L 192.51474 269.235908 
L 188.854219 269.235908 
z
" clip-path="url(#pacd3e0b18d)" style="fill: #1f77b4"/>
   </g>
   <g id="patch_82">
    <path d="M 196.17526 321.008 
L 199.835781 321.008 
L 199.835781 211.903238 
L 196.17526 211.903238 
z
" clip-path="url(#pacd3e0b18d)" style="fill: #1f77b4"/>
   </g>
   <g id="patch_83">
    <path d="M 203.496302 321.008 
L 207.156823 321.008 
L 207.156823 270.272041 
L 203.496302 270.272041 
z
" clip-path="url(#pacd3e0b18d)" style="fill: #1f77b4"/>
   </g>
   <g id="patch_84">
    <path d="M 210.817344 321.008 
L 214.477865 321.008 
L 214.477865 321.008 
L 210.817344 321.008 
z
" clip-path="url(#pacd3e0b18d)" style="fill: #1f77b4"/>
   </g>
   <g id="matplotlib.axis_5">
    <g id="text_14">
     <!-- Time of Day -->
     <g transform="translate(98.350938 332.606438) scale(0.1 -0.1)">
      <use xlink:href="#DejaVuSans-54"/>
      <use xlink:href="#DejaVuSans-69" x="57.958984"/>
      <use xlink:href="#DejaVuSans-6d" x="85.742188"/>
      <use xlink:href="#DejaVuSans-65" x="183.154297"/>
      <use xlink:href="#DejaVuSans-20" x="244.677734"/>
      <use xlink:href="#DejaVuSans-6f" x="276.464844"/>
      <use xlink:href="#DejaVuSans-66" x="337.646484"/>
      <use xlink:href="#DejaVuSans-20" x="372.851562"/>
      <use xlink:href="#DejaVuSans-44" x="404.638672"/>
      <use xlink:href="#DejaVuSans-61" x="481.640625"/>
      <use xlink:href="#DejaVuSans-79" x="542.919922"/>
     </g>
    </g>
   </g>
   <g id="matplotlib.axis_6">
    <g id="ytick_8">
     <g id="line2d_8">
      <g>
       <use xlink:href="#ma38c50269e" x="40.603125" y="321.008" style="stroke: #000000; stroke-width: 0.8"/>
      </g>
     </g>
     <g id="text_15">
      <!-- 0 -->
      <g transform="translate(27.240625 324.807219) scale(0.1 -0.1)">
       <use xlink:href="#DejaVuSans-30"/>
      </g>
     </g>
    </g>
    <g id="ytick_9">
     <g id="line2d_9">
      <g>
       <use xlink:href="#ma38c50269e" x="40.603125" y="286.470247" style="stroke: #000000; stroke-width: 0.8"/>
      </g>
     </g>
     <g id="text_16">
      <!-- 1 -->
      <g transform="translate(27.240625 290.269466) scale(0.1 -0.1)">
       <use xlink:href="#DejaVuSans-31"/>
      </g>
     </g>
    </g>
    <g id="ytick_10">
     <g id="line2d_10">
      <g>
       <use xlink:href="#ma38c50269e" x="40.603125" y="251.932494" style="stroke: #000000; stroke-width: 0.8"/>
      </g>
     </g>
     <g id="text_17">
      <!-- 2 -->
      <g transform="translate(27.240625 255.731713) scale(0.1 -0.1)">
       <use xlink:href="#DejaVuSans-32"/>
      </g>
     </g>
    </g>
    <g id="ytick_11">
     <g id="line2d_11">
      <g>
       <use xlink:href="#ma38c50269e" x="40.603125" y="217.394741" style="stroke: #000000; stroke-width: 0.8"/>
      </g>
     </g>
     <g id="text_18">
      <!-- 3 -->
      <g transform="translate(27.240625 221.19396) scale(0.1 -0.1)">
       <use xlink:href="#DejaVuSans-33"/>
      </g>
     </g>
    </g>
    <g id="text_19">
     <!-- Natural Gas Usage (kWh) -->
     <g transform="translate(21.160938 326.968625) rotate(-90) scale(0.1 -0.1)">
      <use xlink:href="#DejaVuSans-4e"/>
      <use xlink:href="#DejaVuSans-61" x="74.804688"/>
      <use xlink:href="#DejaVuSans-74" x="136.083984"/>
      <use xlink:href="#DejaVuSans-75" x="175.292969"/>
      <use xlink:href="#DejaVuSans-72" x="238.671875"/>
      <use xlink:href="#DejaVuSans-61" x="279.785156"/>
      <use xlink:href="#DejaVuSans-6c" x="341.064453"/>
      <use xlink:href="#DejaVuSans-20" x="368.847656"/>
      <use xlink:href="#DejaVuSans-47" x="400.634766"/>
      <use xlink:href="#DejaVuSans-61" x="478.125"/>
      <use xlink:href="#DejaVuSans-73" x="539.404297"/>
      <use xlink:href="#DejaVuSans-20" x="591.503906"/>
      <use xlink:href="#DejaVuSans-55" x="623.291016"/>
      <use xlink:href="#DejaVuSans-73" x="696.484375"/>
      <use xlink:href="#DejaVuSans-61" x="748.583984"/>
      <use xlink:href="#DejaVuSans-67" x="809.863281"/>
      <use xlink:href="#DejaVuSans-65" x="873.339844"/>
      <use xlink:href="#DejaVuSans-20" x="934.863281"/>
      <use xlink:href="#DejaVuSans-28" x="966.650391"/>
      <use xlink:href="#DejaVuSans-6b" x="1005.664062"/>
      <use xlink:href="#DejaVuSans-57" x="1063.574219"/>
      <use xlink:href="#DejaVuSans-68" x="1162.451172"/>
      <use xlink:href="#DejaVuSans-29" x="1225.830078"/>
     </g>
    </g>
   </g>
   <g id="patch_85">
    <path d="M 40.603125 321.008 
L 40.603125 206.448 
" style="fill: none; stroke: #000000; stroke-width: 0.8; stroke-linejoin: miter; stroke-linecap: square"/>
   </g>
   <g id="patch_86">
    <path d="M 216.308125 321.008 
L 216.308125 206.448 
" style="fill: none; stroke: #000000; stroke-width: 0.8; stroke-linejoin: miter; stroke-linecap: square"/>
   </g>
   <g id="patch_87">
    <path d="M 40.603125 321.008 
L 216.308125 321.008 
" style="fill: none; stroke: #000000; stroke-width: 0.8; stroke-linejoin: miter; stroke-linecap: square"/>
   </g>
   <g id="patch_88">
    <path d="M 40.603125 206.448 
L 216.308125 206.448 
" style="fill: none; stroke: #000000; stroke-width: 0.8; stroke-linejoin: miter; stroke-linecap: square"/>
   </g>
   <g id="text_20">
    <!-- Summer -->
    <g transform="translate(102.996875 200.448) scale(0.12 -0.12)">
     <use xlink:href="#DejaVuSans-53"/>
     <use xlink:href="#DejaVuSans-75" x="63.476562"/>
     <use xlink:href="#DejaVuSans-6d" x="126.855469"/>
     <use xlink:href="#DejaVuSans-6d" x="224.267578"/>
     <use xlink:href="#DejaVuSans-65" x="321.679688"/>
     <use xlink:href="#DejaVuSans-72" x="383.203125"/>
    </g>
   </g>
  </g>
  <g id="axes_4">
   <g id="patch_89">
    <path d="M 270.328125 321.008 
L 446.033125 321.008 
L 446.033125 206.448 
L 270.328125 206.448 
z
" style="fill: #ffffff"/>
   </g>
   <g id="patch_90">
    <path d="M 272.158385 321.008 
L 275.818906 321.008 
L 275.818906 252.772906 
L 272.158385 252.772906 
z
" clip-path="url(#p4eec0d0311)" style="fill: #1f77b4"/>
   </g>
   <g id="patch_91">
    <path d="M 279.479427 321.008 
L 283.139948 321.008 
L 283.139948 251.107185 
L 279.479427 251.107185 
z
" clip-path="url(#p4eec0d0311)" style="fill: #1f77b4"/>
   </g>
   <g id="patch_92">
    <path d="M 286.800469 321.008 
L 290.46099 321.008 
L 290.46099 236.625605 
L 286.800469 236.625605 
z
" clip-path="url(#p4eec0d0311)" style="fill: #1f77b4"/>
   </g>
   <g id="patch_93">
    <path d="M 294.12151 321.008 
L 297.782031 321.008 
L 297.782031 244.07886 
L 294.12151 244.07886 
z
" clip-path="url(#p4eec0d0311)" style="fill: #1f77b4"/>
   </g>
   <g id="patch_94">
    <path d="M 301.442552 321.008 
L 305.103073 321.008 
L 305.103073 241.478294 
L 301.442552 241.478294 
z
" clip-path="url(#p4eec0d0311)" style="fill: #1f77b4"/>
   </g>
   <g id="patch_95">
    <path d="M 308.763594 321.008 
L 312.424115 321.008 
L 312.424115 211.903238 
L 308.763594 211.903238 
z
" clip-path="url(#p4eec0d0311)" style="fill: #1f77b4"/>
   </g>
   <g id="patch_96">
    <path d="M 316.084635 321.008 
L 319.745156 321.008 
L 319.745156 215.693604 
L 316.084635 215.693604 
z
" clip-path="url(#p4eec0d0311)" style="fill: #1f77b4"/>
   </g>
   <g id="patch_97">
    <path d="M 323.405677 321.008 
L 327.066198 321.008 
L 327.066198 241.121354 
L 323.405677 241.121354 
z
" clip-path="url(#p4eec0d0311)" style="fill: #1f77b4"/>
   </g>
   <g id="patch_98">
    <path d="M 330.726719 321.008 
L 334.38724 321.008 
L 334.38724 231.322492 
L 330.726719 231.322492 
z
" clip-path="url(#p4eec0d0311)" style="fill: #1f77b4"/>
   </g>
   <g id="patch_99">
    <path d="M 338.04776 321.008 
L 341.708281 321.008 
L 341.708281 231.424475 
L 338.04776 231.424475 
z
" clip-path="url(#p4eec0d0311)" style="fill: #1f77b4"/>
   </g>
   <g id="patch_100">
    <path d="M 345.368802 321.008 
L 349.029323 321.008 
L 349.029323 220.138362 
L 345.368802 220.138362 
z
" clip-path="url(#p4eec0d0311)" style="fill: #1f77b4"/>
   </g>
   <g id="patch_101">
    <path d="M 352.689844 321.008 
L 356.350365 321.008 
L 356.350365 236.42164 
L 352.689844 236.42164 
z
" clip-path="url(#p4eec0d0311)" style="fill: #1f77b4"/>
   </g>
   <g id="patch_102">
    <path d="M 360.010885 321.008 
L 363.671406 321.008 
L 363.671406 246.178009 
L 360.010885 246.178009 
z
" clip-path="url(#p4eec0d0311)" style="fill: #1f77b4"/>
   </g>
   <g id="patch_103">
    <path d="M 367.331927 321.008 
L 370.992448 321.008 
L 370.992448 243.432968 
L 367.331927 243.432968 
z
" clip-path="url(#p4eec0d0311)" style="fill: #1f77b4"/>
   </g>
   <g id="patch_104">
    <path d="M 374.652969 321.008 
L 378.31349 321.008 
L 378.31349 256.46129 
L 374.652969 256.46129 
z
" clip-path="url(#p4eec0d0311)" style="fill: #1f77b4"/>
   </g>
   <g id="patch_105">
    <path d="M 381.97401 321.008 
L 385.634531 321.008 
L 385.634531 232.58878 
L 381.97401 232.58878 
z
" clip-path="url(#p4eec0d0311)" style="fill: #1f77b4"/>
   </g>
   <g id="patch_106">
    <path d="M 389.295052 321.008 
L 392.955573 321.008 
L 392.955573 228.067536 
L 389.295052 228.067536 
z
" clip-path="url(#p4eec0d0311)" style="fill: #1f77b4"/>
   </g>
   <g id="patch_107">
    <path d="M 396.616094 321.008 
L 400.276615 321.008 
L 400.276615 222.611448 
L 396.616094 222.611448 
z
" clip-path="url(#p4eec0d0311)" style="fill: #1f77b4"/>
   </g>
   <g id="patch_108">
    <path d="M 403.937135 321.008 
L 407.597656 321.008 
L 407.597656 226.274336 
L 403.937135 226.274336 
z
" clip-path="url(#p4eec0d0311)" style="fill: #1f77b4"/>
   </g>
   <g id="patch_109">
    <path d="M 411.258177 321.008 
L 414.918698 321.008 
L 414.918698 227.906063 
L 411.258177 227.906063 
z
" clip-path="url(#p4eec0d0311)" style="fill: #1f77b4"/>
   </g>
   <g id="patch_110">
    <path d="M 418.579219 321.008 
L 422.23974 321.008 
L 422.23974 238.86923 
L 418.579219 238.86923 
z
" clip-path="url(#p4eec0d0311)" style="fill: #1f77b4"/>
   </g>
   <g id="patch_111">
    <path d="M 425.90026 321.008 
L 429.560781 321.008 
L 429.560781 262.189332 
L 425.90026 262.189332 
z
" clip-path="url(#p4eec0d0311)" style="fill: #1f77b4"/>
   </g>
   <g id="patch_112">
    <path d="M 433.221302 321.008 
L 436.881823 321.008 
L 436.881823 250.189338 
L 433.221302 250.189338 
z
" clip-path="url(#p4eec0d0311)" style="fill: #1f77b4"/>
   </g>
   <g id="patch_113">
    <path d="M 440.542344 321.008 
L 444.202865 321.008 
L 444.202865 225.942891 
L 440.542344 225.942891 
z
" clip-path="url(#p4eec0d0311)" style="fill: #1f77b4"/>
   </g>
   <g id="matplotlib.axis_7">
    <g id="text_21">
     <!-- Time of Day -->
     <g transform="translate(328.075937 332.606438) scale(0.1 -0.1)">
      <use xlink:href="#DejaVuSans-54"/>
      <use xlink:href="#DejaVuSans-69" x="57.958984"/>
      <use xlink:href="#DejaVuSans-6d" x="85.742188"/>
      <use xlink:href="#DejaVuSans-65" x="183.154297"/>
      <use xlink:href="#DejaVuSans-20" x="244.677734"/>
      <use xlink:href="#DejaVuSans-6f" x="276.464844"/>
      <use xlink:href="#DejaVuSans-66" x="337.646484"/>
      <use xlink:href="#DejaVuSans-20" x="372.851562"/>
      <use xlink:href="#DejaVuSans-44" x="404.638672"/>
      <use xlink:href="#DejaVuSans-61" x="481.640625"/>
      <use xlink:href="#DejaVuSans-79" x="542.919922"/>
     </g>
    </g>
   </g>
   <g id="matplotlib.axis_8">
    <g id="ytick_12">
     <g id="line2d_12">
      <g>
       <use xlink:href="#ma38c50269e" x="270.328125" y="321.008" style="stroke: #000000; stroke-width: 0.8"/>
      </g>
     </g>
     <g id="text_22">
      <!-- 0 -->
      <g transform="translate(256.965625 324.807219) scale(0.1 -0.1)">
       <use xlink:href="#DejaVuSans-30"/>
      </g>
     </g>
    </g>
    <g id="ytick_13">
     <g id="line2d_13">
      <g>
       <use xlink:href="#ma38c50269e" x="270.328125" y="278.515103" style="stroke: #000000; stroke-width: 0.8"/>
      </g>
     </g>
     <g id="text_23">
      <!-- 5 -->
      <g transform="translate(256.965625 282.314322) scale(0.1 -0.1)">
       <defs>
        <path id="DejaVuSans-35" d="M 691 4666 
L 3169 4666 
L 3169 4134 
L 1269 4134 
L 1269 2991 
Q 1406 3038 1543 3061 
Q 1681 3084 1819 3084 
Q 2600 3084 3056 2656 
Q 3513 2228 3513 1497 
Q 3513 744 3044 326 
Q 2575 -91 1722 -91 
Q 1428 -91 1123 -41 
Q 819 9 494 109 
L 494 744 
Q 775 591 1075 516 
Q 1375 441 1709 441 
Q 2250 441 2565 725 
Q 2881 1009 2881 1497 
Q 2881 1984 2565 2268 
Q 2250 2553 1709 2553 
Q 1456 2553 1204 2497 
Q 953 2441 691 2322 
L 691 4666 
z
" transform="scale(0.015625)"/>
       </defs>
       <use xlink:href="#DejaVuSans-35"/>
      </g>
     </g>
    </g>
    <g id="ytick_14">
     <g id="line2d_14">
      <g>
       <use xlink:href="#ma38c50269e" x="270.328125" y="236.022206" style="stroke: #000000; stroke-width: 0.8"/>
      </g>
     </g>
     <g id="text_24">
      <!-- 10 -->
      <g transform="translate(250.603125 239.821425) scale(0.1 -0.1)">
       <use xlink:href="#DejaVuSans-31"/>
       <use xlink:href="#DejaVuSans-30" x="63.623047"/>
      </g>
     </g>
    </g>
    <g id="text_25">
     <!-- Natural Gas Usage (kWh) -->
     <g transform="translate(244.523437 326.968625) rotate(-90) scale(0.1 -0.1)">
      <use xlink:href="#DejaVuSans-4e"/>
      <use xlink:href="#DejaVuSans-61" x="74.804688"/>
      <use xlink:href="#DejaVuSans-74" x="136.083984"/>
      <use xlink:href="#DejaVuSans-75" x="175.292969"/>
      <use xlink:href="#DejaVuSans-72" x="238.671875"/>
      <use xlink:href="#DejaVuSans-61" x="279.785156"/>
      <use xlink:href="#DejaVuSans-6c" x="341.064453"/>
      <use xlink:href="#DejaVuSans-20" x="368.847656"/>
      <use xlink:href="#DejaVuSans-47" x="400.634766"/>
      <use xlink:href="#DejaVuSans-61" x="478.125"/>
      <use xlink:href="#DejaVuSans-73" x="539.404297"/>
      <use xlink:href="#DejaVuSans-20" x="591.503906"/>
      <use xlink:href="#DejaVuSans-55" x="623.291016"/>
      <use xlink:href="#DejaVuSans-73" x="696.484375"/>
      <use xlink:href="#DejaVuSans-61" x="748.583984"/>
      <use xlink:href="#DejaVuSans-67" x="809.863281"/>
      <use xlink:href="#DejaVuSans-65" x="873.339844"/>
      <use xlink:href="#DejaVuSans-20" x="934.863281"/>
      <use xlink:href="#DejaVuSans-28" x="966.650391"/>
      <use xlink:href="#DejaVuSans-6b" x="1005.664062"/>
      <use xlink:href="#DejaVuSans-57" x="1063.574219"/>
      <use xlink:href="#DejaVuSans-68" x="1162.451172"/>
      <use xlink:href="#DejaVuSans-29" x="1225.830078"/>
     </g>
    </g>
   </g>
   <g id="patch_114">
    <path d="M 270.328125 321.008 
L 270.328125 206.448 
" style="fill: none; stroke: #000000; stroke-width: 0.8; stroke-linejoin: miter; stroke-linecap: square"/>
   </g>
   <g id="patch_115">
    <path d="M 446.033125 321.008 
L 446.033125 206.448 
" style="fill: none; stroke: #000000; stroke-width: 0.8; stroke-linejoin: miter; stroke-linecap: square"/>
   </g>
   <g id="patch_116">
    <path d="M 270.328125 321.008 
L 446.033125 321.008 
" style="fill: none; stroke: #000000; stroke-width: 0.8; stroke-linejoin: miter; stroke-linecap: square"/>
   </g>
   <g id="patch_117">
    <path d="M 270.328125 206.448 
L 446.033125 206.448 
" style="fill: none; stroke: #000000; stroke-width: 0.8; stroke-linejoin: miter; stroke-linecap: square"/>
   </g>
   <g id="text_26">
    <!-- Fall -->
    <g transform="translate(348.266562 200.448) scale(0.12 -0.12)">
     <defs>
      <path id="DejaVuSans-46" d="M 628 4666 
L 3309 4666 
L 3309 4134 
L 1259 4134 
L 1259 2759 
L 3109 2759 
L 3109 2228 
L 1259 2228 
L 1259 0 
L 628 0 
L 628 4666 
z
" transform="scale(0.015625)"/>
     </defs>
     <use xlink:href="#DejaVuSans-46"/>
     <use xlink:href="#DejaVuSans-61" x="48.394531"/>
     <use xlink:href="#DejaVuSans-6c" x="109.673828"/>
     <use xlink:href="#DejaVuSans-6c" x="137.457031"/>
    </g>
   </g>
  </g>
  <g id="text_27">
   <!-- Unit in a SFA unit building -->
   <g transform="translate(149.065938 16.318125) scale(0.12 -0.12)">
    <defs>
     <path id="DejaVuSans-41" d="M 2188 4044 
L 1331 1722 
L 3047 1722 
L 2188 4044 
z
M 1831 4666 
L 2547 4666 
L 4325 0 
L 3669 0 
L 3244 1197 
L 1141 1197 
L 716 0 
L 50 0 
L 1831 4666 
z
" transform="scale(0.015625)"/>
     <path id="DejaVuSans-62" d="M 3116 1747 
Q 3116 2381 2855 2742 
Q 2594 3103 2138 3103 
Q 1681 3103 1420 2742 
Q 1159 2381 1159 1747 
Q 1159 1113 1420 752 
Q 1681 391 2138 391 
Q 2594 391 2855 752 
Q 3116 1113 3116 1747 
z
M 1159 2969 
Q 1341 3281 1617 3432 
Q 1894 3584 2278 3584 
Q 2916 3584 3314 3078 
Q 3713 2572 3713 1747 
Q 3713 922 3314 415 
Q 2916 -91 2278 -91 
Q 1894 -91 1617 61 
Q 1341 213 1159 525 
L 1159 0 
L 581 0 
L 581 4863 
L 1159 4863 
L 1159 2969 
z
" transform="scale(0.015625)"/>
     <path id="DejaVuSans-64" d="M 2906 2969 
L 2906 4863 
L 3481 4863 
L 3481 0 
L 2906 0 
L 2906 525 
Q 2725 213 2448 61 
Q 2172 -91 1784 -91 
Q 1150 -91 751 415 
Q 353 922 353 1747 
Q 353 2572 751 3078 
Q 1150 3584 1784 3584 
Q 2172 3584 2448 3432 
Q 2725 3281 2906 2969 
z
M 947 1747 
Q 947 1113 1208 752 
Q 1469 391 1925 391 
Q 2381 391 2643 752 
Q 2906 1113 2906 1747 
Q 2906 2381 2643 2742 
Q 2381 3103 1925 3103 
Q 1469 3103 1208 2742 
Q 947 2381 947 1747 
z
" transform="scale(0.015625)"/>
    </defs>
    <use xlink:href="#DejaVuSans-55"/>
    <use xlink:href="#DejaVuSans-6e" x="73.193359"/>
    <use xlink:href="#DejaVuSans-69" x="136.572266"/>
    <use xlink:href="#DejaVuSans-74" x="164.355469"/>
    <use xlink:href="#DejaVuSans-20" x="203.564453"/>
    <use xlink:href="#DejaVuSans-69" x="235.351562"/>
    <use xlink:href="#DejaVuSans-6e" x="263.134766"/>
    <use xlink:href="#DejaVuSans-20" x="326.513672"/>
    <use xlink:href="#DejaVuSans-61" x="358.300781"/>
    <use xlink:href="#DejaVuSans-20" x="419.580078"/>
    <use xlink:href="#DejaVuSans-53" x="451.367188"/>
    <use xlink:href="#DejaVuSans-46" x="514.84375"/>
    <use xlink:href="#DejaVuSans-41" x="563.238281"/>
    <use xlink:href="#DejaVuSans-20" x="631.646484"/>
    <use xlink:href="#DejaVuSans-75" x="663.433594"/>
    <use xlink:href="#DejaVuSans-6e" x="726.8125"/>
    <use xlink:href="#DejaVuSans-69" x="790.191406"/>
    <use xlink:href="#DejaVuSans-74" x="817.974609"/>
    <use xlink:href="#DejaVuSans-20" x="857.183594"/>
    <use xlink:href="#DejaVuSans-62" x="888.970703"/>
    <use xlink:href="#DejaVuSans-75" x="952.447266"/>
    <use xlink:href="#DejaVuSans-69" x="1015.826172"/>
    <use xlink:href="#DejaVuSans-6c" x="1043.609375"/>
    <use xlink:href="#DejaVuSans-64" x="1071.392578"/>
    <use xlink:href="#DejaVuSans-69" x="1134.869141"/>
    <use xlink:href="#DejaVuSans-6e" x="1162.652344"/>
    <use xlink:href="#DejaVuSans-67" x="1226.03125"/>
   </g>
  </g>
  <g id="legend_1">
   <g id="patch_118">
    <path d="M 141.470625 368.566125 
L 311.395625 368.566125 
Q 313.395625 368.566125 313.395625 366.566125 
L 313.395625 352.888 
Q 313.395625 350.888 311.395625 350.888 
L 141.470625 350.888 
Q 139.470625 350.888 139.470625 352.888 
L 139.470625 366.566125 
Q 139.470625 368.566125 141.470625 368.566125 
z
" style="fill: #ffffff; opacity: 0.8; stroke: #cccccc; stroke-linejoin: miter"/>
   </g>
   <g id="patch_119">
    <path d="M 143.470625 362.486437 
L 163.470625 362.486437 
L 163.470625 355.486437 
L 143.470625 355.486437 
z
" style="fill: #1f77b4"/>
   </g>
   <g id="text_28">
    <!-- Fuel Use: Natural Gas: Total -->
    <g transform="translate(171.470625 362.486437) scale(0.1 -0.1)">
     <defs>
      <path id="DejaVuSans-3a" d="M 750 794 
L 1409 794 
L 1409 0 
L 750 0 
L 750 794 
z
M 750 3309 
L 1409 3309 
L 1409 2516 
L 750 2516 
L 750 3309 
z
" transform="scale(0.015625)"/>
     </defs>
     <use xlink:href="#DejaVuSans-46"/>
     <use xlink:href="#DejaVuSans-75" x="52.019531"/>
     <use xlink:href="#DejaVuSans-65" x="115.398438"/>
     <use xlink:href="#DejaVuSans-6c" x="176.921875"/>
     <use xlink:href="#DejaVuSans-20" x="204.705078"/>
     <use xlink:href="#DejaVuSans-55" x="236.492188"/>
     <use xlink:href="#DejaVuSans-73" x="309.685547"/>
     <use xlink:href="#DejaVuSans-65" x="361.785156"/>
     <use xlink:href="#DejaVuSans-3a" x="423.308594"/>
     <use xlink:href="#DejaVuSans-20" x="457"/>
     <use xlink:href="#DejaVuSans-4e" x="488.787109"/>
     <use xlink:href="#DejaVuSans-61" x="563.591797"/>
     <use xlink:href="#DejaVuSans-74" x="624.871094"/>
     <use xlink:href="#DejaVuSans-75" x="664.080078"/>
     <use xlink:href="#DejaVuSans-72" x="727.458984"/>
     <use xlink:href="#DejaVuSans-61" x="768.572266"/>
     <use xlink:href="#DejaVuSans-6c" x="829.851562"/>
     <use xlink:href="#DejaVuSans-20" x="857.634766"/>
     <use xlink:href="#DejaVuSans-47" x="889.421875"/>
     <use xlink:href="#DejaVuSans-61" x="966.912109"/>
     <use xlink:href="#DejaVuSans-73" x="1028.191406"/>
     <use xlink:href="#DejaVuSans-3a" x="1080.291016"/>
     <use xlink:href="#DejaVuSans-20" x="1113.982422"/>
     <use xlink:href="#DejaVuSans-54" x="1145.769531"/>
     <use xlink:href="#DejaVuSans-6f" x="1189.853516"/>
     <use xlink:href="#DejaVuSans-74" x="1251.035156"/>
     <use xlink:href="#DejaVuSans-61" x="1290.244141"/>
     <use xlink:href="#DejaVuSans-6c" x="1351.523438"/>
    </g>
   </g>
  </g>
 </g>
 <defs>
  <clipPath id="p958533f88b">
   <rect x="40.603125" y="50.928" width="175.705" height="114.56"/>
  </clipPath>
  <clipPath id="p27bf679a8d">
   <rect x="270.328125" y="50.928" width="175.705" height="114.56"/>
  </clipPath>
  <clipPath id="pacd3e0b18d">
   <rect x="40.603125" y="206.448" width="175.705" height="114.56"/>
  </clipPath>
  <clipPath id="p4eec0d0311">
   <rect x="270.328125" y="206.448" width="175.705" height="114.56"/>
  </clipPath>
 </defs>
</svg>
